<svg id="ateam" xmlns="http://www.w3.org/2000/svg" xmlns:xlink="http://www.w3.org/1999/xlink" viewBox="0 0 103.805 102.899">
  <defs>
    <style>
      .cls-1 {
        fill: #fcfcfc;
      }

      .cls-16, .cls-2, .cls-25, .cls-27, .cls-34, .cls-35 {
        fill: none;
      }

      .cls-2, .cls-25, .cls-34 {
        stroke: #707070;
      }

      .cls-16, .cls-2 {
        stroke-linecap: round;
      }

      .cls-16, .cls-19, .cls-2, .cls-25, .cls-27, .cls-33, .cls-34 {
        stroke-miterlimit: 10;
      }

      .cls-2 {
        stroke-width: 3.138px;
      }

      .cls-3 {
        fill: url(#linear-gradient);
      }

      .cls-4, .cls-5 {
        opacity: 0.16;
      }

      .cls-4 {
        fill: url(#linear-gradient-2);
      }

      .cls-5 {
        fill: url(#linear-gradient-3);
      }

      .cls-6 {
        fill: #c2c7da;
      }

      .cls-7 {
        fill: url(#linear-gradient-4);
      }

      .cls-8 {
        fill: url(#linear-gradient-5);
      }

      .cls-9 {
        fill: url(#linear-gradient-6);
      }

      .cls-10 {
        opacity: 0.15;
      }

      .cls-11 {
        fill: url(#linear-gradient-7);
      }

      .cls-12 {
        fill: url(#linear-gradient-8);
      }

      .cls-13 {
        fill: #fff;
        opacity: 0.04;
      }

      .cls-14 {
        fill: url(#linear-gradient-9);
      }

      .cls-15 {
        opacity: 0.12;
      }

      .cls-16, .cls-19 {
        stroke: #fff;
      }

      .cls-16 {
        stroke-width: 1.569px;
      }

      .cls-17 {
        clip-path: url(#clip-path);
      }

      .cls-18 {
        fill: url(#linear-gradient-10);
      }

      .cls-19, .cls-25, .cls-27 {
        stroke-width: 0.209px;
      }

      .cls-19 {
        opacity: 0.09;
        fill: url(#linear-gradient-11);
      }

      .cls-20 {
        fill: url(#linear-gradient-12);
      }

      .cls-21 {
        fill: url(#linear-gradient-13);
      }

      .cls-22 {
        opacity: 0.13;
      }

      .cls-23 {
        fill: url(#linear-gradient-14);
      }

      .cls-24 {
        fill: #2d2d2d;
      }

      .cls-26 {
        opacity: 0.85;
      }

      .cls-27 {
        stroke: #000;
      }

      .cls-28 {
        fill: url(#radial-gradient);
      }

      .cls-29 {
        opacity: 0.64;
      }

      .cls-30 {
        opacity: 0.31;
      }

      .cls-31 {
        fill: #3e4150;
      }

      .cls-32 {
        opacity: 0.38;
      }

      .cls-33 {
        fill: #e3e2e2;
        stroke: #262626;
        stroke-width: 1.201px;
      }

      .cls-34 {
        stroke-width: 2.401px;
      }

      .cls-36 {
        fill: url(#linear-gradient-15);
      }

      .cls-37 {
        opacity: 0.18;
      }

      .cls-38 {
        fill: url(#linear-gradient-16);
      }

      .cls-39 {
        fill: url(#radial-gradient-2);
      }

      .cls-40 {
        fill: url(#linear-gradient-17);
      }
    </style>
    <linearGradient id="linear-gradient" y1="0.503" x2="1" y2="0.503" gradientUnits="objectBoundingBox">
      <stop offset="0" stop-color="#3d113c"/>
      <stop offset="1" stop-color="#4d3933"/>
    </linearGradient>
    <linearGradient id="linear-gradient-2" x1="0.5" y1="0.825" x2="0.5" y2="0.189" gradientUnits="objectBoundingBox">
      <stop offset="0" stop-color="#fff"/>
      <stop offset="1" stop-color="#d6d6d6" stop-opacity="0"/>
    </linearGradient>
    <linearGradient id="linear-gradient-3" x1="-Infinity" y1="Infinity" x2="-Infinity" y2="Infinity" xlink:href="#linear-gradient-2"/>
    <linearGradient id="linear-gradient-4" x1="0.957" y1="1.36" x2="0.095" y2="0.02" gradientUnits="objectBoundingBox">
      <stop offset="0.003" stop-color="#3d113c" stop-opacity="0.502"/>
      <stop offset="1" stop-color="#fff" stop-opacity="0.2"/>
    </linearGradient>
    <linearGradient id="linear-gradient-5" x1="0.809" y1="0.667" x2="-0.186" y2="0.324" gradientUnits="objectBoundingBox">
      <stop offset="0" stop-color="#bf0269"/>
      <stop offset="1" stop-color="#fc6719"/>
    </linearGradient>
    <linearGradient id="linear-gradient-6" x1="0" y1="0.501" x2="1" y2="0.501" xlink:href="#linear-gradient"/>
    <linearGradient id="linear-gradient-7" x1="0" y1="0.5" x2="1" y2="0.5" xlink:href="#linear-gradient"/>
    <linearGradient id="linear-gradient-8" x1="0" y1="0.499" x2="1" y2="0.499" xlink:href="#linear-gradient"/>
    <linearGradient id="linear-gradient-9" x1="0.009" y1="0.5" x2="0.933" y2="0.5" xlink:href="#linear-gradient"/>
    <clipPath id="clip-path">
      <path id="Tracé_30230" data-name="Tracé 30230" d="M98.663,104.957a3.517,3.517,0,0,0-1.955-2.435l-6.929-3.327a7.277,7.277,0,0,1-1.852-1.235l-.789-.686H81.753L70.091,84H22.483l-13.651.137a2.861,2.861,0,0,0-2.744,2.092l-4.082,14.3a13.385,13.385,0,0,0-.514,4.047v.274" transform="translate(-1.487 -84)"/>
    </clipPath>
    <linearGradient id="linear-gradient-10" x1="0" y1="0.5" x2="1" y2="0.5" xlink:href="#linear-gradient-5"/>
    <linearGradient id="linear-gradient-11" x1="0.5" y1="Infinity" x2="0.5" y2="Infinity" xlink:href="#linear-gradient-2"/>
    <linearGradient id="linear-gradient-12" x1="0.501" y1="1.472" x2="0.501" y2="0.029" xlink:href="#linear-gradient-4"/>
    <linearGradient id="linear-gradient-13" x1="1.499" y1="0.434" x2="-0.096" y2="0.522" gradientUnits="objectBoundingBox">
      <stop offset="0.003" stop-color="#fdff00"/>
      <stop offset="1" stop-color="#f8992a"/>
    </linearGradient>
    <linearGradient id="linear-gradient-14" x1="0.5" y1="0.988" x2="0.5" y2="0.094" gradientUnits="objectBoundingBox">
      <stop offset="0" stop-color="#3d113c" stop-opacity="0"/>
      <stop offset="1" stop-color="#fff"/>
    </linearGradient>
    <radialGradient id="radial-gradient" cx="9.423" cy="9.425" r="9.447" gradientUnits="userSpaceOnUse">
      <stop offset="0" stop-color="#3e4150"/>
      <stop offset="1" stop-color="#55596e"/>
    </radialGradient>
    <linearGradient id="linear-gradient-15" x1="0.488" y1="0.02" x2="0.504" y2="1.015" gradientUnits="objectBoundingBox">
      <stop offset="0" stop-color="#fff"/>
      <stop offset="1" stop-color="#d6d6d6"/>
    </linearGradient>
    <linearGradient id="linear-gradient-16" x1="0.5" y1="0.988" x2="0.5" y2="0.094" xlink:href="#linear-gradient-14"/>
    <radialGradient id="radial-gradient-2" cx="9.432" cy="9.425" r="9.447" xlink:href="#radial-gradient"/>
    <linearGradient id="linear-gradient-17" x1="0.492" y1="0.02" x2="0.508" y2="1.015" xlink:href="#linear-gradient-15"/>
  </defs>
  <rect id="Rectangle_909" data-name="Rectangle 909" class="cls-1" width="102.899" height="102.899"/>
  <g id="Groupe_1570" data-name="Groupe 1570" transform="translate(0.51 25.996)">
    <g id="Groupe_1567" data-name="Groupe 1567">
      <path id="Tracé_30216" data-name="Tracé 30216" class="cls-2" d="M292.3,143.1l1.955,9.673-1.063,7.477" transform="translate(-192.552 -120.013)"/>
      <line id="Ligne_228" data-name="Ligne 228" class="cls-2" x2="3.19" transform="translate(97.793 29.879)"/>
      <line id="Ligne_229" data-name="Ligne 229" class="cls-2" x2="3.19" transform="translate(97.793 32.76)"/>
      <path id="Tracé_30217" data-name="Tracé 30217" class="cls-3" d="M15.5,193.709l1.338,2.332H104.2l1.955-2.641" transform="translate(-10.694 -153.06)"/>
      <path id="Tracé_30218" data-name="Tracé 30218" class="cls-4" d="M15.5,193.709l1.338,2.332H104.2l1.955-2.641" transform="translate(-10.694 -153.06)"/>
      <path id="Tracé_30219" data-name="Tracé 30219" class="cls-5" d="M96.7,194.3" transform="translate(-64.042 -153.651)"/>
      <path id="Tracé_30220" data-name="Tracé 30220" class="cls-6" d="M211.479,91.5l11.147,10.8-5.282.926-9.192-6.483L207.5,92.6Z" transform="translate(-136.838 -86.111)"/>
      <path id="Tracé_30221" data-name="Tracé 30221" class="cls-7" d="M211.479,91.5l11.147,10.8-5.282.926-9.192-6.483L207.5,92.6Z" transform="translate(-136.838 -86.111)"/>
      <path id="Tracé_30222" data-name="Tracé 30222" class="cls-8" d="M23.8,78.743l.857-2.3A.659.659,0,0,1,25.275,76l3.739-.206a1.349,1.349,0,0,1,1.2.549l1.818,2.4Z" transform="translate(-16.147 -75.789)"/>
      <path id="Tracé_30223" data-name="Tracé 30223" class="cls-9" d="M6.122,86.129,2.006,100.467a13.385,13.385,0,0,0-.514,4.047l.343,16.533a.718.718,0,0,0,.72.686H99.212a.711.711,0,0,0,.72-.617l.686-5.934a7.627,7.627,0,0,0-.1-2.161L98.7,104.857a3.517,3.517,0,0,0-1.955-2.435l-6.929-3.327a7.277,7.277,0,0,1-1.852-1.235l-.789-.686H81.788L70.126,83.9H22.483l-13.651.137A2.861,2.861,0,0,0,6.122,86.129Z" transform="translate(-1.487 -81.118)"/>
      <path id="Tracé_30224" data-name="Tracé 30224" class="cls-10" d="M6.122,86.129,2.006,100.467a13.385,13.385,0,0,0-.514,4.047l.343,16.533a.718.718,0,0,0,.72.686H99.212a.711.711,0,0,0,.72-.617l.686-5.934a7.627,7.627,0,0,0-.1-2.161L98.7,104.857a3.517,3.517,0,0,0-1.955-2.435l-6.929-3.327a7.277,7.277,0,0,1-1.852-1.235l-.789-.686H81.788L70.126,83.9H22.483l-13.651.137A2.861,2.861,0,0,0,6.122,86.129Z" transform="translate(-1.487 -81.118)"/>
      <path id="Tracé_30225" data-name="Tracé 30225" class="cls-11" d="M98.663,104.957a3.517,3.517,0,0,0-1.955-2.435l-6.929-3.327a7.277,7.277,0,0,1-1.852-1.235l-.789-.686H81.753L70.091,84H22.483l-13.651.137a2.861,2.861,0,0,0-2.744,2.092l-4.082,14.3a13.385,13.385,0,0,0-.514,4.047v.274" transform="translate(-1.487 -81.184)"/>
      <path id="Tracé_30226" data-name="Tracé 30226" class="cls-12" d="M49.5,84.034,54.028,84H101.67l11.662,13.274h5.385l.789.686a8.716,8.716,0,0,0,1.852,1.235l6.929,3.327-.309,1.063-41.263-.514L49.5,86.675Z" transform="translate(-33.032 -81.184)"/>
      <path id="Tracé_30227" data-name="Tracé 30227" class="cls-13" d="M49.5,84.034,54.028,84H101.67l11.662,13.274h5.385l.789.686a8.716,8.716,0,0,0,1.852,1.235l6.929,3.327-.309,1.063-41.263-.514L49.5,86.675Z" transform="translate(-33.032 -81.184)"/>
      <path id="Tracé_30228" data-name="Tracé 30228" class="cls-14" d="M201.6,83.12s6.654-1.3,8.438.48l-4.528,3.944Z" transform="translate(-132.962 -80.304)"/>
      <g id="Groupe_1526" data-name="Groupe 1526" class="cls-15" transform="translate(53.958 4.668)">
        <line id="Ligne_230" data-name="Ligne 230" class="cls-16" y2="32.894"/>
      </g>
      <g id="Groupe_1528" data-name="Groupe 1528" transform="translate(0 2.816)">
        <g id="Groupe_1527" data-name="Groupe 1527" class="cls-17">
          <path id="Tracé_30229" data-name="Tracé 30229" class="cls-18" d="M12.5,73.429,62.784,91.814H105.9V90.2H63.127L24.882,70.342,15.553,65.3Z" transform="translate(-8.723 -71.714)"/>
        </g>
      </g>
      <line id="Ligne_231" data-name="Ligne 231" class="cls-19" x2="62.563" transform="translate(32.658 40.649)"/>
      <path id="Tracé_30231" data-name="Tracé 30231" class="cls-6" d="M175.229,101.459h13.034a1.426,1.426,0,0,0,1.132-2.3l-6.517-8.438a2.18,2.18,0,0,0-1.715-.823h-6.723A1.449,1.449,0,0,0,173,91.341l.034,8.026A2.192,2.192,0,0,0,175.229,101.459Z" transform="translate(-114.172 -85.06)"/>
      <path id="Tracé_30232" data-name="Tracé 30232" class="cls-20" d="M175.229,101.459h13.034a1.426,1.426,0,0,0,1.132-2.3l-6.517-8.438a2.18,2.18,0,0,0-1.715-.823h-6.723A1.449,1.449,0,0,0,173,91.341l.034,8.026A2.192,2.192,0,0,0,175.229,101.459Z" transform="translate(-114.172 -85.06)"/>
      <path id="Tracé_30233" data-name="Tracé 30233" class="cls-21" d="M272.318,154.252h-2.092a.922.922,0,0,1-.926-.926h0a.922.922,0,0,1,.926-.926h2.092a.922.922,0,0,1,.926.926h0A.9.9,0,0,1,272.318,154.252Z" transform="translate(-177.441 -126.123)"/>
      <g id="Groupe_1547" data-name="Groupe 1547" transform="translate(68.947 28.473)">
        <g id="Groupe_1529" data-name="Groupe 1529" class="cls-22">
          <path id="Tracé_30234" data-name="Tracé 30234" class="cls-23" d="M202.569,173.412c-.034-.446-.069-.892-.069-1.338a13.274,13.274,0,1,1,26.548,0c0,.446-.034.892-.069,1.338" transform="translate(-202.5 -158.8)"/>
        </g>
        <g id="Groupe_1532" data-name="Groupe 1532" transform="translate(2.95 1.749)">
          <g id="Groupe_1530" data-name="Groupe 1530">
            <path id="Tracé_30235" data-name="Tracé 30235" class="cls-24" d="M211.134,174.156a10.256,10.256,0,0,1,20.511,0v2.5H211.1v-2.5Z" transform="translate(-211.1 -163.9)"/>
            <path id="Tracé_30236" data-name="Tracé 30236" class="cls-25" d="M211.134,174.156a10.256,10.256,0,0,1,20.511,0v2.5H211.1v-2.5Z" transform="translate(-211.1 -163.9)"/>
          </g>
          <g id="Groupe_1531" data-name="Groupe 1531" class="cls-26">
            <path id="Tracé_30237" data-name="Tracé 30237" d="M211.134,174.156a10.256,10.256,0,0,1,20.511,0v2.5H211.1v-2.5Z" transform="translate(-211.1 -163.9)"/>
            <path id="Tracé_30238" data-name="Tracé 30238" class="cls-27" d="M211.134,174.156a10.256,10.256,0,0,1,20.511,0v2.5H211.1v-2.5Z" transform="translate(-211.1 -163.9)"/>
          </g>
        </g>
        <g id="Groupe_1535" data-name="Groupe 1535" transform="translate(3.842 2.813)">
          <g id="Groupe_1533" data-name="Groupe 1533">
            <circle id="Ellipse_340" data-name="Ellipse 340" class="cls-28" cx="9.432" cy="9.432" r="9.432"/>
          </g>
          <g id="Groupe_1534" data-name="Groupe 1534" class="cls-29">
            <circle id="Ellipse_341" data-name="Ellipse 341" cx="9.432" cy="9.432" r="9.432"/>
          </g>
        </g>
        <g id="Groupe_1538" data-name="Groupe 1538" class="cls-30" transform="translate(3.842 2.813)">
          <g id="Groupe_1536" data-name="Groupe 1536">
            <circle id="Ellipse_342" data-name="Ellipse 342" class="cls-25" cx="9.432" cy="9.432" r="9.432"/>
          </g>
          <g id="Groupe_1537" data-name="Groupe 1537" class="cls-29">
            <circle id="Ellipse_343" data-name="Ellipse 343" class="cls-27" cx="9.432" cy="9.432" r="9.432"/>
          </g>
        </g>
        <g id="Groupe_1541" data-name="Groupe 1541" transform="translate(7.786 6.757)">
          <g id="Groupe_1539" data-name="Groupe 1539">
            <circle id="Ellipse_344" data-name="Ellipse 344" class="cls-31" cx="5.488" cy="5.488" r="5.488"/>
          </g>
          <g id="Groupe_1540" data-name="Groupe 1540" class="cls-32">
            <circle id="Ellipse_345" data-name="Ellipse 345" cx="5.488" cy="5.488" r="5.488"/>
          </g>
        </g>
        <g id="Groupe_1542" data-name="Groupe 1542" transform="translate(7.786 6.757)">
          <line id="Ligne_232" data-name="Ligne 232" class="cls-33" y2="4.699" transform="translate(5.488)"/>
          <line id="Ligne_233" data-name="Ligne 233" class="cls-33" x2="1.235" y2="4.493" transform="translate(4.047 0.206)"/>
          <line id="Ligne_234" data-name="Ligne 234" class="cls-33" x2="2.332" y2="4.047" transform="translate(2.744 0.755)"/>
          <line id="Ligne_235" data-name="Ligne 235" class="cls-33" x2="3.293" y2="3.293" transform="translate(1.612 1.612)"/>
          <line id="Ligne_236" data-name="Ligne 236" class="cls-33" x2="4.082" y2="2.332" transform="translate(0.72 2.744)"/>
          <line id="Ligne_237" data-name="Ligne 237" class="cls-33" x2="4.493" y2="1.235" transform="translate(0.206 4.047)"/>
          <line id="Ligne_238" data-name="Ligne 238" class="cls-33" x2="4.665" transform="translate(0 5.488)"/>
          <line id="Ligne_239" data-name="Ligne 239" class="cls-33" y1="1.2" x2="4.493" transform="translate(0.206 5.694)"/>
          <line id="Ligne_240" data-name="Ligne 240" class="cls-33" y1="2.367" x2="4.082" transform="translate(0.72 5.865)"/>
          <line id="Ligne_241" data-name="Ligne 241" class="cls-33" y1="3.327" x2="3.293" transform="translate(1.612 6.037)"/>
          <line id="Ligne_242" data-name="Ligne 242" class="cls-33" y1="4.047" x2="2.332" transform="translate(2.744 6.174)"/>
          <line id="Ligne_243" data-name="Ligne 243" class="cls-33" y1="4.528" x2="1.235" transform="translate(4.047 6.243)"/>
          <line id="Ligne_244" data-name="Ligne 244" class="cls-33" y1="4.665" transform="translate(5.488 6.277)"/>
          <line id="Ligne_245" data-name="Ligne 245" class="cls-33" x1="1.2" y1="4.528" transform="translate(5.694 6.243)"/>
          <line id="Ligne_246" data-name="Ligne 246" class="cls-33" x1="2.367" y1="4.047" transform="translate(5.865 6.174)"/>
          <line id="Ligne_247" data-name="Ligne 247" class="cls-33" x1="3.327" y1="3.327" transform="translate(6.037 6.037)"/>
          <line id="Ligne_248" data-name="Ligne 248" class="cls-33" x1="4.047" y1="2.367" transform="translate(6.174 5.865)"/>
          <line id="Ligne_249" data-name="Ligne 249" class="cls-33" x1="4.528" y1="1.2" transform="translate(6.243 5.694)"/>
          <line id="Ligne_250" data-name="Ligne 250" class="cls-33" x1="4.665" transform="translate(6.277 5.488)"/>
          <line id="Ligne_251" data-name="Ligne 251" class="cls-33" x1="4.528" y2="1.235" transform="translate(6.243 4.047)"/>
          <line id="Ligne_252" data-name="Ligne 252" class="cls-33" x1="4.047" y2="2.332" transform="translate(6.174 2.744)"/>
          <line id="Ligne_253" data-name="Ligne 253" class="cls-33" x1="3.327" y2="3.293" transform="translate(6.037 1.612)"/>
          <line id="Ligne_254" data-name="Ligne 254" class="cls-33" x1="2.367" y2="4.047" transform="translate(5.865 0.755)"/>
          <line id="Ligne_255" data-name="Ligne 255" class="cls-33" x1="1.2" y2="4.493" transform="translate(5.694 0.206)"/>
        </g>
        <circle id="Ellipse_346" data-name="Ellipse 346" class="cls-34" cx="5.488" cy="5.488" r="5.488" transform="translate(7.786 6.757)"/>
        <g id="Groupe_1544" data-name="Groupe 1544" transform="translate(7.197 6.193)">
          <rect id="Rectangle_910" data-name="Rectangle 910" class="cls-35" width="12.101" height="12.101"/>
          <g id="Groupe_1543" data-name="Groupe 1543" transform="translate(4.98 4.954)">
            <circle id="Ellipse_347" data-name="Ellipse 347" class="cls-36" cx="1.098" cy="1.098" r="1.098"/>
          </g>
        </g>
        <g id="Groupe_1546" data-name="Groupe 1546" class="cls-37" transform="translate(2.984 1.749)">
          <g id="Groupe_1545" data-name="Groupe 1545">
            <path id="Tracé_30239" data-name="Tracé 30239" class="cls-25" d="M231.746,176.66H211.2v-2.5a10.256,10.256,0,0,1,20.511,0v2.5Z" transform="translate(-211.2 -163.9)"/>
          </g>
        </g>
      </g>
      <g id="Groupe_1566" data-name="Groupe 1566" transform="translate(6.11 28.473)">
        <g id="Groupe_1548" data-name="Groupe 1548" class="cls-22">
          <path id="Tracé_30240" data-name="Tracé 30240" class="cls-38" d="M19.369,173.412c-.034-.446-.069-.892-.069-1.338a13.274,13.274,0,1,1,26.548,0c0,.446-.034.892-.069,1.338" transform="translate(-19.3 -158.8)"/>
        </g>
        <g id="Groupe_1551" data-name="Groupe 1551" transform="translate(3.018 1.749)">
          <g id="Groupe_1549" data-name="Groupe 1549">
            <path id="Tracé_30241" data-name="Tracé 30241" class="cls-24" d="M28.1,174.156a10.256,10.256,0,0,1,20.511,0v2.5H28.1Z" transform="translate(-28.1 -163.9)"/>
            <path id="Tracé_30242" data-name="Tracé 30242" class="cls-25" d="M28.1,174.156a10.256,10.256,0,0,1,20.511,0v2.5H28.1Z" transform="translate(-28.1 -163.9)"/>
          </g>
          <g id="Groupe_1550" data-name="Groupe 1550" class="cls-26">
            <path id="Tracé_30243" data-name="Tracé 30243" d="M28.1,174.156a10.256,10.256,0,0,1,20.511,0v2.5H28.1Z" transform="translate(-28.1 -163.9)"/>
            <path id="Tracé_30244" data-name="Tracé 30244" class="cls-27" d="M28.1,174.156a10.256,10.256,0,0,1,20.511,0v2.5H28.1Z" transform="translate(-28.1 -163.9)"/>
          </g>
        </g>
        <g id="Groupe_1554" data-name="Groupe 1554" transform="translate(3.842 2.813)">
          <g id="Groupe_1552" data-name="Groupe 1552">
            <circle id="Ellipse_348" data-name="Ellipse 348" class="cls-39" cx="9.432" cy="9.432" r="9.432"/>
          </g>
          <g id="Groupe_1553" data-name="Groupe 1553" class="cls-29">
            <circle id="Ellipse_349" data-name="Ellipse 349" cx="9.432" cy="9.432" r="9.432"/>
          </g>
        </g>
        <g id="Groupe_1557" data-name="Groupe 1557" class="cls-30" transform="translate(3.842 2.813)">
          <g id="Groupe_1555" data-name="Groupe 1555">
            <circle id="Ellipse_350" data-name="Ellipse 350" class="cls-25" cx="9.432" cy="9.432" r="9.432"/>
          </g>
          <g id="Groupe_1556" data-name="Groupe 1556" class="cls-29">
            <circle id="Ellipse_351" data-name="Ellipse 351" class="cls-27" cx="9.432" cy="9.432" r="9.432"/>
          </g>
        </g>
        <g id="Groupe_1560" data-name="Groupe 1560" transform="translate(7.786 6.757)">
          <g id="Groupe_1558" data-name="Groupe 1558">
            <circle id="Ellipse_352" data-name="Ellipse 352" class="cls-31" cx="5.488" cy="5.488" r="5.488"/>
          </g>
          <g id="Groupe_1559" data-name="Groupe 1559" class="cls-32">
            <circle id="Ellipse_353" data-name="Ellipse 353" cx="5.488" cy="5.488" r="5.488"/>
          </g>
        </g>
        <g id="Groupe_1561" data-name="Groupe 1561" transform="translate(7.786 6.757)">
          <line id="Ligne_256" data-name="Ligne 256" class="cls-33" y2="4.699" transform="translate(5.488)"/>
          <line id="Ligne_257" data-name="Ligne 257" class="cls-33" x2="1.2" y2="4.493" transform="translate(4.082 0.206)"/>
          <line id="Ligne_258" data-name="Ligne 258" class="cls-33" x2="2.332" y2="4.047" transform="translate(2.744 0.755)"/>
          <line id="Ligne_259" data-name="Ligne 259" class="cls-33" x2="3.327" y2="3.293" transform="translate(1.612 1.612)"/>
          <line id="Ligne_260" data-name="Ligne 260" class="cls-33" x2="4.047" y2="2.332" transform="translate(0.755 2.744)"/>
          <line id="Ligne_261" data-name="Ligne 261" class="cls-33" x2="4.493" y2="1.235" transform="translate(0.206 4.047)"/>
          <line id="Ligne_262" data-name="Ligne 262" class="cls-33" x2="4.699" transform="translate(0 5.488)"/>
          <line id="Ligne_263" data-name="Ligne 263" class="cls-33" y1="1.2" x2="4.493" transform="translate(0.206 5.694)"/>
          <line id="Ligne_264" data-name="Ligne 264" class="cls-33" y1="2.367" x2="4.047" transform="translate(0.755 5.865)"/>
          <line id="Ligne_265" data-name="Ligne 265" class="cls-33" y1="3.327" x2="3.327" transform="translate(1.612 6.037)"/>
          <line id="Ligne_266" data-name="Ligne 266" class="cls-33" y1="4.047" x2="2.332" transform="translate(2.744 6.174)"/>
          <line id="Ligne_267" data-name="Ligne 267" class="cls-33" y1="4.528" x2="1.2" transform="translate(4.082 6.243)"/>
          <line id="Ligne_268" data-name="Ligne 268" class="cls-33" y1="4.665" transform="translate(5.488 6.277)"/>
          <line id="Ligne_269" data-name="Ligne 269" class="cls-33" x1="1.2" y1="4.528" transform="translate(5.694 6.243)"/>
          <line id="Ligne_270" data-name="Ligne 270" class="cls-33" x1="2.332" y1="4.047" transform="translate(5.9 6.174)"/>
          <line id="Ligne_271" data-name="Ligne 271" class="cls-33" x1="3.327" y1="3.327" transform="translate(6.037 6.037)"/>
          <line id="Ligne_272" data-name="Ligne 272" class="cls-33" x1="4.047" y1="2.367" transform="translate(6.174 5.865)"/>
          <line id="Ligne_273" data-name="Ligne 273" class="cls-33" x1="4.528" y1="1.2" transform="translate(6.243 5.694)"/>
          <line id="Ligne_274" data-name="Ligne 274" class="cls-33" x1="4.699" transform="translate(6.277 5.488)"/>
          <line id="Ligne_275" data-name="Ligne 275" class="cls-33" x1="4.528" y2="1.235" transform="translate(6.243 4.047)"/>
          <line id="Ligne_276" data-name="Ligne 276" class="cls-33" x1="4.047" y2="2.332" transform="translate(6.174 2.744)"/>
          <line id="Ligne_277" data-name="Ligne 277" class="cls-33" x1="3.327" y2="3.293" transform="translate(6.037 1.612)"/>
          <line id="Ligne_278" data-name="Ligne 278" class="cls-33" x1="2.332" y2="4.047" transform="translate(5.9 0.755)"/>
          <line id="Ligne_279" data-name="Ligne 279" class="cls-33" x1="1.2" y2="4.493" transform="translate(5.694 0.206)"/>
        </g>
        <circle id="Ellipse_354" data-name="Ellipse 354" class="cls-34" cx="5.488" cy="5.488" r="5.488" transform="translate(7.786 6.757)"/>
        <g id="Groupe_1563" data-name="Groupe 1563" transform="translate(7.224 6.193)">
          <rect id="Rectangle_911" data-name="Rectangle 911" class="cls-35" width="12.101" height="12.101"/>
          <g id="Groupe_1562" data-name="Groupe 1562" transform="translate(4.952 4.954)">
            <circle id="Ellipse_355" data-name="Ellipse 355" class="cls-40" cx="1.098" cy="1.098" r="1.098"/>
          </g>
        </g>
        <g id="Groupe_1565" data-name="Groupe 1565" class="cls-37" transform="translate(3.018 1.749)">
          <g id="Groupe_1564" data-name="Groupe 1564">
            <path id="Tracé_30245" data-name="Tracé 30245" class="cls-25" d="M48.611,176.66H28.1v-2.5a10.256,10.256,0,0,1,20.511,0Z" transform="translate(-28.1 -163.9)"/>
          </g>
        </g>
      </g>
    </g>
  </g>
</svg>
