<svg xmlns="http://www.w3.org/2000/svg" width="11.619" height="11.102" viewBox="0 0 11.619 11.102">
  <g id="blog_ico_btn_linkedin_grey" transform="translate(0 0)">
    <path id="LinkedIn_1_" d="M11.619,6.807v4.3H9.128V7.094c0-1.008-.359-1.694-1.262-1.694a1.362,1.362,0,0,0-1.278.91,1.723,1.723,0,0,0-.084.608V11.1H4.014s.032-6.788,0-7.491H6.505V4.673L6.489,4.7h.016V4.673A2.472,2.472,0,0,1,8.75,3.436C10.39,3.436,11.619,4.506,11.619,6.807ZM1.41,0a1.3,1.3,0,1,0-.032,2.588h.016A1.3,1.3,0,1,0,1.41,0ZM.149,11.1H2.639V3.612H.149Z" fill="#666"/>
  </g>
</svg>
