<svg xmlns="http://www.w3.org/2000/svg" width="12.541" height="10.189" viewBox="0 0 12.541 10.189">
  <g id="blog_ico_btn_twitter_grey" transform="translate(0 0)">
    <g id="Groupe_1392" data-name="Groupe 1392" transform="translate(0)">
      <path id="Tracé_30149" data-name="Tracé 30149" d="M12.64,1.2a5.174,5.174,0,0,1-1.478.406A2.588,2.588,0,0,0,12.294.189a5.2,5.2,0,0,1-1.635.625A2.574,2.574,0,0,0,6.207,2.572a2.52,2.52,0,0,0,.068.586A7.305,7.305,0,0,1,.971.469a2.58,2.58,0,0,0,.8,3.435A2.559,2.559,0,0,1,.6,3.58v.033A2.575,2.575,0,0,0,2.666,6.135a2.631,2.631,0,0,1-.678.09A2.514,2.514,0,0,1,1.5,6.178a2.575,2.575,0,0,0,2.4,1.787,5.155,5.155,0,0,1-3.2,1.1A5.5,5.5,0,0,1,.1,9.031a7.269,7.269,0,0,0,3.943,1.158,7.271,7.271,0,0,0,7.32-7.32l-.008-.334A5.15,5.15,0,0,0,12.64,1.2Z" transform="translate(-0.1 0)" fill="#666"/>
    </g>
  </g>
</svg>
