<?xml version="1.0" encoding="utf-8"?>
<!-- Generator: Adobe Illustrator 23.0.2, SVG Export Plug-In . SVG Version: 6.00 Build 0)  -->
<svg version="1.1" id="diamond" xmlns="http://www.w3.org/2000/svg" xmlns:xlink="http://www.w3.org/1999/xlink" x="0px" y="0px"
	 viewBox="0 0 102.5 102.5" style="enable-background:new 0 0 102.5 102.5;" xml:space="preserve">
<style type="text/css">
	.st0{fill:#FCFCFC;}
	.st1{fill:url(#SVGID_1_);}
	.st2{fill:url(#SVGID_3_);}
	.st3{fill:url(#SVGID_4_);}
	.st4{fill:url(#SVGID_5_);}
	.st5{fill:url(#SVGID_6_);}
	.st6{fill:url(#SVGID_7_);}
	.st7{clip-path:url(#SVGID_8_);}
	.st8{fill:url(#SVGID_9_);}
	.st9{fill:url(#SVGID_10_);}
	.st10{clip-path:url(#SVGID_11_);fill:url(#SVGID_12_);}
	.st11{fill:url(#SVGID_13_);}
	.st12{fill:url(#SVGID_14_);}
	.st13{fill:url(#SVGID_15_);}
	.st14{clip-path:url(#SVGID_16_);}
	.st15{fill:url(#SVGID_17_);}
	.st16{clip-path:url(#SVGID_18_);fill:url(#SVGID_19_);}
	.st17{clip-path:url(#SVGID_18_);}
	.st18{fill:url(#SVGID_20_);}
	.st19{fill:url(#SVGID_21_);}
	.st20{fill:url(#SVGID_22_);}
</style>
<rect id="Rectangle_908" class="st0" width="102.5" height="102.5"/>
<linearGradient id="SVGID_1_" gradientUnits="userSpaceOnUse" x1="146.8642" y1="18.8775" x2="153.333" y2="25.3464" gradientTransform="matrix(-1 0 0 1 199.1242 0)">
	<stop  offset="0" style="stop-color:#BF0269"/>
	<stop  offset="1" style="stop-color:#FC6719"/>
</linearGradient>
<polyline class="st1" points="52.3,18.9 42.5,22 52.3,25.5 "/>
<linearGradient id="SVGID_3_" gradientUnits="userSpaceOnUse" x1="146.139" y1="47.0053" x2="186.1763" y2="47.0053" gradientTransform="matrix(-1 0 0 1 199.1242 0)">
	<stop  offset="0" style="stop-color:#174575"/>
	<stop  offset="1" style="stop-color:#3D113C"/>
</linearGradient>
<path class="st2" d="M13.8,68.6c0.2,0,0.5-0.1,0.6-0.3l38.3-41.5c0.3-0.3,0.3-0.9,0-1.2c-0.4-0.3-0.9-0.3-1.2,0L13.2,67.2
	c-0.3,0.4-0.3,0.9,0,1.2C13.4,68.5,13.6,68.6,13.8,68.6z"/>
<linearGradient id="SVGID_4_" gradientUnits="userSpaceOnUse" x1="132.1205" y1="33.1702" x2="147.8638" y2="33.1702" gradientTransform="matrix(-1 0 0 1 199.1242 0)">
	<stop  offset="0" style="stop-color:#174575"/>
	<stop  offset="1" style="stop-color:#3D113C"/>
</linearGradient>
<path class="st3" d="M66.1,40.9c0.2,0,0.4-0.1,0.6-0.3c0.3-0.3,0.3-0.9,0-1.2l-14-13.8c-0.3-0.3-0.9-0.3-1.2,0
	c-0.3,0.3-0.3,0.9,0,1.2l14,13.8C65.7,40.8,65.9,40.9,66.1,40.9z"/>
<linearGradient id="SVGID_5_" gradientUnits="userSpaceOnUse" x1="146.0658" y1="28.6564" x2="147.7905" y2="28.6564" gradientTransform="matrix(-1 0 0 1 199.1242 0)">
	<stop  offset="0" style="stop-color:#174575"/>
	<stop  offset="1" style="stop-color:#3D113C"/>
</linearGradient>
<path class="st4" d="M52.2,39.1c0.5,0,0.9-0.4,0.9-0.9V19.1c0-0.5-0.4-0.9-0.9-0.9c-0.5,0-0.9,0.4-0.9,0.9v19.2
	C51.3,38.7,51.7,39.1,52.2,39.1z"/>
<linearGradient id="SVGID_6_" gradientUnits="userSpaceOnUse" x1="34.1111" y1="59.9212" x2="47.4532" y2="59.9212">
	<stop  offset="0" style="stop-color:#174575"/>
	<stop  offset="1" style="stop-color:#3D113C"/>
</linearGradient>
<rect x="34.1" y="52.7" class="st5" width="13.3" height="14.4"/>
<linearGradient id="SVGID_7_" gradientUnits="userSpaceOnUse" x1="123.9308" y1="54.5039" x2="151.6254" y2="54.5039" gradientTransform="matrix(-1 0 0 1 199.1242 0)">
	<stop  offset="0" style="stop-color:#7A9FB4"/>
	<stop  offset="0.7431" style="stop-color:#00C9B4"/>
</linearGradient>
<polygon class="st6" points="47.5,67.9 75.2,67.9 75.2,41.1 47.5,41.1 "/>
<g>
	<defs>
		
			<rect id="SVGID_28_" x="47.5" y="41.1" transform="matrix(-1 -4.479407e-11 4.479407e-11 -1 122.6922 109.0079)" width="27.7" height="26.8"/>
	</defs>
	<clipPath id="SVGID_8_">
		<use xlink:href="#SVGID_28_"  style="overflow:visible;"/>
	</clipPath>
	<g class="st7">
		
			<image style="overflow:visible;opacity:0.3;" width="67" height="34" xlink:href="9FC55A68.png"  transform="matrix(1 0 0 1 26 22.5)">
		</image>
		<g>
			
				<linearGradient id="SVGID_9_" gradientUnits="userSpaceOnUse" x1="121.9246" y1="39.3905" x2="157.3503" y2="39.3905" gradientTransform="matrix(-1 0 0 1 199.1242 0)">
				<stop  offset="0" style="stop-color:#7A9FB4"/>
				<stop  offset="0.7431" style="stop-color:#00C9B4"/>
			</linearGradient>
			<rect x="41.8" y="37.7" class="st8" width="35.4" height="3.4"/>
		</g>
	</g>
</g>
<g>
	
		<linearGradient id="SVGID_10_" gradientUnits="userSpaceOnUse" x1="121.9246" y1="39.3905" x2="157.3503" y2="39.3905" gradientTransform="matrix(-1 0 0 1 199.1242 0)">
		<stop  offset="0" style="stop-color:#7A9FB4"/>
		<stop  offset="0.7431" style="stop-color:#00C9B4"/>
	</linearGradient>
	<rect x="41.8" y="37.7" class="st9" width="35.4" height="3.4"/>
</g>
<g>
	<defs>
		
			<rect id="SVGID_32_" x="47.5" y="41.1" transform="matrix(-1 -4.479407e-11 4.479407e-11 -1 122.6922 109.0079)" width="27.7" height="26.8"/>
	</defs>
	<clipPath id="SVGID_11_">
		<use xlink:href="#SVGID_32_"  style="overflow:visible;"/>
	</clipPath>
	
		<linearGradient id="SVGID_12_" gradientUnits="userSpaceOnUse" x1="120.3588" y1="47.9962" x2="131.2214" y2="47.9962" gradientTransform="matrix(-1 0 0 1 199.1242 0)">
		<stop  offset="0" style="stop-color:#174575"/>
		<stop  offset="1" style="stop-color:#3D113C"/>
	</linearGradient>
	<path class="st10" d="M68.8,51.2h9.1c0.5,0,0.9-0.4,0.9-0.9v-4.6c0-0.5-0.4-0.9-0.9-0.9h-9.1c-0.5,0-0.9,0.4-0.9,0.9v4.6
		C67.9,50.8,68.3,51.2,68.8,51.2z"/>
</g>
<linearGradient id="SVGID_13_" gradientUnits="userSpaceOnUse" x1="135.2949" y1="57.0605" x2="147.6987" y2="57.0605" gradientTransform="matrix(-1 0 0 1 199.1242 0)">
	<stop  offset="0" style="stop-color:#174575"/>
	<stop  offset="1" style="stop-color:#3D113C"/>
</linearGradient>
<path class="st11" d="M52.3,69.4H63c0.5,0,0.9-0.4,0.9-0.9V45.6c0-0.5-0.4-0.9-0.9-0.9H52.3c-0.5,0-0.9,0.4-0.9,0.9v22.9
	C51.4,69,51.8,69.4,52.3,69.4z"/>
<g>
	<image style="overflow:visible;" width="38" height="38" xlink:href="9FC55A77.png"  transform="matrix(1 0 0 1 39 32.5)">
	</image>
	<g>
		
			<linearGradient id="SVGID_14_" gradientUnits="userSpaceOnUse" x1="137.9371" y1="51.0421" x2="144.9831" y2="51.0421" gradientTransform="matrix(-1 0 0 1 199.1242 0)">
			<stop  offset="4.049120e-07" style="stop-color:#EDEDED"/>
			<stop  offset="1" style="stop-color:#CCCCCC"/>
		</linearGradient>
		<circle class="st12" cx="57.7" cy="51" r="3.5"/>
	</g>
</g>
<g>
	
		<linearGradient id="SVGID_15_" gradientUnits="userSpaceOnUse" x1="107.2944" y1="67.7396" x2="187.1489" y2="67.7396" gradientTransform="matrix(-1 0 0 1 199.1242 0)">
		<stop  offset="0" style="stop-color:#7A9FB4"/>
		<stop  offset="0.7431" style="stop-color:#00C9B4"/>
	</linearGradient>
	<path class="st13" d="M12,75.4V67h41.4c0,0,12.7,0.2,12.7-13.6l25.7,0l-7.9,20.3c-1.2,3-3.7,5.4-6.8,6.3c-3.1,0.9-7.4,1.8-12.7,1.8
		"/>
</g>
<g>
	<defs>
		
			<rect id="SVGID_38_" x="47.5" y="41.1" transform="matrix(-1 -4.479407e-11 4.479407e-11 -1 122.6922 109.0079)" width="27.7" height="26.8"/>
	</defs>
	<clipPath id="SVGID_16_">
		<use xlink:href="#SVGID_38_"  style="overflow:visible;"/>
	</clipPath>
	<g class="st14">
		
			<image style="overflow:visible;opacity:0.3;" width="111" height="60" xlink:href="9FC55A78.png"  transform="matrix(1 0 0 1 -4 37.5)">
		</image>
		<g>
			
				<linearGradient id="SVGID_17_" gradientUnits="userSpaceOnUse" x1="107.2944" y1="67.7396" x2="187.1489" y2="67.7396" gradientTransform="matrix(-1 0 0 1 199.1242 0)">
				<stop  offset="0" style="stop-color:#7A9FB4"/>
				<stop  offset="0.7431" style="stop-color:#00C9B4"/>
			</linearGradient>
			<path class="st15" d="M91.8,53.5l-9.5,24.6c0,0-6.9,3.9-17.8,3.9c-18.3,0-22.5-8.3-39.6-8.3c0,0-5.7-0.3-12.9,1.7V67h41.4
				c0,0,12.7,0.2,12.7-13.6L91.8,53.5z"/>
		</g>
	</g>
</g>
<g>
	<defs>
		<path id="SVGID_2_" d="M64.5,82c5.3,0,9.6-0.9,12.7-1.8c3.1-0.9,5.6-3.3,6.8-6.3l7.9-20.3l-25.7,0C66.1,67.3,53.4,67,53.4,67H12
			v8.4v6.3L64.5,82z"/>
	</defs>
	<clipPath id="SVGID_18_">
		<use xlink:href="#SVGID_2_"  style="overflow:visible;"/>
	</clipPath>
	
		<linearGradient id="SVGID_19_" gradientUnits="userSpaceOnUse" x1="109.692" y1="65.6601" x2="122.5607" y2="65.6601" gradientTransform="matrix(-1 0 0 1 199.1242 0)">
		<stop  offset="0" style="stop-color:#174575"/>
		<stop  offset="1" style="stop-color:#3D113C"/>
	</linearGradient>
	<path class="st16" d="M77.8,66.9h10.4c0.7,0,1.2-0.6,1.2-1.2l0,0c0-0.7-0.6-1.2-1.2-1.2H77.8c-0.7,0-1.2,0.6-1.2,1.2l0,0
		C76.6,66.3,77.1,66.9,77.8,66.9z"/>
	<g class="st17">
		
			<image style="overflow:visible;opacity:0.3;" width="46" height="25" xlink:href="9FC55A7B.png"  transform="matrix(1 0 0 1 56 43.5)">
		</image>
		<g>
			
				<linearGradient id="SVGID_20_" gradientUnits="userSpaceOnUse" x1="134.445" y1="56.1431" x2="107.4843" y2="56.1431" gradientTransform="matrix(-1 0 0 1 199.1242 0)">
				<stop  offset="0" style="stop-color:#174575"/>
				<stop  offset="1" style="stop-color:#3D113C"/>
			</linearGradient>
			<rect x="65" y="53.4" class="st18" width="27" height="5.5"/>
		</g>
	</g>
</g>
<linearGradient id="SVGID_21_" gradientUnits="userSpaceOnUse" x1="64.4777" y1="78.7001" x2="11.9753" y2="78.7001">
	<stop  offset="0" style="stop-color:#7A9FB4"/>
	<stop  offset="0.7431" style="stop-color:#00C9B4"/>
</linearGradient>
<polyline class="st19" points="12,75.4 12,81.7 64.5,82 "/>
<linearGradient id="SVGID_22_" gradientUnits="userSpaceOnUse" x1="38.1679" y1="58.8282" x2="43.2162" y2="58.8282">
	<stop  offset="0" style="stop-color:#7A9FB4"/>
	<stop  offset="0.7431" style="stop-color:#00C9B4"/>
</linearGradient>
<circle class="st20" cx="40.7" cy="58.8" r="2.5"/>
</svg>
