<?xml version="1.0" encoding="utf-8"?>
<!-- Generator: Adobe Illustrator 23.0.3, SVG Export Plug-In . SVG Version: 6.00 Build 0)  -->
<svg version="1.1" id="Calque_2" xmlns="http://www.w3.org/2000/svg" xmlns:xlink="http://www.w3.org/1999/xlink" x="0px" y="0px"
	 viewBox="0 0 210 85" style="enable-background:new 0 0 210 85;" xml:space="preserve">
<style type="text/css">
	.st0{fill:#AEAEAE;}
</style>
<path class="st0" d="M127.6,47.8l-0.6,2.3c-0.1,4.5,2.3,6.7,7,6.7c4.4,0,10.3-1.8,17.8-5.5c0.5,0,1.2-0.5,2-1.4c2.6-1.9,4-3,4.2-3.3
	c0.1-0.6-0.2-1.5-0.9-2.6h-0.2c-0.8,0-2.5,0.5-5.2,1.5c-6.4,2.5-10.7,3.7-13,3.7h-1.4c-2.1-0.4-2.9-1.5-2.1-3.5l0.2-0.6
	c0.4-1,1.2-2.2,2.5-3.8c0.9-1,2.5-1.8,4.7-2.4c2.1-0.6,3.7-1.5,4.7-2.7l0.2-0.6l0-1.3c0.2-0.5,0.4-0.8,0.6-1.1
	c-0.9-0.7-2-1.1-3.4-1.1h-0.3c-1.5,0-3.3,0.5-5.4,1.6c-5.5,3.7-9.2,8.1-11.1,13.2L127.6,47.8z"/>
<path class="st0" d="M22.9,67c0,0.9,0.3,1.3,1,1.3h1c2.4-0.4,3.6-0.8,3.7-1c0.3-0.7,0.8-1.2,1.6-1.4c1-2.8,4.2-8.6,9.5-17.6
	c4.7-9.3,8.4-16.1,10.9-20.2h0.1l0.1,3.6c-0.2,13.8,0,23,0.6,27.6c0,6.1,1.5,9.1,4.3,9.1l0.9-0.1c1.3,0,2.5-0.9,3.6-2.6l0.1-0.3
	c0.2-0.5,0.2-1.1,0-1.8c-1.8-4.8-2.5-13.4-2-25.8C58.2,29.4,58.5,23,59,18.5c0.3-3.7,0-6.2-0.7-7.6h-1.7L54,11.1
	c-2.6,3.4-6.7,10.6-12.2,21.5c-3.1,5.7-5.7,9.9-7.9,12.9h-0.1c1.2-7.2,1.8-11.9,1.8-14.2c0.9-8.6-0.3-12.9-3.4-12.9
	c-2.6,0-5.5,2.4-8.9,7.3c-4.2,6.8-6.9,11-8.1,12.5l-0.4-0.1c-2.1,0-3.5,0.9-4.2,2.8l-0.3,0.7c-0.5,3-0.9,4.8-1.1,5.5l-2.4,5.9
	c-0.4,1.1-0.7,2.3-0.8,3.5c-0.3,0.8,0.2,1.2,1.5,1.2h0.7c1,0,2.1-0.4,3.1-1.1c1.2-0.9,2.9-3.5,5.2-7.7c4.9-9.5,8.5-15.8,10.9-18.9
	h0.1l0.1,0.7c0.4,2.7,0.3,6.3-0.2,10.8l-3.1,16.7C23.3,62.7,22.8,65.6,22.9,67z"/>
<path class="st0" d="M130.9,22.8h0.7c2.9-0.5,4.6-1.4,5.1-2.7l0-0.1l0.1-1.1c-0.1-0.9-0.9-1.3-2.6-1.3h-0.6c-2.1,0-3.7,0.8-4.8,2.4
	l-0.2,0.6l0,0.4C128.2,22,129,22.6,130.9,22.8z"/>
<path class="st0" d="M117.1,57.7c0.1,0,0.3-0.2,0.4-0.6c0.2,0.9,0.5,1.3,1.1,1.3h0.1l1.1-0.8c1.2-0.2,2.1-0.5,2.7-0.9l4.1-10.9
	l1.1-2.9c1.8-5,3.1-9.7,3.9-14.1c0.2-0.7-0.3-1-1.6-1c-1.9,0-3.4,1.4-4.4,4.2c-1.2,3.2-2,5.7-2.5,7.4l-5.4,12.4
	C116.7,54.8,116.4,56.8,117.1,57.7z"/>
<path class="st0" d="M63.2,56.1c2.8,0,5.7-1.1,8.8-3.4c2.5-2,5.6-4.9,9.5-8.7l0.3,0.8c0.2,4.7,0.4,7.8,0.7,9.4
	c0.7,2.3,1.8,3.8,3.4,4.4c0.3,0,1-0.3,2.2-0.9c1,0,1.6-0.4,1.9-1.2l0.2-0.6c0.3-0.9,0.2-2.2-0.3-3.9c-1-2.4-1.4-5.4-1.1-8.9
	c0.9-6.3,1.5-10,2-11.3c0.4-2.2-0.1-3.3-1.4-3.3H89c-1.1,0-2.3,0.4-3.8,1.3c-4.6,1.7-8.9,3.9-12.8,6.3c-6.9,5.6-11,10.3-12.4,14.1
	l-0.1,0.4l-0.4,1.3c0,0.7,0.1,1.3,0.1,1.9C60,55.3,61.2,56.1,63.2,56.1z M73.1,41.5c4.3-3.2,7.1-5,8.3-5.3h0.2l0.1,0.1
	c-0.8,2.1-3.3,5-7.7,8.7c-2.7,2.8-4.8,4.2-6.4,4.2h-0.1l-0.1-0.1C68.4,46.5,70.3,44,73.1,41.5z"/>
<path class="st0" d="M105.7,72.1c2.2-2.3,4.9-7.6,7.9-16c1.6-4.3,3.8-10.9,6.6-19.8c0.1-0.2,0.6-0.5,1.3-0.9c0.1-0.4,0-0.6-0.3-0.8
	c-1.1-1.7-3.2-2.5-6.5-2.5h-0.8c-2.1,0-4.3,0.5-6.8,1.4c-6.9,3-11.3,7.4-13.3,13l-0.3,0.7c-0.5,1.5-0.8,2.8-0.8,3.9
	c-0.4,1-0.1,1.9,0.8,2.6c0.9,1.5,2,2.3,3.2,2.3h0.7c1.8,0,4.1-1.1,6.9-3.4c3.8-3.8,6.1-6.1,7.1-6.7l-0.8,2l-4.2,12.4
	c-1.5,4.2-3.2,7.4-5.2,9.6c-1.5,1.5-3,2.4-4.5,2.8c-1.2-1.2-1.9-1.8-2.1-1.8c-2-1.9-3-3.9-2.9-5.8c0.1-0.3-0.2-0.5-1-0.5
	c-0.6-0.7-1-1.1-1.2-1.1h-0.4c-0.7,0.4-1.2,1.1-1.5,2c-0.4,1-0.4,2.1-0.1,3.3c1,2.2,1.3,3.7,0.9,4.7L88,73.9l0.1,0.4
	c1.5,2.6,3.9,3.9,7.2,3.9C98.7,78.2,102.2,76.2,105.7,72.1z M105.7,44.5c-2.2,2.5-4.4,4.2-6.6,5.2l0.6-2.1l0.3-0.7
	c0.8-2.3,2.6-4.5,5.2-6.5c2.9-1.8,5.1-2.7,6.6-2.7c0.2,0,0.3,0.1,0.3,0.4C110.6,39.3,108.5,41.5,105.7,44.5z"/>
<path class="st0" d="M122,66.8l5.6,6.1c0.2,0.2,0.4,0.3,0.6,0.3c0.3,0,0.5-0.1,0.6-0.3l5.6-6.1v6.2h1.8v-8.5c0-0.3-0.1-0.5-0.3-0.7
	s-0.4-0.2-0.6-0.2c-0.1,0-0.3,0-0.4,0.1c-0.1,0.1-0.3,0.1-0.4,0.3l-6.4,6.9l-6.4-6.9c-0.1-0.1-0.2-0.2-0.4-0.3
	c-0.1-0.1-0.3-0.1-0.4-0.1c-0.2,0-0.4,0.1-0.6,0.2s-0.3,0.4-0.3,0.7v8.5h1.8L122,66.8L122,66.8z"/>
<path class="st0" d="M138.6,72.5c0.2,0.2,0.5,0.4,0.9,0.5c0.4,0.1,0.9,0.2,1.4,0.2h5.3c0.6,0,1-0.1,1.4-0.2c0.4-0.1,0.7-0.3,0.9-0.5
	c0.2-0.2,0.4-0.5,0.5-0.8c0.1-0.3,0.2-0.7,0.2-1.1v-4.2c0-0.4-0.1-0.8-0.2-1.1c-0.1-0.3-0.3-0.6-0.5-0.8c-0.2-0.2-0.5-0.4-0.9-0.5
	c-0.4-0.1-0.9-0.2-1.4-0.2H141c-0.6,0-1,0.1-1.4,0.2c-0.4,0.1-0.7,0.3-0.9,0.5c-0.2,0.2-0.4,0.5-0.5,0.8c-0.1,0.3-0.2,0.7-0.2,1.1
	v4.2c0,0.4,0.1,0.8,0.2,1.1C138.2,72,138.4,72.2,138.6,72.5z M139.8,66.5c0-0.3,0.1-0.5,0.3-0.6c0.2-0.1,0.5-0.2,0.9-0.2h5.3
	c0.4,0,0.7,0.1,0.9,0.2c0.2,0.1,0.3,0.3,0.3,0.6v4.1c0,0.3-0.1,0.5-0.3,0.6c-0.2,0.1-0.5,0.2-0.9,0.2H141c-0.4,0-0.7-0.1-0.9-0.2
	c-0.2-0.1-0.3-0.3-0.3-0.6V66.5z"/>
<path class="st0" d="M161.6,72.6c0.5-0.3,0.7-0.8,0.7-1.4v-1.5c0-0.4-0.1-0.7-0.3-0.9c-0.2-0.2-0.4-0.4-0.7-0.4
	c0.3-0.1,0.5-0.2,0.7-0.4c0.2-0.2,0.3-0.5,0.3-0.8v-1.3c0-0.6-0.2-1.1-0.7-1.4s-1.2-0.5-2.1-0.5H151v9.2h8.5
	C160.4,73.1,161.2,72.9,161.6,72.6z M152.8,65.7h6.7c0.3,0,0.6,0,0.7,0.1c0.2,0.1,0.3,0.2,0.3,0.4v0.9c0,0.1-0.1,0.3-0.2,0.3
	c-0.1,0.1-0.4,0.1-0.7,0.1h-6.7L152.8,65.7L152.8,65.7z M152.8,71.3v-2.1h6.6c0.3,0,0.6,0,0.8,0.1c0.2,0.1,0.3,0.2,0.3,0.4v0.9
	c0,0.3-0.1,0.4-0.3,0.5c-0.2,0.1-0.5,0.1-0.8,0.1H152.8z"/>
<rect x="164.1" y="63.9" class="st0" width="1.8" height="9.2"/>
<polygon class="st0" points="176.2,71.3 169.8,71.3 169.8,63.9 168,63.9 168,73.1 176.2,73.1 "/>
<rect x="177.6" y="63.9" class="st0" width="1.8" height="9.2"/>
<polygon class="st0" points="185.3,73.1 187.1,73.1 187.1,65.7 191.8,65.7 191.8,63.9 180.5,63.9 180.5,65.7 185.3,65.7 "/>
<path class="st0" d="M193.8,69.4c0.2,0.2,0.5,0.4,0.9,0.5c0.4,0.1,0.9,0.2,1.4,0.2h6.4v0.4c0,0.3-0.1,0.5-0.3,0.6
	c-0.2,0.1-0.5,0.2-0.9,0.2H195v1.8h6.5c0.6,0,1-0.1,1.4-0.2c0.4-0.1,0.7-0.3,0.9-0.5c0.2-0.2,0.4-0.5,0.5-0.8
	c0.1-0.3,0.2-0.7,0.2-1.1v-6.7h-1.9v4.5h-6.5c-0.4,0-0.7-0.1-0.9-0.2c-0.2-0.1-0.3-0.3-0.3-0.6v-3.8h-1.9v3.7c0,0.4,0.1,0.8,0.2,1.1
	C193.4,69,193.6,69.2,193.8,69.4z"/>
</svg>
