<?xml version="1.0" encoding="utf-8"?>
<!-- Generator: Adobe Illustrator 22.1.0, SVG Export Plug-In . SVG Version: 6.00 Build 0)  -->
<svg version="1.0" id="Calque_1" xmlns="http://www.w3.org/2000/svg" xmlns:xlink="http://www.w3.org/1999/xlink" x="0px" y="0px"
	 viewBox="0 0 210 85" style="enable-background:new 0 0 210 85;" xml:space="preserve">
<style type="text/css">
	.st0{fill:#AEAEAE;}
</style>
<g>
	<path class="st0" d="M27.4,29.5h5.1v10.1h9.1V29.5h5.1v26.9h-5.1V44.7h-9.1v11.8h-5.1V29.5z"/>
</g>
<g>
	<g>
		<path class="st0" d="M85.5,29.5h5.1v10.1h9.1V29.5h5.1v26.9h-5.1V44.7h-9.1v11.8h-5.1V29.5z"/>
		<path class="st0" d="M115.6,31.6c0,1.8-1.4,3.2-3.2,3.2c-1.8,0-3.2-1.6-3.2-3.5c0-1.7,1.5-3,3.2-3
			C114.2,28.3,115.6,29.8,115.6,31.6z M109.9,36.5h5v19.9h-5V36.5z"/>
		<path class="st0" d="M139.4,46.5c0,5.8-4.5,10.5-10.5,10.5c-5.8,0-10.4-4.6-10.4-10.5c0-6,4.9-10.5,10.3-10.5
			C134.6,36,139.4,40.6,139.4,46.5z M123.5,46.5c0,3.4,2.1,5.8,5.4,5.8c3.1,0,5.5-2.3,5.5-5.7c0-3.4-2.2-5.8-5.5-5.8
			C125.8,40.7,123.5,43.2,123.5,46.5z"/>
		<path class="st0" d="M148.4,38.5c1.9-1.6,3.7-2.6,5.9-2.6c3.7,0,6.8,2.6,6.8,6.8v13.6h-5V47c0-3.9-0.3-6.5-3.4-6.5
			c-1.4,0-2.6,0.7-3.4,1.9c-1,1.6-1,3.4-1,5.5v8.5h-5V36.5h5V38.5z"/>
		<path class="st0" d="M185.9,46.5c0,5.8-4.5,10.5-10.5,10.5c-5.8,0-10.4-4.6-10.4-10.5c0-6,4.9-10.5,10.3-10.5
			C181.1,36,185.9,40.6,185.9,46.5z M170,46.5c0,3.4,2.1,5.8,5.4,5.8c3.1,0,5.5-2.3,5.5-5.7c0-3.4-2.2-5.8-5.5-5.8
			C172.3,40.7,170,43.2,170,46.5z"/>
		<path class="st0" d="M193.9,47.8c-3.2-1.6-4.8-3.6-4.8-6.1c0-3.1,2.6-5.7,6.5-5.7c2.6,0,5,1.2,6.6,3.3l-3.1,3.1
			c-1.1-1.1-2.3-1.8-3.5-1.8c-1,0-1.8,0.4-1.8,1.2c0,0.8,0.7,1.1,1.8,1.7l1.8,0.9c3.3,1.7,5.1,3.4,5.1,6.4c0,3.6-2.8,6.2-7.2,6.2
			c-2.9,0-5.3-1.2-7-3.4l3.1-3.4c1.2,1.4,2.9,2.3,4.2,2.3c1.2,0,2.2-0.7,2.2-1.6c0-0.9-0.8-1.5-2.2-2.2L193.9,47.8z"/>
	</g>
	<g>
		<path class="st0" d="M202.3,29.6h2.4v0.8h-0.8v3.5H203v-3.5h-0.8V29.6z"/>
		<path class="st0" d="M205.6,29.6h0.8l1,3l1-3h0.8l0.7,4.3h-0.8l-0.5-2.7l-0.9,2.7h-0.7l-0.9-2.7l-0.5,2.7h-0.8L205.6,29.6z"/>
	</g>
</g>
<path class="st0" d="M11.4,52.3c0.5-0.2,0.8-0.7,0.6-1.2c-0.2-0.5-0.7-0.8-1.2-0.6c-0.5,0.2-0.8,0.7-0.6,1.2
	C10.4,52.2,10.9,52.5,11.4,52.3z M10.6,49.6c0.5-0.1,0.8-0.6,0.7-1.1c-0.1-0.5-0.6-0.8-1.1-0.7c-0.5,0.1-0.8,0.6-0.7,1.1
	C9.6,49.3,10.1,49.7,10.6,49.6z M43,15.5c-0.5-0.1-1,0.2-1.1,0.7c-0.1,0.5,0.2,1,0.7,1.1c0.5,0.1,1-0.2,1.1-0.7
	C43.9,16.2,43.5,15.7,43,15.5z M55.8,64.1c0.4-0.4,0.4-1,0.1-1.4c-0.4-0.4-1-0.4-1.4-0.1c-0.4,0.4-0.4,1-0.1,1.4
	C54.8,64.4,55.4,64.5,55.8,64.1z M37.2,14.9c-0.5,0-1,0.4-1,1c0,0.5,0.4,1,1,1c0.5,0,1-0.4,1-1C38.1,15.3,37.7,14.9,37.2,14.9z
	 M32.4,16.2c-0.1-0.5-0.6-0.8-1.1-0.7c-0.5,0.1-0.8,0.6-0.7,1.1c0.1,0.5,0.6,0.8,1.1,0.7C32.2,17.3,32.5,16.7,32.4,16.2z M10,46.8
	c0.5-0.1,0.9-0.5,0.9-1.1c-0.1-0.5-0.5-0.9-1.1-0.9c-0.5,0.1-0.9,0.5-0.9,1.1C9,46.4,9.5,46.8,10,46.8z M36.9,69.4c-0.5,0-1,0.4-1,1
	c0,0.5,0.4,1,1,1c0.5,0,1-0.4,1-1C37.9,69.8,37.4,69.4,36.9,69.4z M42.8,70.7c0.5-0.1,0.8-0.6,0.7-1.1c-0.1-0.5-0.6-0.8-1.1-0.7
	c-0.5,0.1-0.8,0.6-0.7,1.1C41.8,70.5,42.3,70.8,42.8,70.7z M53.7,20.4c-0.4-0.3-1-0.2-1.3,0.2c-0.3,0.4-0.2,1,0.2,1.3
	c0.4,0.3,1,0.2,1.3-0.2C54.2,21.3,54.1,20.7,53.7,20.4z M52.4,64.4c-0.4,0.3-0.5,0.9-0.2,1.3c0.3,0.4,0.9,0.5,1.3,0.2
	c0.4-0.3,0.5-0.9,0.2-1.3C53.4,64.2,52.8,64.1,52.4,64.4z M45,68.1c-0.5,0.2-0.8,0.7-0.6,1.2c0.2,0.5,0.7,0.8,1.2,0.6
	c0.5-0.2,0.8-0.7,0.6-1.2C46.1,68.2,45.5,67.9,45,68.1z M18,62.6c-0.4,0.4-0.3,1,0.1,1.4c0.4,0.4,1,0.3,1.4-0.1
	c0.4-0.4,0.3-1-0.1-1.4C19,62.2,18.4,62.2,18,62.6z M45.9,16.3c-0.5-0.2-1,0.1-1.2,0.6c-0.2,0.5,0.1,1,0.6,1.2
	c0.5,0.2,1-0.1,1.2-0.6C46.6,17,46.4,16.5,45.9,16.3z M12.5,54.9c0.5-0.2,0.7-0.8,0.5-1.3c-0.2-0.5-0.8-0.7-1.3-0.5
	c-0.5,0.2-0.7,0.8-0.5,1.3C11.5,54.9,12,55.1,12.5,54.9z M31.5,68.8c-0.5-0.1-1,0.2-1.1,0.7c-0.1,0.5,0.2,1,0.7,1.1
	c0.5,0.1,1-0.2,1.1-0.7C32.3,69.4,32,68.9,31.5,68.8z M39.9,17c0.5,0.1,1-0.3,1.1-0.9c0.1-0.5-0.3-1-0.9-1.1c-0.5-0.1-1,0.3-1.1,0.9
	C39,16.4,39.4,16.9,39.9,17z M51.4,66.3c-0.3-0.5-0.9-0.6-1.3-0.4c-0.5,0.3-0.6,0.9-0.4,1.3c0.3,0.5,0.9,0.6,1.3,0.4
	C51.5,67.3,51.6,66.7,51.4,66.3z M23.8,65.8c-0.5-0.3-1-0.1-1.3,0.4c-0.3,0.5-0.1,1,0.4,1.3c0.5,0.3,1,0.1,1.3-0.4
	C24.4,66.6,24.3,66,23.8,65.8z M9.5,37.1c-0.1,0.5,0.2,1,0.7,1.1c0.5,0.1,1-0.2,1.1-0.7c0.1-0.5-0.2-1-0.7-1.1
	C10.1,36.3,9.6,36.6,9.5,37.1z M22.7,19.9c0.3,0.5,0.9,0.6,1.3,0.4c0.5-0.3,0.6-0.9,0.4-1.3c-0.3-0.5-0.9-0.6-1.3-0.4
	C22.6,18.9,22.4,19.5,22.7,19.9z M20.4,65.8c0.4,0.3,1,0.2,1.3-0.2c0.3-0.4,0.2-1-0.2-1.3c-0.4-0.3-1-0.2-1.3,0.2
	C19.8,64.9,19.9,65.5,20.4,65.8z M21.7,21.8c0.4-0.3,0.5-0.9,0.2-1.3c-0.3-0.4-0.9-0.5-1.3-0.2c-0.4,0.3-0.5,0.9-0.2,1.3
	C20.7,22,21.3,22.1,21.7,21.8z M11.3,31.5c-0.2,0.5,0,1.1,0.5,1.3c0.5,0.2,1.1,0,1.3-0.5c0.2-0.5,0-1-0.5-1.3
	C12.1,30.8,11.6,31,11.3,31.5z M16.2,24.1c-0.4,0.4-0.3,1,0.1,1.4c0.4,0.4,1,0.3,1.4-0.1c0.4-0.4,0.3-1-0.1-1.4
	C17.1,23.7,16.5,23.7,16.2,24.1z M18.3,22.1c-0.4,0.4-0.4,1-0.1,1.4c0.4,0.4,1,0.4,1.4,0.1c0.4-0.4,0.4-1,0.1-1.4
	C19.3,21.7,18.7,21.7,18.3,22.1z M34,71.1c0.5,0.1,1-0.3,1.1-0.9c0.1-0.5-0.3-1-0.9-1.1c-0.5-0.1-1,0.3-1.1,0.9
	C33.1,70.6,33.4,71.1,34,71.1z M26.2,67c-0.5-0.2-1,0-1.3,0.5c-0.2,0.5,0,1.1,0.5,1.3c0.5,0.2,1.1,0,1.3-0.5
	C26.9,67.8,26.7,67.3,26.2,67z M29.7,16.9c-0.2-0.5-0.7-0.8-1.2-0.6c-0.5,0.2-0.8,0.7-0.6,1.2c0.2,0.5,0.7,0.8,1.2,0.6
	C29.5,17.9,29.8,17.4,29.7,16.9z M9,40c-0.1,0.5,0.3,1,0.9,1.1c0.5,0.1,1-0.3,1.1-0.9c0.1-0.5-0.3-1-0.9-1.1C9.5,39.1,9.1,39.5,9,40
	z M9.8,43.9c0.5,0,1-0.4,1-1c0-0.5-0.4-1-1-1c-0.5,0-1,0.4-1,1C8.9,43.5,9.3,43.9,9.8,43.9z M35.3,15.9c-0.1-0.5-0.5-0.9-1.1-0.9
	c-0.5,0.1-0.9,0.5-0.9,1.1c0.1,0.5,0.5,0.9,1.1,0.9C34.9,16.9,35.3,16.4,35.3,15.9z M27,17.8c-0.2-0.5-0.8-0.7-1.3-0.5
	c-0.5,0.2-0.7,0.8-0.5,1.3c0.2,0.5,0.8,0.7,1.3,0.5C27,18.8,27.2,18.3,27,17.8z M28.8,68c-0.5-0.2-1,0.1-1.2,0.6
	c-0.2,0.5,0.1,1,0.6,1.2c0.5,0.2,1-0.1,1.2-0.6C29.6,68.7,29.3,68.2,28.8,68z M10.9,35.5c0.5,0.2,1-0.1,1.2-0.6
	c0.2-0.5-0.1-1-0.6-1.2c-0.5-0.2-1,0.1-1.2,0.6C10.1,34.8,10.4,35.3,10.9,35.5z M38.8,70.3c0.1,0.5,0.5,0.9,1.1,0.9
	c0.5-0.1,0.9-0.5,0.9-1.1c-0.1-0.5-0.5-0.9-1.1-0.9C39.1,69.3,38.8,69.8,38.8,70.3z M13,30.2c0.5,0.3,1,0.1,1.3-0.4
	c0.3-0.5,0.1-1-0.4-1.3c-0.5-0.3-1-0.1-1.3,0.4C12.4,29.3,12.6,29.9,13,30.2z M14.3,26.4c-0.3,0.4-0.2,1,0.2,1.3
	c0.4,0.3,1,0.2,1.3-0.2c0.3-0.4,0.2-1-0.2-1.3C15.2,25.9,14.6,26,14.3,26.4z M64.6,49.1c0.1-0.5-0.2-1-0.7-1.1
	c-0.5-0.1-1,0.2-1.1,0.7c-0.1,0.5,0.2,1,0.7,1.1C64,49.9,64.5,49.6,64.6,49.1z M17.4,60.6c-0.4-0.4-1-0.4-1.4-0.1
	c-0.4,0.4-0.4,1-0.1,1.4c0.4,0.4,1,0.4,1.4,0.1C17.8,61.6,17.8,61,17.4,60.6z M64.3,42.3c-0.5,0-1,0.4-1,1c0,0.5,0.4,1,1,1
	s1-0.4,1-1C65.2,42.7,64.8,42.3,64.3,42.3z M15.5,59.8c0.4-0.3,0.5-0.9,0.2-1.3c-0.3-0.4-0.9-0.5-1.3-0.2c-0.4,0.3-0.5,0.9-0.2,1.3
	C14.5,60,15.1,60.1,15.5,59.8z M60.1,57.6c0.5,0.3,1,0.1,1.3-0.4c0.3-0.5,0.1-1-0.4-1.3c-0.5-0.3-1-0.1-1.3,0.4
	C59.5,56.8,59.6,57.4,60.1,57.6z M60.2,28.8c-0.5,0.3-0.6,0.9-0.4,1.3c0.3,0.5,0.8,0.6,1.3,0.4c0.5-0.3,0.6-0.9,0.3-1.3
	C61.2,28.6,60.7,28.5,60.2,28.8z M62.7,33.9c-0.5,0.2-0.8,0.7-0.6,1.2c0.2,0.5,0.7,0.8,1.2,0.6c0.5-0.2,0.8-0.7,0.6-1.2
	C63.7,34,63.2,33.7,62.7,33.9z M59.7,28c0.4-0.3,0.5-0.9,0.2-1.3c-0.3-0.4-0.9-0.5-1.3-0.2c-0.4,0.3-0.5,0.9-0.2,1.3
	C58.7,28.2,59.3,28.3,59.7,28z M56.6,25.6c0.4,0.4,1,0.4,1.4,0.1c0.4-0.4,0.4-1,0.1-1.4c-0.4-0.4-1-0.4-1.4-0.1
	C56.3,24.6,56.3,25.2,56.6,25.6z M63.5,36.6c-0.5,0.1-0.8,0.6-0.7,1.1c0.1,0.5,0.6,0.8,1.1,0.7c0.5-0.1,0.8-0.6,0.7-1.1
	C64.5,36.8,64,36.5,63.5,36.6z M61.6,31.3c-0.5,0.2-0.7,0.8-0.5,1.3c0.2,0.5,0.8,0.7,1.3,0.5c0.5-0.2,0.7-0.8,0.5-1.3
	C62.6,31.3,62.1,31,61.6,31.3z M62.6,52.5c0.5,0.2,1-0.1,1.2-0.6c0.2-0.5-0.1-1-0.6-1.2c-0.5-0.2-1,0.1-1.2,0.6
	C61.8,51.8,62.1,52.4,62.6,52.5z M64,39.4c-0.5,0.1-0.9,0.5-0.9,1.1c0.1,0.5,0.5,0.9,1.1,0.9c0.5-0.1,0.9-0.5,0.9-1.1
	C65,39.7,64.6,39.4,64,39.4z M62.7,54.7c0.2-0.5,0-1.1-0.5-1.3c-0.5-0.2-1.1,0-1.3,0.5c-0.2,0.5,0,1,0.5,1.3
	C62,55.4,62.5,55.1,62.7,54.7z M65.1,46.2c0.1-0.5-0.3-1-0.9-1.1c-0.5-0.1-1,0.3-1.1,0.9c-0.1,0.5,0.3,1,0.9,1.1
	C64.5,47.1,65,46.7,65.1,46.2z M51.2,18.7c-0.5-0.3-1-0.1-1.3,0.4c-0.3,0.5-0.1,1,0.4,1.3c0.5,0.3,1,0.1,1.3-0.4
	C51.9,19.6,51.7,19,51.2,18.7z M56.1,23.6c0.4-0.4,0.3-1-0.1-1.4c-0.4-0.4-1-0.3-1.4,0.1c-0.4,0.4-0.3,1,0.1,1.4
	C55.1,24,55.7,24,56.1,23.6z M57.9,62c0.4-0.4,0.3-1-0.1-1.4c-0.4-0.4-1-0.3-1.4,0.1c-0.4,0.4-0.3,1,0.1,1.4
	C56.9,62.5,57.5,62.4,57.9,62z M59.8,59.8c0.3-0.4,0.2-1-0.2-1.3c-0.4-0.3-1-0.2-1.3,0.2c-0.3,0.4-0.2,1,0.2,1.3
	C58.9,60.3,59.5,60.2,59.8,59.8z M47.6,67.1c-0.5,0.2-0.7,0.8-0.5,1.3c0.2,0.5,0.8,0.7,1.3,0.5c0.5-0.2,0.7-0.8,0.5-1.3
	C48.7,67.1,48.1,66.9,47.6,67.1z M13.9,57.4c0.5-0.3,0.6-0.9,0.4-1.3c-0.3-0.5-0.9-0.6-1.3-0.4c-0.5,0.3-0.6,0.9-0.4,1.3
	C12.8,57.5,13.4,57.7,13.9,57.4z M48.6,17.4c-0.5-0.2-1,0-1.3,0.5c-0.2,0.5,0,1.1,0.5,1.3c0.5,0.2,1,0,1.3-0.5
	C49.3,18.2,49.1,17.6,48.6,17.4z M8.5,51.3c0.4-0.1,0.7-0.6,0.6-1.1C9,49.8,8.5,49.5,8,49.7c-0.5,0.1-0.7,0.6-0.6,1.1
	C7.6,51.2,8.1,51.4,8.5,51.3z M10.8,57c0.4-0.2,0.6-0.7,0.3-1.1c-0.2-0.4-0.7-0.6-1.1-0.3c-0.4,0.2-0.6,0.7-0.3,1.1
	C9.9,57.1,10.4,57.3,10.8,57z M16.4,64.5c0.3-0.3,0.3-0.9,0-1.2c-0.3-0.3-0.9-0.3-1.2,0c-0.3,0.3-0.3,0.9,0,1.2
	C15.6,64.8,16.1,64.8,16.4,64.5z M8.6,31.9c-0.2,0.4,0.1,0.9,0.5,1.1c0.4,0.2,0.9-0.1,1.1-0.5c0.2-0.4-0.1-0.9-0.5-1.1
	C9.3,31.2,8.8,31.4,8.6,31.9z M12.5,59.7c0.4-0.3,0.5-0.8,0.2-1.2c-0.3-0.4-0.8-0.5-1.2-0.2c-0.4,0.3-0.5,0.8-0.2,1.2
	C11.5,59.9,12.1,60,12.5,59.7z M13.5,23.6c-0.3,0.4-0.2,0.9,0.2,1.2c0.4,0.3,0.9,0.2,1.2-0.2c0.3-0.4,0.2-0.9-0.2-1.2
	C14.3,23.2,13.8,23.3,13.5,23.6z M7.6,34.9c-0.1,0.5,0.2,0.9,0.6,1c0.5,0.1,0.9-0.2,1-0.6c0.1-0.5-0.2-0.9-0.6-1
	C8.2,34.2,7.7,34.5,7.6,34.9z M6.6,41.2c0,0.5,0.4,0.9,0.8,0.9c0.5,0,0.9-0.4,0.9-0.8c0-0.5-0.4-0.9-0.8-0.9
	C7,40.4,6.6,40.7,6.6,41.2z M6.9,38c-0.1,0.5,0.3,0.9,0.7,1c0.5,0.1,0.9-0.3,1-0.7c0.1-0.5-0.3-0.9-0.7-1C7.4,37.2,7,37.6,6.9,38z
	 M11.1,28.6c-0.4-0.2-0.9,0-1.1,0.4c-0.2,0.4,0,0.9,0.4,1.1c0.4,0.2,0.9,0,1.1-0.4C11.7,29.3,11.5,28.8,11.1,28.6z M7.4,45.2
	c0.5,0,0.8-0.4,0.8-0.9c0-0.5-0.4-0.8-0.9-0.8c-0.5,0-0.8,0.4-0.8,0.9C6.6,44.9,7,45.2,7.4,45.2z M9.5,54.2c0.4-0.2,0.6-0.7,0.5-1.1
	c-0.2-0.4-0.7-0.6-1.1-0.5c-0.4,0.2-0.6,0.7-0.5,1.1C8.6,54.2,9.1,54.4,9.5,54.2z M7.8,48.3c0.5-0.1,0.8-0.5,0.7-1
	c-0.1-0.5-0.5-0.8-1-0.7c-0.5,0.1-0.8,0.5-0.7,1C6.9,48,7.4,48.3,7.8,48.3z M35.9,14.3c0.5,0,0.8-0.4,0.8-0.9c0-0.5-0.4-0.8-0.9-0.8
	c-0.5,0-0.8,0.4-0.8,0.9C35,14,35.4,14.3,35.9,14.3z M59.7,25.2c0.3,0.4,0.8,0.4,1.2,0.1c0.4-0.3,0.4-0.8,0.1-1.2
	c-0.3-0.4-0.8-0.4-1.2-0.1S59.4,24.8,59.7,25.2z M67.2,48.2c0.1-0.5-0.3-0.9-0.7-1c-0.5-0.1-0.9,0.3-1,0.7c-0.1,0.5,0.3,0.9,0.7,1
	C66.7,48.9,67.1,48.6,67.2,48.2z M65.4,54.3c0.2-0.4-0.1-0.9-0.5-1.1c-0.4-0.2-0.9,0.1-1.1,0.5c-0.2,0.4,0.1,0.9,0.5,1.1
	C64.8,55,65.3,54.7,65.4,54.3z M63,57.6c0.4,0.2,0.9,0,1.1-0.4c0.2-0.4,0-0.9-0.4-1.1c-0.4-0.2-0.9,0-1.1,0.4
	C62.4,56.9,62.6,57.4,63,57.6z M67.5,45c0-0.5-0.4-0.9-0.8-0.9c-0.5,0-0.9,0.4-0.9,0.8c0,0.5,0.4,0.9,0.8,0.9
	C67.1,45.8,67.5,45.4,67.5,45z M66.6,41c-0.5,0-0.8,0.4-0.8,0.9c0,0.5,0.4,0.8,0.9,0.8c0.5,0,0.8-0.4,0.8-0.9
	C67.5,41.3,67.1,41,66.6,41z M19.1,20.5c0.4-0.3,0.4-0.8,0.1-1.2c-0.3-0.4-0.8-0.4-1.2-0.1c-0.4,0.3-0.4,0.8-0.1,1.2
	C18.2,20.7,18.8,20.8,19.1,20.5z M66,36.5c0.4-0.1,0.7-0.6,0.6-1.1c-0.1-0.4-0.6-0.7-1.1-0.6c-0.4,0.1-0.7,0.6-0.6,1.1
	C65.1,36.4,65.6,36.6,66,36.5z M58.9,22.9c0.3-0.3,0.3-0.9,0-1.2c-0.3-0.3-0.9-0.3-1.2,0c-0.3,0.3-0.3,0.9,0,1.2
	C58,23.3,58.5,23.2,58.9,22.9z M66.6,39.6c0.5-0.1,0.8-0.5,0.7-1c-0.1-0.5-0.5-0.8-1-0.7c-0.5,0.1-0.8,0.5-0.7,1
	C65.7,39.4,66.1,39.7,66.6,39.6z M64.5,32c-0.4,0.2-0.6,0.7-0.5,1.1c0.2,0.4,0.7,0.6,1.1,0.5c0.4-0.2,0.6-0.7,0.5-1.1
	C65.5,32,65,31.8,64.5,32z M63.2,29.1c-0.4,0.2-0.6,0.7-0.3,1.1c0.2,0.4,0.7,0.6,1.2,0.3c0.4-0.2,0.6-0.7,0.3-1.1
	C64.2,29.1,63.6,28.9,63.2,29.1z M61.6,26.5c-0.4,0.3-0.5,0.8-0.2,1.2c0.3,0.4,0.8,0.5,1.2,0.2c0.4-0.3,0.5-0.8,0.2-1.2
	C62.5,26.3,62,26.2,61.6,26.5z M66.5,51.3c0.1-0.5-0.2-0.9-0.6-1c-0.5-0.1-0.9,0.2-1,0.6c-0.1,0.5,0.2,0.9,0.6,1
	C65.9,52,66.3,51.7,66.5,51.3z M11.6,26.2c-0.2,0.4-0.1,0.9,0.3,1.2c0.4,0.2,0.9,0.1,1.2-0.3c0.2-0.4,0.1-0.9-0.3-1.2
	C12.4,25.7,11.8,25.8,11.6,26.2z M32.8,14.6c0.5-0.1,0.8-0.5,0.7-1c-0.1-0.5-0.5-0.8-1-0.7c-0.5,0.1-0.8,0.5-0.7,1
	C31.9,14.3,32.4,14.6,32.8,14.6z M25.9,15.6c0.2,0.4,0.7,0.6,1.1,0.5c0.4-0.2,0.6-0.7,0.5-1.1c-0.2-0.4-0.7-0.6-1.1-0.5
	C25.9,14.7,25.7,15.2,25.9,15.6z M28.8,14.6c0.1,0.4,0.6,0.7,1.1,0.6c0.4-0.1,0.7-0.6,0.6-1.1c-0.1-0.5-0.6-0.7-1.1-0.6
	C29,13.6,28.7,14.1,28.8,14.6z M24.2,17.2c0.4-0.2,0.6-0.7,0.3-1.1c-0.2-0.4-0.7-0.6-1.1-0.3c-0.4,0.2-0.6,0.7-0.3,1.1
	C23.3,17.3,23.8,17.5,24.2,17.2z M21.6,18.7c0.4-0.3,0.5-0.8,0.2-1.2c-0.3-0.4-0.8-0.5-1.2-0.2c-0.4,0.3-0.5,0.8-0.2,1.2
	C20.7,18.9,21.2,19,21.6,18.7z M41.5,73.3c0.5-0.1,0.8-0.5,0.7-1c-0.1-0.5-0.5-0.8-1-0.7c-0.5,0.1-0.8,0.5-0.7,1
	C40.6,73.1,41.1,73.4,41.5,73.3z M44.2,14.3c-0.1,0.5,0.2,0.9,0.6,1c0.5,0.1,0.9-0.2,1-0.6c0.1-0.5-0.2-0.9-0.6-1
	C44.8,13.6,44.3,13.8,44.2,14.3z M47.2,15.2c-0.2,0.4,0.1,0.9,0.5,1.1c0.4,0.2,0.9-0.1,1.1-0.5c0.2-0.4-0.1-0.9-0.5-1.1
	C47.8,14.5,47.3,14.8,47.2,15.2z M38.9,14.3c0.5,0,0.9-0.4,0.9-0.8c0-0.5-0.4-0.9-0.8-0.9c-0.5,0-0.9,0.4-0.9,0.8
	C38,13.9,38.4,14.3,38.9,14.3z M50,16.4c-0.2,0.4,0,0.9,0.4,1.1c0.4,0.2,0.9,0,1.1-0.4c0.2-0.4,0-0.9-0.4-1.1
	C50.7,15.8,50.2,16,50,16.4z M55.4,20.9c0.4,0.3,0.9,0.2,1.2-0.2c0.3-0.4,0.2-0.9-0.2-1.2c-0.4-0.3-0.9-0.2-1.2,0.2
	C55,20.1,55.1,20.6,55.4,20.9z M41.1,13.7c-0.1,0.5,0.3,0.9,0.7,1c0.5,0.1,0.9-0.3,1-0.7c0.1-0.5-0.3-0.9-0.7-1
	C41.6,12.9,41.2,13.2,41.1,13.7z M15.7,21.3c-0.3,0.3-0.3,0.9,0,1.2c0.3,0.3,0.9,0.3,1.2,0c0.3-0.3,0.3-0.9,0-1.2
	C16.5,20.9,16,21,15.7,21.3z M24.1,69.8c0.2-0.4,0-0.9-0.4-1.1c-0.4-0.2-0.9,0-1.1,0.4c-0.2,0.4,0,0.9,0.4,1.1
	C23.3,70.4,23.8,70.2,24.1,69.8z M45.2,71.6c-0.1-0.4-0.6-0.7-1.1-0.6c-0.4,0.1-0.7,0.6-0.6,1.1c0.1,0.4,0.6,0.7,1.1,0.6
	C45.1,72.5,45.4,72.1,45.2,71.6z M54.9,65.7c-0.4,0.3-0.4,0.8-0.1,1.2c0.3,0.4,0.8,0.4,1.2,0.1c0.4-0.3,0.4-0.8,0.1-1.2
	S55.3,65.4,54.9,65.7z M32.9,72.5c0.1-0.5-0.3-0.9-0.7-1c-0.5-0.1-0.9,0.3-1,0.7c-0.1,0.5,0.3,0.9,0.7,1
	C32.4,73.3,32.9,72.9,32.9,72.5z M21.3,68.3c0.2-0.4,0.1-0.9-0.3-1.2c-0.4-0.2-0.9-0.1-1.2,0.3c-0.2,0.4-0.1,0.9,0.3,1.2
	C20.6,68.8,21.1,68.7,21.3,68.3z M49.8,68.9c-0.4,0.2-0.6,0.7-0.3,1.1c0.2,0.4,0.7,0.6,1.1,0.3c0.4-0.2,0.6-0.7,0.3-1.1
	C50.8,68.9,50.3,68.7,49.8,68.9z M29.9,71.9c0.1-0.5-0.2-0.9-0.6-1c-0.5-0.1-0.9,0.2-1,0.6c-0.1,0.5,0.2,0.9,0.6,1
	C29.3,72.6,29.8,72.3,29.9,71.9z M38.2,71.9c-0.5,0-0.8,0.4-0.8,0.9c0,0.5,0.4,0.8,0.9,0.8c0.5,0,0.8-0.4,0.8-0.9
	C39.1,72.2,38.7,71.9,38.2,71.9z M52.5,67.5c-0.4,0.3-0.5,0.8-0.2,1.2c0.3,0.4,0.8,0.5,1.2,0.2c0.4-0.3,0.5-0.8,0.2-1.2
	C53.4,67.3,52.9,67.2,52.5,67.5z M58.4,64.9c0.3-0.3,0.3-0.9,0-1.2c-0.3-0.3-0.9-0.3-1.2,0c-0.3,0.3-0.3,0.9,0,1.2
	C57.6,65.2,58.1,65.2,58.4,64.9z M53.9,17.6c-0.4-0.2-0.9-0.1-1.2,0.3c-0.2,0.4-0.1,0.9,0.3,1.2c0.4,0.2,0.9,0.1,1.2-0.3
	C54.4,18.4,54.3,17.9,53.9,17.6z M26.9,71c0.2-0.4-0.1-0.9-0.5-1.1c-0.4-0.2-0.9,0.1-1.1,0.5c-0.2,0.4,0.1,0.9,0.5,1.1
	C26.3,71.7,26.8,71.4,26.9,71z M62.5,60c0.2-0.4,0.1-0.9-0.3-1.2c-0.4-0.2-0.9-0.1-1.2,0.3c-0.2,0.4-0.1,0.9,0.3,1.2
	C61.7,60.5,62.2,60.4,62.5,60z M48.2,70.6c-0.2-0.4-0.7-0.6-1.1-0.5c-0.4,0.2-0.6,0.7-0.5,1.1c0.2,0.4,0.7,0.6,1.1,0.5
	C48.1,71.5,48.4,71,48.2,70.6z M60.6,62.5c0.3-0.4,0.2-0.9-0.2-1.2c-0.4-0.3-0.9-0.2-1.2,0.2c-0.3,0.4-0.2,0.9,0.2,1.2
	C59.8,63,60.3,62.9,60.6,62.5z M14.4,61c-0.3-0.4-0.8-0.4-1.2-0.1c-0.4,0.3-0.4,0.8-0.1,1.2c0.3,0.4,0.8,0.4,1.2,0.1
	C14.7,61.9,14.7,61.3,14.4,61z M35.2,71.9c-0.5,0-0.9,0.4-0.9,0.8c0,0.5,0.4,0.9,0.8,0.9c0.5,0,0.9-0.4,0.9-0.8
	C36,72.3,35.7,71.9,35.2,71.9z M18.6,65.3c-0.4-0.3-0.9-0.2-1.2,0.2c-0.3,0.4-0.2,0.9,0.2,1.2c0.4,0.3,0.9,0.2,1.2-0.2
	C19.1,66.1,19,65.6,18.6,65.3z M60.4,22.6c0.2,0.3,0.7,0.4,1,0.1c0.3-0.2,0.4-0.7,0.1-1c-0.2-0.3-0.7-0.4-1-0.1
	C60.2,21.8,60.2,22.2,60.4,22.6z M6.8,53.2c0.4-0.1,0.6-0.5,0.5-0.9c-0.1-0.4-0.5-0.6-0.9-0.5c-0.4,0.1-0.6,0.5-0.5,0.9
	C6.1,53.1,6.5,53.3,6.8,53.2z M16,66c-0.3-0.3-0.7-0.3-1,0c-0.3,0.3-0.3,0.7,0,1c0.3,0.3,0.7,0.3,1,0C16.2,66.7,16.2,66.2,16,66z
	 M66,29.9c-0.4,0.1-0.6,0.6-0.4,0.9c0.1,0.4,0.6,0.6,0.9,0.4c0.4-0.1,0.6-0.6,0.4-0.9C66.8,29.9,66.4,29.7,66,29.9z M47.2,73.3
	c-0.1-0.4-0.5-0.6-0.9-0.5c-0.4,0.1-0.6,0.5-0.5,0.9c0.1,0.4,0.5,0.6,0.9,0.5C47,74.1,47.3,73.7,47.2,73.3z M24.4,72.3
	c0.2-0.4,0-0.8-0.3-1c-0.4-0.2-0.8,0-1,0.3c-0.2,0.4,0,0.8,0.3,1C23.7,72.8,24.2,72.7,24.4,72.3z M68.4,37.6
	c0.4-0.1,0.7-0.4,0.6-0.8c-0.1-0.4-0.4-0.7-0.8-0.6c-0.4,0.1-0.7,0.4-0.6,0.8C67.6,37.4,68,37.6,68.4,37.6z M67.4,52.6
	c-0.4-0.1-0.8,0-0.9,0.4c-0.1,0.4,0,0.8,0.4,0.9c0.4,0.1,0.8,0,0.9-0.4C68,53.2,67.8,52.8,67.4,52.6z M37.4,12
	c0.4,0,0.7-0.3,0.8-0.7c0-0.4-0.3-0.7-0.7-0.8c-0.4,0-0.7,0.3-0.8,0.7C36.7,11.6,37,12,37.4,12z M18.5,68c-0.3-0.2-0.8-0.2-1,0.1
	c-0.2,0.3-0.2,0.8,0.1,1c0.3,0.2,0.8,0.2,1-0.1C18.8,68.7,18.8,68.3,18.5,68z M21.4,70.8c0.2-0.3,0.1-0.8-0.2-1
	c-0.3-0.2-0.8-0.1-1,0.2c-0.2,0.3-0.1,0.8,0.2,1C20.7,71.3,21.2,71.2,21.4,70.8z M67.6,34.3c0.4-0.1,0.6-0.5,0.5-0.9
	c-0.1-0.4-0.5-0.6-0.9-0.5c-0.4,0.1-0.6,0.5-0.5,0.9C66.8,34.2,67.2,34.4,67.6,34.3z M26.9,12.9c0.1,0.4,0.5,0.6,0.9,0.5
	c0.4-0.1,0.6-0.5,0.5-0.9c-0.1-0.4-0.5-0.6-0.9-0.5C27,12.1,26.8,12.5,26.9,12.9z M23.8,14.1c0.1,0.4,0.6,0.6,0.9,0.4
	c0.4-0.1,0.6-0.6,0.4-0.9c-0.1-0.4-0.6-0.6-0.9-0.4C23.9,13.3,23.7,13.7,23.8,14.1z M20.8,15.7c0.2,0.4,0.6,0.5,1,0.3
	c0.4-0.2,0.5-0.6,0.3-1c-0.2-0.4-0.6-0.5-1-0.3C20.8,14.9,20.7,15.3,20.8,15.7z M5.9,50c0.4-0.1,0.7-0.4,0.6-0.8
	c-0.1-0.4-0.4-0.7-0.8-0.6c-0.4,0.1-0.7,0.4-0.6,0.8C5.2,49.8,5.6,50.1,5.9,50z M33.4,11.4c0,0.4,0.4,0.7,0.8,0.7
	c0.4,0,0.7-0.4,0.7-0.8c0-0.4-0.4-0.7-0.8-0.7C33.7,10.7,33.4,11,33.4,11.4z M65,59.7c0.2-0.3,0.1-0.8-0.2-1c-0.3-0.2-0.8-0.1-1,0.2
	c-0.2,0.3-0.1,0.8,0.2,1C64.3,60.2,64.8,60.1,65,59.7z M8.1,56.3c0.4-0.1,0.6-0.6,0.4-0.9C8.3,55,7.9,54.8,7.6,55
	c-0.4,0.1-0.6,0.6-0.4,0.9C7.3,56.3,7.7,56.5,8.1,56.3z M63.1,62.6c0.3-0.3,0.2-0.8-0.1-1c-0.3-0.2-0.8-0.2-1,0.1
	c-0.2,0.3-0.2,0.8,0.1,1C62.4,62.9,62.8,62.9,63.1,62.6z M40.7,74.7c0-0.4-0.4-0.7-0.7-0.7c-0.4,0-0.7,0.4-0.7,0.8
	c0,0.4,0.4,0.7,0.8,0.7C40.4,75.5,40.7,75.1,40.7,74.7z M36.7,74.2c-0.4,0-0.7,0.3-0.8,0.7c0,0.4,0.3,0.7,0.7,0.8
	c0.4,0,0.7-0.3,0.8-0.7C37.4,74.6,37.1,74.2,36.7,74.2z M30.1,12c0.1,0.4,0.4,0.7,0.8,0.6c0.4-0.1,0.7-0.4,0.6-0.8
	c-0.1-0.4-0.4-0.7-0.8-0.6C30.3,11.2,30.1,11.6,30.1,12z M5.3,40.1c0.4,0.1,0.8-0.2,0.8-0.6c0.1-0.4-0.2-0.8-0.6-0.8
	c-0.4-0.1-0.8,0.2-0.8,0.6C4.7,39.6,4.9,40,5.3,40.1z M33.4,74c-0.4-0.1-0.8,0.2-0.8,0.6c-0.1,0.4,0.2,0.8,0.6,0.8
	c0.4,0.1,0.8-0.2,0.8-0.6C34.1,74.4,33.8,74,33.4,74z M5.4,46.7c0.4,0,0.7-0.4,0.7-0.7c0-0.4-0.4-0.7-0.7-0.7
	c-0.4,0-0.7,0.4-0.7,0.8C4.7,46.4,5,46.7,5.4,46.7z M30.2,73.4c-0.4-0.1-0.8,0.1-0.9,0.5c-0.1,0.4,0.1,0.8,0.5,0.9
	c0.4,0.1,0.8-0.1,0.9-0.5C30.8,73.9,30.6,73.5,30.2,73.4z M5.2,43.4c0.4,0,0.7-0.3,0.8-0.7C6,42.3,5.7,42,5.3,42
	c-0.4,0-0.7,0.3-0.8,0.7C4.5,43,4.8,43.4,5.2,43.4z M44,74.2c-0.1-0.4-0.4-0.7-0.8-0.6c-0.4,0.1-0.7,0.4-0.6,0.8
	c0.1,0.4,0.4,0.7,0.8,0.6C43.8,74.9,44,74.6,44,74.2z M66.3,55.8c-0.4-0.2-0.8,0-1,0.3c-0.2,0.4,0,0.8,0.3,1c0.4,0.2,0.8,0,1-0.3
	C66.8,56.4,66.6,56,66.3,55.8z M60.9,65.2c0.3-0.3,0.3-0.7,0-1c-0.3-0.3-0.7-0.3-1,0c-0.3,0.3-0.3,0.7,0,1
	C60.2,65.5,60.6,65.5,60.9,65.2z M18.3,16.5c-0.3,0.2-0.4,0.7-0.2,1c0.2,0.3,0.7,0.4,1,0.2c0.3-0.2,0.4-0.7,0.2-1
	C19.1,16.4,18.6,16.3,18.3,16.5z M27.5,73.5c0.1-0.4,0-0.8-0.4-0.9c-0.4-0.1-0.8,0-0.9,0.4c-0.1,0.4,0,0.8,0.4,0.9
	C26.9,74,27.3,73.8,27.5,73.5z M5.3,35.9c-0.1,0.4,0.1,0.8,0.5,0.9c0.4,0.1,0.8-0.1,0.9-0.5c0.1-0.4-0.1-0.8-0.5-0.9
	C5.8,35.3,5.4,35.5,5.3,35.9z M55.8,69.7c0.3-0.2,0.4-0.7,0.2-1c-0.2-0.3-0.7-0.4-1-0.2c-0.3,0.2-0.4,0.7-0.2,1
	C55,69.8,55.5,69.9,55.8,69.7z M46.6,12.7c-0.1,0.4,0,0.8,0.4,0.9c0.4,0.1,0.8,0,0.9-0.4c0.1-0.4,0-0.8-0.4-0.9
	C47.2,12.1,46.7,12.3,46.6,12.7z M6.6,33.5c0.4,0.1,0.8,0,0.9-0.4c0.1-0.4,0-0.8-0.4-0.9c-0.4-0.1-0.8,0-0.9,0.4
	C6.1,33,6.3,33.4,6.6,33.5z M9.1,26.4c-0.2,0.3-0.1,0.8,0.2,1c0.3,0.2,0.8,0.1,1-0.2c0.2-0.3,0.1-0.8-0.2-1
	C9.8,26,9.3,26.1,9.1,26.4z M53.2,70.5c-0.2-0.4-0.6-0.5-1-0.3c-0.4,0.2-0.5,0.6-0.3,1c0.2,0.4,0.6,0.5,1,0.3
	C53.3,71.3,53.4,70.9,53.2,70.5z M43.9,12.7c0.4,0.1,0.8-0.1,0.9-0.5c0.1-0.4-0.1-0.8-0.5-0.9c-0.4-0.1-0.8,0.1-0.9,0.5
	C43.3,12.2,43.5,12.6,43.9,12.7z M7.8,30.4c0.4,0.2,0.8,0,1-0.3c0.2-0.4,0-0.8-0.3-1c-0.4-0.2-0.8,0-1,0.3
	C7.3,29.8,7.5,30.2,7.8,30.4z M55.6,18.1c0.3,0.3,0.8,0.2,1-0.1c0.3-0.3,0.2-0.8-0.1-1c-0.3-0.2-0.8-0.2-1,0.1
	C55.3,17.4,55.3,17.9,55.6,18.1z M64.5,26.9c-0.4,0.2-0.5,0.6-0.3,1c0.2,0.4,0.6,0.5,1,0.3c0.4-0.2,0.5-0.6,0.3-1
	C65.3,26.9,64.8,26.7,64.5,26.9z M58.1,20.2c0.3,0.3,0.7,0.3,1,0c0.3-0.3,0.3-0.7,0-1c-0.3-0.3-0.7-0.3-1,0
	C57.9,19.5,57.8,19.9,58.1,20.2z M62.4,25.1c0.2,0.3,0.7,0.4,1,0.2c0.3-0.2,0.4-0.7,0.2-1c-0.2-0.3-0.7-0.4-1-0.2
	C62.3,24.3,62.2,24.8,62.4,25.1z M49.7,13.9c-0.2,0.4,0,0.8,0.3,1c0.4,0.2,0.8,0,1-0.3c0.2-0.4,0-0.8-0.3-1
	C50.3,13.4,49.9,13.5,49.7,13.9z M58.5,67.6c0.3-0.2,0.4-0.7,0.1-1c-0.2-0.3-0.7-0.4-1-0.1c-0.3,0.2-0.4,0.7-0.1,1
	C57.7,67.8,58.2,67.8,58.5,67.6z M52.7,15.3c-0.2,0.3-0.1,0.8,0.2,1c0.3,0.2,0.8,0.1,1-0.2c0.2-0.3,0.1-0.8-0.2-1
	C53.4,14.9,52.9,15,52.7,15.3z M15.6,18.6c-0.3,0.2-0.4,0.7-0.1,1c0.2,0.3,0.7,0.4,1,0.1c0.3-0.2,0.4-0.7,0.1-1
	C16.4,18.4,15.9,18.4,15.6,18.6z M68.5,47.5c0.4,0.1,0.8-0.2,0.8-0.6c0.1-0.4-0.2-0.8-0.6-0.8c-0.4-0.1-0.8,0.2-0.8,0.6
	C67.9,47.1,68.1,47.5,68.5,47.5z M9.6,59.3c0.4-0.2,0.5-0.6,0.3-1C9.7,58,9.3,57.8,9,58c-0.4,0.2-0.5,0.6-0.3,1
	C8.8,59.3,9.2,59.5,9.6,59.3z M68,40.2c0,0.4,0.4,0.7,0.8,0.7c0.4,0,0.7-0.4,0.7-0.7c0-0.4-0.4-0.7-0.8-0.7
	C68.3,39.5,68,39.8,68,40.2z M40.7,12.2c0.4,0.1,0.8-0.2,0.8-0.6c0.1-0.4-0.2-0.8-0.6-0.8c-0.4-0.1-0.8,0.2-0.8,0.6
	C40,11.8,40.3,12.1,40.7,12.2z M13.2,21c-0.3,0.3-0.3,0.7,0,1c0.3,0.3,0.7,0.3,1,0c0.3-0.3,0.3-0.7,0-1C13.9,20.7,13.4,20.7,13.2,21
	z M50.3,72.1c-0.1-0.4-0.6-0.6-0.9-0.4c-0.4,0.1-0.6,0.6-0.4,0.9c0.1,0.4,0.6,0.6,0.9,0.4C50.2,72.9,50.4,72.4,50.3,72.1z
	 M13.7,63.6c-0.2-0.3-0.7-0.4-1-0.1c-0.3,0.2-0.4,0.7-0.1,1c0.2,0.3,0.7,0.4,1,0.1C13.9,64.4,13.9,63.9,13.7,63.6z M11,23.6
	c-0.2,0.3-0.2,0.8,0.1,1c0.3,0.2,0.8,0.2,1-0.1c0.2-0.3,0.2-0.8-0.1-1C11.7,23.2,11.2,23.3,11,23.6z M11.7,61.1
	c-0.2-0.3-0.7-0.4-1-0.2c-0.3,0.2-0.4,0.7-0.2,1c0.2,0.3,0.7,0.4,1,0.2C11.8,61.8,11.9,61.4,11.7,61.1z M68.8,50.3
	c0.1-0.4-0.1-0.8-0.5-0.9c-0.4-0.1-0.8,0.1-0.9,0.5c-0.1,0.4,0.1,0.8,0.5,0.9C68.3,50.9,68.7,50.7,68.8,50.3z M68.9,42.8
	c-0.4,0-0.7,0.3-0.8,0.7c0,0.4,0.3,0.7,0.7,0.8c0.4,0,0.7-0.3,0.8-0.7C69.6,43.1,69.3,42.8,68.9,42.8z M32.4,9.8
	c0.3-0.1,0.5-0.4,0.4-0.7c-0.1-0.3-0.4-0.5-0.7-0.4c-0.3,0.1-0.5,0.4-0.4,0.7C31.8,9.7,32.1,9.9,32.4,9.8z M61.2,68
	c0.2-0.2,0.2-0.6,0-0.8c-0.2-0.2-0.6-0.2-0.8,0c-0.2,0.2-0.2,0.6,0,0.8C60.6,68.3,61,68.3,61.2,68z M58.5,69.6
	c-0.2-0.2-0.6-0.3-0.8,0c-0.2,0.2-0.3,0.6,0,0.8c0.2,0.2,0.6,0.3,0.8,0C58.7,70.2,58.7,69.8,58.5,69.6z M58.6,17.4
	c0.3,0.2,0.6,0.1,0.8-0.1c0.2-0.3,0.1-0.6-0.1-0.8c-0.3-0.2-0.6-0.1-0.8,0.1C58.3,16.8,58.4,17.2,58.6,17.4z M55.8,15.3
	c0.3,0.2,0.6,0.1,0.8-0.2c0.2-0.3,0.1-0.6-0.2-0.8c-0.3-0.2-0.6-0.1-0.8,0.2C55.5,14.7,55.6,15.1,55.8,15.3z M62,19.7
	c0.2-0.2,0.2-0.6,0-0.8c-0.2-0.2-0.6-0.2-0.8,0c-0.2,0.2-0.2,0.6,0,0.8C61.5,20,61.8,20,62,19.7z M48.5,74.7
	c-0.3,0.1-0.4,0.5-0.3,0.8c0.1,0.3,0.5,0.4,0.8,0.3c0.3-0.1,0.4-0.5,0.3-0.8C49.1,74.7,48.8,74.5,48.5,74.7z M64.4,22.5
	c0.2-0.2,0.3-0.6,0-0.8c-0.2-0.2-0.6-0.3-0.8,0c-0.2,0.2-0.3,0.6,0,0.8C63.7,22.7,64.1,22.7,64.4,22.5z M42.9,10
	c0.3,0,0.6-0.2,0.6-0.5c0-0.3-0.2-0.6-0.5-0.6c-0.3,0-0.6,0.2-0.6,0.5C42.3,9.7,42.6,10,42.9,10z M52.8,13.4c0.3,0.1,0.6,0,0.8-0.3
	c0.1-0.3,0-0.6-0.3-0.8c-0.3-0.1-0.6,0-0.8,0.3C52.4,13,52.5,13.3,52.8,13.4z M68,28.6c0.3-0.2,0.4-0.5,0.2-0.8
	c-0.2-0.3-0.5-0.4-0.8-0.2c-0.3,0.2-0.4,0.5-0.2,0.8C67.4,28.7,67.8,28.8,68,28.6z M45.1,75.7c-0.3,0.1-0.5,0.4-0.4,0.7
	c0.1,0.3,0.4,0.5,0.7,0.4c0.3-0.1,0.5-0.4,0.4-0.7C45.8,75.7,45.4,75.6,45.1,75.7z M35.9,9.5c0.3,0,0.6-0.3,0.5-0.6
	c0-0.3-0.3-0.6-0.6-0.5c-0.3,0-0.6,0.3-0.5,0.6C35.3,9.3,35.6,9.6,35.9,9.5z M55.6,71.7c-0.2-0.3-0.6-0.3-0.8-0.1
	c-0.3,0.2-0.3,0.6-0.1,0.8c0.2,0.3,0.6,0.3,0.8,0.1C55.8,72.3,55.8,72,55.6,71.7z M51.7,73.3c-0.3,0.2-0.4,0.5-0.2,0.8
	c0.2,0.3,0.5,0.4,0.8,0.2c0.3-0.2,0.4-0.5,0.2-0.8C52.4,73.2,52,73.1,51.7,73.3z M41.7,76.4c-0.3,0.1-0.5,0.4-0.4,0.7
	c0.1,0.3,0.4,0.5,0.7,0.4c0.3-0.1,0.5-0.4,0.4-0.7C42.3,76.5,42,76.3,41.7,76.4z M39.4,9.6C39.7,9.6,40,9.3,40,9
	c0-0.3-0.3-0.6-0.6-0.6c-0.3,0-0.6,0.3-0.6,0.6C38.8,9.3,39.1,9.6,39.4,9.6z M66.4,25.4c0.3-0.2,0.3-0.6,0.1-0.8
	c-0.2-0.3-0.6-0.3-0.8-0.1c-0.3,0.2-0.3,0.6-0.1,0.8C65.7,25.6,66.1,25.6,66.4,25.4z M45.9,10.1c-0.1,0.3,0.1,0.6,0.5,0.7
	c0.3,0.1,0.6-0.1,0.7-0.5c0.1-0.3-0.1-0.6-0.5-0.7C46.2,9.6,45.9,9.8,45.9,10.1z M49.3,11.2c-0.1,0.3,0.1,0.6,0.4,0.7
	c0.3,0.1,0.6-0.1,0.7-0.4c0.1-0.3-0.1-0.6-0.4-0.7C49.7,10.7,49.4,10.9,49.3,11.2z M67.5,58.6c-0.3-0.1-0.6,0-0.8,0.3
	c-0.1,0.3,0,0.6,0.3,0.8c0.3,0.1,0.6,0,0.8-0.3C67.9,59.1,67.8,58.7,67.5,58.6z M6.6,27.6c0.3,0.1,0.6,0,0.8-0.3
	c0.1-0.3,0-0.6-0.3-0.8c-0.3-0.1-0.6,0-0.8,0.3C6.2,27.1,6.3,27.5,6.6,27.6z M4.8,30.1c-0.1,0.3,0.1,0.6,0.4,0.7
	c0.3,0.1,0.6-0.1,0.7-0.4c0.1-0.3-0.1-0.6-0.4-0.7C5.2,29.6,4.9,29.8,4.8,30.1z M3.3,37.8c0.3,0,0.6-0.2,0.6-0.5
	c0-0.3-0.2-0.6-0.5-0.6c-0.3,0-0.6,0.2-0.6,0.5C2.8,37.4,3,37.7,3.3,37.8z M3.6,33.6c-0.1,0.3,0.1,0.6,0.5,0.7
	c0.3,0.1,0.6-0.1,0.7-0.5c0.1-0.3-0.1-0.6-0.5-0.7C4,33,3.7,33.3,3.6,33.6z M8.4,24.5c0.3,0.2,0.6,0.1,0.8-0.2
	C9.4,24,9.3,23.6,9,23.5c-0.3-0.2-0.6-0.1-0.8,0.2C8,24,8.1,24.3,8.4,24.5z M10.5,21.6c0.3,0.2,0.6,0.1,0.8-0.1
	c0.2-0.3,0.1-0.6-0.1-0.8c-0.3-0.2-0.6-0.1-0.8,0.1C10.2,21.1,10.2,21.4,10.5,21.6z M12.8,18.1c-0.2,0.2-0.2,0.6,0,0.8
	c0.2,0.2,0.6,0.2,0.8,0c0.2-0.2,0.2-0.6,0-0.8C13.4,17.9,13.1,17.9,12.8,18.1z M7.7,60.7c-0.3,0.2-0.3,0.6-0.1,0.8
	c0.2,0.3,0.6,0.3,0.8,0.1c0.3-0.2,0.3-0.6,0.1-0.8C8.4,60.6,8,60.5,7.7,60.7z M2.4,40.7c0,0.3,0.3,0.6,0.6,0.6
	c0.3,0,0.6-0.3,0.6-0.6c0-0.3-0.3-0.6-0.6-0.6C2.6,40.1,2.4,40.4,2.4,40.7z M70.8,48.4c-0.3,0-0.6,0.2-0.6,0.5
	c0,0.3,0.2,0.6,0.5,0.6c0.3,0,0.6-0.2,0.6-0.5C71.3,48.7,71.1,48.4,70.8,48.4z M4.1,51.9c0.3-0.1,0.5-0.4,0.4-0.7
	c-0.1-0.3-0.4-0.5-0.7-0.4c-0.3,0.1-0.5,0.4-0.4,0.7C3.4,51.9,3.8,52,4.1,51.9z M3.8,47.7c-0.1-0.3-0.4-0.5-0.7-0.4
	c-0.3,0.1-0.5,0.4-0.4,0.7c0.1,0.3,0.4,0.5,0.7,0.4C3.6,48.4,3.8,48.1,3.8,47.7z M70.5,52.6c0.1-0.3-0.1-0.6-0.5-0.7
	c-0.3-0.1-0.6,0.1-0.7,0.5c-0.1,0.3,0.1,0.6,0.5,0.7C70.1,53.1,70.4,52.9,70.5,52.6z M3,44.9c0.3,0,0.6-0.3,0.5-0.6
	c0-0.3-0.3-0.6-0.6-0.5c-0.3,0-0.6,0.3-0.5,0.6C2.3,44.7,2.6,44.9,3,44.9z M5.5,54.6c-0.1-0.3-0.5-0.4-0.8-0.3
	c-0.3,0.1-0.4,0.5-0.3,0.8c0.1,0.3,0.5,0.4,0.8,0.3C5.5,55.2,5.6,54.8,5.5,54.6z M6,57.6c-0.3,0.2-0.4,0.5-0.2,0.8
	c0.2,0.3,0.5,0.4,0.8,0.2c0.3-0.2,0.4-0.5,0.2-0.8C6.7,57.5,6.3,57.4,6,57.6z M71.1,44.9c-0.3,0-0.6,0.3-0.6,0.6
	c0,0.3,0.3,0.6,0.6,0.6c0.3,0,0.6-0.3,0.6-0.6C71.7,45.1,71.4,44.9,71.1,44.9z M70.3,38.4c0.1,0.3,0.4,0.5,0.7,0.4
	c0.3-0.1,0.5-0.4,0.4-0.7c-0.1-0.3-0.4-0.5-0.7-0.4C70.4,37.8,70.2,38.1,70.3,38.4z M70,34.2c-0.3,0.1-0.5,0.4-0.4,0.7
	c0.1,0.3,0.4,0.5,0.7,0.4c0.3-0.1,0.5-0.4,0.4-0.7C70.6,34.3,70.3,34.1,70,34.2z M68.6,31.6c0.1,0.3,0.5,0.4,0.8,0.3
	c0.3-0.1,0.4-0.5,0.3-0.8c-0.1-0.3-0.5-0.4-0.8-0.3C68.6,31,68.5,31.3,68.6,31.6z M71.1,41.3c-0.3,0-0.6,0.3-0.5,0.6
	c0,0.3,0.3,0.6,0.6,0.5c0.3,0,0.6-0.3,0.5-0.6C71.7,41.5,71.4,41.3,71.1,41.3z M22.3,12.9c0.3-0.2,0.4-0.5,0.2-0.8
	c-0.2-0.3-0.5-0.4-0.8-0.2c-0.3,0.2-0.4,0.5-0.2,0.8C21.7,13,22.1,13.1,22.3,12.9z M31.2,76.2c-0.3,0-0.6,0.2-0.6,0.5
	c0,0.3,0.2,0.6,0.5,0.6c0.3,0,0.6-0.2,0.6-0.5C31.7,76.5,31.5,76.2,31.2,76.2z M65.7,61.7c-0.3-0.2-0.6-0.1-0.8,0.2
	c-0.2,0.3-0.1,0.6,0.2,0.8c0.3,0.2,0.6,0.1,0.8-0.2C66.1,62.2,66,61.8,65.7,61.7z M28.9,10.5c0.3-0.1,0.5-0.4,0.4-0.7
	c-0.1-0.3-0.4-0.5-0.7-0.4c-0.3,0.1-0.5,0.4-0.4,0.7C28.3,10.4,28.6,10.6,28.9,10.5z M28.2,76.1c0.1-0.3-0.1-0.6-0.5-0.7
	c-0.3-0.1-0.6,0.1-0.7,0.5c-0.1,0.3,0.1,0.6,0.5,0.7C27.8,76.6,28.2,76.4,28.2,76.1z M21.3,72.7c-0.3-0.1-0.6,0-0.8,0.3
	c-0.1,0.3,0,0.6,0.3,0.8c0.3,0.1,0.6,0,0.8-0.3C21.7,73.2,21.5,72.9,21.3,72.7z M18.4,14.5c0.2,0.3,0.6,0.3,0.8,0.1
	c0.3-0.2,0.3-0.6,0.1-0.8c-0.2-0.3-0.6-0.3-0.8-0.1C18.3,13.8,18.2,14.2,18.4,14.5z M25.6,11.5c0.3-0.1,0.4-0.5,0.3-0.8
	c-0.1-0.3-0.5-0.4-0.8-0.3c-0.3,0.1-0.4,0.5-0.3,0.8C24.9,11.5,25.3,11.7,25.6,11.5z M38.2,76.7c-0.3,0-0.6,0.3-0.5,0.6
	c0,0.3,0.3,0.6,0.6,0.5c0.3,0,0.6-0.3,0.5-0.6C38.8,76.9,38.5,76.6,38.2,76.7z M63.6,64.6c-0.3-0.2-0.6-0.1-0.8,0.1
	c-0.2,0.3-0.1,0.6,0.1,0.8c0.3,0.2,0.6,0.1,0.8-0.1C63.9,65.1,63.8,64.7,63.6,64.6z M34.7,76.6c-0.3,0-0.6,0.3-0.6,0.6
	c0,0.3,0.3,0.6,0.6,0.6c0.3,0,0.6-0.3,0.6-0.6C35.3,76.9,35,76.6,34.7,76.6z M24.8,75c0.1-0.3-0.1-0.6-0.4-0.7
	c-0.3-0.1-0.6,0.1-0.7,0.4c-0.1,0.3,0.1,0.6,0.4,0.7C24.4,75.4,24.7,75.3,24.8,75z M69.3,56c0.1-0.3-0.1-0.6-0.4-0.7
	c-0.3-0.1-0.6,0.1-0.7,0.4c-0.1,0.3,0.1,0.6,0.4,0.7C68.9,56.5,69.2,56.4,69.3,56z M18.2,70.9c-0.3-0.2-0.6-0.1-0.8,0.2
	c-0.2,0.3-0.1,0.6,0.2,0.8c0.3,0.2,0.6,0.1,0.8-0.2C18.6,71.4,18.5,71.1,18.2,70.9z M15.4,68.8c-0.3-0.2-0.6-0.1-0.8,0.1
	c-0.2,0.3-0.1,0.6,0.1,0.8c0.3,0.2,0.6,0.1,0.8-0.1C15.8,69.4,15.7,69,15.4,68.8z M12,66.5c-0.2,0.2-0.2,0.6,0,0.8
	c0.2,0.2,0.6,0.2,0.8,0c0.2-0.2,0.2-0.6,0-0.8C12.6,66.2,12.2,66.2,12,66.5z M9.7,63.7c-0.2,0.2-0.3,0.6,0,0.8
	c0.2,0.2,0.6,0.3,0.8,0c0.2-0.2,0.3-0.6,0-0.8C10.3,63.5,10,63.5,9.7,63.7z M15.6,16.6c0.2,0.2,0.6,0.3,0.8,0c0.2-0.2,0.3-0.6,0-0.8
	c-0.2-0.2-0.6-0.3-0.8,0C15.4,16,15.3,16.3,15.6,16.6z M68.7,24.6c0.2-0.1,0.2-0.3,0.1-0.5c-0.1-0.2-0.3-0.2-0.5-0.1
	c-0.2,0.1-0.2,0.3-0.1,0.5C68.3,24.6,68.6,24.7,68.7,24.6z M73.1,36.5c0.2,0,0.3-0.2,0.3-0.4c0-0.2-0.2-0.3-0.4-0.3
	c-0.2,0-0.3,0.2-0.3,0.4C72.8,36.5,72.9,36.6,73.1,36.5z M70.7,57.8c-0.2-0.1-0.4,0-0.5,0.2c-0.1,0.2,0,0.4,0.2,0.5
	c0.2,0.1,0.4,0,0.5-0.2C70.9,58.1,70.8,57.9,70.7,57.8z M73.4,42.6c0,0.2,0.2,0.4,0.4,0.4c0.2,0,0.4-0.2,0.4-0.4
	c0-0.2-0.2-0.4-0.4-0.3C73.5,42.2,73.4,42.4,73.4,42.6z M60.8,70.6c-0.1,0.1-0.2,0.4,0,0.5c0.1,0.1,0.4,0.2,0.5,0
	c0.1-0.1,0.2-0.4,0-0.5C61.2,70.5,60.9,70.4,60.8,70.6z M63.1,68.4c-0.1,0.1-0.1,0.4,0,0.5c0.1,0.1,0.4,0.1,0.5,0
	c0.1-0.1,0.1-0.4,0-0.5C63.5,68.3,63.2,68.3,63.1,68.4z M73.2,39.4c0,0.2,0.2,0.3,0.4,0.3c0.2,0,0.3-0.2,0.3-0.4
	c0-0.2-0.2-0.3-0.4-0.3C73.3,39,73.2,39.2,73.2,39.4z M62.9,17c0.1-0.1,0.1-0.4,0-0.5c-0.1-0.1-0.4-0.1-0.5,0
	c-0.1,0.1-0.1,0.4,0,0.5C62.5,17.2,62.7,17.2,62.9,17z M71.5,30.4c0.2-0.1,0.3-0.3,0.2-0.5c-0.1-0.2-0.3-0.3-0.5-0.2
	C71,29.8,70.9,30,71,30.2C71.1,30.4,71.3,30.4,71.5,30.4z M73.3,48.6c-0.2,0-0.4,0.1-0.4,0.3c0,0.2,0.1,0.4,0.3,0.4
	c0.2,0,0.4-0.1,0.4-0.3C73.6,48.8,73.5,48.6,73.3,48.6z M72.7,51.7c-0.2,0-0.4,0.1-0.4,0.3c0,0.2,0.1,0.4,0.3,0.4
	c0.2,0,0.4-0.1,0.4-0.3C73,52,72.9,51.8,72.7,51.7z M72.4,33.4c0.2-0.1,0.3-0.3,0.2-0.4c-0.1-0.2-0.3-0.3-0.4-0.2
	C72,32.8,71.9,33,72,33.2C72,33.4,72.2,33.5,72.4,33.4z M69.2,60.7c-0.2-0.1-0.4,0-0.5,0.1c-0.1,0.2,0,0.4,0.1,0.5
	c0.2,0.1,0.4,0,0.5-0.1C69.5,61,69.4,60.8,69.2,60.7z M67,21.9c0.2-0.1,0.2-0.3,0.1-0.5c-0.1-0.2-0.3-0.2-0.5-0.1
	c-0.2,0.1-0.2,0.3-0.1,0.5C66.6,22,66.8,22,67,21.9z M67.6,63.4c-0.2-0.1-0.4-0.1-0.5,0.1C67,63.7,67,63.9,67.2,64
	c0.2,0.1,0.4,0.1,0.5-0.1C67.8,63.7,67.8,63.5,67.6,63.4z M65,19.4c0.1-0.1,0.2-0.4,0-0.5c-0.1-0.1-0.4-0.2-0.5,0
	c-0.1,0.1-0.2,0.4,0,0.5C64.7,19.5,64.9,19.5,65,19.4z M65.7,66c-0.2-0.1-0.4-0.1-0.5,0.1c-0.1,0.2-0.1,0.4,0.1,0.5
	c0.2,0.1,0.4,0.1,0.5-0.1C65.9,66.3,65.9,66.1,65.7,66z M70.2,27.4c0.2-0.1,0.3-0.3,0.2-0.5c-0.1-0.2-0.3-0.2-0.5-0.2
	c-0.2,0.1-0.3,0.3-0.2,0.5C69.8,27.4,70,27.5,70.2,27.4z M73.7,45.4c-0.2,0-0.4,0.1-0.4,0.3c0,0.2,0.1,0.4,0.3,0.4
	c0.2,0,0.4-0.1,0.4-0.3C74,45.6,73.8,45.4,73.7,45.4z M71.8,54.8c-0.2-0.1-0.4,0-0.5,0.2c-0.1,0.2,0,0.4,0.2,0.5
	c0.2,0.1,0.4,0,0.5-0.2C72.1,55.1,72,54.9,71.8,54.8z M30.2,7.4c0.2,0,0.3-0.2,0.3-0.4c0-0.2-0.2-0.3-0.4-0.3
	c-0.2,0-0.3,0.2-0.3,0.4C29.8,7.3,30,7.4,30.2,7.4z M13.3,15.6c0.1-0.1,0.2-0.4,0-0.5c-0.1-0.1-0.4-0.2-0.5,0
	c-0.1,0.1-0.2,0.4,0,0.5C12.9,15.7,13.1,15.7,13.3,15.6z M9,66.8c-0.1,0.1-0.2,0.4,0,0.5c0.1,0.1,0.4,0.2,0.5,0
	c0.1-0.1,0.2-0.4,0-0.5C9.4,66.7,9.2,66.7,9,66.8z M4.8,25.5c0.2,0.1,0.4,0,0.5-0.1c0.1-0.2,0-0.4-0.1-0.5c-0.2-0.1-0.4,0-0.5,0.1
	C4.6,25.2,4.7,25.4,4.8,25.5z M8.4,20.2c0.2,0.1,0.4,0.1,0.5-0.1C9,20,9,19.8,8.8,19.6c-0.2-0.1-0.4-0.1-0.5,0.1
	C8.2,19.8,8.2,20.1,8.4,20.2z M6.5,22.8c0.2,0.1,0.4,0.1,0.5-0.1c0.1-0.2,0.1-0.4-0.1-0.5c-0.2-0.1-0.4-0.1-0.5,0.1
	C6.3,22.4,6.3,22.7,6.5,22.8z M15.8,13.6c0.2-0.1,0.2-0.3,0.1-0.5c-0.1-0.2-0.3-0.2-0.5-0.1c-0.2,0.1-0.2,0.3-0.1,0.5
	C15.4,13.7,15.6,13.8,15.8,13.6z M11,17.8c0.1-0.1,0.1-0.4,0-0.5c-0.1-0.1-0.4-0.1-0.5,0c-0.1,0.1-0.1,0.4,0,0.5
	C10.6,17.9,10.8,17.9,11,17.8z M22.2,76.2c-0.2-0.1-0.4,0-0.5,0.2c-0.1,0.2,0,0.4,0.2,0.5c0.2,0.1,0.4,0,0.5-0.2
	C22.4,76.5,22.3,76.3,22.2,76.2z M19.3,74.8c-0.2-0.1-0.4,0-0.5,0.1c-0.1,0.2,0,0.4,0.1,0.5c0.2,0.1,0.4,0,0.5-0.1
	C19.6,75.1,19.5,74.9,19.3,74.8z M25.1,77.4c-0.2-0.1-0.4,0-0.5,0.2c-0.1,0.2,0,0.4,0.2,0.5c0.2,0.1,0.4,0,0.5-0.2
	C25.4,77.7,25.3,77.5,25.1,77.4z M14.1,71.3c-0.2-0.1-0.4-0.1-0.5,0.1c-0.1,0.2-0.1,0.4,0.1,0.5c0.2,0.1,0.4,0.1,0.5-0.1
	C14.3,71.6,14.2,71.4,14.1,71.3z M16.6,73.1c-0.2-0.1-0.4-0.1-0.5,0.1c-0.1,0.2-0.1,0.4,0.1,0.5c0.2,0.1,0.4,0.1,0.5-0.1
	C16.8,73.5,16.8,73.3,16.6,73.1z M11.2,69.2c-0.1,0.1-0.1,0.4,0,0.5c0.1,0.1,0.4,0.1,0.5,0c0.1-0.1,0.1-0.4,0-0.5
	C11.6,69,11.4,69,11.2,69.2z M2.7,31.2c0.1-0.2,0-0.4-0.2-0.5c-0.2-0.1-0.4,0-0.5,0.2c-0.1,0.2,0,0.4,0.2,0.5
	C2.5,31.4,2.7,31.3,2.7,31.2z M2.6,55.8c-0.2,0.1-0.3,0.3-0.2,0.5c0.1,0.2,0.3,0.3,0.5,0.2c0.2-0.1,0.3-0.3,0.2-0.5
	C3,55.8,2.8,55.7,2.6,55.8z M1.6,52.8c-0.2,0.1-0.3,0.3-0.2,0.4c0.1,0.2,0.3,0.3,0.4,0.2C2,53.4,2.1,53.2,2.1,53
	C2,52.8,1.8,52.7,1.6,52.8z M5.4,61.6c-0.2,0.1-0.2,0.3-0.1,0.5c0.1,0.2,0.3,0.2,0.5,0.1c0.2-0.1,0.2-0.3,0.1-0.5
	C5.7,61.5,5.5,61.5,5.4,61.6z M3.9,58.8c-0.2,0.1-0.3,0.3-0.2,0.5c0.1,0.2,0.3,0.3,0.5,0.2c0.2-0.1,0.3-0.3,0.2-0.5
	C4.3,58.7,4,58.7,3.9,58.8z M3.4,28.4c0.2,0.1,0.4,0,0.5-0.2c0.1-0.2,0-0.4-0.2-0.5c-0.2-0.1-0.4,0-0.5,0.2
	C3.2,28.1,3.2,28.3,3.4,28.4z M1.8,34.2c0-0.2-0.1-0.4-0.3-0.4c-0.2,0-0.4,0.1-0.4,0.3c0,0.2,0.1,0.4,0.3,0.4
	C1.6,34.5,1.8,34.4,1.8,34.2z M0.4,40.8c0.2,0,0.4-0.1,0.4-0.3c0-0.2-0.1-0.4-0.3-0.4c-0.2,0-0.4,0.1-0.4,0.3
	C0.1,40.6,0.2,40.8,0.4,40.8z M0.8,37.6c0.2,0,0.4-0.1,0.4-0.3c0-0.2-0.1-0.4-0.3-0.4c-0.2,0-0.4,0.1-0.4,0.3
	C0.4,37.4,0.6,37.6,0.8,37.6z M0.7,43.6c0-0.2-0.2-0.4-0.4-0.3c-0.2,0-0.4,0.2-0.3,0.4C0,43.8,0.2,44,0.4,44
	C0.6,44,0.7,43.8,0.7,43.6z M0.9,49.6c-0.2,0-0.3,0.2-0.3,0.4c0,0.2,0.2,0.3,0.4,0.3c0.2,0,0.3-0.2,0.3-0.4
	C1.3,49.7,1.1,49.6,0.9,49.6z M0.9,46.8c0-0.2-0.2-0.3-0.4-0.3c-0.2,0-0.3,0.2-0.3,0.4c0,0.2,0.2,0.3,0.4,0.3
	C0.8,47.1,0.9,47,0.9,46.8z M55.7,74.3c-0.2,0.1-0.2,0.3-0.1,0.5c0.1,0.2,0.3,0.2,0.5,0.1c0.2-0.1,0.2-0.3,0.1-0.5
	C56,74.2,55.8,74.2,55.7,74.3z M52.9,75.8c-0.2,0.1-0.3,0.3-0.2,0.5c0.1,0.2,0.3,0.3,0.5,0.2c0.2-0.1,0.2-0.3,0.2-0.5
	C53.3,75.8,53,75.7,52.9,75.8z M60,14.9c0.2,0.1,0.4,0.1,0.5-0.1c0.1-0.2,0.1-0.4-0.1-0.5c-0.2-0.1-0.4-0.1-0.5,0.1
	C59.8,14.6,59.8,14.8,60,14.9z M50,77c-0.2,0.1-0.3,0.3-0.2,0.5c0.1,0.2,0.3,0.3,0.5,0.2c0.2-0.1,0.3-0.3,0.2-0.5
	C50.3,77.1,50.1,77,50,77z M45.9,7.9c0.2,0,0.4-0.1,0.4-0.3c0-0.2-0.1-0.4-0.3-0.4c-0.2,0-0.4,0.1-0.4,0.3
	C45.6,7.6,45.7,7.8,45.9,7.9z M46.9,78c-0.2,0.1-0.3,0.3-0.2,0.4c0.1,0.2,0.3,0.3,0.4,0.2c0.2-0.1,0.3-0.3,0.2-0.4
	C47.3,78.1,47.1,78,46.9,78z M39.7,6.9c0.2,0,0.4-0.1,0.4-0.3c0-0.2-0.1-0.4-0.3-0.4c-0.2,0-0.4,0.1-0.4,0.3
	C39.3,6.7,39.5,6.8,39.7,6.9z M42.8,7.2c0.2,0,0.4-0.1,0.4-0.3c0-0.2-0.1-0.4-0.3-0.4c-0.2,0-0.4,0.1-0.4,0.3
	C42.5,7,42.6,7.2,42.8,7.2z M57.4,13c0.2,0.1,0.4,0.1,0.5-0.1c0.1-0.2,0.1-0.4-0.1-0.5c-0.2-0.1-0.4-0.1-0.5,0.1
	C57.2,12.7,57.3,12.9,57.4,13z M28.1,78.3c-0.2,0-0.4,0.1-0.4,0.3c0,0.2,0.1,0.4,0.3,0.4c0.2,0,0.4-0.1,0.4-0.3
	C28.5,78.6,28.3,78.4,28.1,78.3z M54.7,11.4c0.2,0.1,0.4,0,0.5-0.1c0.1-0.2,0-0.4-0.1-0.5c-0.2-0.1-0.4,0-0.5,0.1
	C54.5,11.1,54.6,11.3,54.7,11.4z M49,8.8c0.2,0.1,0.4,0,0.5-0.2c0.1-0.2,0-0.4-0.2-0.5c-0.2-0.1-0.4,0-0.5,0.2
	C48.7,8.5,48.8,8.7,49,8.8z M51.9,9.9c0.2,0.1,0.4,0,0.5-0.2c0.1-0.2,0-0.4-0.2-0.5c-0.2-0.1-0.4,0-0.5,0.2
	C51.7,9.7,51.7,9.9,51.9,9.9z M58.3,72.5c-0.2,0.1-0.2,0.3-0.1,0.5c0.1,0.2,0.3,0.2,0.5,0.1c0.2-0.1,0.2-0.3,0.1-0.5
	C58.7,72.5,58.5,72.4,58.3,72.5z M34.4,79.3c-0.2,0-0.4,0.1-0.4,0.3c0,0.2,0.1,0.4,0.3,0.4c0.2,0,0.4-0.1,0.4-0.3
	C34.7,79.5,34.6,79.3,34.4,79.3z M21.2,10.4c0.2-0.1,0.3-0.3,0.2-0.5c-0.1-0.2-0.3-0.3-0.5-0.2c-0.2,0.1-0.3,0.3-0.2,0.5
	C20.8,10.4,21,10.5,21.2,10.4z M24.1,9.1c0.2-0.1,0.3-0.3,0.2-0.5c-0.1-0.2-0.3-0.3-0.5-0.2c-0.2,0.1-0.3,0.3-0.2,0.5
	C23.7,9.1,23.9,9.2,24.1,9.1z M31.2,79c-0.2,0-0.4,0.1-0.4,0.3c0,0.2,0.1,0.4,0.3,0.4c0.2,0,0.4-0.1,0.4-0.3
	C31.6,79.2,31.4,79,31.2,79z M18.4,11.9c0.2-0.1,0.2-0.3,0.1-0.5c-0.1-0.2-0.3-0.2-0.5-0.1c-0.2,0.1-0.2,0.3-0.1,0.5
	C18,11.9,18.3,12,18.4,11.9z M37.6,79.4c-0.2,0-0.4,0.2-0.4,0.4c0,0.2,0.2,0.4,0.4,0.3c0.2,0,0.4-0.2,0.3-0.4
	C37.9,79.6,37.8,79.4,37.6,79.4z M40.7,79.2c-0.2,0-0.3,0.2-0.3,0.4c0,0.2,0.2,0.3,0.4,0.3c0.2,0,0.3-0.2,0.3-0.4
	C41.1,79.3,40.9,79.2,40.7,79.2z M43.9,78.8c-0.2,0-0.3,0.2-0.3,0.4c0,0.2,0.2,0.3,0.4,0.3c0.2,0,0.3-0.2,0.3-0.4
	C44.2,78.9,44.1,78.7,43.9,78.8z M33.4,6.9c0.2,0,0.3-0.2,0.3-0.4c0-0.2-0.2-0.3-0.4-0.3c-0.2,0-0.3,0.2-0.3,0.4
	C33,6.8,33.2,7,33.4,6.9z M27.1,8.1c0.2-0.1,0.3-0.3,0.2-0.4c-0.1-0.2-0.3-0.3-0.4-0.2c-0.2,0.1-0.3,0.3-0.2,0.4
	C26.7,8.1,26.9,8.2,27.1,8.1z M36.5,6.8c0.2,0,0.4-0.2,0.4-0.4c0-0.2-0.2-0.4-0.4-0.3c-0.2,0-0.4,0.2-0.4,0.4
	C36.2,6.6,36.3,6.8,36.5,6.8z M7.1,64.3c-0.2,0.1-0.2,0.3-0.1,0.5c0.1,0.2,0.3,0.2,0.5,0.1c0.2-0.1,0.2-0.3,0.1-0.5
	C7.5,64.2,7.2,64.2,7.1,64.3z"/>
</svg>
