<?xml version="1.0" encoding="utf-8"?>
<!-- Generator: Adobe Illustrator 22.1.0, SVG Export Plug-In . SVG Version: 6.00 Build 0)  -->
<svg version="1.0" id="Calque_1" xmlns="http://www.w3.org/2000/svg" xmlns:xlink="http://www.w3.org/1999/xlink" x="0px" y="0px"
	 viewBox="0 0 209.5 84.9" style="enable-background:new 0 0 209.5 84.9;" xml:space="preserve">
<style type="text/css">
	.st0{fill:#AEAEAE;}
</style>
<path id="Forme_1" class="st0" d="M81.6,70.7h-0.4l0,0c-8,0.1-15.3-4.5-18.8-11.7c-0.6,0-1.2,0-1.8,0c-2.5,0-5-0.1-7.7-0.3v11.5
	h-9.8V57.4c-5.5-1-11.5-2.3-18.2-4.2v16.9h-9.8V50.3c-4.6-1.4-9.4-3-14.5-4.8l-0.3-0.1L1,36.2l0.4,0.2c4.4,1.6,9,3.2,13.6,4.8V24.4
	h9.8v19.8c6,1.8,12,3.3,18.2,4.5V24.4h9.8v25.7c2.3,0.2,4.7,0.3,7,0.4c-0.1-0.7-0.1-1.5-0.1-2.2c-0.2-5.6,1.4-11.2,4.6-15.9l0,0
	l0.1-0.2v-0.1l0.2-0.3l0,0c3.6-4.9,9.3-7.9,15.5-8.1c6.4-0.3,11.4,2.5,13.6,7.5c2.6,5.6,1.1,12.9-3.9,18.1
	c-4.3,4.5-10.2,7.5-17.8,8.8c2.3,2.7,5.9,4.1,9.4,3.8c3.9,0,14.6,0,28.4-16L96.5,24.4h10.9l0.1,0.2l8.4,13.5
	c4.8-6.8,8.3-13.4,8.4-13.5l0.1-0.2h10.9l-0.3,0.5c-4.3,7.4-9,14.5-14,21.2L135.9,70h-10.9l-0.1-0.2l-10.1-16.1
	C99.7,70.3,87.1,70.7,82,70.7H81.6L81.6,70.7z M68.7,48.1c0,0.6,0.1,1.3,0.1,1.9c6.5-1,11.4-3.3,14.7-6.8c0.5-0.6,1.1-1.3,1.5-2
	c3.1-5.6-1.2-9.2-6.2-8.3c-3.2,0.6-6,2.7-7.7,5.4C69.4,41.3,68.6,44.7,68.7,48.1z M133.2,47.1c0-13,10.4-23.5,23.5-23.5
	s23.5,10.4,23.5,23.5s-10.4,23.5-23.5,23.5l0,0C143.7,70.6,133.2,60.1,133.2,47.1L133.2,47.1z M142.1,47.1c0,8,6.5,14.5,14.5,14.6
	c8,0,14.5-6.5,14.5-14.5s-6.5-14.5-14.5-14.6l0,0C148.6,32.6,142.1,39.1,142.1,47.1L142.1,47.1z M191.2,42.6V32.5h-9.9v-8.1h9.9
	V14.3h8.4v10.1h9.9v8.1h-9.9v10.1H191.2z"/>
</svg>
