<?xml version="1.0" encoding="utf-8"?>
<!-- Generator: Adobe Illustrator 22.1.0, SVG Export Plug-In . SVG Version: 6.00 Build 0)  -->
<svg version="1.0" id="Calque_1" xmlns="http://www.w3.org/2000/svg" xmlns:xlink="http://www.w3.org/1999/xlink" x="0px" y="0px"
	 viewBox="0 0 210 85" style="enable-background:new 0 0 210 85;" xml:space="preserve">
<style type="text/css">
	.st0{fill:#AEAEAE;}
</style>
<g id="layer1" transform="translate(-2920.2129,-8105.3477)">
	<g id="g38029" transform="matrix(6.6685537,0,0,6.6685537,-16517.948,-46624.111)">
		<path id="path36820" class="st0" d="M2946.4,8214.2c0,0.5-0.1,0.7-0.6,0.8c-0.4,0.1-1.2,0.2-1.7,0.2c-0.5,0-1.2,0-1.8-0.2v-0.6
			h3.2v-0.8h-2.3c-0.7,0-0.9-0.2-0.9-0.9v-0.3c0-0.5,0.2-0.7,0.6-0.8c0.4-0.1,1.1-0.2,1.6-0.2c0.6,0,1.2,0,1.8,0.2v0.6h-3.2v0.7h2.3
			c0.7,0,0.9,0.2,0.9,0.9V8214.2"/>
		<path id="path36824" class="st0" d="M2940.9,8215c-0.7,0.1-1.3,0.2-2,0.2c-0.6,0-1.3,0-2-0.2v-3.4c0.7-0.1,1.3-0.2,2-0.2
			c0.6,0,1.3,0,2,0.2v0.6h-3v0.7h2v0.7h-2v0.8h3V8215"/>
		<path id="path36828" class="st0" d="M2935.8,8215c-0.6,0.1-1.2,0.2-1.8,0.2c-0.6,0-1.2,0-1.8-0.2v-3.5h1v2.8h2.6V8215"/>
		<path id="path36832" class="st0" d="M2931.1,8215c-0.3,0.1-0.7,0.1-1.1,0.1l-1.5-3h-0.1l-1.5,3c-0.3,0-0.7,0-1-0.1l1.9-3.5h1.3
			L2931.1,8215"/>
		<path id="path36836" class="st0" d="M2929.1,8214.1c0,0.3-0.3,0.6-0.6,0.6c-0.3,0-0.6-0.3-0.6-0.6s0.3-0.6,0.6-0.6
			C2928.9,8213.5,2929.1,8213.8,2929.1,8214.1"/>
		<path id="path36840" class="st0" d="M2924.8,8215c-0.3,0.1-0.6,0.1-1,0.1v-1.5h-2.4v1.5c-0.3,0-0.7,0-1-0.1v-3.4
			c0.3-0.1,0.6-0.1,1-0.1v1.5h2.4v-1.5c0.3,0,0.7,0,1,0.1V8215"/>
		<path id="path36844" class="st0" d="M2919.2,8212.2h-1.7v2.9h-0.9v-2.9h-1.7v-0.6c0.7-0.1,1.4-0.2,2.2-0.2c0.7,0,1.4,0,2.2,0.2
			V8212.2"/>
	</g>
</g>
</svg>
