<?xml version="1.0" encoding="utf-8"?>
<!-- Generator: Adobe Illustrator 22.1.0, SVG Export Plug-In . SVG Version: 6.00 Build 0)  -->
<svg version="1.0" id="Calque_1" xmlns="http://www.w3.org/2000/svg" xmlns:xlink="http://www.w3.org/1999/xlink" x="0px" y="0px"
	 viewBox="0 0 210 85" style="enable-background:new 0 0 210 85;" xml:space="preserve">
<style type="text/css">
	.st0{fill:#AEAEAE;}
</style>
<g id="g3035">
	<path id="path3964" inkscape:connector-curvature="0" class="st0" d="M25.6,60V44.6c0-2.1-0.1-3.8-0.4-5.3
		c-0.3-1.5-0.8-2.8-1.5-3.9c-1.2-1.8-2.7-3.3-4.7-4.3c-1.9-1-4-1.6-6.3-1.6c-1.4,0-3,0.4-4.6,1.1c-1.6,0.8-3,1.8-4.2,3.1v-3.6H0V60
		h3.9V43.6c0-1.5,0.1-2.7,0.3-3.5c0.2-0.9,0.6-1.7,1-2.6C6,36.1,7,35.1,8.3,34.3c1.3-0.8,2.8-1.2,4.4-1.2c1.6,0,3,0.4,4.3,1.1
		c1.3,0.7,2.3,1.7,3.1,3c0.5,0.9,0.9,1.9,1.2,3.1c0.2,1.2,0.4,2.7,0.4,4.6V60L25.6,60z"/>
	<path id="path3966" inkscape:connector-curvature="0" class="st0" d="M62.4,46.6c0.1-2-0.1-3.9-0.5-5.6c-0.4-1.7-1.2-3.4-2.5-5.2
		c-1.4-2-3.2-3.6-5.4-4.7c-2.2-1.1-4.5-1.7-7-1.7c-4.4,0.1-8.1,1.6-11,4.6c-2.9,2.9-4.4,6.6-4.5,11c0,3.2,0.9,6,2.6,8.5
		c1.7,2.5,3.9,4.4,6.7,5.6c2,0.9,4,1.3,6.2,1.3c2.4,0,4.7-0.5,6.8-1.5c2.1-1,4-2.5,5.6-4.6l-3.1-2.3c-1.2,1.5-2.5,2.7-4.1,3.4
		c-1.5,0.8-3.2,1.1-5.1,1.1c-3-0.1-5.5-1-7.6-2.9c-2.1-1.9-3.3-4.3-3.7-7.2H62.4z M58.3,43.2H35.7c0.5-2.9,1.7-5.3,3.8-7.1
		c2-1.8,4.5-2.8,7.4-2.8c2.9,0.1,5.4,1,7.5,2.8C56.6,37.9,57.8,40.3,58.3,43.2z"/>
	<path id="path3968" inkscape:connector-curvature="0" class="st0" d="M81.4,60v-3.6H81c-2.9,0-4.9-0.7-6-2.1
		c-1.1-1.4-1.6-3.5-1.6-6.3l0.1-14h7.9v-3.8h-7.9v-9.6h-4v27.8c0,3.7,0.9,6.6,2.6,8.6c1,1.1,2.2,1.9,3.6,2.4
		c1.4,0.5,3.1,0.8,5.2,0.8L81.4,60z"/>
	<path id="path3970" inkscape:connector-curvature="0" class="st0" d="M107.8,58.4l-1.9-3.4c-0.9,0.6-1.8,1-2.9,1.3
		c-1,0.3-2.1,0.5-3.2,0.5c-3.1-0.1-5.7-1.3-7.9-3.5c-2.2-2.2-3.3-5-3.4-8.2c0.1-3.4,1.2-6.1,3.4-8.4c2.2-2.2,4.8-3.4,8-3.4
		c1.1,0,2.1,0.1,3,0.4c1,0.3,1.9,0.7,2.7,1.3l1.8-3.4c-2.3-1.4-4.8-2-7.6-2c-4.4,0.1-8,1.6-10.9,4.5c-2.9,2.9-4.4,6.6-4.5,11.1
		c0.1,4.3,1.6,8,4.4,10.9c2.9,2.9,6.4,4.4,10.7,4.6c1.5,0,3-0.2,4.3-0.6C105.4,59.6,106.6,59.1,107.8,58.4L107.8,58.4z"/>
	<path id="path3972" inkscape:connector-curvature="0" class="st0" d="M141.8,46.6c0.1-2-0.1-3.9-0.5-5.6c-0.4-1.7-1.2-3.4-2.5-5.2
		c-1.4-2-3.2-3.6-5.4-4.7c-2.2-1.1-4.5-1.7-7-1.7c-4.4,0.1-8.1,1.6-11,4.6c-2.9,2.9-4.4,6.6-4.5,11c0,3.2,0.9,6,2.6,8.5
		c1.7,2.5,3.9,4.4,6.7,5.6c2,0.9,4,1.3,6.2,1.3c2.4,0,4.7-0.5,6.8-1.5c2.1-1,4-2.5,5.6-4.6l-3.1-2.3c-1.2,1.5-2.5,2.7-4.1,3.4
		c-1.5,0.8-3.2,1.1-5.1,1.1c-3-0.1-5.5-1-7.6-2.9c-2.1-1.9-3.3-4.3-3.7-7.2H141.8z M137.6,43.2h-22.5c0.5-2.9,1.7-5.3,3.8-7.1
		c2-1.8,4.5-2.8,7.4-2.8c2.9,0.1,5.4,1,7.5,2.8C135.9,37.9,137.2,40.3,137.6,43.2z"/>
	<path id="path3974" inkscape:connector-curvature="0" class="st0" d="M152.6,60V15.2h-3.9V60H152.6z"/>
	<path id="path3976" inkscape:connector-curvature="0" class="st0" d="M190.3,46.6c0.1-2-0.1-3.9-0.5-5.6c-0.4-1.7-1.2-3.4-2.5-5.2
		c-1.4-2-3.2-3.6-5.4-4.7c-2.2-1.1-4.5-1.7-7-1.7c-4.4,0.1-8.1,1.6-11,4.6c-2.9,2.9-4.4,6.6-4.5,11c0,3.2,0.9,6,2.6,8.5
		c1.7,2.5,3.9,4.4,6.7,5.6c2,0.9,4,1.3,6.2,1.3c2.4,0,4.7-0.5,6.8-1.5c2.1-1,4-2.5,5.6-4.6l-3.1-2.3c-1.2,1.5-2.5,2.7-4.1,3.4
		c-1.5,0.8-3.2,1.1-5.1,1.1c-3-0.1-5.5-1-7.6-2.9c-2.1-1.9-3.3-4.3-3.7-7.2H190.3z M186.2,43.2h-22.5c0.5-2.9,1.7-5.3,3.8-7.1
		c2-1.8,4.5-2.8,7.4-2.8c2.9,0.1,5.4,1,7.5,2.8C184.5,37.9,185.8,40.3,186.2,43.2z"/>
	<path id="path3978" inkscape:connector-curvature="0" class="st0" d="M210,33.8v-3.6h-1.5c-2.1,0-3.8,0.2-5.2,0.8
		c-1.4,0.5-2.6,1.3-3.6,2.4c-1.7,2-2.6,4.9-2.6,8.6V60h3.9V42.2c-0.1-2.8,0.5-4.9,1.6-6.3c1.1-1.4,3.1-2.1,6-2.1L210,33.8z"/>
</g>
</svg>
