<?xml version="1.0" encoding="utf-8"?>
<!-- Generator: Adobe Illustrator 22.1.0, SVG Export Plug-In . SVG Version: 6.00 Build 0)  -->
<svg version="1.0" id="Calque_1" xmlns="http://www.w3.org/2000/svg" xmlns:xlink="http://www.w3.org/1999/xlink" x="0px" y="0px"
	 viewBox="0 0 210 85" style="enable-background:new 0 0 210 85;" xml:space="preserve">
<style type="text/css">
	.st0{fill:#AEAEAE;}
	.st1{clip-path:url(#SVGID_2_);fill:#AEAEAE;}
	.st2{clip-path:url(#SVGID_4_);fill:#AEAEAE;}
	.st3{clip-path:url(#SVGID_6_);fill:#AEAEAE;}
	.st4{clip-path:url(#SVGID_8_);fill:#AEAEAE;}
	.st5{clip-path:url(#SVGID_10_);fill:#AEAEAE;}
	.st6{clip-path:url(#SVGID_12_);fill:#AEAEAE;}
	.st7{clip-path:url(#SVGID_14_);fill:#AEAEAE;}
	.st8{clip-path:url(#SVGID_16_);fill:#AEAEAE;}
</style>
<g>
	<path class="st0" d="M5,78.7l3.8-2.5c0.1-0.1,0.3-0.1,0.4,0.1c0.7,1.2,1.7,2,3.2,2c0.8,0,1.4-0.2,1.4-0.9c0-0.7-0.5-0.9-2.3-1.6
		l-1-0.4c-3.2-1.3-4.9-3.3-4.9-6c0-3.4,2.8-5.7,6.4-5.7c2.3,0,4.3,0.8,5.7,2.7c0.1,0.1,0.1,0.3,0,0.4L15,69.5
		c-0.1,0.1-0.3,0.1-0.4,0c-0.7-0.8-1.4-1.4-2.5-1.4c-0.7,0-1.3,0.3-1.3,0.9c0,0.7,0.6,1,2.4,1.7l0.8,0.3c3.6,1.4,5,3.3,5,6.1
		c0,3-2.5,5.5-5.6,5.7c-3.6,0.3-6.6-0.7-8.4-3.6C4.8,79,4.9,78.8,5,78.7z"/>
	<path class="st0" d="M55.2,81.2c-1.1,1.1-2.9,1.7-4.4,1.7c-5,0-7.9-3.4-7.9-8.5v-10c0-0.2,0.1-0.3,0.3-0.3h5c0.2,0,0.3,0.1,0.3,0.3
		v9c0,2.5,1,4.4,3.3,4.4c1.4,0,2.7-0.7,3.5-1.9V64.3c0-0.2,0.1-0.3,0.3-0.3h5c0.2,0,0.3,0.1,0.3,0.3v17.9c0,0.2-0.1,0.3-0.3,0.3h-5
		c-0.2,0-0.3-0.1-0.3-0.3V81.2z"/>
	<path class="st0" d="M77.2,81.4c-1.1,0.9-2.6,1.4-4.1,1.4c-5.5,0-9-4.5-9-9.6s3.5-9.6,9-9.6c1.5,0,3,0.5,4.1,1.4v-0.8
		c0-0.2,0.1-0.3,0.3-0.3h5c0.2,0,0.3,0.1,0.3,0.3v17.9c0,0.2-0.1,0.3-0.3,0.3h-5c-0.2,0-0.3-0.1-0.3-0.3V81.4z M77.2,76.2v-5.8
		c-0.8-1-1.8-1.6-3.2-1.6c-2.7,0-4.3,2-4.3,4.4c0,2.4,1.6,4.4,4.3,4.4C75.4,77.7,76.4,77.2,77.2,76.2z"/>
	<path class="st0" d="M87.5,64h5c0.2,0,0.3,0.1,0.3,0.3v1.3c1-1.3,2.4-1.9,4.2-1.9c0.5,0,1.2,0.1,1.8,0.2c0.1,0,0.2,0.2,0.2,0.3v5.1
		c0,0.2-0.2,0.4-0.4,0.3c-0.8-0.3-1.6-0.4-2.4-0.4c-1.1,0-2.5,0.4-3.4,1.2v11.8c0,0.2-0.1,0.3-0.3,0.3h-5c-0.2,0-0.3-0.1-0.3-0.3
		V64.3C87.2,64.1,87.3,64,87.5,64z"/>
	<path class="st0" d="M100.5,73.3c0-5.4,3.9-9.6,9.6-9.6c4.7,0,8.9,3.1,8.9,8.9c0,0.4,0,0.9-0.1,1.4c0,0.2-0.1,0.3-0.3,0.3h-12.7
		c0.3,2.5,2.4,3.4,4,3.4c1.8,0,3-0.8,3.8-2.1c0.1-0.1,0.3-0.2,0.4-0.1l3.9,2.7c0.1,0.1,0.2,0.3,0.1,0.4c-1.7,2.5-4.7,4.2-8.2,4.2
		C105,82.8,100.5,79,100.5,73.3z M105.9,71h7.6c-0.3-2-1.9-2.8-3.7-2.8C108.3,68.2,106.4,68.8,105.9,71z"/>
	<path class="st0" d="M120.8,78.7l3.8-2.5c0.1-0.1,0.3-0.1,0.4,0.1c0.7,1.2,1.7,2,3.2,2c0.8,0,1.4-0.2,1.4-0.9
		c0-0.7-0.5-0.9-2.3-1.6l-1-0.4c-3.2-1.3-4.9-3.3-4.9-6c0-3.4,2.8-5.7,6.4-5.7c2.3,0,4.3,0.8,5.7,2.7c0.1,0.1,0.1,0.3,0,0.4
		l-2.8,2.7c-0.1,0.1-0.3,0.1-0.5,0c-0.7-0.8-1.4-1.4-2.5-1.4c-0.7,0-1.3,0.3-1.3,0.9c0,0.7,0.6,1,2.4,1.7l0.8,0.3
		c3.6,1.4,5,3.3,5,6.1c0,3-2.5,5.5-5.6,5.7c-3.6,0.3-6.6-0.7-8.4-3.6C120.6,79,120.7,78.8,120.8,78.7z"/>
	<path class="st0" d="M136.8,73.3c0-5.3,4.3-9.6,9.6-9.6c3.3,0,6.2,1.6,7.9,4.1c0.1,0.1,0.1,0.3-0.1,0.4l-3.9,2.8
		c-0.1,0.1-0.3,0.1-0.4-0.1c-0.8-1.2-2-2-3.5-2c-2.3,0-4,1.8-4,4.3c0,2.6,1.7,4.3,4,4.3c1.5,0,2.7-0.8,3.5-2
		c0.1-0.1,0.3-0.2,0.4-0.1l3.9,2.8c0.1,0.1,0.2,0.3,0.1,0.4c-1.7,2.5-4.6,4.1-7.9,4.1C141.1,82.8,136.8,78.5,136.8,73.3z"/>
	<path class="st0" d="M169.3,81.4c-1.1,0.9-2.6,1.4-4.1,1.4c-5.5,0-9-4.5-9-9.6s3.5-9.6,9-9.6c1.5,0,3,0.5,4.1,1.4v-0.8
		c0-0.2,0.1-0.3,0.3-0.3h5c0.2,0,0.3,0.1,0.3,0.3v17.9c0,0.2-0.1,0.3-0.3,0.3h-5c-0.2,0-0.3-0.1-0.3-0.3V81.4z M169.3,76.2v-5.8
		c-0.8-1-1.8-1.6-3.2-1.6c-2.7,0-4.3,2-4.3,4.4c0,2.4,1.6,4.4,4.3,4.4C167.5,77.7,168.5,77.2,169.3,76.2z"/>
	<path class="st0" d="M179.7,56.2h5c0.2,0,0.3,0.1,0.3,0.3v25.7c0,0.2-0.1,0.3-0.3,0.3h-5c-0.2,0-0.3-0.1-0.3-0.3V56.5
		C179.4,56.4,179.5,56.2,179.7,56.2z"/>
	<path class="st0" d="M188.3,73.3c0-5.4,3.9-9.6,9.6-9.6c4.7,0,8.9,3.1,8.9,8.9c0,0.4,0,0.9-0.1,1.4c0,0.2-0.1,0.3-0.3,0.3h-12.7
		c0.3,2.5,2.4,3.4,4,3.4c1.8,0,3-0.8,3.8-2.1c0.1-0.1,0.3-0.2,0.4-0.1l3.9,2.7c0.1,0.1,0.2,0.3,0.1,0.4c-1.7,2.5-4.7,4.2-8.2,4.2
		C192.8,82.8,188.3,79,188.3,73.3z M193.7,71h7.6c-0.3-2-1.9-2.8-3.7-2.8C196.1,68.2,194.2,68.8,193.7,71z"/>
	<path class="st0" d="M30.5,68.7c2.5,0,4.6,2.1,4.6,4.6s-2.1,4.6-4.6,4.6c-2.5,0-4.6-2.1-4.6-4.6S27.9,68.7,30.5,68.7 M30.5,63.7
		c-5.3,0-9.6,4.3-9.6,9.6s4.3,9.6,9.6,9.6s9.6-4.3,9.6-9.6S35.7,63.7,30.5,63.7L30.5,63.7z"/>
	<g>
		<defs>
			<path id="SVGID_1_" d="M30.5,68.7c2.5,0,4.6,2.1,4.6,4.6s-2.1,4.6-4.6,4.6c-2.5,0-4.6-2.1-4.6-4.6S27.9,68.7,30.5,68.7
				 M30.5,63.7c-5.3,0-9.6,4.3-9.6,9.6s4.3,9.6,9.6,9.6s9.6-4.3,9.6-9.6S35.7,63.7,30.5,63.7L30.5,63.7z"/>
		</defs>
		<use xlink:href="#SVGID_1_"  style="overflow:visible;fill:#AEAEAE;"/>
		<clipPath id="SVGID_2_">
			<use xlink:href="#SVGID_1_"  style="overflow:visible;"/>
		</clipPath>
		<path class="st1" d="M40.4,81L37,84.3c-0.3,0.3-0.7,0.3-0.9,0l-5.9-8.6c-0.3-0.3-1.9,0.4-1.6,0.1l3.3-3.3c0.3-0.3,0,0.6,0.2,0.8
			l8.3,6.7C40.6,80.3,40.6,80.7,40.4,81z"/>
	</g>
	<path class="st0" d="M40.3,81l-2.4,2.4c-0.2,0.2-0.5,0.2-0.6,0l-7.8-7.8c-0.2-0.2-0.2-0.5,0-0.6l2.4-2.4c0.2-0.2,0.5-0.2,0.6,0
		l7.8,7.8C40.5,80.6,40.5,80.9,40.3,81z"/>
</g>
<g>
	<g>
		<g>
			<defs>
				<path id="SVGID_3_" d="M89.5,29v-8.1c0-0.8-0.4-1.5-1.1-1.9l-7-4.1l-0.6-0.3c-0.7-0.4-1.7-0.2-2.1,0.6l-1,1.7
					c-0.4,0.7-0.2,1.7,0.6,2.1l3.5,2.1l2.2,1.2c0.3,0.2,0.5,0.5,0.5,0.8v3.7c0,0.3-0.2,0.7-0.5,0.8l-2.2,1.2c0,0,0,0,0,0l-1.3,0.8
					c-0.1,0.1-0.1,0.1-0.2,0.2l-1.9,1.1c-0.7,0.4-1,1.4-0.6,2.1l0.9,1.6c0.4,0.7,1.4,1,2.1,0.6l7.6-4.3C89.1,30.5,89.5,29.8,89.5,29
					z"/>
			</defs>
			<use xlink:href="#SVGID_3_"  style="overflow:visible;fill:#AEAEAE;"/>
			<clipPath id="SVGID_4_">
				<use xlink:href="#SVGID_3_"  style="overflow:visible;"/>
			</clipPath>
			<polygon class="st2" points="135.7,45.5 135.7,4.5 100.2,-16 64.7,4.5 64.7,45.5 100.2,66 			"/>
		</g>
		<g>
			<defs>
				<path id="SVGID_5_" d="M124.9,31l-1.9-1.1c-0.1,0-0.1-0.1-0.2-0.2l-1.3-0.8c0,0,0,0,0,0l-2.2-1.2c-0.3-0.2-0.5-0.5-0.5-0.8v-3.7
					c0-0.3,0.2-0.7,0.5-0.8l2.2-1.2l3.5-2.1c0.7-0.4,1-1.4,0.6-2.1l-1-1.7c-0.4-0.7-1.4-1-2.1-0.6l-0.6,0.3l-7,4.1
					c-0.7,0.4-1.1,1.1-1.1,1.9v8.1c0,0.8,0.4,1.5,1.1,1.9l7.6,4.3c0.7,0.4,1.7,0.2,2.1-0.6l0.9-1.6C125.8,32.3,125.6,31.4,124.9,31z
					"/>
			</defs>
			<use xlink:href="#SVGID_5_"  style="overflow:visible;fill:#AEAEAE;"/>
			<clipPath id="SVGID_6_">
				<use xlink:href="#SVGID_5_"  style="overflow:visible;"/>
			</clipPath>
			<polygon class="st3" points="135.7,45.5 135.7,4.5 100.2,-16 64.7,4.5 64.7,45.5 100.2,66 			"/>
		</g>
		<g>
			<defs>
				<path id="SVGID_7_" d="M121,37.4l-0.6-0.3l-7.1-3.9c-0.7-0.4-1.5-0.4-2.2,0l-7,4.2c-0.7,0.4-1.1,1.1-1.1,1.9l0.2,8.7
					c0,0.8,0.7,1.5,1.6,1.5l1.9,0c0.9,0,1.5-0.7,1.5-1.6l0-2.2c0-0.1,0-0.2,0-0.3l0-1.5c0,0,0,0,0,0l0-2.5c0-0.3,0.2-0.7,0.5-0.8
					l3.2-1.9c0.3-0.2,0.7-0.2,1,0l2.2,1.2l3.6,2c0.7,0.4,1.7,0.1,2.1-0.6l0.9-1.7C122,38.8,121.7,37.8,121,37.4z"/>
			</defs>
			<use xlink:href="#SVGID_7_"  style="overflow:visible;fill:#AEAEAE;"/>
			<clipPath id="SVGID_8_">
				<use xlink:href="#SVGID_7_"  style="overflow:visible;"/>
			</clipPath>
			<polygon class="st4" points="135.7,45.5 135.7,4.5 100.2,-16 64.7,4.5 64.7,45.5 100.2,66 			"/>
		</g>
		<g>
			<defs>
				<path id="SVGID_9_" d="M99.1,37.3l-7-4.2c-0.7-0.4-1.5-0.4-2.2,0l-7.1,3.9l-0.6,0.3c-0.7,0.4-1,1.4-0.6,2.1l0.9,1.7
					c0.4,0.7,1.3,1,2.1,0.6l3.6-2l2.2-1.2c0.3-0.2,0.7-0.2,1,0l3.2,1.9c0.3,0.2,0.5,0.5,0.5,0.8l0,2.5c0,0,0,0,0,0l0,1.5
					c0,0.1,0,0.2,0,0.3l0,2.2c0,0.9,0.7,1.6,1.5,1.6l1.9,0c0.8,0,1.6-0.7,1.6-1.5l0.2-8.7C100.2,38.5,99.8,37.7,99.1,37.3z"/>
			</defs>
			<use xlink:href="#SVGID_9_"  style="overflow:visible;fill:#AEAEAE;"/>
			<clipPath id="SVGID_10_">
				<use xlink:href="#SVGID_9_"  style="overflow:visible;"/>
			</clipPath>
			<polygon class="st5" points="135.7,45.5 135.7,4.5 100.2,-16 64.7,4.5 64.7,45.5 100.2,66 			"/>
		</g>
		<g>
			<defs>
				<path id="SVGID_11_" d="M104.2,12.5l7,4.2c0.7,0.4,1.5,0.4,2.2,0l7.1-3.9l0.6-0.3c0.7-0.4,1-1.4,0.6-2.1l-0.9-1.7
					c-0.4-0.7-1.3-1-2.1-0.6l-3.6,2l-2.2,1.2c-0.3,0.2-0.7,0.2-1,0l-3.2-1.9c-0.3-0.2-0.5-0.5-0.5-0.8l0-2.5c0,0,0,0,0,0l0-1.5
					c0-0.1,0-0.2,0-0.3l0-2.2c0-0.9-0.7-1.6-1.5-1.6l-1.9,0c-0.8,0-1.6,0.7-1.6,1.5l-0.2,8.7C103.1,11.4,103.5,12.1,104.2,12.5z"/>
			</defs>
			<use xlink:href="#SVGID_11_"  style="overflow:visible;fill:#AEAEAE;"/>
			<clipPath id="SVGID_12_">
				<use xlink:href="#SVGID_11_"  style="overflow:visible;"/>
			</clipPath>
			<polygon class="st6" points="135.7,45.5 135.7,4.5 100.2,-16 64.7,4.5 64.7,45.5 100.2,66 			"/>
		</g>
		<g>
			<defs>
				<path id="SVGID_13_" d="M98.4,0.4l-1.9,0C95.7,0.5,95,1.2,95,2l0,2.2c0,0.1,0,0.2,0,0.3L95,6c0,0,0,0,0,0l0,2.5
					c0,0.3-0.2,0.7-0.5,0.8l-3.2,1.9c-0.3,0.2-0.7,0.2-1,0L88.3,10l-3.6-2c-0.7-0.4-1.7-0.1-2.1,0.6l-0.9,1.7
					c-0.4,0.7-0.2,1.7,0.6,2.1l0.6,0.3l7.1,3.9c0.7,0.4,1.5,0.4,2.2,0l7-4.2c0.7-0.4,1.1-1.1,1.1-1.9L100,1.9
					C99.9,1.1,99.2,0.4,98.4,0.4z"/>
			</defs>
			<use xlink:href="#SVGID_13_"  style="overflow:visible;fill:#AEAEAE;"/>
			<clipPath id="SVGID_14_">
				<use xlink:href="#SVGID_13_"  style="overflow:visible;"/>
			</clipPath>
			<polygon class="st7" points="135.7,45.5 135.7,4.5 100.2,-16 64.7,4.5 64.7,45.5 100.2,66 			"/>
		</g>
	</g>
	<g>
		<defs>
			<path id="SVGID_15_" d="M109.2,19.2l-6.4-3.7c-0.7-0.4-1.6-0.4-2.3,0L94,19.2c-0.7,0.4-1.1,1.2-1.1,2v7.4c0,0.8,0.4,1.6,1.1,2
				l6.4,3.7c0.7,0.4,1.6,0.4,2.3,0l6.4-3.7c0.7-0.4,1.1-1.2,1.1-2v-7.4C110.3,20.4,109.9,19.6,109.2,19.2z M106,27.5l-4.4,2.6
				l-4.4-2.6v-5.1l4.4-2.6l4.4,2.6V27.5z"/>
		</defs>
		<use xlink:href="#SVGID_15_"  style="overflow:visible;fill:#AEAEAE;"/>
		<clipPath id="SVGID_16_">
			<use xlink:href="#SVGID_15_"  style="overflow:visible;"/>
		</clipPath>
		<polygon class="st8" points="135.7,45.5 135.7,4.5 100.2,-16 64.7,4.5 64.7,45.5 100.2,66 		"/>
	</g>
</g>
</svg>
