<svg id="diamond" xmlns="http://www.w3.org/2000/svg" xmlns:xlink="http://www.w3.org/1999/xlink" viewBox="0 0 102.487 102.487">
  <defs>
    <style>
      .cls-1 {
        fill: #fcfcfc;
      }

      .cls-2 {
        fill: url(#linear-gradient);
      }

      .cls-3 {
        fill: url(#linear-gradient-2);
      }

      .cls-4 {
        fill: url(#linear-gradient-3);
      }

      .cls-5 {
        fill: url(#linear-gradient-4);
      }

      .cls-6 {
        fill: url(#linear-gradient-5);
      }

      .cls-7 {
        fill: url(#linear-gradient-6);
      }

      .cls-8 {
        fill: url(#linear-gradient-7);
      }

      .cls-9 {
        fill: url(#linear-gradient-8);
      }

      .cls-10 {
        fill: #fff;
      }

      .cls-11 {
        fill: url(#linear-gradient-9);
      }

      .cls-12 {
        fill: url(#linear-gradient-10);
      }

      .cls-13 {
        fill: url(#linear-gradient-11);
      }

      .cls-14 {
        fill: url(#linear-gradient-12);
      }

      .cls-15 {
        fill: url(#linear-gradient-13);
      }

      .cls-16 {
        fill: url(#linear-gradient-14);
      }

      .cls-17 {
        fill: url(#linear-gradient-15);
      }

      .cls-18 {
        fill: url(#linear-gradient-16);
      }
    </style>
    <linearGradient id="linear-gradient" x1="0.001" y1="0.5" x2="1" y2="0.5" gradientUnits="objectBoundingBox">
      <stop offset="0" stop-color="#174575"/>
      <stop offset="1" stop-color="#3d113c"/>
    </linearGradient>
    <linearGradient id="linear-gradient-2" x1="0" y1="0.5" x2="1" y2="0.5" xlink:href="#linear-gradient"/>
    <linearGradient id="linear-gradient-3" x1="0" y1="0.5" x2="1" y2="0.5" xlink:href="#linear-gradient"/>
    <linearGradient id="linear-gradient-4" x1="116.267" y1="0.5" x2="117.267" y2="0.5" xlink:href="#linear-gradient"/>
    <linearGradient id="linear-gradient-5" x1="0" y1="0.5" x2="1" y2="0.5" xlink:href="#linear-gradient"/>
    <linearGradient id="linear-gradient-6" x1="146.388" y1="0.5" x2="147.388" y2="0.5" xlink:href="#linear-gradient"/>
    <linearGradient id="linear-gradient-7" x1="82.63" y1="0.5" x2="83.63" y2="0.5" xlink:href="#linear-gradient"/>
    <linearGradient id="linear-gradient-8" x1="0" y1="0.5" x2="1" y2="0.5" xlink:href="#linear-gradient"/>
    <linearGradient id="linear-gradient-9" x1="-0.001" y1="0.5" x2="1.001" y2="0.5" gradientUnits="objectBoundingBox">
      <stop offset="0" stop-color="#bf0269"/>
      <stop offset="1" stop-color="#fc6719"/>
    </linearGradient>
    <linearGradient id="linear-gradient-10" x1="-0.001" y1="0.5" x2="1.001" y2="0.5" xlink:href="#linear-gradient-9"/>
    <linearGradient id="linear-gradient-11" x1="0" y1="0.499" x2="1.001" y2="0.499" xlink:href="#linear-gradient-9"/>
    <linearGradient id="linear-gradient-12" x1="0.001" y1="0.5" x2="1.001" y2="0.5" xlink:href="#linear-gradient-9"/>
    <linearGradient id="linear-gradient-13" x1="0.001" y1="0.5" x2="1.001" y2="0.5" xlink:href="#linear-gradient-9"/>
    <linearGradient id="linear-gradient-14" x1="0.002" y1="0.5" x2="1" y2="0.5" xlink:href="#linear-gradient-9"/>
    <linearGradient id="linear-gradient-15" x1="0.001" y1="0.499" x2="1" y2="0.499" xlink:href="#linear-gradient-9"/>
    <linearGradient id="linear-gradient-16" x1="0.001" y1="0.499" x2="1.001" y2="0.499" xlink:href="#linear-gradient-9"/>
  </defs>
  <rect id="Rectangle_908" data-name="Rectangle 908" class="cls-1" width="102.487" height="102.487"/>
  <g id="Groupe_1523" data-name="Groupe 1523" transform="translate(12.059 21.078)">
    <g id="Groupe_1521" data-name="Groupe 1521">
      <g id="Groupe_1520" data-name="Groupe 1520">
        <g id="Groupe_1512" data-name="Groupe 1512" transform="translate(11.239)">
          <path id="Tracé_30197" data-name="Tracé 30197" class="cls-2" d="M96.145,61.7,78.961,79.909,68.2,61.7Z" transform="translate(-68.2 -61.7)"/>
        </g>
        <g id="Groupe_1513" data-name="Groupe 1513">
          <path id="Tracé_30198" data-name="Tracé 30198" class="cls-3" d="M46.539,61.7,57.3,79.909h-22Z" transform="translate(-35.3 -61.7)"/>
        </g>
        <g id="Groupe_1514" data-name="Groupe 1514" transform="translate(0 18.209)">
          <path id="Tracé_30199" data-name="Tracé 30199" class="cls-4" d="M57.3,115h-22l39.184,45.334Z" transform="translate(-35.3 -115)"/>
        </g>
        <g id="Groupe_1515" data-name="Groupe 1515" transform="translate(39.184)">
          <path id="Tracé_30200" data-name="Tracé 30200" class="cls-5" d="M150,61.7l17.184,18.209L177.945,61.7Z" transform="translate(-150 -61.7)"/>
        </g>
        <g id="Groupe_1516" data-name="Groupe 1516" transform="translate(22.001)">
          <path id="Tracé_30201" data-name="Tracé 30201" class="cls-6" d="M116.884,61.7,99.7,79.909h34.367Z" transform="translate(-99.7 -61.7)"/>
        </g>
        <g id="Groupe_1517" data-name="Groupe 1517" transform="translate(56.368)">
          <path id="Tracé_30202" data-name="Tracé 30202" class="cls-7" d="M211.061,61.7,200.3,79.909h22Z" transform="translate(-200.3 -61.7)"/>
        </g>
        <g id="Groupe_1518" data-name="Groupe 1518" transform="translate(39.184 18.209)">
          <path id="Tracé_30203" data-name="Tracé 30203" class="cls-8" d="M167.184,115h22L150,160.334Z" transform="translate(-150 -115)"/>
        </g>
        <g id="Groupe_1519" data-name="Groupe 1519" transform="translate(22.001 18.209)">
          <path id="Tracé_30204" data-name="Tracé 30204" class="cls-9" d="M116.884,115H99.7l17.184,45.334L134.067,115Z" transform="translate(-99.7 -115)"/>
        </g>
      </g>
    </g>
    <path id="Tracé_30205" data-name="Tracé 30205" class="cls-10" d="M240.723,114.562a.22.22,0,0,0-.205-.2h0c-.683-.068-.752-.512-.752-.683V113.6h0a.22.22,0,0,0-.2-.2h0a.22.22,0,0,0-.2.2v.1a.669.669,0,0,1-.752.649h0a.22.22,0,0,0-.2.2h0a.22.22,0,0,0,.2.2h0c.683.068.752.512.752.683v.068h0a.22.22,0,0,0,.2.2h0a.22.22,0,0,0,.2-.2v-.1a.669.669,0,0,1,.752-.649h0a.2.2,0,0,0,.205-.2Z" transform="translate(-169.016 -95.738)"/>
    <path id="Tracé_30206" data-name="Tracé 30206" class="cls-10" d="M164.723,157.762a.22.22,0,0,0-.2-.2h0c-.683-.068-.752-.512-.752-.683V156.8h0a.22.22,0,0,0-.2-.2h0a.22.22,0,0,0-.205.2v.1a.669.669,0,0,1-.752.649h0a.22.22,0,0,0-.2.2h0a.22.22,0,0,0,.2.2h0c.683.068.752.512.752.683v.068h0a.22.22,0,0,0,.205.2h0a.22.22,0,0,0,.2-.2v-.1a.669.669,0,0,1,.752-.649h0a.2.2,0,0,0,.2-.2Z" transform="translate(-118.98 -124.18)"/>
    <path id="Tracé_30207" data-name="Tracé 30207" class="cls-10" d="M233.563,105.181a.342.342,0,0,0-.342-.342h0c-1.127-.137-1.3-.888-1.3-1.2v-.1h0a.342.342,0,0,0-.342-.342h0a.342.342,0,0,0-.342.342v.2a1.13,1.13,0,0,1-1.3,1.093h0a.342.342,0,0,0-.342.342h0a.342.342,0,0,0,.342.342h0c1.127.137,1.3.888,1.3,1.2v.1h0a.342.342,0,0,0,.342.342h0a.342.342,0,0,0,.342-.342v-.2a1.13,1.13,0,0,1,1.3-1.093h0a.342.342,0,0,0,.342-.342Z" transform="translate(-163.222 -89.023)"/>
    <g id="Groupe_1522" data-name="Groupe 1522" transform="translate(6.354 33.616)">
      <path id="Tracé_30208" data-name="Tracé 30208" class="cls-11" d="M83.428,160.1l-8.336,8.848L69.9,160.1Z" transform="translate(-64.434 -160.1)"/>
      <path id="Tracé_30209" data-name="Tracé 30209" class="cls-12" d="M59.366,160.1l5.193,8.848H53.9Z" transform="translate(-53.9 -160.1)"/>
      <path id="Tracé_30210" data-name="Tracé 30210" class="cls-13" d="M64.559,186H53.9l18.994,22Z" transform="translate(-53.9 -177.152)"/>
      <path id="Tracé_30211" data-name="Tracé 30211" class="cls-14" d="M109.5,160.1l8.336,8.848,5.227-8.848Z" transform="translate(-90.506 -160.1)"/>
      <path id="Tracé_30212" data-name="Tracé 30212" class="cls-15" d="M93.436,160.1,85.1,168.948h16.671Z" transform="translate(-74.441 -160.1)"/>
      <path id="Tracé_30213" data-name="Tracé 30213" class="cls-16" d="M139.127,160.1l-5.227,8.848h10.693Z" transform="translate(-106.57 -160.1)"/>
      <path id="Tracé_30214" data-name="Tracé 30214" class="cls-17" d="M117.836,186h10.693L109.5,208Z" transform="translate(-90.506 -177.152)"/>
      <path id="Tracé_30215" data-name="Tracé 30215" class="cls-18" d="M93.436,186H85.1l8.336,22,8.336-22Z" transform="translate(-74.441 -177.152)"/>
    </g>
  </g>
</svg>
