<svg xmlns="http://www.w3.org/2000/svg" xmlns:xlink="http://www.w3.org/1999/xlink" viewBox="0 0 1761.813 1732.838">
  <defs>
    <style>
      .cls-1 {
        fill: url(#linear-gradient);
      }

      .cls-2 {
        filter: url(#Tracé_30);
      }
    </style>
    <linearGradient id="linear-gradient" x1="0.5" x2="0.5" y2="1" gradientUnits="objectBoundingBox">
      <stop offset="0" stop-color="#016099"/>
      <stop offset="1" stop-color="#124456"/>
    </linearGradient>
    <filter id="Tracé_30" x="0" y="0" width="1761.813" height="1732.838" filterUnits="userSpaceOnUse">
      <feOffset dy="3" input="SourceAlpha"/>
      <feGaussianBlur stdDeviation="15" result="blur"/>
      <feFlood flood-opacity="0.071"/>
      <feComposite operator="in" in2="blur"/>
      <feComposite in="SourceGraphic"/>
    </filter>
  </defs>
  <g class="cls-2" transform="matrix(1, 0, 0, 1, 0, 0)">
    <path id="Tracé_30-2" data-name="Tracé 30" class="cls-1" d="M374.951,5.617C501.544-23.6,643.284,62.962,664.924,213.359c22.722,152.56,31.378,214.234,279.153,235.874C1150.737,467.626,1261.1,649.4,1249.2,817.108c-11.9,161.216-103.871,327.843-333.253,346.236-208.824,16.23-268.333-66-319.187-140.659-55.181-80.067-100.625-95.215-150.4-86.559-68.165,11.9-54.1,125.511-192.594,125.511-157.97,0-231.546-112.527-248.857-192.594,0,0-36.788-136.331,89.805-192.594,112.527-49.772,173.118-110.363,173.118-181.774s-25.968-138.495-61.673-210.988S196.423,47.814,374.951,5.617Z" transform="translate(45.06 685.85) rotate(-31)"/>
  </g>
</svg>
