<?xml version="1.0" encoding="utf-8"?>
<!-- Generator: Adobe Illustrator 23.0.3, SVG Export Plug-In . SVG Version: 6.00 Build 0)  -->
<svg version="1.1" id="Calque_1" xmlns="http://www.w3.org/2000/svg" xmlns:xlink="http://www.w3.org/1999/xlink" x="0px" y="0px"
	 viewBox="0 0 100 100" style="enable-background:new 0 0 100 100;" xml:space="preserve">
<style type="text/css">
	.st0{fill:url(#SVGID_1_);}
	.st1{clip-path:url(#SVGID_3_);fill:url(#SVGID_4_);}
	.st2{clip-path:url(#SVGID_3_);fill:url(#SVGID_5_);}
	.st3{clip-path:url(#SVGID_3_);fill:url(#SVGID_6_);}
	.st4{clip-path:url(#SVGID_3_);fill:url(#SVGID_7_);}
	.st5{clip-path:url(#SVGID_3_);}
	.st6{fill:url(#SVGID_8_);}
	.st7{fill:url(#SVGID_9_);}
	.st8{fill:#FFFFFF;}
	.st9{fill:url(#SVGID_10_);}
	.st10{fill:url(#SVGID_11_);}
	.st11{fill:url(#SVGID_12_);}
	.st12{fill:url(#SVGID_13_);}
	.st13{fill:url(#SVGID_14_);}
	.st14{fill:url(#SVGID_15_);}
	.st15{fill:url(#SVGID_16_);}
	.st16{fill:url(#SVGID_17_);}
	.st17{fill:url(#SVGID_18_);}
	.st18{clip-path:url(#SVGID_20_);}
	.st19{fill:url(#SVGID_21_);}
	.st20{clip-path:url(#SVGID_23_);}
	.st21{fill:url(#SVGID_24_);}
	.st22{fill:url(#SVGID_25_);}
	.st23{fill:url(#SVGID_26_);}
	.st24{clip-path:url(#SVGID_28_);}
	.st25{fill:url(#SVGID_29_);}
	.st26{fill:url(#SVGID_30_);}
	.st27{fill:url(#SVGID_31_);}
	.st28{fill:url(#SVGID_32_);}
	.st29{fill:url(#SVGID_33_);}
	.st30{fill:url(#SVGID_34_);}
	.st31{fill:url(#SVGID_35_);}
	.st32{fill:url(#SVGID_36_);}
</style>
<g>
	<linearGradient id="SVGID_1_" gradientUnits="userSpaceOnUse" x1="2.4043" y1="66.7966" x2="43.7053" y2="66.7966">
		<stop  offset="0" style="stop-color:#FC6719"/>
		<stop  offset="5.904639e-02" style="stop-color:#F45924"/>
		<stop  offset="0.2124" style="stop-color:#E23C3B"/>
		<stop  offset="0.3753" style="stop-color:#D4254D"/>
		<stop  offset="0.55" style="stop-color:#CB155A"/>
		<stop  offset="0.7447" style="stop-color:#C50B62"/>
		<stop  offset="1" style="stop-color:#C30864"/>
	</linearGradient>
	<circle class="st0" cx="23.1" cy="66.8" r="20.7"/>
	<g>
		<defs>
			<circle id="SVGID_2_" cx="23.1" cy="66.8" r="20.7"/>
		</defs>
		<clipPath id="SVGID_3_">
			<use xlink:href="#SVGID_2_"  style="overflow:visible;"/>
		</clipPath>
		<linearGradient id="SVGID_4_" gradientUnits="userSpaceOnUse" x1="-32.8335" y1="67.9786" x2="10.684" y2="67.9786">
			<stop  offset="0.8603" style="stop-color:#4D3933"/>
			<stop  offset="1" style="stop-color:#3D113C"/>
		</linearGradient>
		<path class="st1" d="M-11.1,89.7c-12,0-21.8-9.8-21.8-21.8s9.8-21.8,21.8-21.8S10.7,56,10.7,68S0.9,89.7-11.1,89.7z M-11.1,50.2
			c-9.8,0-17.8,8-17.8,17.8s8,17.8,17.8,17.8S6.7,77.8,6.7,68S-1.3,50.2-11.1,50.2z"/>
		<linearGradient id="SVGID_5_" gradientUnits="userSpaceOnUse" x1="33.6442" y1="67.9786" x2="77.1628" y2="67.9786">
			<stop  offset="0" style="stop-color:#3D113C"/>
			<stop  offset="0.1676" style="stop-color:#4D3933"/>
		</linearGradient>
		<path class="st2" d="M55.4,89.7c-12,0-21.8-9.8-21.8-21.8s9.8-21.8,21.8-21.8S77.2,56,77.2,68S67.4,89.7,55.4,89.7z M55.4,50.2
			c-9.8,0-17.8,8-17.8,17.8s8,17.8,17.8,17.8c9.8,0,17.8-8,17.8-17.8S65.2,50.2,55.4,50.2z"/>
		<linearGradient id="SVGID_6_" gradientUnits="userSpaceOnUse" x1="20.4805" y1="68.7098" x2="24.4334" y2="68.7098">
			<stop  offset="0.3184" style="stop-color:#4D3933"/>
			<stop  offset="0.8156" style="stop-color:#3D113C"/>
		</linearGradient>
		<rect x="20.5" y="42.1" class="st3" width="4" height="53.2"/>
		<linearGradient id="SVGID_7_" gradientUnits="userSpaceOnUse" x1="-4.1277" y1="67.5396" x2="49.0404" y2="67.5396">
			<stop  offset="0" style="stop-color:#4D3933"/>
			<stop  offset="1" style="stop-color:#3D113C"/>
		</linearGradient>
		<rect x="-4.1" y="65.6" class="st4" width="53.2" height="4"/>
		<g class="st5">
			
				<image style="overflow:visible;opacity:0.3;" width="74" height="56" xlink:href="A5246CE1.png"  transform="matrix(1 0 0 1 28.0004 4.0004)">
			</image>
			<g>
				<g>
					
						<linearGradient id="SVGID_8_" gradientUnits="userSpaceOnUse" x1="312.6626" y1="1275.7039" x2="371.7571" y2="1275.7039" gradientTransform="matrix(0.9671 0.2545 -0.2545 0.9671 59.9793 -1287.1078)">
						<stop  offset="0" style="stop-color:#174575"/>
						<stop  offset="1" style="stop-color:#3D113C"/>
					</linearGradient>
					<path class="st6" d="M95.9,16.4c-5.3-9.1-17.9-11.8-28.2-5.8c-5.4,3.2-9.1,8.2-10.5,13.6l0,0.1c0,0.1-2.7,10.1-10.2,17.8
						c-1.1-1.2-2.8-1.5-4.2-0.6l-9.5,5.6c-1.7,1-2.2,3-1.2,4.6l1.8,3c0.5,0.6,1.2,1.2,2.1,1.4c0.8,0.2,1.8,0.1,2.5-0.4l9.5-5.6
						c1.4-0.8,1.9-2.5,1.5-3.9c10.4-2.7,20.4-0.2,20.5-0.1c0,0,0,0,0.1,0c0,0,0,0,0.1,0c5.4,1.4,11.5,0.7,17.1-2.6
						c4.9-2.9,8.6-7.2,10.2-12.4C98.9,26.1,98.4,20.8,95.9,16.4z M48.6,43.9c3.8-3.9,6.4-8.3,8.1-11.8c0.4,2,1,4,2.2,5.9
						c1.1,1.8,2.5,3.5,4.1,4.8C59,42.4,53.9,42.5,48.6,43.9z M85.9,41.7c-9.1,5.3-20.1,3-24.7-4.8c-2.2-3.8-2.7-8.4-1.2-13
						c1.5-4.6,4.7-8.5,9.1-11.1c4.3-2.6,9.4-3.6,14-2.6c0.4,0.1,0.7,0.2,1,0.3c4.2,1.1,7.6,3.7,9.6,7.2c2.3,3.8,2.8,8.4,1.3,13
						C93.5,35.2,90.3,39.1,85.9,41.7z"/>
				</g>
			</g>
		</g>
		<g class="st5">
			
				<image style="overflow:visible;opacity:0.5;" width="57" height="37" xlink:href="A5246CE3.png"  transform="matrix(1 0 0 1 37.0004 58.0004)">
			</image>
			<g>
				<linearGradient id="SVGID_9_" gradientUnits="userSpaceOnUse" x1="40.0223" y1="76.1491" x2="90.2288" y2="76.1491">
					<stop  offset="0" style="stop-color:#CCCCCC"/>
					<stop  offset="1" style="stop-color:#BFBFBF"/>
				</linearGradient>
				<path class="st7" d="M90.2,76.2c0-1.3-0.9-2.4-2.2-2.7v-2.6c0-1.4-1.1-2.6-2.6-2.6c-1.1,0-2.1,0.8-2.4,1.8v-5.5
					c0-2-1.6-3.6-3.6-3.6c-2,0-3.6,1.6-3.6,3.6v8.8H54.4v-8.8c0-2-1.6-3.6-3.6-3.6c-2,0-3.6,1.6-3.6,3.6v5.5c-0.3-1-1.3-1.8-2.4-1.8
					c-1.4,0-2.6,1.1-2.6,2.6v2.6C41,73.8,40,74.9,40,76.2c0,1.3,1,2.5,2.2,2.7v2.4c0,1.4,1.1,2.6,2.6,2.6c1.1,0,2.1-0.8,2.4-1.8v5.5
					c0,2,1.6,3.6,3.6,3.6c2,0,3.6-1.6,3.6-3.6V79h21.5v8.6c0,2,1.6,3.6,3.6,3.6c2,0,3.6-1.6,3.6-3.6v-5.5c0.3,1,1.3,1.8,2.4,1.8
					c1.4,0,2.6-1.1,2.6-2.6v-2.4C89.3,78.7,90.2,77.6,90.2,76.2z"/>
			</g>
		</g>
	</g>
</g>
<g>
	<path class="st8" d="M94.9,30.6c-1.5,4.6-4.7,8.5-9.1,11.1c-9.1,5.3-20.1,3-24.7-4.8c-2.2-3.8-2.7-8.4-1.2-13s4.7-8.5,9.1-11.1
		c4.3-2.6,9.4-3.6,14-2.6c0.4,0.1,0.7,0.2,1,0.3c4.2,1.1,7.6,3.7,9.6,7.2C95.9,21.4,96.4,26,94.9,30.6z"/>
	
		<linearGradient id="SVGID_10_" gradientUnits="userSpaceOnUse" x1="344.5583" y1="1261.4065" x2="369.9814" y2="1261.4065" gradientTransform="matrix(0.9671 0.2545 -0.2545 0.9671 59.9793 -1287.1078)">
		<stop  offset="0" style="stop-color:#4D3933"/>
		<stop  offset="1" style="stop-color:#3D113C"/>
	</linearGradient>
	<polygon class="st9" points="91.8,38.8 75,9.9 77.1,8.6 94,37.5 	"/>
	
		<linearGradient id="SVGID_11_" gradientUnits="userSpaceOnUse" x1="352.4128" y1="1256.0028" x2="371.4574" y2="1256.0028" gradientTransform="matrix(0.9671 0.2545 -0.2545 0.9671 59.9793 -1287.1078)">
		<stop  offset="0" style="stop-color:#4D3933"/>
		<stop  offset="1" style="stop-color:#3D113C"/>
	</linearGradient>
	<polygon class="st10" points="95.4,30.8 83.1,9.7 85.3,8.5 97.6,29.6 	"/>
	
		<linearGradient id="SVGID_12_" gradientUnits="userSpaceOnUse" x1="331.0356" y1="1277.3807" x2="350.079" y2="1277.3807" gradientTransform="matrix(0.9671 0.2545 -0.2545 0.9671 59.9793 -1287.1078)">
		<stop  offset="0" style="stop-color:#4D3933"/>
		<stop  offset="1" style="stop-color:#3D113C"/>
	</linearGradient>
	<polygon class="st11" points="69.3,46.1 57,24.9 59.1,23.7 71.5,44.8 	"/>
	
		<linearGradient id="SVGID_13_" gradientUnits="userSpaceOnUse" x1="337.8629" y1="1266.2828" x2="364.4983" y2="1266.2828" gradientTransform="matrix(0.9671 0.2545 -0.2545 0.9671 59.9793 -1287.1078)">
		<stop  offset="0" style="stop-color:#4D3933"/>
		<stop  offset="1" style="stop-color:#3D113C"/>
	</linearGradient>
	<polygon class="st12" points="85.1,42.7 67.4,12.3 69.5,11 87.3,41.4 	"/>
	
		<linearGradient id="SVGID_14_" gradientUnits="userSpaceOnUse" x1="333.1577" y1="1272.3918" x2="358.8566" y2="1272.3918" gradientTransform="matrix(0.9671 0.2545 -0.2545 0.9671 59.9793 -1287.1078)">
		<stop  offset="0" style="stop-color:#4D3933"/>
		<stop  offset="1" style="stop-color:#3D113C"/>
	</linearGradient>
	<polygon class="st13" points="78.2,46.7 61.2,17.4 63.3,16.2 80.4,45.4 	"/>
	
		<linearGradient id="SVGID_15_" gradientUnits="userSpaceOnUse" x1="341.5191" y1="1272.801" x2="370.423" y2="1272.801" gradientTransform="matrix(0.9671 0.2545 -0.2545 0.9671 59.9793 -1287.1078)">
		<stop  offset="0" style="stop-color:#4D3933"/>
		<stop  offset="1" style="stop-color:#3D113C"/>
	</linearGradient>
	<polygon class="st14" points="64.5,45.2 63.1,42.9 96.1,23.6 97.5,25.9 	"/>
	
		<linearGradient id="SVGID_16_" gradientUnits="userSpaceOnUse" x1="331.5679" y1="1261.0901" x2="359.2994" y2="1261.0901" gradientTransform="matrix(0.9671 0.2545 -0.2545 0.9671 59.9793 -1287.1078)">
		<stop  offset="0" style="stop-color:#4D3933"/>
		<stop  offset="1" style="stop-color:#3D113C"/>
	</linearGradient>
	<polygon class="st15" points="58,30.7 56.6,28.4 88.2,10 89.6,12.3 	"/>
	
		<linearGradient id="SVGID_17_" gradientUnits="userSpaceOnUse" x1="336.036" y1="1266.6255" x2="366.3252" y2="1266.6255" gradientTransform="matrix(0.9671 0.2545 -0.2545 0.9671 59.9793 -1287.1078)">
		<stop  offset="0" style="stop-color:#4D3933"/>
		<stop  offset="1" style="stop-color:#3D113C"/>
	</linearGradient>
	<polygon class="st16" points="60.6,38.5 59.2,36.2 93.9,15.9 95.3,18.2 	"/>
	<g>
		<g>
			
				<linearGradient id="SVGID_18_" gradientUnits="userSpaceOnUse" x1="325.2924" y1="1269.4045" x2="371.7573" y2="1269.4045" gradientTransform="matrix(0.9671 0.2545 -0.2545 0.9671 59.9793 -1287.1078)">
				<stop  offset="0" style="stop-color:#174575"/>
				<stop  offset="1" style="stop-color:#3D113C"/>
			</linearGradient>
			<path class="st17" d="M48.7,46.5c10.6-3,21.1-0.3,21.2-0.3l0,0c0,0,0,0,0.1,0c0,0,0,0,0.1,0c5.4,1.4,11.5,0.7,17.1-2.6
				c4.9-2.9,8.6-7.2,10.2-12.4c1.5-5.1,1-10.5-1.6-14.9c-5.3-9.1-17.9-11.8-28.2-5.8c-5.4,3.2-9.1,8.2-10.5,13.6l0,0.1
				c0,0.1-2.8,10.5-10.7,18.3 M48.6,43.9c3.8-3.9,6.4-8.3,8.1-11.8c0.4,2,1,4,2.2,5.9c1.1,1.8,2.5,3.5,4.1,4.8
				C59,42.4,53.9,42.5,48.6,43.9z M94.9,30.6c-1.5,4.6-4.7,8.5-9.1,11.1c-9.1,5.3-20.1,3-24.7-4.8c-2.2-3.8-2.7-8.4-1.2-13
				s4.7-8.5,9.1-11.1c4.3-2.6,9.4-3.6,14-2.6c0.4,0.1,0.7,0.2,1,0.3c4.2,1.1,7.6,3.7,9.6,7.2C95.9,21.4,96.4,26,94.9,30.6z"/>
		</g>
	</g>
	<g>
		<defs>
			<path id="SVGID_19_" d="M93.8,28l1.6,2.8l2.1-1.2l-1.6-2.8l1.5-0.9l-1.3-2.3l-1.5,0.9L92,20.1l3.2-1.9l-1.3-2.3l-3.2,1.9L88,13.2
				l1.5-0.9L88.2,10l-1.5,0.9l-1.4-2.4l-2.1,1.2l1.4,2.4l-4,2.3l-3.4-5.9L75,9.9l3.4,5.9l-4.6,2.7L69.5,11l-2.1,1.2l4.3,7.4
				l-4.8,2.8l-3.6-6.2l-2.1,1.2l3.6,6.2l-4.2,2.5l-1.4-2.4L57,24.9l1.4,2.4l-1.8,1l1.3,2.3l1.8-1l2.7,4.6l-3.2,1.9l1.3,2.3l3.2-1.9
				l2.6,4.4l-3.2,1.9l1.3,2.3l3.2-1.9l1.6,2.8l2.1-1.2L69.8,42l4.2-2.5l4.2,7.1l2.1-1.2l-4.2-7.1l4.8-2.8l4.2,7.1l2.1-1.2l-4.2-7.1
				l4.6-2.7l4.2,7.1l2.1-1.2l-4.2-7.1L93.8,28z M92.5,25.7l-4,2.3l-2.6-4.4l4-2.3L92.5,25.7z M85.9,14.4l2.7,4.6l-4,2.3l-2.7-4.6
				L85.9,14.4z M79.7,18l2.7,4.6l-4.6,2.7l-2.7-4.6L79.7,18z M73,21.9l2.7,4.6L71,29.3l-2.7-4.6L73,21.9z M61.9,28.4l4.2-2.5
				l2.7,4.6L64.6,33L61.9,28.4z M68.5,39.7l-2.6-4.4l4.2-2.5l2.6,4.4L68.5,39.7z M74.9,36l-2.6-4.4l4.8-2.8l2.6,4.4L74.9,36z
				 M81.8,32l-2.6-4.4l4.6-2.7l2.6,4.4L81.8,32z"/>
		</defs>
		<clipPath id="SVGID_20_">
			<use xlink:href="#SVGID_19_"  style="overflow:visible;"/>
		</clipPath>
		<g class="st18">
			
				<image style="overflow:visible;opacity:0.8;" width="61" height="48" xlink:href="A5246CE6.png"  transform="matrix(1 0 0 1 42.2833 3.2833)">
			</image>
			<g>
				<g>
					
						<linearGradient id="SVGID_21_" gradientUnits="userSpaceOnUse" x1="325.2924" y1="1269.4045" x2="371.7573" y2="1269.4045" gradientTransform="matrix(0.9671 0.2545 -0.2545 0.9671 59.9793 -1287.1078)">
						<stop  offset="0" style="stop-color:#174575"/>
						<stop  offset="1" style="stop-color:#3D113C"/>
					</linearGradient>
					<path class="st19" d="M48.7,46.5c10.6-3,21.1-0.3,21.2-0.3l0,0c0,0,0,0,0.1,0c0,0,0,0,0.1,0c5.4,1.4,11.5,0.7,17.1-2.6
						c4.9-2.9,8.6-7.2,10.2-12.4c1.5-5.1,1-10.5-1.6-14.9c-5.3-9.1-17.9-11.8-28.2-5.8c-5.4,3.2-9.1,8.2-10.5,13.6l0,0.1
						c0,0.1-2.8,10.5-10.7,18.3 M48.6,43.9c3.8-3.9,6.4-8.3,8.1-11.8c0.4,2,1,4,2.2,5.9c1.1,1.8,2.5,3.5,4.1,4.8
						C59,42.4,53.9,42.5,48.6,43.9z M94.9,30.6c-1.5,4.6-4.7,8.5-9.1,11.1c-9.1,5.3-20.1,3-24.7-4.8c-2.2-3.8-2.7-8.4-1.2-13
						s4.7-8.5,9.1-11.1c4.3-2.6,9.4-3.6,14-2.6c0.4,0.1,0.7,0.2,1,0.3c4.2,1.1,7.6,3.7,9.6,7.2C95.9,21.4,96.4,26,94.9,30.6z"/>
				</g>
			</g>
		</g>
	</g>
	<g>
		<defs>
			<path id="SVGID_22_" d="M48.7,46.5c10.6-3,21.1-0.3,21.2-0.3l0,0c0,0,0,0,0.1,0c0,0,0,0,0.1,0c5.4,1.4,11.5,0.7,17.1-2.6
				c4.9-2.9,8.6-7.2,10.2-12.4c1.5-5.1,1-10.5-1.6-14.9c-5.3-9.1-17.9-11.8-28.2-5.8c-5.4,3.2-9.1,8.2-10.5,13.6l0,0.1
				c0,0.1-2.8,10.5-10.7,18.3"/>
		</defs>
		<clipPath id="SVGID_23_">
			<use xlink:href="#SVGID_22_"  style="overflow:visible;"/>
		</clipPath>
		<g class="st20">
			
				<image style="overflow:visible;opacity:0.6;" width="27" height="24" xlink:href="A5246CE7.png"  transform="matrix(1 0 0 1 27.2833 37.2833)">
			</image>
			<g>
				
					<linearGradient id="SVGID_24_" gradientUnits="userSpaceOnUse" x1="312.6627" y1="1296.7092" x2="329.6575" y2="1296.7092" gradientTransform="matrix(0.9671 0.2545 -0.2545 0.9671 59.9793 -1287.1078)">
					<stop  offset="0" style="stop-color:#00C9B4"/>
					<stop  offset="1" style="stop-color:#7A9FB4"/>
				</linearGradient>
				<path class="st21" d="M47,42.3c-1.1-1.3-2.9-1.7-4.3-0.7l-9.5,5.6c-1.7,1-2.2,3-1.2,4.6l1.8,3c0.5,0.6,1.2,1.2,2.1,1.4
					c0.8,0.2,1.8,0.1,2.5-0.4l9.5-5.6c1.5-0.9,2-2.7,1.5-4.1"/>
			</g>
		</g>
	</g>
	<g>
		
			<linearGradient id="SVGID_25_" gradientUnits="userSpaceOnUse" x1="312.6627" y1="1296.7092" x2="329.6575" y2="1296.7092" gradientTransform="matrix(0.9671 0.2545 -0.2545 0.9671 59.9793 -1287.1078)">
			<stop  offset="0" style="stop-color:#00C9B4"/>
			<stop  offset="1" style="stop-color:#7A9FB4"/>
		</linearGradient>
		<path class="st22" d="M47,42.3c-1.1-1.3-2.9-1.7-4.3-0.7l-9.5,5.6c-1.7,1-2.2,3-1.2,4.6l1.8,3c0.5,0.6,1.2,1.2,2.1,1.4
			c0.8,0.2,1.8,0.1,2.5-0.4l9.5-5.6c1.5-0.9,2-2.7,1.5-4.1"/>
	</g>
</g>
<linearGradient id="SVGID_26_" gradientUnits="userSpaceOnUse" x1="40.0222" y1="76.2328" x2="90.2286" y2="76.2328">
	<stop  offset="0" style="stop-color:#CCCCCC"/>
	<stop  offset="1" style="stop-color:#BFBFBF"/>
</linearGradient>
<path class="st23" d="M87.5,79H42.8c-1.5,0-2.8-1.2-2.8-2.8v0c0-1.5,1.2-2.8,2.8-2.8h44.7c1.5,0,2.8,1.2,2.8,2.8l0,0
	C90.2,77.8,89,79,87.5,79z"/>
<g>
	<defs>
		<path id="SVGID_27_" d="M87.5,79H42.8c-1.5,0-2.8-1.2-2.8-2.8v0c0-1.5,1.2-2.8,2.8-2.8h44.7c1.5,0,2.8,1.2,2.8,2.8l0,0
			C90.2,77.8,89,79,87.5,79z"/>
	</defs>
	<clipPath id="SVGID_28_">
		<use xlink:href="#SVGID_27_"  style="overflow:visible;"/>
	</clipPath>
	<g class="st24">
		
			<image style="overflow:visible;opacity:0.3;" width="16" height="39" xlink:href="A5246CE2.png"  transform="matrix(1 0 0 1 43.0672 57.0672)">
		</image>
		<g>
			<linearGradient id="SVGID_29_" gradientUnits="userSpaceOnUse" x1="47.2184" y1="76.1492" x2="54.4147" y2="76.1492">
				<stop  offset="0" style="stop-color:#4D3933"/>
				<stop  offset="1" style="stop-color:#3D113C"/>
			</linearGradient>
			<path class="st25" d="M50.8,91.2L50.8,91.2c-2,0-3.6-1.6-3.6-3.6V64.7c0-2,1.6-3.6,3.6-3.6h0c2,0,3.6,1.6,3.6,3.6v22.9
				C54.4,89.6,52.8,91.2,50.8,91.2z"/>
		</g>
	</g>
	<g class="st24">
		
			<image style="overflow:visible;opacity:0.3;" width="14" height="24" xlink:href="A5246CED.png"  transform="matrix(1 0 0 1 38.0672 64.0672)">
		</image>
		<g>
			<linearGradient id="SVGID_30_" gradientUnits="userSpaceOnUse" x1="42.2396" y1="76.1492" x2="47.3439" y2="76.1492">
				<stop  offset="0" style="stop-color:#4D3933"/>
				<stop  offset="1" style="stop-color:#3D113C"/>
			</linearGradient>
			<path class="st26" d="M44.8,83.9L44.8,83.9c-1.4,0-2.6-1.1-2.6-2.6l0-10.5c0-1.4,1.1-2.6,2.6-2.6h0c1.4,0,2.6,1.1,2.6,2.6v10.5
				C47.3,82.8,46.2,83.9,44.8,83.9z"/>
		</g>
	</g>
	<g class="st24">
		
			<image style="overflow:visible;opacity:0.3;" width="17" height="39" xlink:href="A5246CEE.png"  transform="matrix(1 0 0 1 71.0672 57.0672)">
		</image>
		<g>
			
				<linearGradient id="SVGID_31_" gradientUnits="userSpaceOnUse" x1="10024.1064" y1="-801.2767" x2="10031.3027" y2="-801.2767" gradientTransform="matrix(-1 0 0 -1 10107.1807 -725.1275)">
				<stop  offset="0" style="stop-color:#4D3933"/>
				<stop  offset="1" style="stop-color:#3D113C"/>
			</linearGradient>
			<path class="st27" d="M79.5,61.1L79.5,61.1c2,0,3.6,1.6,3.6,3.6v22.9c0,2-1.6,3.6-3.6,3.6h0c-2,0-3.6-1.6-3.6-3.6V64.7
				C75.9,62.7,77.5,61.1,79.5,61.1z"/>
		</g>
	</g>
	<g class="st24">
		
			<image style="overflow:visible;opacity:0.3;" width="15" height="24" xlink:href="A5246CEF.png"  transform="matrix(1 0 0 1 78.0672 64.0672)">
		</image>
		<g>
			
				<linearGradient id="SVGID_32_" gradientUnits="userSpaceOnUse" x1="10019.1279" y1="-801.2767" x2="10024.2324" y2="-801.2767" gradientTransform="matrix(-1 0 0 -1 10107.1807 -725.1275)">
				<stop  offset="0" style="stop-color:#4D3933"/>
				<stop  offset="1" style="stop-color:#3D113C"/>
			</linearGradient>
			<path class="st28" d="M85.5,68.4L85.5,68.4c1.4,0,2.6,1.1,2.6,2.6v10.5c0,1.4-1.1,2.6-2.6,2.6l0,0c-1.4,0-2.6-1.1-2.6-2.6V70.9
				C82.9,69.5,84.1,68.4,85.5,68.4z"/>
		</g>
	</g>
</g>
<g>
	<linearGradient id="SVGID_33_" gradientUnits="userSpaceOnUse" x1="47.2184" y1="76.1492" x2="54.4147" y2="76.1492">
		<stop  offset="0" style="stop-color:#4D3933"/>
		<stop  offset="1" style="stop-color:#3D113C"/>
	</linearGradient>
	<path class="st29" d="M50.8,91.2L50.8,91.2c-2,0-3.6-1.6-3.6-3.6V64.7c0-2,1.6-3.6,3.6-3.6h0c2,0,3.6,1.6,3.6,3.6v22.9
		C54.4,89.6,52.8,91.2,50.8,91.2z"/>
</g>
<g>
	<linearGradient id="SVGID_34_" gradientUnits="userSpaceOnUse" x1="42.2396" y1="76.1492" x2="47.3439" y2="76.1492">
		<stop  offset="0" style="stop-color:#4D3933"/>
		<stop  offset="1" style="stop-color:#3D113C"/>
	</linearGradient>
	<path class="st30" d="M44.8,83.9L44.8,83.9c-1.4,0-2.6-1.1-2.6-2.6l0-10.5c0-1.4,1.1-2.6,2.6-2.6h0c1.4,0,2.6,1.1,2.6,2.6v10.5
		C47.3,82.8,46.2,83.9,44.8,83.9z"/>
</g>
<g>
	
		<linearGradient id="SVGID_35_" gradientUnits="userSpaceOnUse" x1="10024.1064" y1="-801.2767" x2="10031.3027" y2="-801.2767" gradientTransform="matrix(-1 0 0 -1 10107.1807 -725.1275)">
		<stop  offset="0" style="stop-color:#4D3933"/>
		<stop  offset="1" style="stop-color:#3D113C"/>
	</linearGradient>
	<path class="st31" d="M79.5,61.1L79.5,61.1c2,0,3.6,1.6,3.6,3.6v22.9c0,2-1.6,3.6-3.6,3.6h0c-2,0-3.6-1.6-3.6-3.6V64.7
		C75.9,62.7,77.5,61.1,79.5,61.1z"/>
</g>
<g>
	
		<linearGradient id="SVGID_36_" gradientUnits="userSpaceOnUse" x1="10019.1279" y1="-801.2767" x2="10024.2324" y2="-801.2767" gradientTransform="matrix(-1 0 0 -1 10107.1807 -725.1275)">
		<stop  offset="0" style="stop-color:#4D3933"/>
		<stop  offset="1" style="stop-color:#3D113C"/>
	</linearGradient>
	<path class="st32" d="M85.5,68.4L85.5,68.4c1.4,0,2.6,1.1,2.6,2.6v10.5c0,1.4-1.1,2.6-2.6,2.6l0,0c-1.4,0-2.6-1.1-2.6-2.6V70.9
		C82.9,69.5,84.1,68.4,85.5,68.4z"/>
</g>
</svg>
