<?xml version="1.0" encoding="utf-8"?>
<!-- Generator: Adobe Illustrator 22.1.0, SVG Export Plug-In . SVG Version: 6.00 Build 0)  -->
<svg version="1.1" id="Calque_1" xmlns="http://www.w3.org/2000/svg" xmlns:xlink="http://www.w3.org/1999/xlink" x="0px" y="0px"
	 viewBox="0 0 40 40" style="enable-background:new 0 0 40 40;" xml:space="preserve">
<style type="text/css">
	.st0{fill:#00D8FF;}
</style>
<g>
	<path class="st0" d="M32.9,13.5c-0.4-0.1-0.8-0.3-1.3-0.4c0.1-0.3,0.1-0.6,0.2-0.9c1-4.7,0.3-8.5-1.8-9.8c-2.1-1.2-5.5,0.1-8.9,3.1
		c-0.3,0.3-0.7,0.6-1,0.9c-0.2-0.2-0.4-0.4-0.7-0.6c-3.6-3.2-7.2-4.6-9.4-3.3c-2.1,1.2-2.7,4.8-1.8,9.3c0.1,0.4,0.2,0.9,0.3,1.3
		c-0.5,0.1-1,0.3-1.5,0.5C2.7,15,0,17.4,0,19.8c0,2.5,2.9,5,7.3,6.5c0.3,0.1,0.7,0.2,1.1,0.3c-0.1,0.5-0.2,1-0.3,1.4
		c-0.8,4.4-0.2,7.9,1.9,9.1c2.1,1.2,5.8,0,9.3-3.1c0.3-0.2,0.6-0.5,0.8-0.8c0.4,0.3,0.7,0.7,1.1,1c3.4,2.9,6.8,4.1,8.8,2.9
		c2.1-1.2,2.8-5,1.9-9.6c-0.1-0.3-0.1-0.7-0.2-1.1c0.3-0.1,0.5-0.2,0.7-0.2c4.6-1.5,7.6-4,7.6-6.5C40,17.4,37.2,15,32.9,13.5z
		 M31.9,24.6c-0.2,0.1-0.4,0.1-0.7,0.2c-0.5-1.6-1.2-3.3-2-5.1c0.8-1.7,1.5-3.4,1.9-5c0.4,0.1,0.8,0.2,1.2,0.4c3.7,1.3,6,3.2,6,4.6
		C38.3,21.3,35.9,23.3,31.9,24.6z M30.3,27.9c0.4,2,0.5,3.9,0.2,5.3c-0.2,1.3-0.7,2.1-1.3,2.5c-1.3,0.7-4-0.2-6.9-2.7
		c-0.3-0.3-0.7-0.6-1-0.9c1.1-1.2,2.3-2.7,3.4-4.3c1.9-0.2,3.8-0.5,5.4-0.8C30.1,27.2,30.2,27.6,30.3,27.9z M13.6,35.5
		c-1.2,0.4-2.2,0.4-2.8,0.1c-1.3-0.7-1.8-3.5-1.1-7.3c0.1-0.4,0.2-0.9,0.3-1.3c1.6,0.4,3.5,0.6,5.4,0.8c1.1,1.6,2.3,3,3.4,4.2
		c-0.3,0.2-0.5,0.5-0.8,0.7C16.6,34.1,15,35,13.6,35.5z M7.9,24.6c-2-0.7-3.6-1.5-4.7-2.5c-1-0.8-1.5-1.7-1.5-2.4
		c0-1.5,2.2-3.3,5.8-4.6c0.4-0.2,0.9-0.3,1.4-0.4c0.5,1.6,1.2,3.3,1.9,5.1c-0.8,1.7-1.5,3.5-2,5.1C8.5,24.8,8.2,24.7,7.9,24.6z
		 M9.8,11.5C9,7.6,9.5,4.7,10.8,4c1.3-0.8,4.3,0.3,7.4,3.1c0.2,0.2,0.4,0.4,0.6,0.6c-1.2,1.2-2.3,2.7-3.4,4.2
		c-1.9,0.2-3.7,0.5-5.3,0.8C10,12.3,9.9,11.9,9.8,11.5z M27.1,15.7c-0.4-0.7-0.8-1.4-1.2-2c1.3,0.2,2.5,0.4,3.6,0.6
		c-0.3,1.1-0.8,2.3-1.3,3.4C27.8,17.1,27.5,16.4,27.1,15.7z M20,8.9c0.8,0.9,1.6,1.8,2.4,2.8c-0.8,0-1.6-0.1-2.4-0.1
		c-0.8,0-1.6,0-2.4,0.1C18.4,10.7,19.2,9.7,20,8.9z M12.9,15.7c-0.4,0.7-0.8,1.4-1.1,2.1c-0.5-1.2-0.9-2.3-1.3-3.5
		c1.1-0.3,2.4-0.5,3.6-0.6C13.7,14.4,13.3,15,12.9,15.7L12.9,15.7z M14.2,25.9c-1.3-0.1-2.5-0.3-3.7-0.6c0.4-1.1,0.8-2.3,1.3-3.5
		c0.4,0.7,0.7,1.4,1.1,2.1h0C13.3,24.6,13.8,25.3,14.2,25.9z M20.1,30.8c-0.8-0.9-1.6-1.8-2.4-2.9c0.8,0,1.5,0,2.3,0
		c0.8,0,1.6,0,2.4-0.1C21.6,29,20.8,29.9,20.1,30.8z M28.2,21.7c0.5,1.2,1,2.4,1.3,3.5c-1.2,0.3-2.4,0.5-3.7,0.6
		c0.4-0.7,0.8-1.3,1.2-2C27.5,23.2,27.9,22.5,28.2,21.7z M25.6,23c-0.6,1.1-1.3,2.1-1.9,3.1c-1.2,0.1-2.4,0.1-3.7,0.1
		c-1.2,0-2.5,0-3.6-0.1c-0.7-1-1.3-2-2-3.1h0c-0.6-1.1-1.2-2.1-1.7-3.2c0.5-1.1,1.1-2.2,1.7-3.2l0,0c0.6-1.1,1.3-2.1,1.9-3.1
		c1.2-0.1,2.4-0.1,3.6-0.1h0c1.2,0,2.5,0,3.6,0.1c0.7,1,1.3,2,1.9,3.1c0.6,1.1,1.2,2.2,1.7,3.2C26.8,20.8,26.2,21.9,25.6,23z
		 M29.1,3.9c1.3,0.8,1.9,3.9,1,8c-0.1,0.3-0.1,0.5-0.2,0.8c-1.7-0.4-3.5-0.7-5.3-0.8c-1.1-1.6-2.2-3-3.4-4.2
		c0.3-0.3,0.6-0.6,0.9-0.8C25.1,4.2,27.8,3.2,29.1,3.9z M20,16.2c2,0,3.6,1.6,3.6,3.6c0,2-1.6,3.6-3.6,3.6s-3.6-1.6-3.6-3.6
		C16.4,17.8,18,16.2,20,16.2z"/>
</g>
</svg>
