<?xml version="1.0" encoding="utf-8"?>
<!-- Generator: Adobe Illustrator 23.0.3, SVG Export Plug-In . SVG Version: 6.00 Build 0)  -->
<svg version="1.1" id="Calque_1" xmlns="http://www.w3.org/2000/svg" xmlns:xlink="http://www.w3.org/1999/xlink" x="0px" y="0px"
	 viewBox="0 0 100 100" style="enable-background:new 0 0 100 100;" xml:space="preserve">
<style type="text/css">
	.st0{fill:url(#SVGID_1_);}
	.st1{fill:url(#SVGID_2_);}
	.st2{fill:url(#SVGID_3_);}
	.st3{fill:url(#SVGID_4_);}
	.st4{fill:none;stroke:url(#SVGID_5_);stroke-width:0.4997;stroke-miterlimit:10;}
	.st5{fill:url(#SVGID_6_);}
	.st6{fill:url(#SVGID_7_);}
	.st7{fill:url(#SVGID_8_);}
	.st8{fill:url(#SVGID_9_);}
	.st9{fill:url(#SVGID_10_);}
	.st10{fill:url(#SVGID_11_);}
	.st11{fill:url(#SVGID_12_);}
	.st12{fill:none;}
</style>
<linearGradient id="SVGID_1_" gradientUnits="userSpaceOnUse" x1="3.0519" y1="73.8061" x2="12.9097" y2="73.8061">
	<stop  offset="0" style="stop-color:#4D3933"/>
	<stop  offset="1" style="stop-color:#3D113C"/>
</linearGradient>
<path class="st0" d="M10.44,82.09H5.52c-1.36,0-2.47-1.11-2.47-2.47l0-11.62c0-1.36,1.11-2.47,2.47-2.47h4.92
	c1.36,0,2.47,1.11,2.47,2.47v11.62C12.91,80.97,11.8,82.09,10.44,82.09z"/>
<linearGradient id="SVGID_2_" gradientUnits="userSpaceOnUse" x1="86.7511" y1="73.8061" x2="96.6089" y2="73.8061">
	<stop  offset="0" style="stop-color:#4D3933"/>
	<stop  offset="1" style="stop-color:#3D113C"/>
</linearGradient>
<path class="st1" d="M94.14,82.09h-4.92c-1.36,0-2.47-1.11-2.47-2.47V68c0-1.36,1.11-2.47,2.47-2.47h4.92
	c1.36,0,2.47,1.11,2.47,2.47v11.62C96.61,80.97,95.5,82.09,94.14,82.09z"/>
<linearGradient id="SVGID_3_" gradientUnits="userSpaceOnUse" x1="-9.094947e-13" y1="34.0778" x2="12.6994" y2="34.0778">
	<stop  offset="0" style="stop-color:#FC6719"/>
	<stop  offset="0.059" style="stop-color:#F45924"/>
	<stop  offset="0.2124" style="stop-color:#E23C3B"/>
	<stop  offset="0.3753" style="stop-color:#D4254D"/>
	<stop  offset="0.55" style="stop-color:#CB155A"/>
	<stop  offset="0.7447" style="stop-color:#C50B62"/>
	<stop  offset="1" style="stop-color:#C30864"/>
</linearGradient>
<path class="st2" d="M11.88,35.14H8.97c0,0,0.81-2.84-0.84-3.86C6.47,30.25,0.16,31.3,0,34.85s6.94,2.1,8.28,2.18s4.42,0,4.42,0
	L11.88,35.14z"/>
<linearGradient id="SVGID_4_" gradientUnits="userSpaceOnUse" x1="1.4849" y1="45.5471" x2="98.2387" y2="45.5471">
	<stop  offset="0" style="stop-color:#FC6719"/>
	<stop  offset="0.059" style="stop-color:#F45924"/>
	<stop  offset="0.2124" style="stop-color:#E23C3B"/>
	<stop  offset="0.3753" style="stop-color:#D4254D"/>
	<stop  offset="0.55" style="stop-color:#CB155A"/>
	<stop  offset="0.7447" style="stop-color:#C50B62"/>
	<stop  offset="1" style="stop-color:#C30864"/>
</linearGradient>
<path class="st3" d="M97.8,45.76c-0.21-2.84-8.2-7.99-9.25-9.78c-1.05-1.79-5.57-15.14-10.83-17.56C72.64,16.08,51.24,16,49.76,16v0
	c0,0-0.02,0-0.04,0c-0.02,0-0.04,0-0.04,0v0c-1.46,0-22.6,0.08-27.67,2.42c-5.26,2.42-9.78,15.77-10.83,17.56s-9.04,6.94-9.25,9.78
	C1.71,48.6,1.19,69.21,1.71,70.47c0.53,1.26,0.74,4.63,8.41,4.63c6.8,0,32.25,0,37.96,0c0.73,0,1.16,0,1.16,0
	c5.96,0,33.53,0,40.36,0c7.68,0,7.89-3.36,8.41-4.63C98.54,69.21,98.01,48.6,97.8,45.76z"/>
<linearGradient id="SVGID_5_" gradientUnits="userSpaceOnUse" x1="14.1409" y1="26.6791" x2="85.7252" y2="26.6791">
	<stop  offset="0" style="stop-color:#C30864"/>
	<stop  offset="1" style="stop-color:#FC6719"/>
</linearGradient>
<path class="st4" d="M16.87,35.87c-1.71,0-2.9-1.68-2.33-3.29c1.49-4.22,4.02-10.97,7.8-12.71c5.02-2.31,25.9-2.39,27.35-2.39v0
	c0,0,0.02,0,0.04,0c0.02,0,0.04,0,0.04,0v0c1.45,0,22.61,0.08,27.62,2.39c3.77,1.74,6.39,8.46,7.93,12.69
	c0.59,1.61-0.61,3.31-2.32,3.31H16.87z"/>
<linearGradient id="SVGID_6_" gradientUnits="userSpaceOnUse" x1="14.3908" y1="26.6791" x2="85.4753" y2="26.6791">
	<stop  offset="0" style="stop-color:#CCCCCC"/>
	<stop  offset="1" style="stop-color:#FFFFFF"/>
</linearGradient>
<path class="st5" d="M16.87,35.87c-1.71,0-2.9-1.68-2.33-3.29c1.49-4.22,4.02-10.97,7.8-12.71c5.02-2.31,25.9-2.39,27.35-2.39v0
	c0,0,0.02,0,0.04,0c0.02,0,0.04,0,0.04,0v0c1.45,0,22.61,0.08,27.62,2.39c3.77,1.74,6.39,8.46,7.93,12.69
	c0.59,1.61-0.61,3.31-2.32,3.31H16.87z"/>
<linearGradient id="SVGID_7_" gradientUnits="userSpaceOnUse" x1="8734.1465" y1="34.0778" x2="8746.8467" y2="34.0778" gradientTransform="matrix(-1 0 0 1 8834.1465 0)">
	<stop  offset="0" style="stop-color:#FC6719"/>
	<stop  offset="0.059" style="stop-color:#F45924"/>
	<stop  offset="0.2124" style="stop-color:#E23C3B"/>
	<stop  offset="0.3753" style="stop-color:#D4254D"/>
	<stop  offset="0.55" style="stop-color:#CB155A"/>
	<stop  offset="0.7447" style="stop-color:#C50B62"/>
	<stop  offset="1" style="stop-color:#C30864"/>
</linearGradient>
<path class="st6" d="M88.12,35.14h2.92c0,0-0.81-2.84,0.84-3.86c1.66-1.03,7.97,0.03,8.12,3.58c0.16,3.55-6.94,2.1-8.28,2.18
	c-1.34,0.08-4.42,0-4.42,0L88.12,35.14z"/>
<linearGradient id="SVGID_8_" gradientUnits="userSpaceOnUse" x1="5.318" y1="49.099" x2="25.8957" y2="49.099">
	<stop  offset="0" style="stop-color:#CCCCCC"/>
	<stop  offset="1" style="stop-color:#FFFFFF"/>
</linearGradient>
<path class="st7" d="M9.65,44.68c4.23,0.65,10.38,2.25,16.25,6.12c0,0-8.73,4.15-15.67,2.26c-1.8-0.49-3.07-1.32-3.96-2.29
	C3.93,48.24,6.23,44.16,9.65,44.68z"/>
<linearGradient id="SVGID_9_" gradientUnits="userSpaceOnUse" x1="8750.3691" y1="49.099" x2="8770.9463" y2="49.099" gradientTransform="matrix(-1 0 0 1 8843.3213 0)">
	<stop  offset="0" style="stop-color:#CCCCCC"/>
	<stop  offset="1" style="stop-color:#FFFFFF"/>
</linearGradient>
<path class="st8" d="M88.62,44.68c-4.23,0.65-10.38,2.25-16.25,6.12c0,0,8.73,4.15,15.67,2.26c1.8-0.49,3.07-1.32,3.96-2.29
	C94.34,48.24,92.04,44.16,88.62,44.68z"/>
<linearGradient id="SVGID_10_" gradientUnits="userSpaceOnUse" x1="76.4727" y1="59.5374" x2="23.0406" y2="59.5374">
	<stop  offset="0" style="stop-color:#4D3933"/>
	<stop  offset="1" style="stop-color:#3D113C"/>
</linearGradient>
<path class="st9" d="M73.21,54.64c-1.84-1.48-4.08-2.39-6.42-2.64c-9.58-1.01-18.21-0.83-18.21-0.83v0.01
	c-3.22,0.01-9.37,0.15-15.96,0.85c-2.31,0.25-4.5,1.16-6.31,2.62c-0.08,0.06-0.15,0.12-0.23,0.18c-3.76,3.05-4.11,8.81-0.57,12.11
	c0.03,0.03,0.07,0.06,0.1,0.09c0,0,9.88,0.95,24.47,0.87l0-0.02c14.23,0.05,23.83-0.87,23.83-0.87c0.03-0.03,0.07-0.06,0.1-0.09
	c3.54-3.3,3.19-9.06-0.57-12.11C73.36,54.76,73.29,54.7,73.21,54.64z"/>
<linearGradient id="SVGID_11_" gradientUnits="userSpaceOnUse" x1="94.5459" y1="66.1137" x2="88.7753" y2="66.1137">
	<stop  offset="0" style="stop-color:#CCCCCC"/>
	<stop  offset="1" style="stop-color:#FFFFFF"/>
</linearGradient>
<path class="st10" d="M94.45,61.9c0,0-0.79-0.06-1.75,0.18c-1.6,0.4-2.68,1.9-2.68,3.54c0,1.66-0.18,4.1-1.25,4.71
	C88.78,70.34,95.4,69.47,94.45,61.9z"/>
<linearGradient id="SVGID_12_" gradientUnits="userSpaceOnUse" x1="8717.7256" y1="66.1138" x2="8711.9551" y2="66.1138" gradientTransform="matrix(-1 0 0 1 8722.6709 0)">
	<stop  offset="0" style="stop-color:#CCCCCC"/>
	<stop  offset="1" style="stop-color:#FFFFFF"/>
</linearGradient>
<path class="st11" d="M5.04,61.9c0,0,0.05,0,0.14-0.01c2.33-0.05,4.25,1.84,4.3,4.18c0.03,1.62,0.27,3.71,1.24,4.27
	C10.72,70.34,4.09,69.47,5.04,61.9z"/>
<line class="st12" x1="26.47" y1="70.57" x2="74.03" y2="70.57"/>
</svg>
