<?xml version="1.0" encoding="utf-8"?>
<!-- Generator: Adobe Illustrator 22.1.0, SVG Export Plug-In . SVG Version: 6.00 Build 0)  -->
<svg version="1.1" id="Calque_1" xmlns="http://www.w3.org/2000/svg" xmlns:xlink="http://www.w3.org/1999/xlink" x="0px" y="0px"
	 viewBox="0 0 40 40" style="enable-background:new 0 0 40 40;" xml:space="preserve">
<style type="text/css">
	.st0{fill:#9A4993;}
	.st1{fill:#6A1577;}
	.st2{fill:#813084;}
	.st3{fill:#FFFFFF;}
</style>
<path id="XMLID_3_" class="st0" d="M37.6,11.8c0-0.7-0.1-1.3-0.4-1.8c-0.3-0.5-0.7-0.9-1.3-1.3C31.1,6,26.4,3.3,21.6,0.5
	c-1.3-0.7-2.5-0.7-3.8,0C16,1.7,6.5,7.1,3.7,8.7C2.6,9.4,2,10.4,2,11.8c0,5.5,0,11,0,16.5c0,0.7,0.1,1.2,0.4,1.7
	c0.3,0.5,0.7,0.9,1.3,1.3c2.8,1.6,12.3,7,14.1,8.2c1.3,0.7,2.5,0.8,3.8,0c4.7-2.7,9.5-5.5,14.2-8.2c0.6-0.3,1-0.8,1.3-1.3
	c0.3-0.5,0.4-1.1,0.4-1.7C37.6,28.2,37.6,17.3,37.6,11.8"/>
<path id="XMLID_4_" class="st1" d="M19.8,19.9L2.4,30c0.3,0.5,0.7,0.9,1.3,1.3c2.8,1.6,12.3,7,14.1,8.2c1.3,0.7,2.5,0.8,3.8,0
	c4.7-2.7,9.5-5.5,14.2-8.2c0.6-0.3,1-0.8,1.3-1.3L19.8,19.9"/>
<path id="XMLID_5_" class="st1" d="M14.7,22.9c1,1.8,2.9,3,5.1,3c2.2,0,4.1-1.2,5.1-3l-5.1-2.9L14.7,22.9"/>
<path id="XMLID_6_" class="st2" d="M37.6,11.8c0-0.7-0.1-1.3-0.4-1.8l-17.3,10l17.3,10c0.3-0.5,0.4-1.1,0.4-1.7
	C37.6,28.2,37.6,17.3,37.6,11.8"/>
<path id="XMLID_9_" class="st3" d="M24.9,22.9c-1,1.8-2.9,3-5.1,3c-2.2,0-4.1-1.2-5.1-3c-0.5-0.9-0.8-1.9-0.8-2.9
	c0-3.3,2.6-5.9,5.9-5.9c2.2,0,4.1,1.2,5.1,2.9l5.1-3c-2-3.5-5.9-5.9-10.2-5.9C13.3,8.2,8,13.5,8,20c0,2.1,0.6,4.1,1.6,5.9
	c2,3.5,5.9,5.9,10.3,5.9c4.4,0,8.2-2.4,10.3-6L24.9,22.9"/>
<g id="XMLID_32_">
	<rect id="XMLID_1_" x="30.3" y="17.2" class="st3" width="1.2" height="5.7"/>
	<rect id="XMLID_30_" x="32.8" y="17.2" class="st3" width="1.2" height="5.7"/>
	
		<rect id="XMLID_31_" x="31.6" y="15.9" transform="matrix(-1.836970e-16 1 -1 -1.836970e-16 50.8752 -13.3958)" class="st3" width="1.2" height="5.7"/>
	
		<rect id="XMLID_23_" x="31.6" y="18.5" transform="matrix(-1.836970e-16 1 -1 -1.836970e-16 53.4688 -10.8022)" class="st3" width="1.2" height="5.7"/>
</g>
</svg>
