<?xml version="1.0" encoding="utf-8"?>
<!-- Generator: Adobe Illustrator 22.1.0, SVG Export Plug-In . SVG Version: 6.00 Build 0)  -->
<svg version="1.1" id="Calque_1" xmlns="http://www.w3.org/2000/svg" xmlns:xlink="http://www.w3.org/1999/xlink" x="0px" y="0px"
	 viewBox="0 0 40 40" style="enable-background:new 0 0 40 40;" xml:space="preserve">
<style type="text/css">
	.st0{fill:#0074BD;}
	.st1{fill:#EA2D2E;}
</style>
<path id="XMLID_16_" class="st0" d="M14.5,30.9c0,0-1.5,0.9,1.1,1.2c3.2,0.4,4.8,0.3,8.3-0.4c0,0,0.9,0.6,2.2,1.1
	C18.2,36.2,8.4,32.7,14.5,30.9L14.5,30.9z"/>
<path id="XMLID_15_" class="st0" d="M13.5,26.6c0,0-1.7,1.3,0.9,1.5c3.4,0.3,6.1,0.4,10.7-0.5c0,0,0.6,0.6,1.6,1
	C17.3,31.4,6.8,28.8,13.5,26.6L13.5,26.6z"/>
<path id="XMLID_14_" class="st1" d="M21.6,19.1c1.9,2.2-0.5,4.2-0.5,4.2s4.9-2.5,2.6-5.7c-2.1-3-3.7-4.4,5-9.5
	C28.8,8.2,15.1,11.6,21.6,19.1L21.6,19.1z"/>
<path id="XMLID_13_" class="st0" d="M32,34.2c0,0,1.1,0.9-1.2,1.7c-4.5,1.4-18.8,1.8-22.8,0.1c-1.4-0.6,1.2-1.5,2.1-1.7
	c0.9-0.2,1.4-0.2,1.4-0.2C9.8,32.9,1.2,36.3,7,37.2C23,39.8,36.1,36,32,34.2L32,34.2z"/>
<path id="XMLID_12_" class="st0" d="M15.2,22c0,0-7.3,1.7-2.6,2.4c2,0.3,5.9,0.2,9.6-0.1c3-0.3,6-0.8,6-0.8s-1.1,0.5-1.8,1
	c-7.4,1.9-21.6,1-17.5-0.9C12.4,21.8,15.2,22,15.2,22L15.2,22z"/>
<path id="XMLID_11_" class="st0" d="M28.3,29.3c7.5-3.9,4-7.6,1.6-7.1c-0.6,0.1-0.9,0.2-0.9,0.2s0.2-0.3,0.6-0.5
	c4.8-1.7,8.5,5-1.5,7.6C28.1,29.5,28.2,29.4,28.3,29.3L28.3,29.3z"/>
<path id="XMLID_10_" class="st1" d="M23.8,0c0,0,4.2,4.2-3.9,10.5c-6.5,5.1-1.5,8.1,0,11.4c-3.8-3.4-6.6-6.4-4.7-9.2
	C17.8,8.6,25.4,6.6,23.8,0L23.8,0z"/>
<path id="XMLID_9_" class="st0" d="M16,39.9c7.2,0.5,18.3-0.3,18.5-3.7c0,0-0.5,1.3-6,2.3c-6.1,1.2-13.7,1-18.2,0.3
	C10.3,38.8,11.2,39.6,16,39.9L16,39.9z"/>
</svg>
