<?xml version="1.0" encoding="utf-8"?>
<!-- Generator: Adobe Illustrator 22.1.0, SVG Export Plug-In . SVG Version: 6.00 Build 0)  -->
<svg version="1.0" id="Calque_1" xmlns="http://www.w3.org/2000/svg" xmlns:xlink="http://www.w3.org/1999/xlink" x="0px" y="0px"
	 viewBox="0 0 40 40" style="enable-background:new 0 0 40 40;" xml:space="preserve">
<style type="text/css">
	.st0{fill:url(#polygon3282_1_);}
	.st1{fill:url(#polygon3293_1_);}
	.st2{fill:url(#polygon3304_1_);}
	.st3{fill:url(#polygon3319_1_);}
	.st4{fill:url(#polygon3334_1_);}
	.st5{fill:url(#polygon3349_1_);}
	.st6{fill:url(#polygon3362_1_);}
	.st7{fill:url(#polygon3375_1_);}
	.st8{fill:#FFFFFF;}
	.st9{fill:url(#path3400_1_);}
	.st10{fill:url(#path3413_1_);}
	.st11{fill:url(#path3424_1_);}
	.st12{fill:url(#path3435_1_);}
	.st13{fill:#9E1209;}
	.st14{fill:url(#path3448_1_);}
	.st15{fill:url(#path3459_1_);}
	.st16{fill:url(#path3472_1_);}
	.st17{fill:url(#path3485_1_);}
</style>
<linearGradient id="polygon3282_1_" gradientUnits="userSpaceOnUse" x1="32.6289" y1="1.9294" x2="25.0343" y2="15.338" gradientTransform="matrix(1 0 0 -1 0 42)">
	<stop  offset="0" style="stop-color:#FB7655"/>
	<stop  offset="0" style="stop-color:#FB7655"/>
	<stop  offset="0.41" style="stop-color:#E42B1E"/>
	<stop  offset="0.99" style="stop-color:#990000"/>
	<stop  offset="1" style="stop-color:#990000"/>
</linearGradient>
<polygon id="polygon3282" class="st0" points="28.9,24.6 8.3,36.8 35,35 37,8.2 "/>
<linearGradient id="polygon3293_1_" gradientUnits="userSpaceOnUse" x1="36.4122" y1="13.1933" x2="26.6246" y2="19.7614" gradientTransform="matrix(1 0 0 -1 0 42)">
	<stop  offset="0" style="stop-color:#871101"/>
	<stop  offset="0" style="stop-color:#871101"/>
	<stop  offset="0.99" style="stop-color:#911209"/>
	<stop  offset="1" style="stop-color:#911209"/>
</linearGradient>
<polygon id="polygon3293" class="st1" points="35,35 32.7,19.2 26.5,27.4 "/>
<linearGradient id="polygon3304_1_" gradientUnits="userSpaceOnUse" x1="28.581" y1="1.5231" x2="18.7937" y2="8.0911" gradientTransform="matrix(1 0 0 -1 0 42)">
	<stop  offset="0" style="stop-color:#871101"/>
	<stop  offset="0" style="stop-color:#871101"/>
	<stop  offset="0.99" style="stop-color:#911209"/>
	<stop  offset="1" style="stop-color:#911209"/>
</linearGradient>
<polygon id="polygon3304" class="st2" points="35,35 18.3,33.7 8.4,36.8 "/>
<linearGradient id="polygon3319_1_" gradientUnits="userSpaceOnUse" x1="8.0311" y1="17.9478" x2="9.5483" y2="8.0868" gradientTransform="matrix(1 0 0 -1 0 42)">
	<stop  offset="0" style="stop-color:#FFFFFF"/>
	<stop  offset="0" style="stop-color:#FFFFFF"/>
	<stop  offset="0.23" style="stop-color:#E57252"/>
	<stop  offset="0.46" style="stop-color:#DE3B20"/>
	<stop  offset="0.99" style="stop-color:#A60003"/>
	<stop  offset="1" style="stop-color:#A60003"/>
</linearGradient>
<polygon id="polygon3319" class="st3" points="8.4,36.8 12.6,23.1 3.4,25 "/>
<linearGradient id="polygon3334_1_" gradientUnits="userSpaceOnUse" x1="18.4673" y1="27.1554" x2="19.0263" y2="17.0917" gradientTransform="matrix(1 0 0 -1 0 42)">
	<stop  offset="0" style="stop-color:#FFFFFF"/>
	<stop  offset="0" style="stop-color:#FFFFFF"/>
	<stop  offset="0.23" style="stop-color:#E4714E"/>
	<stop  offset="0.56" style="stop-color:#BE1A0D"/>
	<stop  offset="0.99" style="stop-color:#A80D00"/>
	<stop  offset="1" style="stop-color:#A80D00"/>
</linearGradient>
<polygon id="polygon3334" class="st4" points="26.5,27.5 22.6,12.4 11.6,22.7 "/>
<linearGradient id="polygon3349_1_" gradientUnits="userSpaceOnUse" x1="27.7285" y1="36.4574" x2="29.4022" y2="29.2448" gradientTransform="matrix(1 0 0 -1 0 42)">
	<stop  offset="0" style="stop-color:#FFFFFF"/>
	<stop  offset="0" style="stop-color:#FFFFFF"/>
	<stop  offset="0.18" style="stop-color:#E46342"/>
	<stop  offset="0.4" style="stop-color:#C82410"/>
	<stop  offset="0.99" style="stop-color:#A80D00"/>
	<stop  offset="1" style="stop-color:#A80D00"/>
</linearGradient>
<polygon id="polygon3349" class="st5" points="36.1,12.6 25.7,4.1 22.8,13.5 "/>
<linearGradient id="polygon3362_1_" gradientUnits="userSpaceOnUse" x1="22.6179" y1="38.9973" x2="29.8299" y2="42.6034" gradientTransform="matrix(1 0 0 -1 0 42)">
	<stop  offset="0" style="stop-color:#FFFFFF"/>
	<stop  offset="0" style="stop-color:#FFFFFF"/>
	<stop  offset="0.54" style="stop-color:#C81F11"/>
	<stop  offset="0.99" style="stop-color:#BF0905"/>
	<stop  offset="1" style="stop-color:#BF0905"/>
</linearGradient>
<polygon id="polygon3362" class="st6" points="31.3,1 25.1,4.4 21.3,1 "/>
<linearGradient id="polygon3375_1_" gradientUnits="userSpaceOnUse" x1="1.7093" y1="20.4617" x2="2.3029" y2="14.5187" gradientTransform="matrix(1 0 0 -1 0 42)">
	<stop  offset="0" style="stop-color:#FFFFFF"/>
	<stop  offset="0" style="stop-color:#FFFFFF"/>
	<stop  offset="0.31" style="stop-color:#DE4024"/>
	<stop  offset="0.99" style="stop-color:#BF190B"/>
	<stop  offset="1" style="stop-color:#BF190B"/>
</linearGradient>
<polygon id="polygon3375" class="st7" points="1,29.6 3.6,24.9 1.5,19.4 "/>
<path id="path3377" inkscape:connector-curvature="0" class="st8" d="M1.4,19.2l2.1,5.9l9.1-2l10.4-9.6l2.9-9.3l-4.6-3.3l-7.8,2.9
	c-2.5,2.3-7.3,6.8-7.4,6.9C5.8,10.8,2.8,16.5,1.4,19.2z"/>
<linearGradient id="path3400_1_" gradientUnits="userSpaceOnUse" x1="-2.3716" y1="12.9123" x2="25.532" y2="41.605" gradientTransform="matrix(1 0 0 -1 0 42)">
	<stop  offset="0" style="stop-color:#BD0012"/>
	<stop  offset="0" style="stop-color:#BD0012"/>
	<stop  offset="7.000000e-02" style="stop-color:#FFFFFF"/>
	<stop  offset="0.17" style="stop-color:#FFFFFF"/>
	<stop  offset="0.27" style="stop-color:#C82F1C"/>
	<stop  offset="0.33" style="stop-color:#820C01"/>
	<stop  offset="0.46" style="stop-color:#A31601"/>
	<stop  offset="0.72" style="stop-color:#B31301"/>
	<stop  offset="0.99" style="stop-color:#E82609"/>
	<stop  offset="1" style="stop-color:#E82609"/>
</linearGradient>
<path id="path3400" inkscape:connector-curvature="0" class="st9" d="M8.7,8.5C14,3.2,20.9,0.1,23.6,2.8c2.6,2.7-0.2,9.2-5.5,14.5
	S5.9,25.8,3.3,23.2C0.6,20.5,3.3,13.8,8.7,8.5z"/>
<linearGradient id="path3413_1_" gradientUnits="userSpaceOnUse" x1="19.0018" y1="10.0181" x2="10.597" y2="12.0925" gradientTransform="matrix(1 0 0 -1 0 42)">
	<stop  offset="0" style="stop-color:#8C0C01"/>
	<stop  offset="0" style="stop-color:#8C0C01"/>
	<stop  offset="0.54" style="stop-color:#990C00"/>
	<stop  offset="0.99" style="stop-color:#A80D0E"/>
	<stop  offset="1" style="stop-color:#A80D0E"/>
</linearGradient>
<path id="path3413" inkscape:connector-curvature="0" class="st10" d="M8.4,36.8L12.6,23l13.8,4.4C21.4,32.1,15.9,36.1,8.4,36.8z"/>
<linearGradient id="path3424_1_" gradientUnits="userSpaceOnUse" x1="33.4379" y1="20.1056" x2="25.9714" y2="26.7977" gradientTransform="matrix(1 0 0 -1 0 42)">
	<stop  offset="0" style="stop-color:#7E110B"/>
	<stop  offset="0" style="stop-color:#7E110B"/>
	<stop  offset="0.99" style="stop-color:#9E0C00"/>
	<stop  offset="1" style="stop-color:#9E0C00"/>
</linearGradient>
<path id="path3424" inkscape:connector-curvature="0" class="st11" d="M22.9,13.4l3.5,14c4.2-4.4,7.9-9.1,9.7-14.9
	C36.2,12.5,22.9,13.4,22.9,13.4z"/>
<linearGradient id="path3435_1_" gradientUnits="userSpaceOnUse" x1="36.1811" y1="32.3843" x2="32.4618" y2="36.3605" gradientTransform="matrix(1 0 0 -1 0 42)">
	<stop  offset="0" style="stop-color:#79130D"/>
	<stop  offset="0" style="stop-color:#79130D"/>
	<stop  offset="0.99" style="stop-color:#9E120B"/>
	<stop  offset="1" style="stop-color:#9E120B"/>
</linearGradient>
<path id="path3435" inkscape:connector-curvature="0" class="st12" d="M36.1,12.6c1.4-4.3,1.7-10.4-4.9-11.6l-5.5,3L36.1,12.6z"/>
<path id="path3437" inkscape:connector-curvature="0" class="st13" d="M1,29.6c0.2,7.1,5.3,7.2,7.5,7.2l-5-11.7L1,29.6z"/>
<radialGradient id="path3448_1_" cx="27.134" cy="26.6697" r="9.1499" gradientTransform="matrix(1 0 0 -1 0 42)" gradientUnits="userSpaceOnUse">
	<stop  offset="0" style="stop-color:#A80D00"/>
	<stop  offset="0" style="stop-color:#A80D00"/>
	<stop  offset="0.99" style="stop-color:#7E0E08"/>
	<stop  offset="1" style="stop-color:#7E0E08"/>
</radialGradient>
<path id="path3448" inkscape:connector-curvature="0" class="st14" d="M22.9,13.4c3.2,2,9.7,5.9,9.8,6c0.2,0.1,2.8-4.3,3.4-6.9
	C36.1,12.6,22.9,13.4,22.9,13.4z"/>
<radialGradient id="path3459_1_" cx="14.4625" cy="14.6117" r="12.1636" gradientTransform="matrix(1 0 0 -1 0 42)" gradientUnits="userSpaceOnUse">
	<stop  offset="0" style="stop-color:#A30C00"/>
	<stop  offset="0" style="stop-color:#A30C00"/>
	<stop  offset="0.99" style="stop-color:#800E08"/>
	<stop  offset="1" style="stop-color:#800E08"/>
</radialGradient>
<path id="path3459" inkscape:connector-curvature="0" class="st15" d="M12.6,23l5.6,10.7c3.3-1.8,5.9-4,8.2-6.3L12.6,23z"/>
<linearGradient id="path3472_1_" gradientUnits="userSpaceOnUse" x1="5.846" y1="5.2388" x2="2.815" y2="15.5218" gradientTransform="matrix(1 0 0 -1 0 42)">
	<stop  offset="0" style="stop-color:#8B2114"/>
	<stop  offset="0" style="stop-color:#8B2114"/>
	<stop  offset="0.43" style="stop-color:#9E100A"/>
	<stop  offset="0.99" style="stop-color:#B3100C"/>
	<stop  offset="1" style="stop-color:#B3100C"/>
</linearGradient>
<path id="path3472" inkscape:connector-curvature="0" class="st16" d="M3.4,25.1l-0.8,9.4c1.5,2,3.5,2.2,5.7,2
	C6.8,32.7,3.7,24.9,3.4,25.1z"/>
<linearGradient id="path3485_1_" gradientUnits="userSpaceOnUse" x1="29.0981" y1="39.3142" x2="35.8933" y2="36.3148" gradientTransform="matrix(1 0 0 -1 0 42)">
	<stop  offset="0" style="stop-color:#B31000"/>
	<stop  offset="0" style="stop-color:#B31000"/>
	<stop  offset="0.44" style="stop-color:#910F08"/>
	<stop  offset="0.99" style="stop-color:#791C12"/>
	<stop  offset="1" style="stop-color:#791C12"/>
</linearGradient>
<path id="path3485" inkscape:connector-curvature="0" class="st17" d="M25.7,4.1l11,1.5c-0.6-2.5-2.4-4.1-5.5-4.6L25.7,4.1z"/>
</svg>
