<?xml version="1.0" encoding="utf-8"?>
<!-- Generator: Adobe Illustrator 22.1.0, SVG Export Plug-In . SVG Version: 6.00 Build 0)  -->
<svg version="1.1" id="Calque_1" xmlns="http://www.w3.org/2000/svg" xmlns:xlink="http://www.w3.org/1999/xlink" x="0px" y="0px"
	 viewBox="0 0 40 40" style="enable-background:new 0 0 40 40;" xml:space="preserve">
<style type="text/css">
	.st0{clip-path:url(#SVGID_2_);fill:url(#SVGID_3_);}
	.st1{clip-path:url(#SVGID_5_);fill:url(#SVGID_6_);}
	.st2{clip-path:url(#SVGID_8_);fill:url(#SVGID_9_);}
	.st3{fill:#FFFFFF;}
</style>
<g>
	<defs>
		<path id="SVGID_1_" d="M18.6,0.3l-15.7,9C2.4,9.6,2,10.3,2,10.9v18.1c0,0.7,0.4,1.3,0.9,1.6l15.7,9.1c0.6,0.3,1.3,0.3,1.9,0
			l15.7-9.1c0.6-0.3,0.9-1,0.9-1.6V10.9c0-0.7-0.4-1.3-0.9-1.6l-15.7-9C20.2,0.1,19.9,0,19.6,0S18.9,0.1,18.6,0.3"/>
	</defs>
	<clipPath id="SVGID_2_">
		<use xlink:href="#SVGID_1_"  style="overflow:visible;"/>
	</clipPath>
	
		<linearGradient id="SVGID_3_" gradientUnits="userSpaceOnUse" x1="-229.4865" y1="-230.3166" x2="-229.2074" y2="-230.3166" gradientTransform="matrix(-81.162 165.5699 -165.5699 -81.162 -56728.1758 19300.041)">
		<stop  offset="0" style="stop-color:#3E863D"/>
		<stop  offset="0.3" style="stop-color:#3E863D"/>
		<stop  offset="0.5" style="stop-color:#55934F"/>
		<stop  offset="0.8" style="stop-color:#5AAD45"/>
		<stop  offset="1" style="stop-color:#5AAD45"/>
	</linearGradient>
	<polygon class="st0" points="53,7.8 8.8,-13.9 -13.8,32.3 30.3,54 	"/>
</g>
<g>
	<defs>
		<path id="SVGID_4_" d="M2.4,30.2c0.1,0.2,0.3,0.4,0.6,0.5l13.4,7.8l2.2,1.3c0.3,0.2,0.7,0.3,1.1,0.2c0.1,0,0.3,0,0.4-0.1L36.6,9.7
			c-0.1-0.1-0.3-0.3-0.4-0.3L25.9,3.4l-5.4-3.1c-0.2-0.1-0.3-0.2-0.5-0.2L2.4,30.2z"/>
	</defs>
	<clipPath id="SVGID_5_">
		<use xlink:href="#SVGID_4_"  style="overflow:visible;"/>
	</clipPath>
	
		<linearGradient id="SVGID_6_" gradientUnits="userSpaceOnUse" x1="-229.625" y1="-229.6422" x2="-229.3459" y2="-229.6422" gradientTransform="matrix(147.809 -109.2133 109.2133 147.809 59019.5117 8900.3682)">
		<stop  offset="0" style="stop-color:#3E863D"/>
		<stop  offset="0.57" style="stop-color:#3E863D"/>
		<stop  offset="0.72" style="stop-color:#619857"/>
		<stop  offset="1" style="stop-color:#76AC64"/>
	</linearGradient>
	<polygon class="st1" points="-16.7,14.2 14.5,56.4 55.7,25.9 24.5,-16.3 	"/>
</g>
<g>
	<defs>
		<path id="SVGID_7_" d="M19.4,0c-0.3,0-0.5,0.1-0.8,0.2L3,9.3L19.8,40c0.2,0,0.5-0.1,0.7-0.2l15.7-9.1c0.5-0.3,0.8-0.8,0.9-1.3
			L19.9,0c-0.1,0-0.3,0-0.4,0C19.5,0,19.4,0,19.4,0"/>
	</defs>
	<clipPath id="SVGID_8_">
		<use xlink:href="#SVGID_7_"  style="overflow:visible;"/>
	</clipPath>
	
		<linearGradient id="SVGID_9_" gradientUnits="userSpaceOnUse" x1="-229.3174" y1="-229.5826" x2="-229.0383" y2="-229.5826" gradientTransform="matrix(122.2438 0 0 122.2438 28035.6191 28085.0371)">
		<stop  offset="0" style="stop-color:#6BBF47"/>
		<stop  offset="0.16" style="stop-color:#6BBF47"/>
		<stop  offset="0.38" style="stop-color:#79B461"/>
		<stop  offset="0.47" style="stop-color:#75AC64"/>
		<stop  offset="0.7" style="stop-color:#659E5A"/>
		<stop  offset="0.9" style="stop-color:#3E863D"/>
		<stop  offset="1" style="stop-color:#3E863D"/>
	</linearGradient>
	<rect x="3" y="0" class="st2" width="34.1" height="40"/>
</g>
<path class="st3" d="M19.8,35.8c-0.4,0-0.8-0.1-1.2-0.3l-3.7-2.2c-0.6-0.3-0.3-0.4-0.1-0.5c0.7-0.3,0.9-0.3,1.7-0.8
	c0.1,0,0.2,0,0.3,0l2.9,1.7c0.1,0.1,0.3,0.1,0.3,0l11.2-6.4c0.1-0.1,0.2-0.2,0.2-0.3V14.1c0-0.1-0.1-0.2-0.2-0.3L20,7.3
	c-0.1-0.1-0.2-0.1-0.3,0L8.5,13.8c-0.1,0.1-0.2,0.2-0.2,0.3v12.9c0,0.1,0.1,0.2,0.2,0.3l3.1,1.8c1.7,0.8,2.7-0.1,2.7-1.1V15.2
	c0-0.2,0.1-0.3,0.3-0.3h1.4c0.2,0,0.3,0.1,0.3,0.3v12.7c0,2.2-1.2,3.5-3.3,3.5c-0.6,0-1.2,0-2.6-0.7L7.4,29c-0.7-0.4-1.2-1.2-1.2-2
	V14.1c0-0.8,0.4-1.6,1.2-2l11.2-6.5c0.7-0.4,1.6-0.4,2.3,0L32.1,12c0.7,0.4,1.2,1.2,1.2,2V27c0,0.8-0.5,1.6-1.2,2L21,35.4
	C20.6,35.6,20.2,35.7,19.8,35.8"/>
<path class="st3" d="M23.2,26.9c-4.9,0-5.9-2.2-5.9-4.1c0-0.2,0.1-0.3,0.3-0.3h1.4c0.2,0,0.3,0.1,0.3,0.3c0.2,1.5,0.9,2.2,3.8,2.2
	c2.4,0,3.4-0.5,3.4-1.8c0-0.7-0.3-1.3-3.9-1.6c-3.1-0.3-4.9-1-4.9-3.4c0-2.3,1.9-3.6,5.1-3.6c3.6,0,5.3,1.2,5.6,3.9
	c0,0.1,0,0.2-0.1,0.2c-0.1,0.1-0.1,0.1-0.2,0.1h-1.5c-0.2,0-0.3-0.1-0.3-0.3c-0.3-1.5-1.2-2-3.5-2c-2.6,0-2.9,0.9-2.9,1.6
	c0,0.8,0.4,1.1,3.8,1.5c3.4,0.5,5.1,1.1,5.1,3.5C28.8,25.5,26.8,26.9,23.2,26.9"/>
</svg>
