<?xml version="1.0" encoding="utf-8"?>
<!-- Generator: Adobe Illustrator 23.0.3, SVG Export Plug-In . SVG Version: 6.00 Build 0)  -->
<svg version="1.1" id="Calque_1" xmlns="http://www.w3.org/2000/svg" xmlns:xlink="http://www.w3.org/1999/xlink" x="0px" y="0px"
	 viewBox="0 0 100 100" style="enable-background:new 0 0 100 100;" xml:space="preserve">
<style type="text/css">
	.st0{fill:url(#SVGID_1_);}
	.st1{fill:url(#SVGID_2_);}
	.st2{fill:url(#SVGID_3_);}
	.st3{fill:url(#SVGID_4_);}
	.st4{fill:url(#SVGID_5_);}
	.st5{fill:url(#SVGID_6_);}
	.st6{fill:url(#SVGID_7_);}
	.st7{fill:url(#SVGID_8_);}
	.st8{fill:url(#SVGID_9_);}
	.st9{fill:url(#SVGID_10_);}
	.st10{fill:url(#SVGID_11_);}
	.st11{fill:url(#SVGID_12_);}
	.st12{fill:url(#SVGID_13_);}
	.st13{fill:url(#SVGID_14_);}
	.st14{fill:url(#SVGID_15_);}
	.st15{fill:url(#SVGID_16_);}
	.st16{fill:url(#SVGID_17_);}
	.st17{fill:url(#SVGID_18_);}
	.st18{fill:url(#SVGID_19_);}
	.st19{fill:url(#SVGID_20_);}
	.st20{clip-path:url(#SVGID_22_);}
	.st21{fill:url(#SVGID_23_);}
	.st22{fill:url(#SVGID_24_);}
	.st23{fill:url(#SVGID_25_);}
	.st24{fill:url(#SVGID_26_);}
	.st25{fill:url(#SVGID_27_);}
	.st26{fill:url(#SVGID_28_);}
	.st27{fill:url(#SVGID_29_);}
	.st28{fill:url(#SVGID_30_);}
	.st29{fill:url(#SVGID_31_);}
	.st30{fill:url(#SVGID_32_);}
	.st31{fill:url(#SVGID_33_);}
	.st32{fill:url(#SVGID_34_);}
	.st33{fill:url(#SVGID_35_);}
	.st34{fill:url(#SVGID_36_);}
	.st35{fill:url(#SVGID_37_);}
	.st36{fill:url(#SVGID_38_);}
	.st37{fill:url(#SVGID_39_);}
	.st38{fill:url(#SVGID_40_);}
	.st39{fill:url(#SVGID_41_);}
	.st40{fill:url(#SVGID_42_);}
	.st41{fill:url(#SVGID_43_);}
	.st42{fill:url(#SVGID_44_);}
	.st43{fill:url(#SVGID_45_);}
	.st44{fill:url(#SVGID_46_);}
	.st45{fill:url(#SVGID_47_);}
	.st46{fill:url(#SVGID_48_);}
	.st47{fill:url(#SVGID_49_);}
	.st48{fill:url(#SVGID_50_);}
	.st49{fill:url(#SVGID_51_);}
	.st50{fill:url(#SVGID_52_);}
	.st51{fill:url(#SVGID_53_);}
	.st52{fill:url(#SVGID_54_);}
	.st53{fill:url(#SVGID_55_);}
	.st54{fill:url(#SVGID_56_);}
	.st55{fill:url(#SVGID_57_);}
	.st56{fill:url(#SVGID_58_);}
	.st57{fill:url(#SVGID_59_);}
	.st58{fill:url(#SVGID_60_);}
	.st59{fill:url(#SVGID_61_);}
	.st60{fill:url(#SVGID_62_);}
	.st61{fill:url(#SVGID_63_);}
	.st62{fill:url(#SVGID_64_);}
	.st63{fill:url(#SVGID_65_);}
	.st64{fill:url(#SVGID_66_);}
	.st65{fill:url(#SVGID_67_);}
	.st66{fill:url(#SVGID_68_);}
	.st67{fill:url(#SVGID_69_);}
	.st68{fill:url(#SVGID_70_);}
	.st69{fill:url(#SVGID_71_);}
	.st70{fill:url(#SVGID_72_);}
	.st71{fill:url(#SVGID_73_);}
	.st72{fill:url(#SVGID_74_);}
	.st73{fill:url(#SVGID_75_);}
	.st74{fill:url(#SVGID_76_);}
	.st75{fill:url(#SVGID_77_);}
	.st76{fill:url(#SVGID_78_);}
	.st77{fill:url(#SVGID_79_);}
	.st78{fill:url(#SVGID_80_);}
	.st79{fill:url(#SVGID_81_);}
	.st80{fill:url(#SVGID_82_);}
	.st81{fill:url(#SVGID_83_);}
	.st82{fill:url(#SVGID_84_);}
	.st83{fill:url(#SVGID_85_);}
	.st84{fill:url(#SVGID_86_);}
	.st85{fill:url(#SVGID_87_);}
	.st86{fill:url(#SVGID_88_);}
	.st87{fill:url(#SVGID_89_);}
	.st88{fill:url(#SVGID_90_);}
	.st89{fill:url(#SVGID_91_);}
	.st90{fill:url(#SVGID_92_);}
	.st91{clip-path:url(#SVGID_94_);}
	.st92{fill:url(#SVGID_95_);}
	.st93{fill:url(#SVGID_96_);}
	.st94{clip-path:url(#SVGID_98_);}
	.st95{fill:url(#SVGID_99_);}
	.st96{fill:url(#SVGID_100_);}
	.st97{clip-path:url(#SVGID_102_);}
	.st98{fill:url(#SVGID_103_);}
	.st99{fill:url(#SVGID_104_);}
	.st100{fill:url(#SVGID_105_);}
	.st101{fill:url(#SVGID_106_);}
	.st102{fill:url(#SVGID_107_);}
	.st103{fill:url(#SVGID_108_);}
	.st104{fill:url(#SVGID_109_);}
	.st105{fill:url(#SVGID_110_);}
	.st106{fill:url(#SVGID_111_);}
	.st107{fill:url(#SVGID_112_);}
	.st108{fill:url(#SVGID_113_);}
	.st109{fill:url(#SVGID_114_);}
	.st110{fill:url(#SVGID_115_);}
	.st111{fill:url(#SVGID_116_);}
	.st112{clip-path:url(#SVGID_118_);}
	.st113{fill:url(#SVGID_119_);}
	.st114{fill:url(#SVGID_120_);}
	.st115{clip-path:url(#SVGID_122_);}
	.st116{fill:url(#SVGID_123_);}
	.st117{fill:url(#SVGID_124_);}
	.st118{fill:url(#SVGID_125_);}
	.st119{fill:url(#SVGID_126_);}
	.st120{clip-path:url(#SVGID_128_);}
	.st121{fill:url(#SVGID_129_);}
	.st122{fill:url(#SVGID_130_);}
	.st123{clip-path:url(#SVGID_132_);}
	.st124{fill:url(#SVGID_133_);}
</style>
<linearGradient id="SVGID_1_" gradientUnits="userSpaceOnUse" x1="31.0263" y1="66.1605" x2="47.8113" y2="66.1605">
	<stop  offset="0" style="stop-color:#174575"/>
	<stop  offset="1" style="stop-color:#3D113C"/>
</linearGradient>
<rect x="31" y="32.5" class="st0" width="16.8" height="67.2"/>
<linearGradient id="SVGID_2_" gradientUnits="userSpaceOnUse" x1="33.4826" y1="37.9636" x2="38.6641" y2="37.9636">
	<stop  offset="0" style="stop-color:#CCCCCC"/>
	<stop  offset="1" style="stop-color:#FFFFFF"/>
</linearGradient>
<rect x="33.5" y="36.6" class="st1" width="5.2" height="2.8"/>
<linearGradient id="SVGID_3_" gradientUnits="userSpaceOnUse" x1="40.3782" y1="37.9636" x2="45.5597" y2="37.9636">
	<stop  offset="0" style="stop-color:#CCCCCC"/>
	<stop  offset="1" style="stop-color:#FFFFFF"/>
</linearGradient>
<rect x="40.4" y="36.6" class="st2" width="5.2" height="2.8"/>
<linearGradient id="SVGID_4_" gradientUnits="userSpaceOnUse" x1="33.4826" y1="42.2111" x2="38.6641" y2="42.2111">
	<stop  offset="0" style="stop-color:#CCCCCC"/>
	<stop  offset="1" style="stop-color:#FFFFFF"/>
</linearGradient>
<rect x="33.5" y="40.8" class="st3" width="5.2" height="2.8"/>
<linearGradient id="SVGID_5_" gradientUnits="userSpaceOnUse" x1="40.3782" y1="42.2111" x2="45.5597" y2="42.2111">
	<stop  offset="0" style="stop-color:#CCCCCC"/>
	<stop  offset="1" style="stop-color:#FFFFFF"/>
</linearGradient>
<rect x="40.4" y="40.8" class="st4" width="5.2" height="2.8"/>
<linearGradient id="SVGID_6_" gradientUnits="userSpaceOnUse" x1="33.4826" y1="46.4073" x2="45.5597" y2="46.4073">
	<stop  offset="0" style="stop-color:#CCCCCC"/>
	<stop  offset="1" style="stop-color:#FFFFFF"/>
</linearGradient>
<rect x="33.5" y="45" class="st5" width="12.1" height="2.8"/>
<linearGradient id="SVGID_7_" gradientUnits="userSpaceOnUse" x1="33.4826" y1="50.6377" x2="38.6641" y2="50.6377">
	<stop  offset="0" style="stop-color:#CCCCCC"/>
	<stop  offset="1" style="stop-color:#FFFFFF"/>
</linearGradient>
<rect x="33.5" y="49.3" class="st6" width="5.2" height="2.8"/>
<linearGradient id="SVGID_8_" gradientUnits="userSpaceOnUse" x1="40.3782" y1="50.6377" x2="45.5597" y2="50.6377">
	<stop  offset="0" style="stop-color:#CCCCCC"/>
	<stop  offset="1" style="stop-color:#FFFFFF"/>
</linearGradient>
<rect x="40.4" y="49.3" class="st7" width="5.2" height="2.8"/>
<linearGradient id="SVGID_9_" gradientUnits="userSpaceOnUse" x1="33.4826" y1="59.0302" x2="38.6641" y2="59.0302">
	<stop  offset="0" style="stop-color:#CCCCCC"/>
	<stop  offset="1" style="stop-color:#FFFFFF"/>
</linearGradient>
<rect x="33.5" y="57.6" class="st8" width="5.2" height="2.8"/>
<linearGradient id="SVGID_10_" gradientUnits="userSpaceOnUse" x1="40.3782" y1="59.0302" x2="45.5597" y2="59.0302">
	<stop  offset="0" style="stop-color:#CCCCCC"/>
	<stop  offset="1" style="stop-color:#FFFFFF"/>
</linearGradient>
<rect x="40.4" y="57.6" class="st9" width="5.2" height="2.8"/>
<linearGradient id="SVGID_11_" gradientUnits="userSpaceOnUse" x1="33.4826" y1="63.2777" x2="38.6641" y2="63.2777">
	<stop  offset="0" style="stop-color:#CCCCCC"/>
	<stop  offset="1" style="stop-color:#FFFFFF"/>
</linearGradient>
<rect x="33.5" y="61.9" class="st10" width="5.2" height="2.8"/>
<linearGradient id="SVGID_12_" gradientUnits="userSpaceOnUse" x1="40.3782" y1="63.2777" x2="45.5597" y2="63.2777">
	<stop  offset="0" style="stop-color:#CCCCCC"/>
	<stop  offset="1" style="stop-color:#FFFFFF"/>
</linearGradient>
<rect x="40.4" y="61.9" class="st11" width="5.2" height="2.8"/>
<linearGradient id="SVGID_13_" gradientUnits="userSpaceOnUse" x1="33.4826" y1="67.4228" x2="38.6641" y2="67.4228">
	<stop  offset="0" style="stop-color:#CCCCCC"/>
	<stop  offset="1" style="stop-color:#FFFFFF"/>
</linearGradient>
<rect x="33.5" y="66" class="st12" width="5.2" height="2.8"/>
<linearGradient id="SVGID_14_" gradientUnits="userSpaceOnUse" x1="40.3782" y1="67.4228" x2="45.5597" y2="67.4228">
	<stop  offset="0" style="stop-color:#CCCCCC"/>
	<stop  offset="1" style="stop-color:#FFFFFF"/>
</linearGradient>
<rect x="40.4" y="66" class="st13" width="5.2" height="2.8"/>
<linearGradient id="SVGID_15_" gradientUnits="userSpaceOnUse" x1="33.4826" y1="71.5167" x2="38.6641" y2="71.5167">
	<stop  offset="0" style="stop-color:#CCCCCC"/>
	<stop  offset="1" style="stop-color:#FFFFFF"/>
</linearGradient>
<rect x="33.5" y="70.1" class="st14" width="5.2" height="2.8"/>
<linearGradient id="SVGID_16_" gradientUnits="userSpaceOnUse" x1="40.3782" y1="71.5167" x2="45.5597" y2="71.5167">
	<stop  offset="0" style="stop-color:#CCCCCC"/>
	<stop  offset="1" style="stop-color:#FFFFFF"/>
</linearGradient>
<rect x="40.4" y="70.1" class="st15" width="5.2" height="2.8"/>
<linearGradient id="SVGID_17_" gradientUnits="userSpaceOnUse" x1="40.3782" y1="84.8219" x2="45.5597" y2="84.8219">
	<stop  offset="0" style="stop-color:#CCCCCC"/>
	<stop  offset="1" style="stop-color:#FFFFFF"/>
</linearGradient>
<rect x="40.4" y="83.4" class="st16" width="5.2" height="2.8"/>
<linearGradient id="SVGID_18_" gradientUnits="userSpaceOnUse" x1="33.4826" y1="54.834" x2="45.5597" y2="54.834">
	<stop  offset="0" style="stop-color:#CCCCCC"/>
	<stop  offset="1" style="stop-color:#FFFFFF"/>
</linearGradient>
<rect x="33.5" y="53.5" class="st17" width="12.1" height="2.8"/>
<linearGradient id="SVGID_19_" gradientUnits="userSpaceOnUse" x1="33.4826" y1="75.8494" x2="45.5597" y2="75.8494">
	<stop  offset="0" style="stop-color:#CCCCCC"/>
	<stop  offset="1" style="stop-color:#FFFFFF"/>
</linearGradient>
<rect x="33.5" y="74.5" class="st18" width="12.1" height="2.8"/>
<linearGradient id="SVGID_20_" gradientUnits="userSpaceOnUse" x1="33.4826" y1="80.3527" x2="45.5597" y2="80.3527">
	<stop  offset="0" style="stop-color:#CCCCCC"/>
	<stop  offset="1" style="stop-color:#FFFFFF"/>
</linearGradient>
<rect x="33.5" y="79" class="st19" width="12.1" height="2.8"/>
<g>
	<defs>
		<rect id="SVGID_21_" x="31" y="32.5" width="16.8" height="67.2"/>
	</defs>
	<clipPath id="SVGID_22_">
		<use xlink:href="#SVGID_21_"  style="overflow:visible;"/>
	</clipPath>
	<g class="st20">
		
			<image style="overflow:visible;opacity:0.6;" width="35" height="63" xlink:href="C18CADB6.png"  transform="matrix(1 0 0 1 1.1138 40.9436)">
		</image>
		<g>
			<linearGradient id="SVGID_23_" gradientUnits="userSpaceOnUse" x1="4.1702" y1="72.0893" x2="32.1726" y2="72.0893">
				<stop  offset="0" style="stop-color:#00C9B4"/>
				<stop  offset="1" style="stop-color:#7A9FB4"/>
			</linearGradient>
			<path class="st21" d="M32.2,99.9h-28V48.3c0-2.6,2.5-4.6,5-3.9L30.4,50c1.1,0.3,1.8,1.2,1.8,2.3V99.9z"/>
		</g>
	</g>
</g>
<linearGradient id="SVGID_24_" gradientUnits="userSpaceOnUse" x1="4.1702" y1="72.0893" x2="32.1726" y2="72.0893">
	<stop  offset="0" style="stop-color:#00C9B4"/>
	<stop  offset="1" style="stop-color:#7A9FB4"/>
</linearGradient>
<path class="st22" d="M32.2,99.9h-28V48.3c0-2.6,2.5-4.6,5-3.9L30.4,50c1.1,0.3,1.8,1.2,1.8,2.3V99.9z"/>
<g>
	<linearGradient id="SVGID_25_" gradientUnits="userSpaceOnUse" x1="7.1277" y1="53.3365" x2="11.4994" y2="53.3365">
		<stop  offset="0" style="stop-color:#174575"/>
		<stop  offset="1" style="stop-color:#3D113C"/>
	</linearGradient>
	<rect x="7.1" y="52.6" class="st23" width="4.4" height="1.5"/>
	<linearGradient id="SVGID_26_" gradientUnits="userSpaceOnUse" x1="13.1288" y1="53.3365" x2="17.5005" y2="53.3365">
		<stop  offset="0" style="stop-color:#174575"/>
		<stop  offset="1" style="stop-color:#3D113C"/>
	</linearGradient>
	<rect x="13.1" y="52.6" class="st24" width="4.4" height="1.5"/>
	<linearGradient id="SVGID_27_" gradientUnits="userSpaceOnUse" x1="19.1329" y1="53.3365" x2="23.5046" y2="53.3365">
		<stop  offset="0" style="stop-color:#174575"/>
		<stop  offset="1" style="stop-color:#3D113C"/>
	</linearGradient>
	<rect x="19.1" y="52.6" class="st25" width="4.4" height="1.5"/>
	<linearGradient id="SVGID_28_" gradientUnits="userSpaceOnUse" x1="25.134" y1="53.3365" x2="29.5057" y2="53.3365">
		<stop  offset="0" style="stop-color:#174575"/>
		<stop  offset="1" style="stop-color:#3D113C"/>
	</linearGradient>
	<rect x="25.1" y="52.6" class="st26" width="4.4" height="1.5"/>
	<linearGradient id="SVGID_29_" gradientUnits="userSpaceOnUse" x1="7.1277" y1="56.2085" x2="11.4994" y2="56.2085">
		<stop  offset="0" style="stop-color:#174575"/>
		<stop  offset="1" style="stop-color:#3D113C"/>
	</linearGradient>
	<rect x="7.1" y="55.5" class="st27" width="4.4" height="1.5"/>
	<linearGradient id="SVGID_30_" gradientUnits="userSpaceOnUse" x1="13.1288" y1="56.2085" x2="17.5005" y2="56.2085">
		<stop  offset="0" style="stop-color:#174575"/>
		<stop  offset="1" style="stop-color:#3D113C"/>
	</linearGradient>
	<rect x="13.1" y="55.5" class="st28" width="4.4" height="1.5"/>
	<linearGradient id="SVGID_31_" gradientUnits="userSpaceOnUse" x1="19.1329" y1="56.2085" x2="23.5046" y2="56.2085">
		<stop  offset="0" style="stop-color:#174575"/>
		<stop  offset="1" style="stop-color:#3D113C"/>
	</linearGradient>
	<rect x="19.1" y="55.5" class="st29" width="4.4" height="1.5"/>
	<linearGradient id="SVGID_32_" gradientUnits="userSpaceOnUse" x1="25.134" y1="56.2085" x2="29.5057" y2="56.2085">
		<stop  offset="0" style="stop-color:#174575"/>
		<stop  offset="1" style="stop-color:#3D113C"/>
	</linearGradient>
	<rect x="25.1" y="55.5" class="st30" width="4.4" height="1.5"/>
	<linearGradient id="SVGID_33_" gradientUnits="userSpaceOnUse" x1="7.1277" y1="59.1319" x2="11.4994" y2="59.1319">
		<stop  offset="0" style="stop-color:#174575"/>
		<stop  offset="1" style="stop-color:#3D113C"/>
	</linearGradient>
	<rect x="7.1" y="58.4" class="st31" width="4.4" height="1.5"/>
	<linearGradient id="SVGID_34_" gradientUnits="userSpaceOnUse" x1="13.1288" y1="59.1319" x2="17.5005" y2="59.1319">
		<stop  offset="0" style="stop-color:#174575"/>
		<stop  offset="1" style="stop-color:#3D113C"/>
	</linearGradient>
	<rect x="13.1" y="58.4" class="st32" width="4.4" height="1.5"/>
	<linearGradient id="SVGID_35_" gradientUnits="userSpaceOnUse" x1="19.1329" y1="59.1319" x2="23.5046" y2="59.1319">
		<stop  offset="0" style="stop-color:#174575"/>
		<stop  offset="1" style="stop-color:#3D113C"/>
	</linearGradient>
	<rect x="19.1" y="58.4" class="st33" width="4.4" height="1.5"/>
	<linearGradient id="SVGID_36_" gradientUnits="userSpaceOnUse" x1="25.134" y1="59.1319" x2="29.5057" y2="59.1319">
		<stop  offset="0" style="stop-color:#174575"/>
		<stop  offset="1" style="stop-color:#3D113C"/>
	</linearGradient>
	<rect x="25.1" y="58.4" class="st34" width="4.4" height="1.5"/>
	<linearGradient id="SVGID_37_" gradientUnits="userSpaceOnUse" x1="7.1277" y1="62.0039" x2="11.4994" y2="62.0039">
		<stop  offset="0" style="stop-color:#174575"/>
		<stop  offset="1" style="stop-color:#3D113C"/>
	</linearGradient>
	<rect x="7.1" y="61.3" class="st35" width="4.4" height="1.5"/>
	<linearGradient id="SVGID_38_" gradientUnits="userSpaceOnUse" x1="13.1288" y1="62.0039" x2="17.5005" y2="62.0039">
		<stop  offset="0" style="stop-color:#174575"/>
		<stop  offset="1" style="stop-color:#3D113C"/>
	</linearGradient>
	<rect x="13.1" y="61.3" class="st36" width="4.4" height="1.5"/>
	<linearGradient id="SVGID_39_" gradientUnits="userSpaceOnUse" x1="19.1329" y1="62.0039" x2="23.5046" y2="62.0039">
		<stop  offset="0" style="stop-color:#174575"/>
		<stop  offset="1" style="stop-color:#3D113C"/>
	</linearGradient>
	<rect x="19.1" y="61.3" class="st37" width="4.4" height="1.5"/>
	<linearGradient id="SVGID_40_" gradientUnits="userSpaceOnUse" x1="25.134" y1="62.0039" x2="29.5057" y2="62.0039">
		<stop  offset="0" style="stop-color:#174575"/>
		<stop  offset="1" style="stop-color:#3D113C"/>
	</linearGradient>
	<rect x="25.1" y="61.3" class="st38" width="4.4" height="1.5"/>
</g>
<g>
	<linearGradient id="SVGID_41_" gradientUnits="userSpaceOnUse" x1="7.1277" y1="64.8247" x2="11.4994" y2="64.8247">
		<stop  offset="0" style="stop-color:#174575"/>
		<stop  offset="1" style="stop-color:#3D113C"/>
	</linearGradient>
	<rect x="7.1" y="64.1" class="st39" width="4.4" height="1.5"/>
	<linearGradient id="SVGID_42_" gradientUnits="userSpaceOnUse" x1="13.1288" y1="64.8247" x2="17.5005" y2="64.8247">
		<stop  offset="0" style="stop-color:#174575"/>
		<stop  offset="1" style="stop-color:#3D113C"/>
	</linearGradient>
	<rect x="13.1" y="64.1" class="st40" width="4.4" height="1.5"/>
	<linearGradient id="SVGID_43_" gradientUnits="userSpaceOnUse" x1="19.1329" y1="64.8247" x2="23.5046" y2="64.8247">
		<stop  offset="0" style="stop-color:#174575"/>
		<stop  offset="1" style="stop-color:#3D113C"/>
	</linearGradient>
	<rect x="19.1" y="64.1" class="st41" width="4.4" height="1.5"/>
	<linearGradient id="SVGID_44_" gradientUnits="userSpaceOnUse" x1="25.134" y1="64.8247" x2="29.5057" y2="64.8247">
		<stop  offset="0" style="stop-color:#174575"/>
		<stop  offset="1" style="stop-color:#3D113C"/>
	</linearGradient>
	<rect x="25.1" y="64.1" class="st42" width="4.4" height="1.5"/>
	<linearGradient id="SVGID_45_" gradientUnits="userSpaceOnUse" x1="7.1277" y1="67.6967" x2="11.4994" y2="67.6967">
		<stop  offset="0" style="stop-color:#174575"/>
		<stop  offset="1" style="stop-color:#3D113C"/>
	</linearGradient>
	<rect x="7.1" y="66.9" class="st43" width="4.4" height="1.5"/>
	<linearGradient id="SVGID_46_" gradientUnits="userSpaceOnUse" x1="13.1288" y1="67.6967" x2="17.5005" y2="67.6967">
		<stop  offset="0" style="stop-color:#174575"/>
		<stop  offset="1" style="stop-color:#3D113C"/>
	</linearGradient>
	<rect x="13.1" y="66.9" class="st44" width="4.4" height="1.5"/>
	<linearGradient id="SVGID_47_" gradientUnits="userSpaceOnUse" x1="19.1329" y1="67.6967" x2="23.5046" y2="67.6967">
		<stop  offset="0" style="stop-color:#174575"/>
		<stop  offset="1" style="stop-color:#3D113C"/>
	</linearGradient>
	<rect x="19.1" y="66.9" class="st45" width="4.4" height="1.5"/>
	<linearGradient id="SVGID_48_" gradientUnits="userSpaceOnUse" x1="25.134" y1="67.6967" x2="29.5057" y2="67.6967">
		<stop  offset="0" style="stop-color:#174575"/>
		<stop  offset="1" style="stop-color:#3D113C"/>
	</linearGradient>
	<rect x="25.1" y="66.9" class="st46" width="4.4" height="1.5"/>
	<linearGradient id="SVGID_49_" gradientUnits="userSpaceOnUse" x1="7.1277" y1="70.62" x2="11.4994" y2="70.62">
		<stop  offset="0" style="stop-color:#174575"/>
		<stop  offset="1" style="stop-color:#3D113C"/>
	</linearGradient>
	<rect x="7.1" y="69.9" class="st47" width="4.4" height="1.5"/>
	<linearGradient id="SVGID_50_" gradientUnits="userSpaceOnUse" x1="13.1288" y1="70.62" x2="17.5005" y2="70.62">
		<stop  offset="0" style="stop-color:#174575"/>
		<stop  offset="1" style="stop-color:#3D113C"/>
	</linearGradient>
	<rect x="13.1" y="69.9" class="st48" width="4.4" height="1.5"/>
	<linearGradient id="SVGID_51_" gradientUnits="userSpaceOnUse" x1="19.1329" y1="70.62" x2="23.5046" y2="70.62">
		<stop  offset="0" style="stop-color:#174575"/>
		<stop  offset="1" style="stop-color:#3D113C"/>
	</linearGradient>
	<rect x="19.1" y="69.9" class="st49" width="4.4" height="1.5"/>
	<linearGradient id="SVGID_52_" gradientUnits="userSpaceOnUse" x1="25.134" y1="70.62" x2="29.5057" y2="70.62">
		<stop  offset="0" style="stop-color:#174575"/>
		<stop  offset="1" style="stop-color:#3D113C"/>
	</linearGradient>
	<rect x="25.1" y="69.9" class="st50" width="4.4" height="1.5"/>
	<linearGradient id="SVGID_53_" gradientUnits="userSpaceOnUse" x1="7.1277" y1="73.4921" x2="11.4994" y2="73.4921">
		<stop  offset="0" style="stop-color:#174575"/>
		<stop  offset="1" style="stop-color:#3D113C"/>
	</linearGradient>
	<rect x="7.1" y="72.7" class="st51" width="4.4" height="1.5"/>
	<linearGradient id="SVGID_54_" gradientUnits="userSpaceOnUse" x1="13.1288" y1="73.4921" x2="17.5005" y2="73.4921">
		<stop  offset="0" style="stop-color:#174575"/>
		<stop  offset="1" style="stop-color:#3D113C"/>
	</linearGradient>
	<rect x="13.1" y="72.7" class="st52" width="4.4" height="1.5"/>
	<linearGradient id="SVGID_55_" gradientUnits="userSpaceOnUse" x1="19.1329" y1="73.4921" x2="23.5046" y2="73.4921">
		<stop  offset="0" style="stop-color:#174575"/>
		<stop  offset="1" style="stop-color:#3D113C"/>
	</linearGradient>
	<rect x="19.1" y="72.7" class="st53" width="4.4" height="1.5"/>
	<linearGradient id="SVGID_56_" gradientUnits="userSpaceOnUse" x1="25.134" y1="73.4921" x2="29.5057" y2="73.4921">
		<stop  offset="0" style="stop-color:#174575"/>
		<stop  offset="1" style="stop-color:#3D113C"/>
	</linearGradient>
	<rect x="25.1" y="72.7" class="st54" width="4.4" height="1.5"/>
</g>
<g>
	<linearGradient id="SVGID_57_" gradientUnits="userSpaceOnUse" x1="7.1277" y1="76.8257" x2="11.4994" y2="76.8257">
		<stop  offset="0" style="stop-color:#174575"/>
		<stop  offset="1" style="stop-color:#3D113C"/>
	</linearGradient>
	<rect x="7.1" y="76.1" class="st55" width="4.4" height="1.5"/>
	<linearGradient id="SVGID_58_" gradientUnits="userSpaceOnUse" x1="13.1288" y1="76.8257" x2="17.5005" y2="76.8257">
		<stop  offset="0" style="stop-color:#174575"/>
		<stop  offset="1" style="stop-color:#3D113C"/>
	</linearGradient>
	<rect x="13.1" y="76.1" class="st56" width="4.4" height="1.5"/>
	<linearGradient id="SVGID_59_" gradientUnits="userSpaceOnUse" x1="19.1329" y1="76.8257" x2="23.5046" y2="76.8257">
		<stop  offset="0" style="stop-color:#174575"/>
		<stop  offset="1" style="stop-color:#3D113C"/>
	</linearGradient>
	<rect x="19.1" y="76.1" class="st57" width="4.4" height="1.5"/>
	<linearGradient id="SVGID_60_" gradientUnits="userSpaceOnUse" x1="25.134" y1="76.8257" x2="29.5057" y2="76.8257">
		<stop  offset="0" style="stop-color:#174575"/>
		<stop  offset="1" style="stop-color:#3D113C"/>
	</linearGradient>
	<rect x="25.1" y="76.1" class="st58" width="4.4" height="1.5"/>
	<linearGradient id="SVGID_61_" gradientUnits="userSpaceOnUse" x1="7.1277" y1="79.6977" x2="11.4994" y2="79.6977">
		<stop  offset="0" style="stop-color:#174575"/>
		<stop  offset="1" style="stop-color:#3D113C"/>
	</linearGradient>
	<rect x="7.1" y="78.9" class="st59" width="4.4" height="1.5"/>
	<linearGradient id="SVGID_62_" gradientUnits="userSpaceOnUse" x1="13.1288" y1="79.6977" x2="17.5005" y2="79.6977">
		<stop  offset="0" style="stop-color:#174575"/>
		<stop  offset="1" style="stop-color:#3D113C"/>
	</linearGradient>
	<rect x="13.1" y="78.9" class="st60" width="4.4" height="1.5"/>
	<linearGradient id="SVGID_63_" gradientUnits="userSpaceOnUse" x1="19.1329" y1="79.6977" x2="23.5046" y2="79.6977">
		<stop  offset="0" style="stop-color:#174575"/>
		<stop  offset="1" style="stop-color:#3D113C"/>
	</linearGradient>
	<rect x="19.1" y="78.9" class="st61" width="4.4" height="1.5"/>
	<linearGradient id="SVGID_64_" gradientUnits="userSpaceOnUse" x1="25.134" y1="79.6977" x2="29.5057" y2="79.6977">
		<stop  offset="0" style="stop-color:#174575"/>
		<stop  offset="1" style="stop-color:#3D113C"/>
	</linearGradient>
	<rect x="25.1" y="78.9" class="st62" width="4.4" height="1.5"/>
	<linearGradient id="SVGID_65_" gradientUnits="userSpaceOnUse" x1="7.1277" y1="82.621" x2="11.4994" y2="82.621">
		<stop  offset="0" style="stop-color:#174575"/>
		<stop  offset="1" style="stop-color:#3D113C"/>
	</linearGradient>
	<rect x="7.1" y="81.9" class="st63" width="4.4" height="1.5"/>
	<linearGradient id="SVGID_66_" gradientUnits="userSpaceOnUse" x1="13.1288" y1="82.621" x2="17.5005" y2="82.621">
		<stop  offset="0" style="stop-color:#174575"/>
		<stop  offset="1" style="stop-color:#3D113C"/>
	</linearGradient>
	<rect x="13.1" y="81.9" class="st64" width="4.4" height="1.5"/>
	<linearGradient id="SVGID_67_" gradientUnits="userSpaceOnUse" x1="19.1329" y1="82.621" x2="23.5046" y2="82.621">
		<stop  offset="0" style="stop-color:#174575"/>
		<stop  offset="1" style="stop-color:#3D113C"/>
	</linearGradient>
	<rect x="19.1" y="81.9" class="st65" width="4.4" height="1.5"/>
	<linearGradient id="SVGID_68_" gradientUnits="userSpaceOnUse" x1="25.134" y1="82.621" x2="29.5057" y2="82.621">
		<stop  offset="0" style="stop-color:#174575"/>
		<stop  offset="1" style="stop-color:#3D113C"/>
	</linearGradient>
	<rect x="25.1" y="81.9" class="st66" width="4.4" height="1.5"/>
	<linearGradient id="SVGID_69_" gradientUnits="userSpaceOnUse" x1="7.1277" y1="85.4931" x2="11.4994" y2="85.4931">
		<stop  offset="0" style="stop-color:#174575"/>
		<stop  offset="1" style="stop-color:#3D113C"/>
	</linearGradient>
	<rect x="7.1" y="84.7" class="st67" width="4.4" height="1.5"/>
	<linearGradient id="SVGID_70_" gradientUnits="userSpaceOnUse" x1="13.1288" y1="85.4931" x2="17.5005" y2="85.4931">
		<stop  offset="0" style="stop-color:#174575"/>
		<stop  offset="1" style="stop-color:#3D113C"/>
	</linearGradient>
	<rect x="13.1" y="84.7" class="st68" width="4.4" height="1.5"/>
	<linearGradient id="SVGID_71_" gradientUnits="userSpaceOnUse" x1="19.1329" y1="85.4931" x2="23.5046" y2="85.4931">
		<stop  offset="0" style="stop-color:#174575"/>
		<stop  offset="1" style="stop-color:#3D113C"/>
	</linearGradient>
	<rect x="19.1" y="84.7" class="st69" width="4.4" height="1.5"/>
	<linearGradient id="SVGID_72_" gradientUnits="userSpaceOnUse" x1="25.134" y1="85.4931" x2="29.5057" y2="85.4931">
		<stop  offset="0" style="stop-color:#174575"/>
		<stop  offset="1" style="stop-color:#3D113C"/>
	</linearGradient>
	<rect x="25.1" y="84.7" class="st70" width="4.4" height="1.5"/>
</g>
<g>
	<linearGradient id="SVGID_73_" gradientUnits="userSpaceOnUse" x1="7.1277" y1="88.3138" x2="11.4994" y2="88.3138">
		<stop  offset="0" style="stop-color:#174575"/>
		<stop  offset="1" style="stop-color:#3D113C"/>
	</linearGradient>
	<rect x="7.1" y="87.6" class="st71" width="4.4" height="1.5"/>
	<linearGradient id="SVGID_74_" gradientUnits="userSpaceOnUse" x1="13.1288" y1="88.3138" x2="17.5005" y2="88.3138">
		<stop  offset="0" style="stop-color:#174575"/>
		<stop  offset="1" style="stop-color:#3D113C"/>
	</linearGradient>
	<rect x="13.1" y="87.6" class="st72" width="4.4" height="1.5"/>
	<linearGradient id="SVGID_75_" gradientUnits="userSpaceOnUse" x1="19.1329" y1="88.3138" x2="23.5046" y2="88.3138">
		<stop  offset="0" style="stop-color:#174575"/>
		<stop  offset="1" style="stop-color:#3D113C"/>
	</linearGradient>
	<rect x="19.1" y="87.6" class="st73" width="4.4" height="1.5"/>
	<linearGradient id="SVGID_76_" gradientUnits="userSpaceOnUse" x1="25.134" y1="88.3138" x2="29.5057" y2="88.3138">
		<stop  offset="0" style="stop-color:#174575"/>
		<stop  offset="1" style="stop-color:#3D113C"/>
	</linearGradient>
	<rect x="25.1" y="87.6" class="st74" width="4.4" height="1.5"/>
	<linearGradient id="SVGID_77_" gradientUnits="userSpaceOnUse" x1="7.1277" y1="91.1859" x2="11.4994" y2="91.1859">
		<stop  offset="0" style="stop-color:#174575"/>
		<stop  offset="1" style="stop-color:#3D113C"/>
	</linearGradient>
	<rect x="7.1" y="90.4" class="st75" width="4.4" height="1.5"/>
	<linearGradient id="SVGID_78_" gradientUnits="userSpaceOnUse" x1="13.1288" y1="91.1859" x2="17.5005" y2="91.1859">
		<stop  offset="0" style="stop-color:#174575"/>
		<stop  offset="1" style="stop-color:#3D113C"/>
	</linearGradient>
	<rect x="13.1" y="90.4" class="st76" width="4.4" height="1.5"/>
	<linearGradient id="SVGID_79_" gradientUnits="userSpaceOnUse" x1="19.1329" y1="91.1859" x2="23.5046" y2="91.1859">
		<stop  offset="0" style="stop-color:#174575"/>
		<stop  offset="1" style="stop-color:#3D113C"/>
	</linearGradient>
	<rect x="19.1" y="90.4" class="st77" width="4.4" height="1.5"/>
	<linearGradient id="SVGID_80_" gradientUnits="userSpaceOnUse" x1="25.134" y1="91.1859" x2="29.5057" y2="91.1859">
		<stop  offset="0" style="stop-color:#174575"/>
		<stop  offset="1" style="stop-color:#3D113C"/>
	</linearGradient>
	<rect x="25.1" y="90.4" class="st78" width="4.4" height="1.5"/>
</g>
<linearGradient id="SVGID_81_" gradientUnits="userSpaceOnUse" x1="68.8074" y1="90.5408" x2="79.3617" y2="90.5408">
	<stop  offset="0" style="stop-color:#174575"/>
	<stop  offset="1" style="stop-color:#3D113C"/>
</linearGradient>
<path class="st79" d="M79.4,99.8H68.8V83c0-0.4,0.4-0.8,1-0.8l8.4-0.8c0.7-0.1,1.2,0.3,1.2,0.8V99.8z"/>
<linearGradient id="SVGID_82_" gradientUnits="userSpaceOnUse" x1="52.9697" y1="83.2642" x2="71.9654" y2="83.2642">
	<stop  offset="0" style="stop-color:#00C9B4"/>
	<stop  offset="1" style="stop-color:#7A9FB4"/>
</linearGradient>
<path class="st80" d="M72,99.9H53V69.6c0-0.8,0.7-1.4,1.7-1.5l15-1.5c1.2-0.1,2.2,0.6,2.2,1.5V99.9z"/>
<linearGradient id="SVGID_83_" gradientUnits="userSpaceOnUse" x1="55.8662" y1="71.6622" x2="68.5974" y2="71.6622">
	<stop  offset="0" style="stop-color:#CCCCCC"/>
	<stop  offset="1" style="stop-color:#FFFFFF"/>
</linearGradient>
<rect x="55.9" y="70.8" class="st81" width="12.7" height="1.7"/>
<linearGradient id="SVGID_84_" gradientUnits="userSpaceOnUse" x1="55.8662" y1="74.4617" x2="68.5974" y2="74.4617">
	<stop  offset="0" style="stop-color:#CCCCCC"/>
	<stop  offset="1" style="stop-color:#FFFFFF"/>
</linearGradient>
<rect x="55.9" y="73.6" class="st82" width="12.7" height="1.7"/>
<linearGradient id="SVGID_85_" gradientUnits="userSpaceOnUse" x1="55.8662" y1="77.3646" x2="68.5974" y2="77.3646">
	<stop  offset="0" style="stop-color:#CCCCCC"/>
	<stop  offset="1" style="stop-color:#FFFFFF"/>
</linearGradient>
<rect x="55.9" y="76.5" class="st83" width="12.7" height="1.7"/>
<linearGradient id="SVGID_86_" gradientUnits="userSpaceOnUse" x1="55.8662" y1="80.164" x2="68.5974" y2="80.164">
	<stop  offset="0" style="stop-color:#CCCCCC"/>
	<stop  offset="1" style="stop-color:#FFFFFF"/>
</linearGradient>
<rect x="55.9" y="79.3" class="st84" width="12.7" height="1.7"/>
<linearGradient id="SVGID_87_" gradientUnits="userSpaceOnUse" x1="55.8662" y1="83.1861" x2="68.5974" y2="83.1861">
	<stop  offset="0" style="stop-color:#CCCCCC"/>
	<stop  offset="1" style="stop-color:#FFFFFF"/>
</linearGradient>
<rect x="55.9" y="82.3" class="st85" width="12.7" height="1.7"/>
<linearGradient id="SVGID_88_" gradientUnits="userSpaceOnUse" x1="55.8662" y1="85.9856" x2="68.5974" y2="85.9856">
	<stop  offset="0" style="stop-color:#CCCCCC"/>
	<stop  offset="1" style="stop-color:#FFFFFF"/>
</linearGradient>
<rect x="55.9" y="85.1" class="st86" width="12.7" height="1.7"/>
<linearGradient id="SVGID_89_" gradientUnits="userSpaceOnUse" x1="55.8662" y1="89.0078" x2="68.5974" y2="89.0078">
	<stop  offset="0" style="stop-color:#CCCCCC"/>
	<stop  offset="1" style="stop-color:#FFFFFF"/>
</linearGradient>
<rect x="55.9" y="88.2" class="st87" width="12.7" height="1.7"/>
<linearGradient id="SVGID_90_" gradientUnits="userSpaceOnUse" x1="55.8662" y1="91.8072" x2="68.5974" y2="91.8072">
	<stop  offset="0" style="stop-color:#CCCCCC"/>
	<stop  offset="1" style="stop-color:#FFFFFF"/>
</linearGradient>
<rect x="55.9" y="91" class="st88" width="12.7" height="1.7"/>
<linearGradient id="SVGID_91_" gradientUnits="userSpaceOnUse" x1="87.0874" y1="23.5852" x2="88.5024" y2="23.5852">
	<stop  offset="0" style="stop-color:#FC6719"/>
	<stop  offset="5.904639e-02" style="stop-color:#F45924"/>
	<stop  offset="0.2124" style="stop-color:#E23C3B"/>
	<stop  offset="0.3753" style="stop-color:#D4254D"/>
	<stop  offset="0.55" style="stop-color:#CB155A"/>
	<stop  offset="0.7447" style="stop-color:#C50B62"/>
	<stop  offset="1" style="stop-color:#C30864"/>
</linearGradient>
<rect x="87.1" y="18.8" class="st89" width="1.4" height="9.5"/>
<g>
	<linearGradient id="SVGID_92_" gradientUnits="userSpaceOnUse" x1="85.248" y1="29.9526" x2="90.3419" y2="29.9526">
		<stop  offset="0" style="stop-color:#FC6719"/>
		<stop  offset="5.904639e-02" style="stop-color:#F45924"/>
		<stop  offset="0.2124" style="stop-color:#E23C3B"/>
		<stop  offset="0.3753" style="stop-color:#D4254D"/>
		<stop  offset="0.55" style="stop-color:#CB155A"/>
		<stop  offset="0.7447" style="stop-color:#C50B62"/>
		<stop  offset="1" style="stop-color:#C30864"/>
	</linearGradient>
	<rect x="85.2" y="27.6" class="st90" width="5.1" height="4.7"/>
</g>
<g>
	<defs>
		<rect id="SVGID_93_" x="85.2" y="27.6" width="5.1" height="4.7"/>
	</defs>
	<clipPath id="SVGID_94_">
		<use xlink:href="#SVGID_93_"  style="overflow:visible;"/>
	</clipPath>
	<g class="st91">
		
			<image style="overflow:visible;opacity:0.2;" width="17" height="18" xlink:href="C18CADBA.png"  transform="matrix(1 0 0 1 79.6748 24.5046)">
		</image>
		<g>
			<linearGradient id="SVGID_95_" gradientUnits="userSpaceOnUse" x1="83.55" y1="33.4901" x2="92.0398" y2="33.4901">
				<stop  offset="0" style="stop-color:#FC6719"/>
				<stop  offset="5.904639e-02" style="stop-color:#F45924"/>
				<stop  offset="0.2124" style="stop-color:#E23C3B"/>
				<stop  offset="0.3753" style="stop-color:#D4254D"/>
				<stop  offset="0.55" style="stop-color:#CB155A"/>
				<stop  offset="0.7447" style="stop-color:#C50B62"/>
				<stop  offset="1" style="stop-color:#C30864"/>
			</linearGradient>
			<rect x="83.5" y="28.7" class="st92" width="8.5" height="9.5"/>
		</g>
	</g>
</g>
<g>
	
		<image style="overflow:visible;opacity:0.2;" width="17" height="18" xlink:href="C18CADBB.png"  transform="matrix(1 0 0 1 79.6748 24.5046)">
	</image>
	<g>
		<linearGradient id="SVGID_96_" gradientUnits="userSpaceOnUse" x1="83.55" y1="33.4901" x2="92.0398" y2="33.4901">
			<stop  offset="0" style="stop-color:#FC6719"/>
			<stop  offset="5.904639e-02" style="stop-color:#F45924"/>
			<stop  offset="0.2124" style="stop-color:#E23C3B"/>
			<stop  offset="0.3753" style="stop-color:#D4254D"/>
			<stop  offset="0.55" style="stop-color:#CB155A"/>
			<stop  offset="0.7447" style="stop-color:#C50B62"/>
			<stop  offset="1" style="stop-color:#C30864"/>
		</linearGradient>
		<rect x="83.5" y="28.7" class="st93" width="8.5" height="9.5"/>
	</g>
</g>
<g>
	<defs>
		<rect id="SVGID_97_" x="83.5" y="28.7" width="8.5" height="9.5"/>
	</defs>
	<clipPath id="SVGID_98_">
		<use xlink:href="#SVGID_97_"  style="overflow:visible;"/>
	</clipPath>
	<g class="st94">
		
			<image style="overflow:visible;opacity:0.2;" width="22" height="28" xlink:href="C18CADBC.png"  transform="matrix(1 0 0 1 76.6748 30.5046)">
		</image>
		<g>
			<linearGradient id="SVGID_99_" gradientUnits="userSpaceOnUse" x1="80.72" y1="44.7038" x2="94.8698" y2="44.7038">
				<stop  offset="0" style="stop-color:#FC6719"/>
				<stop  offset="5.904639e-02" style="stop-color:#F45924"/>
				<stop  offset="0.2124" style="stop-color:#E23C3B"/>
				<stop  offset="0.3753" style="stop-color:#D4254D"/>
				<stop  offset="0.55" style="stop-color:#CB155A"/>
				<stop  offset="0.7447" style="stop-color:#C50B62"/>
				<stop  offset="1" style="stop-color:#C30864"/>
			</linearGradient>
			<rect x="80.7" y="34.7" class="st95" width="14.1" height="20"/>
		</g>
	</g>
</g>
<g>
	<linearGradient id="SVGID_100_" gradientUnits="userSpaceOnUse" x1="80.72" y1="44.7038" x2="94.8698" y2="44.7038">
		<stop  offset="0" style="stop-color:#FC6719"/>
		<stop  offset="5.904639e-02" style="stop-color:#F45924"/>
		<stop  offset="0.2124" style="stop-color:#E23C3B"/>
		<stop  offset="0.3753" style="stop-color:#D4254D"/>
		<stop  offset="0.55" style="stop-color:#CB155A"/>
		<stop  offset="0.7447" style="stop-color:#C50B62"/>
		<stop  offset="1" style="stop-color:#C30864"/>
	</linearGradient>
	<rect x="80.7" y="34.7" class="st96" width="14.1" height="20"/>
</g>
<g>
	<defs>
		<rect id="SVGID_101_" x="80.7" y="34.7" width="14.1" height="20"/>
	</defs>
	<clipPath id="SVGID_102_">
		<use xlink:href="#SVGID_101_"  style="overflow:visible;"/>
	</clipPath>
	<g class="st97">
		
			<image style="overflow:visible;opacity:0.2;" width="26" height="55" xlink:href="C18CADBD.png"  transform="matrix(1 0 0 1 74.6748 48.5046)">
		</image>
		<g>
			<linearGradient id="SVGID_103_" gradientUnits="userSpaceOnUse" x1="78.5976" y1="75.8686" x2="96.9923" y2="75.8686">
				<stop  offset="0" style="stop-color:#FC6719"/>
				<stop  offset="5.904639e-02" style="stop-color:#F45924"/>
				<stop  offset="0.2124" style="stop-color:#E23C3B"/>
				<stop  offset="0.3753" style="stop-color:#D4254D"/>
				<stop  offset="0.55" style="stop-color:#CB155A"/>
				<stop  offset="0.7447" style="stop-color:#C50B62"/>
				<stop  offset="1" style="stop-color:#C30864"/>
			</linearGradient>
			<rect x="78.6" y="52" class="st98" width="18.4" height="47.8"/>
		</g>
	</g>
</g>
<g>
	<linearGradient id="SVGID_104_" gradientUnits="userSpaceOnUse" x1="78.5976" y1="75.8686" x2="96.9923" y2="75.8686">
		<stop  offset="0" style="stop-color:#FC6719"/>
		<stop  offset="5.904639e-02" style="stop-color:#F45924"/>
		<stop  offset="0.2124" style="stop-color:#E23C3B"/>
		<stop  offset="0.3753" style="stop-color:#D4254D"/>
		<stop  offset="0.55" style="stop-color:#CB155A"/>
		<stop  offset="0.7447" style="stop-color:#C50B62"/>
		<stop  offset="1" style="stop-color:#C30864"/>
	</linearGradient>
	<rect x="78.6" y="52" class="st99" width="18.4" height="47.8"/>
</g>
<linearGradient id="SVGID_105_" gradientUnits="userSpaceOnUse" x1="81.8874" y1="58.0399" x2="94.3392" y2="58.0399">
	<stop  offset="0" style="stop-color:#CCCCCC"/>
	<stop  offset="1" style="stop-color:#FFFFFF"/>
</linearGradient>
<rect x="81.9" y="56.4" class="st100" width="12.5" height="3.3"/>
<linearGradient id="SVGID_106_" gradientUnits="userSpaceOnUse" x1="84.2575" y1="48.0643" x2="91.9691" y2="48.0643">
	<stop  offset="0" style="stop-color:#CCCCCC"/>
	<stop  offset="1" style="stop-color:#FFFFFF"/>
</linearGradient>
<rect x="84.3" y="46.4" class="st101" width="7.7" height="3.3"/>
<linearGradient id="SVGID_107_" gradientUnits="userSpaceOnUse" x1="84.2575" y1="42.8997" x2="91.9691" y2="42.8997">
	<stop  offset="0" style="stop-color:#CCCCCC"/>
	<stop  offset="1" style="stop-color:#FFFFFF"/>
</linearGradient>
<rect x="84.3" y="41.2" class="st102" width="7.7" height="3.3"/>
<linearGradient id="SVGID_108_" gradientUnits="userSpaceOnUse" x1="84.2575" y1="38.2538" x2="91.9691" y2="38.2538">
	<stop  offset="0" style="stop-color:#CCCCCC"/>
	<stop  offset="1" style="stop-color:#FFFFFF"/>
</linearGradient>
<rect x="84.3" y="36.6" class="st103" width="7.7" height="3.3"/>
<linearGradient id="SVGID_109_" gradientUnits="userSpaceOnUse" x1="81.8874" y1="63.7706" x2="94.3392" y2="63.7706">
	<stop  offset="0" style="stop-color:#CCCCCC"/>
	<stop  offset="1" style="stop-color:#FFFFFF"/>
</linearGradient>
<rect x="81.9" y="62.1" class="st104" width="12.5" height="3.3"/>
<linearGradient id="SVGID_110_" gradientUnits="userSpaceOnUse" x1="81.8874" y1="69.7606" x2="94.3392" y2="69.7606">
	<stop  offset="0" style="stop-color:#CCCCCC"/>
	<stop  offset="1" style="stop-color:#FFFFFF"/>
</linearGradient>
<rect x="81.9" y="68.1" class="st105" width="12.5" height="3.3"/>
<linearGradient id="SVGID_111_" gradientUnits="userSpaceOnUse" x1="81.8874" y1="75.7979" x2="94.3392" y2="75.7979">
	<stop  offset="0" style="stop-color:#CCCCCC"/>
	<stop  offset="1" style="stop-color:#FFFFFF"/>
</linearGradient>
<rect x="81.9" y="74.1" class="st106" width="12.5" height="3.3"/>
<linearGradient id="SVGID_112_" gradientUnits="userSpaceOnUse" x1="81.8874" y1="81.5285" x2="94.3392" y2="81.5285">
	<stop  offset="0" style="stop-color:#CCCCCC"/>
	<stop  offset="1" style="stop-color:#FFFFFF"/>
</linearGradient>
<rect x="81.9" y="79.9" class="st107" width="12.5" height="3.3"/>
<linearGradient id="SVGID_113_" gradientUnits="userSpaceOnUse" x1="81.8874" y1="87.5186" x2="94.3392" y2="87.5186">
	<stop  offset="0" style="stop-color:#CCCCCC"/>
	<stop  offset="1" style="stop-color:#FFFFFF"/>
</linearGradient>
<rect x="81.9" y="85.9" class="st108" width="12.5" height="3.3"/>
<g>
	<g>
		<linearGradient id="SVGID_114_" gradientUnits="userSpaceOnUse" x1="48.3922" y1="9.7993" x2="79.2553" y2="9.7993">
			<stop  offset="0" style="stop-color:#CCCCCC"/>
			<stop  offset="1" style="stop-color:#FFFFFF"/>
		</linearGradient>
		<path class="st109" d="M54.4,19.1c-3.3,0-6-2.7-6-6c0-3.3,2.7-6,6-6c0.7,0,1.4,0.1,2,0.3c1-4,4.7-7,9-7c5.1,0,9.2,4.1,9.3,9.2
			c2.6,0.1,4.6,2.2,4.6,4.7c0,2.6-2.1,4.7-4.7,4.7H60.7"/>
	</g>
	<linearGradient id="SVGID_115_" gradientUnits="userSpaceOnUse" x1="69.7461" y1="14.3367" x2="79.2324" y2="14.3367">
		<stop  offset="0" style="stop-color:#CCCCCC"/>
		<stop  offset="1" style="stop-color:#FFFFFF"/>
	</linearGradient>
	<circle class="st110" cx="74.5" cy="14.3" r="4.7"/>
	<g>
		<linearGradient id="SVGID_116_" gradientUnits="userSpaceOnUse" x1="56.0679" y1="9.7544" x2="74.673" y2="9.7544">
			<stop  offset="0" style="stop-color:#CCCCCC"/>
			<stop  offset="1" style="stop-color:#FFFFFF"/>
		</linearGradient>
		<circle class="st111" cx="65.4" cy="9.8" r="9.3"/>
	</g>
	<g>
		<defs>
			<circle id="SVGID_117_" cx="74.5" cy="14.3" r="4.7"/>
		</defs>
		<clipPath id="SVGID_118_">
			<use xlink:href="#SVGID_117_"  style="overflow:visible;"/>
		</clipPath>
		<g class="st112">
			
				<image style="overflow:visible;opacity:0.2;" width="27" height="28" xlink:href="C18CADB8.png"  transform="matrix(1 0 0 1 52.279 -3.721)">
			</image>
			<g>
				<linearGradient id="SVGID_119_" gradientUnits="userSpaceOnUse" x1="56.0679" y1="9.7544" x2="74.673" y2="9.7544">
					<stop  offset="0" style="stop-color:#CCCCCC"/>
					<stop  offset="1" style="stop-color:#FFFFFF"/>
				</linearGradient>
				<circle class="st113" cx="65.4" cy="9.8" r="9.3"/>
			</g>
		</g>
	</g>
	<g>
		<linearGradient id="SVGID_120_" gradientUnits="userSpaceOnUse" x1="48.3617" y1="13.0792" x2="60.432" y2="13.0792">
			<stop  offset="0" style="stop-color:#CCCCCC"/>
			<stop  offset="1" style="stop-color:#FFFFFF"/>
		</linearGradient>
		<circle class="st114" cx="54.4" cy="13.1" r="6"/>
	</g>
	<g>
		<defs>
			<circle id="SVGID_121_" cx="65.4" cy="9.8" r="9.3"/>
		</defs>
		<clipPath id="SVGID_122_">
			<use xlink:href="#SVGID_121_"  style="overflow:visible;"/>
		</clipPath>
		<g class="st115">
			
				<image style="overflow:visible;opacity:0.15;" width="20" height="20" xlink:href="C18CADB9.png"  transform="matrix(1 0 0 1 44.6924 3.6924)">
			</image>
			<g>
				<linearGradient id="SVGID_123_" gradientUnits="userSpaceOnUse" x1="48.3617" y1="13.0792" x2="60.432" y2="13.0792">
					<stop  offset="0" style="stop-color:#CCCCCC"/>
					<stop  offset="1" style="stop-color:#FFFFFF"/>
				</linearGradient>
				<circle class="st116" cx="54.4" cy="13.1" r="6"/>
			</g>
		</g>
	</g>
</g>
<g>
	<g>
		<linearGradient id="SVGID_124_" gradientUnits="userSpaceOnUse" x1="10.0898" y1="26.8295" x2="36.3617" y2="26.8295">
			<stop  offset="0" style="stop-color:#CCCCCC"/>
			<stop  offset="1" style="stop-color:#FFFFFF"/>
		</linearGradient>
		<path class="st117" d="M15.2,34.8c-2.8,0-5.1-2.3-5.1-5.1c0-2.8,2.3-5.1,5.1-5.1c0.6,0,1.2,0.1,1.7,0.3c0.9-3.4,4-5.9,7.7-5.9
			c4.3,0,7.8,3.5,7.9,7.8c2.2,0.1,3.9,1.8,3.9,4c0,2.2-1.8,4-4,4H20.5"/>
	</g>
	<linearGradient id="SVGID_125_" gradientUnits="userSpaceOnUse" x1="28.267" y1="30.6919" x2="36.3422" y2="30.6919">
		<stop  offset="0" style="stop-color:#CCCCCC"/>
		<stop  offset="1" style="stop-color:#FFFFFF"/>
	</linearGradient>
	<circle class="st118" cx="32.3" cy="30.7" r="4"/>
	<g>
		<linearGradient id="SVGID_126_" gradientUnits="userSpaceOnUse" x1="16.6236" y1="26.7912" x2="32.461" y2="26.7912">
			<stop  offset="0" style="stop-color:#CCCCCC"/>
			<stop  offset="1" style="stop-color:#FFFFFF"/>
		</linearGradient>
		<circle class="st119" cx="24.5" cy="26.8" r="7.9"/>
	</g>
	<g>
		<defs>
			<circle id="SVGID_127_" cx="32.3" cy="30.7" r="4"/>
		</defs>
		<clipPath id="SVGID_128_">
			<use xlink:href="#SVGID_127_"  style="overflow:visible;"/>
		</clipPath>
		<g class="st120">
			
				<image style="overflow:visible;opacity:0.2;" width="24" height="24" xlink:href="C18CADA8.png"  transform="matrix(1 0 0 1 12.8325 14.8325)">
			</image>
			<g>
				<linearGradient id="SVGID_129_" gradientUnits="userSpaceOnUse" x1="16.6236" y1="26.7912" x2="32.461" y2="26.7912">
					<stop  offset="0" style="stop-color:#CCCCCC"/>
					<stop  offset="1" style="stop-color:#FFFFFF"/>
				</linearGradient>
				<circle class="st121" cx="24.5" cy="26.8" r="7.9"/>
			</g>
		</g>
	</g>
	<g>
		<linearGradient id="SVGID_130_" gradientUnits="userSpaceOnUse" x1="10.0638" y1="29.6214" x2="20.3386" y2="29.6214">
			<stop  offset="0" style="stop-color:#CCCCCC"/>
			<stop  offset="1" style="stop-color:#FFFFFF"/>
		</linearGradient>
		<circle class="st122" cx="15.2" cy="29.6" r="5.1"/>
	</g>
	<g>
		<defs>
			<circle id="SVGID_131_" cx="24.5" cy="26.8" r="7.9"/>
		</defs>
		<clipPath id="SVGID_132_">
			<use xlink:href="#SVGID_131_"  style="overflow:visible;"/>
		</clipPath>
		<g class="st123">
			
				<image style="overflow:visible;opacity:0.15;" width="17" height="17" xlink:href="C18CADA9.png"  transform="matrix(1 0 0 1 7.1845 21.1845)">
			</image>
			<g>
				<linearGradient id="SVGID_133_" gradientUnits="userSpaceOnUse" x1="10.0638" y1="29.6214" x2="20.3386" y2="29.6214">
					<stop  offset="0" style="stop-color:#CCCCCC"/>
					<stop  offset="1" style="stop-color:#FFFFFF"/>
				</linearGradient>
				<circle class="st124" cx="15.2" cy="29.6" r="5.1"/>
			</g>
		</g>
	</g>
</g>
</svg>
