<svg xmlns="http://www.w3.org/2000/svg" viewBox="0 0 27.143 22.055">
  <defs>
    <style>
      .cls-1 {
        fill: #a7e4ea;
      }
    </style>
  </defs>
  <path id="ico_twitter" class="cls-1" d="M27.242,2.608a11.2,11.2,0,0,1-3.2.878A5.6,5.6,0,0,0,26.493.408a11.248,11.248,0,0,1-3.54,1.353,5.57,5.57,0,0,0-9.634,3.806,5.455,5.455,0,0,0,.146,1.269,15.811,15.811,0,0,1-11.48-5.82A5.585,5.585,0,0,0,3.711,8.45a5.538,5.538,0,0,1-2.524-.7V7.82a5.573,5.573,0,0,0,4.467,5.46,5.693,5.693,0,0,1-1.468.2,5.44,5.44,0,0,1-1.047-.1,5.572,5.572,0,0,0,5.2,3.868,11.157,11.157,0,0,1-6.915,2.382A11.9,11.9,0,0,1,.1,19.548a15.733,15.733,0,0,0,8.534,2.506A15.737,15.737,0,0,0,24.479,6.21l-.018-.723A11.147,11.147,0,0,0,27.242,2.608Z" transform="translate(-0.1 0)"/>
</svg>
