<?xml version="1.0" encoding="utf-8"?>
<!-- Generator: Adobe Illustrator 23.0.3, SVG Export Plug-In . SVG Version: 6.00 Build 0)  -->
<svg version="1.1" id="Calque_1" xmlns="http://www.w3.org/2000/svg" xmlns:xlink="http://www.w3.org/1999/xlink" x="0px" y="0px"
	 viewBox="0 0 100 100" style="enable-background:new 0 0 100 100;" xml:space="preserve">
<style type="text/css">
	.st0{fill:url(#SVGID_1_);}
	.st1{fill:url(#SVGID_2_);}
	.st2{clip-path:url(#SVGID_4_);}
	.st3{fill:url(#SVGID_5_);}
	.st4{clip-path:url(#SVGID_7_);}
	.st5{fill:url(#SVGID_8_);}
	.st6{fill:url(#SVGID_9_);}
	.st7{clip-path:url(#SVGID_11_);}
	.st8{fill:url(#SVGID_12_);}
	.st9{fill:url(#SVGID_13_);}
	.st10{fill:url(#SVGID_14_);}
	.st11{fill:url(#SVGID_15_);}
	.st12{clip-path:url(#SVGID_17_);}
	.st13{fill:url(#SVGID_18_);}
	.st14{fill:url(#SVGID_19_);}
	.st15{fill:url(#SVGID_20_);}
	.st16{fill:url(#SVGID_21_);}
	.st17{clip-path:url(#SVGID_23_);}
	.st18{fill:url(#SVGID_24_);}
	.st19{clip-path:url(#SVGID_26_);}
	.st20{fill:url(#SVGID_27_);}
	.st21{fill:url(#SVGID_28_);}
	.st22{clip-path:url(#SVGID_30_);}
	.st23{fill:url(#SVGID_31_);}
	.st24{fill:url(#SVGID_32_);}
	.st25{fill:url(#SVGID_33_);}
	.st26{fill:url(#SVGID_34_);}
	.st27{fill:url(#SVGID_35_);}
	.st28{fill:url(#SVGID_36_);}
	.st29{clip-path:url(#SVGID_38_);}
	.st30{fill:url(#SVGID_39_);}
	.st31{clip-path:url(#SVGID_41_);}
	.st32{fill:url(#SVGID_42_);}
	.st33{fill:url(#SVGID_43_);}
	.st34{clip-path:url(#SVGID_45_);}
	.st35{fill:url(#SVGID_46_);}
	.st36{fill:url(#SVGID_47_);}
	.st37{fill:url(#SVGID_48_);}
	.st38{fill:url(#SVGID_49_);}
	.st39{fill:url(#SVGID_50_);}
	.st40{fill:url(#SVGID_51_);}
	.st41{fill:url(#SVGID_52_);}
	.st42{fill:url(#SVGID_53_);}
	.st43{clip-path:url(#SVGID_55_);fill:none;stroke:url(#SVGID_56_);stroke-width:3.4504;stroke-miterlimit:10;}
	.st44{clip-path:url(#SVGID_55_);fill:none;stroke:url(#SVGID_57_);stroke-width:3.4504;stroke-miterlimit:10;}
	.st45{clip-path:url(#SVGID_55_);fill:none;stroke:url(#SVGID_58_);stroke-width:3.4504;stroke-miterlimit:10;}
	.st46{display:none;clip-path:url(#SVGID_55_);fill:none;stroke:url(#SVGID_59_);stroke-width:2.293;stroke-miterlimit:10;}
</style>
<linearGradient id="SVGID_1_" gradientUnits="userSpaceOnUse" x1="26.7016" y1="49.9786" x2="34.5861" y2="49.9786">
	<stop  offset="0" style="stop-color:#4D3933"/>
	<stop  offset="1" style="stop-color:#3D113C"/>
</linearGradient>
<path class="st0" d="M28.5,58.6c-1,0-1.8-0.8-1.8-1.8v-6.6l4.5-7.9c0.5-0.9,1.6-1.2,2.5-0.7c0.9,0.5,1.2,1.6,0.7,2.5l-4,7.1v5.6
	C30.4,57.8,29.5,58.6,28.5,58.6z"/>
<linearGradient id="SVGID_2_" gradientUnits="userSpaceOnUse" x1="10622.043" y1="49.9786" x2="10629.9277" y2="49.9786" gradientTransform="matrix(-1 0 0 1 10697.0635 0)">
	<stop  offset="0" style="stop-color:#4D3933"/>
	<stop  offset="1" style="stop-color:#3D113C"/>
</linearGradient>
<path class="st1" d="M73.2,58.6c1,0,1.8-0.8,1.8-1.8v-6.6l-4.5-7.9c-0.5-0.9-1.6-1.2-2.5-0.7c-0.9,0.5-1.2,1.6-0.7,2.5l4,7.1v5.6
	C71.4,57.8,72.2,58.6,73.2,58.6z"/>
<g>
	<defs>
		<path id="SVGID_3_" d="M28.5,58.6c-1,0-1.8-0.8-1.8-1.8v-6.6l4.5-7.9c0.5-0.9,1.6-1.2,2.5-0.7c0.9,0.5,1.2,1.6,0.7,2.5l-4,7.1v5.6
			C30.4,57.8,29.5,58.6,28.5,58.6z"/>
	</defs>
	<clipPath id="SVGID_4_">
		<use xlink:href="#SVGID_3_"  style="overflow:visible;"/>
	</clipPath>
	<g class="st2">
		
			<image style="overflow:visible;opacity:0.9;" width="49" height="28" xlink:href="EC99EAB4.png"  transform="matrix(1 0 0 1 26.1846 20.9505)">
		</image>
		<g>
			<linearGradient id="SVGID_5_" gradientUnits="userSpaceOnUse" x1="29.0828" y1="34.6796" x2="71.7031" y2="34.6796">
				<stop  offset="0" style="stop-color:#174575"/>
				<stop  offset="1" style="stop-color:#3D113C"/>
			</linearGradient>
			<path class="st3" d="M67.1,45.1H33.7c-2.5,0-4.6-2.1-4.6-4.6V28.8c0-2.5,2.1-4.6,4.6-4.6h33.4c2.5,0,4.6,2.1,4.6,4.6v11.7
				C71.7,43.1,69.6,45.1,67.1,45.1z"/>
		</g>
	</g>
</g>
<g>
	<defs>
		<path id="SVGID_6_" d="M73.2,58.6c1,0,1.8-0.8,1.8-1.8v-6.6l-4.5-7.9c-0.5-0.9-1.6-1.2-2.5-0.7c-0.9,0.5-1.2,1.6-0.7,2.5l4,7.1
			v5.6C71.4,57.8,72.2,58.6,73.2,58.6z"/>
	</defs>
	<clipPath id="SVGID_7_">
		<use xlink:href="#SVGID_6_"  style="overflow:visible;"/>
	</clipPath>
	<g class="st4">
		
			<image style="overflow:visible;opacity:0.9;" width="49" height="28" xlink:href="EC99EAB5.png"  transform="matrix(1 0 0 1 26.1846 20.9505)">
		</image>
		<g>
			<linearGradient id="SVGID_8_" gradientUnits="userSpaceOnUse" x1="29.0828" y1="34.6796" x2="71.7031" y2="34.6796">
				<stop  offset="0" style="stop-color:#174575"/>
				<stop  offset="1" style="stop-color:#3D113C"/>
			</linearGradient>
			<path class="st5" d="M67.1,45.1H33.7c-2.5,0-4.6-2.1-4.6-4.6V28.8c0-2.5,2.1-4.6,4.6-4.6h33.4c2.5,0,4.6,2.1,4.6,4.6v11.7
				C71.7,43.1,69.6,45.1,67.1,45.1z"/>
		</g>
	</g>
</g>
<linearGradient id="SVGID_9_" gradientUnits="userSpaceOnUse" x1="22.7212" y1="34.6017" x2="79.1573" y2="34.6017">
	<stop  offset="0" style="stop-color:#00C9B4"/>
	<stop  offset="1" style="stop-color:#7A9FB4"/>
</linearGradient>
<rect x="22.7" y="32.3" class="st6" width="56.4" height="4.6"/>
<g>
	<defs>
		<rect id="SVGID_10_" x="22.7" y="32.3" width="56.4" height="4.6"/>
	</defs>
	<clipPath id="SVGID_11_">
		<use xlink:href="#SVGID_10_"  style="overflow:visible;"/>
	</clipPath>
	<g class="st7">
		
			<image style="overflow:visible;opacity:0.3;" width="17" height="24" xlink:href="EC99EAB6.png"  transform="matrix(1 0 0 1 74.1846 19.9505)">
		</image>
		<g>
			<linearGradient id="SVGID_12_" gradientUnits="userSpaceOnUse" x1="76.9916" y1="31.6743" x2="87.6467" y2="31.6743">
				<stop  offset="0" style="stop-color:#174575"/>
				<stop  offset="1" style="stop-color:#3D113C"/>
			</linearGradient>
			<path class="st8" d="M85.6,40.4h-6.5c-1.2,0-2.1-0.9-2.1-2.1V25.1c0-1.2,0.9-2.1,2.1-2.1h6.5c1.2,0,2.1,0.9,2.1,2.1v13.2
				C87.6,39.4,86.7,40.4,85.6,40.4z"/>
		</g>
	</g>
	<g class="st7">
		
			<image style="overflow:visible;opacity:0.3;" width="18" height="24" xlink:href="EC99EAB3.png"  transform="matrix(1 0 0 1 9.1846 19.9505)">
		</image>
		<g>
			<linearGradient id="SVGID_13_" gradientUnits="userSpaceOnUse" x1="12.6513" y1="31.6743" x2="23.3064" y2="31.6743">
				<stop  offset="0" style="stop-color:#174575"/>
				<stop  offset="1" style="stop-color:#3D113C"/>
			</linearGradient>
			<path class="st9" d="M21.2,40.4h-6.5c-1.2,0-2.1-0.9-2.1-2.1V25.1c0-1.2,0.9-2.1,2.1-2.1h6.5c1.2,0,2.1,0.9,2.1,2.1v13.2
				C23.3,39.4,22.4,40.4,21.2,40.4z"/>
		</g>
	</g>
	<g class="st7">
		
			<image style="overflow:visible;opacity:0.3;" width="49" height="28" xlink:href="EC99EAB8.png"  transform="matrix(1 0 0 1 26.1846 20.9505)">
		</image>
		<g>
			<linearGradient id="SVGID_14_" gradientUnits="userSpaceOnUse" x1="29.0828" y1="34.6796" x2="71.7031" y2="34.6796">
				<stop  offset="0" style="stop-color:#174575"/>
				<stop  offset="1" style="stop-color:#3D113C"/>
			</linearGradient>
			<path class="st10" d="M67.1,45.1H33.7c-2.5,0-4.6-2.1-4.6-4.6V28.8c0-2.5,2.1-4.6,4.6-4.6h33.4c2.5,0,4.6,2.1,4.6,4.6v11.7
				C71.7,43.1,69.6,45.1,67.1,45.1z"/>
		</g>
	</g>
</g>
<linearGradient id="SVGID_15_" gradientUnits="userSpaceOnUse" x1="39.1915" y1="49.5889" x2="61.5945" y2="49.5889">
	<stop  offset="0" style="stop-color:#00C9B4"/>
	<stop  offset="1" style="stop-color:#7A9FB4"/>
</linearGradient>
<path class="st11" d="M61.6,45.1v6.7c0,1.2-1,2.2-2.2,2.2H41.4c-1.2,0-2.2-1-2.2-2.2v-6.7"/>
<g>
	<defs>
		<path id="SVGID_16_" d="M61.6,45.1v6.7c0,1.2-1,2.2-2.2,2.2H41.4c-1.2,0-2.2-1-2.2-2.2v-6.7"/>
	</defs>
	<clipPath id="SVGID_17_">
		<use xlink:href="#SVGID_16_"  style="overflow:visible;"/>
	</clipPath>
	<g class="st12">
		
			<image style="overflow:visible;opacity:0.3;" width="49" height="28" xlink:href="EC99EABD.png"  transform="matrix(1 0 0 1 26.1846 20.9505)">
		</image>
		<g>
			<linearGradient id="SVGID_18_" gradientUnits="userSpaceOnUse" x1="29.0828" y1="34.6796" x2="71.7031" y2="34.6796">
				<stop  offset="0" style="stop-color:#174575"/>
				<stop  offset="1" style="stop-color:#3D113C"/>
			</linearGradient>
			<path class="st13" d="M67.1,45.1H33.7c-2.5,0-4.6-2.1-4.6-4.6V28.8c0-2.5,2.1-4.6,4.6-4.6h33.4c2.5,0,4.6,2.1,4.6,4.6v11.7
				C71.7,43.1,69.6,45.1,67.1,45.1z"/>
		</g>
	</g>
</g>
<g>
	<linearGradient id="SVGID_19_" gradientUnits="userSpaceOnUse" x1="80.8852" y1="24.3367" x2="83.6367" y2="24.3367">
		<stop  offset="0" style="stop-color:#00C9B4"/>
		<stop  offset="1" style="stop-color:#7A9FB4"/>
	</linearGradient>
	<rect x="80.9" y="18.4" class="st14" width="2.8" height="11.9"/>
	<linearGradient id="SVGID_20_" gradientUnits="userSpaceOnUse" x1="64.9315" y1="16.3356" x2="80.8556" y2="16.3356">
		<stop  offset="0" style="stop-color:#CCCCCC"/>
		<stop  offset="1" style="stop-color:#FFFFFF"/>
	</linearGradient>
	<ellipse class="st15" cx="72.9" cy="16.3" rx="8" ry="3.4"/>
	<linearGradient id="SVGID_21_" gradientUnits="userSpaceOnUse" x1="83.7828" y1="16.3356" x2="99.7069" y2="16.3356">
		<stop  offset="0" style="stop-color:#FFFFFF"/>
		<stop  offset="1" style="stop-color:#CCCCCC"/>
	</linearGradient>
	<ellipse class="st16" cx="91.7" cy="16.3" rx="8" ry="3.4"/>
	<g>
		<defs>
			<ellipse id="SVGID_22_" cx="72.9" cy="16.3" rx="8" ry="3.4"/>
		</defs>
		<clipPath id="SVGID_23_">
			<use xlink:href="#SVGID_22_"  style="overflow:visible;"/>
		</clipPath>
		<g class="st17">
			
				<image style="overflow:visible;opacity:0.3;" width="16" height="16" xlink:href="EC99EABE.png"  transform="matrix(1 0 0 1 74.1846 8.9505)">
			</image>
			<g>
				<linearGradient id="SVGID_24_" gradientUnits="userSpaceOnUse" x1="77.7527" y1="16.4527" x2="86.71" y2="16.4527">
					<stop  offset="0" style="stop-color:#FC6719"/>
					<stop  offset="5.904639e-02" style="stop-color:#F45924"/>
					<stop  offset="0.2124" style="stop-color:#E23C3B"/>
					<stop  offset="0.3753" style="stop-color:#D4254D"/>
					<stop  offset="0.55" style="stop-color:#CB155A"/>
					<stop  offset="0.7447" style="stop-color:#C50B62"/>
					<stop  offset="1" style="stop-color:#C30864"/>
				</linearGradient>
				<circle class="st18" cx="82.2" cy="16.5" r="4.5"/>
			</g>
		</g>
	</g>
	<g>
		<defs>
			<ellipse id="SVGID_25_" cx="91.7" cy="16.3" rx="8" ry="3.4"/>
		</defs>
		<clipPath id="SVGID_26_">
			<use xlink:href="#SVGID_25_"  style="overflow:visible;"/>
		</clipPath>
		<g class="st19">
			
				<image style="overflow:visible;opacity:0.3;" width="16" height="16" xlink:href="EC99EABF.png"  transform="matrix(1 0 0 1 74.1846 8.9505)">
			</image>
			<g>
				<linearGradient id="SVGID_27_" gradientUnits="userSpaceOnUse" x1="77.7527" y1="16.4527" x2="86.71" y2="16.4527">
					<stop  offset="0" style="stop-color:#FC6719"/>
					<stop  offset="5.904639e-02" style="stop-color:#F45924"/>
					<stop  offset="0.2124" style="stop-color:#E23C3B"/>
					<stop  offset="0.3753" style="stop-color:#D4254D"/>
					<stop  offset="0.55" style="stop-color:#CB155A"/>
					<stop  offset="0.7447" style="stop-color:#C50B62"/>
					<stop  offset="1" style="stop-color:#C30864"/>
				</linearGradient>
				<circle class="st20" cx="82.2" cy="16.5" r="4.5"/>
			</g>
		</g>
	</g>
	<g>
		<linearGradient id="SVGID_28_" gradientUnits="userSpaceOnUse" x1="77.7527" y1="16.4527" x2="86.71" y2="16.4527">
			<stop  offset="0" style="stop-color:#FC6719"/>
			<stop  offset="5.904639e-02" style="stop-color:#F45924"/>
			<stop  offset="0.2124" style="stop-color:#E23C3B"/>
			<stop  offset="0.3753" style="stop-color:#D4254D"/>
			<stop  offset="0.55" style="stop-color:#CB155A"/>
			<stop  offset="0.7447" style="stop-color:#C50B62"/>
			<stop  offset="1" style="stop-color:#C30864"/>
		</linearGradient>
		<circle class="st21" cx="82.2" cy="16.5" r="4.5"/>
	</g>
	<g>
		<defs>
			<rect id="SVGID_29_" x="80.9" y="18.4" width="2.8" height="11.9"/>
		</defs>
		<clipPath id="SVGID_30_">
			<use xlink:href="#SVGID_29_"  style="overflow:visible;"/>
		</clipPath>
		<g class="st22">
			
				<image style="overflow:visible;opacity:0.3;" width="16" height="16" xlink:href="EC99EAB0.png"  transform="matrix(1 0 0 1 74.1846 8.9505)">
			</image>
			<g>
				<linearGradient id="SVGID_31_" gradientUnits="userSpaceOnUse" x1="77.7527" y1="16.4527" x2="86.71" y2="16.4527">
					<stop  offset="0" style="stop-color:#FC6719"/>
					<stop  offset="5.904639e-02" style="stop-color:#F45924"/>
					<stop  offset="0.2124" style="stop-color:#E23C3B"/>
					<stop  offset="0.3753" style="stop-color:#D4254D"/>
					<stop  offset="0.55" style="stop-color:#CB155A"/>
					<stop  offset="0.7447" style="stop-color:#C50B62"/>
					<stop  offset="1" style="stop-color:#C30864"/>
				</linearGradient>
				<circle class="st23" cx="82.2" cy="16.5" r="4.5"/>
			</g>
		</g>
		<g class="st22">
			
				<image style="overflow:visible;opacity:0.3;" width="17" height="24" xlink:href="323EE9EF.png"  transform="matrix(1 0 0 1 74.1846 19.9505)">
			</image>
			<g>
				<linearGradient id="SVGID_32_" gradientUnits="userSpaceOnUse" x1="76.9916" y1="31.6743" x2="87.6467" y2="31.6743">
					<stop  offset="0" style="stop-color:#174575"/>
					<stop  offset="1" style="stop-color:#3D113C"/>
				</linearGradient>
				<path class="st24" d="M85.6,40.4h-6.5c-1.2,0-2.1-0.9-2.1-2.1V25.1c0-1.2,0.9-2.1,2.1-2.1h6.5c1.2,0,2.1,0.9,2.1,2.1v13.2
					C87.6,39.4,86.7,40.4,85.6,40.4z"/>
			</g>
		</g>
	</g>
	<linearGradient id="SVGID_33_" gradientUnits="userSpaceOnUse" x1="76.9916" y1="31.6743" x2="87.6467" y2="31.6743">
		<stop  offset="0" style="stop-color:#174575"/>
		<stop  offset="1" style="stop-color:#3D113C"/>
	</linearGradient>
	<path class="st25" d="M85.6,40.4h-6.5c-1.2,0-2.1-0.9-2.1-2.1V25.1c0-1.2,0.9-2.1,2.1-2.1h6.5c1.2,0,2.1,0.9,2.1,2.1v13.2
		C87.6,39.4,86.7,40.4,85.6,40.4z"/>
</g>
<g>
	<linearGradient id="SVGID_34_" gradientUnits="userSpaceOnUse" x1="16.5449" y1="24.3367" x2="19.2964" y2="24.3367">
		<stop  offset="0" style="stop-color:#00C9B4"/>
		<stop  offset="1" style="stop-color:#7A9FB4"/>
	</linearGradient>
	<rect x="16.5" y="18.4" class="st26" width="2.8" height="11.9"/>
	<linearGradient id="SVGID_35_" gradientUnits="userSpaceOnUse" x1="0.5912" y1="16.3356" x2="16.5153" y2="16.3356">
		<stop  offset="0" style="stop-color:#CCCCCC"/>
		<stop  offset="1" style="stop-color:#FFFFFF"/>
	</linearGradient>
	<ellipse class="st27" cx="8.6" cy="16.3" rx="8" ry="3.4"/>
	<linearGradient id="SVGID_36_" gradientUnits="userSpaceOnUse" x1="19.4425" y1="16.3356" x2="35.3666" y2="16.3356">
		<stop  offset="0" style="stop-color:#FFFFFF"/>
		<stop  offset="1" style="stop-color:#CCCCCC"/>
	</linearGradient>
	<ellipse class="st28" cx="27.4" cy="16.3" rx="8" ry="3.4"/>
	<g>
		<defs>
			<ellipse id="SVGID_37_" cx="8.6" cy="16.3" rx="8" ry="3.4"/>
		</defs>
		<clipPath id="SVGID_38_">
			<use xlink:href="#SVGID_37_"  style="overflow:visible;"/>
		</clipPath>
		<g class="st29">
			
				<image style="overflow:visible;opacity:0.3;" width="16" height="16" xlink:href="323EE9EB.png"  transform="matrix(1 0 0 1 10.1846 8.9505)">
			</image>
			<g>
				<linearGradient id="SVGID_39_" gradientUnits="userSpaceOnUse" x1="13.4124" y1="16.4527" x2="22.3697" y2="16.4527">
					<stop  offset="0" style="stop-color:#FC6719"/>
					<stop  offset="5.904639e-02" style="stop-color:#F45924"/>
					<stop  offset="0.2124" style="stop-color:#E23C3B"/>
					<stop  offset="0.3753" style="stop-color:#D4254D"/>
					<stop  offset="0.55" style="stop-color:#CB155A"/>
					<stop  offset="0.7447" style="stop-color:#C50B62"/>
					<stop  offset="1" style="stop-color:#C30864"/>
				</linearGradient>
				<circle class="st30" cx="17.9" cy="16.5" r="4.5"/>
			</g>
		</g>
	</g>
	<g>
		<defs>
			<ellipse id="SVGID_40_" cx="27.4" cy="16.3" rx="8" ry="3.4"/>
		</defs>
		<clipPath id="SVGID_41_">
			<use xlink:href="#SVGID_40_"  style="overflow:visible;"/>
		</clipPath>
		<g class="st31">
			
				<image style="overflow:visible;opacity:0.3;" width="16" height="16" xlink:href="323EE9F6.png"  transform="matrix(1 0 0 1 10.1846 8.9505)">
			</image>
			<g>
				<linearGradient id="SVGID_42_" gradientUnits="userSpaceOnUse" x1="13.4124" y1="16.4527" x2="22.3697" y2="16.4527">
					<stop  offset="0" style="stop-color:#FC6719"/>
					<stop  offset="5.904639e-02" style="stop-color:#F45924"/>
					<stop  offset="0.2124" style="stop-color:#E23C3B"/>
					<stop  offset="0.3753" style="stop-color:#D4254D"/>
					<stop  offset="0.55" style="stop-color:#CB155A"/>
					<stop  offset="0.7447" style="stop-color:#C50B62"/>
					<stop  offset="1" style="stop-color:#C30864"/>
				</linearGradient>
				<circle class="st32" cx="17.9" cy="16.5" r="4.5"/>
			</g>
		</g>
	</g>
	<g>
		<linearGradient id="SVGID_43_" gradientUnits="userSpaceOnUse" x1="13.4124" y1="16.4527" x2="22.3697" y2="16.4527">
			<stop  offset="0" style="stop-color:#FC6719"/>
			<stop  offset="5.904639e-02" style="stop-color:#F45924"/>
			<stop  offset="0.2124" style="stop-color:#E23C3B"/>
			<stop  offset="0.3753" style="stop-color:#D4254D"/>
			<stop  offset="0.55" style="stop-color:#CB155A"/>
			<stop  offset="0.7447" style="stop-color:#C50B62"/>
			<stop  offset="1" style="stop-color:#C30864"/>
		</linearGradient>
		<circle class="st33" cx="17.9" cy="16.5" r="4.5"/>
	</g>
	<g>
		<defs>
			<rect id="SVGID_44_" x="16.5" y="18.4" width="2.8" height="11.9"/>
		</defs>
		<clipPath id="SVGID_45_">
			<use xlink:href="#SVGID_44_"  style="overflow:visible;"/>
		</clipPath>
		<g class="st34">
			
				<image style="overflow:visible;opacity:0.3;" width="16" height="16" xlink:href="323EE9F7.png"  transform="matrix(1 0 0 1 10.1846 8.9505)">
			</image>
			<g>
				<linearGradient id="SVGID_46_" gradientUnits="userSpaceOnUse" x1="13.4124" y1="16.4527" x2="22.3697" y2="16.4527">
					<stop  offset="0" style="stop-color:#FC6719"/>
					<stop  offset="5.904639e-02" style="stop-color:#F45924"/>
					<stop  offset="0.2124" style="stop-color:#E23C3B"/>
					<stop  offset="0.3753" style="stop-color:#D4254D"/>
					<stop  offset="0.55" style="stop-color:#CB155A"/>
					<stop  offset="0.7447" style="stop-color:#C50B62"/>
					<stop  offset="1" style="stop-color:#C30864"/>
				</linearGradient>
				<circle class="st35" cx="17.9" cy="16.5" r="4.5"/>
			</g>
		</g>
		<g class="st34">
			
				<image style="overflow:visible;opacity:0.3;" width="18" height="24" xlink:href="323EE9E7.png"  transform="matrix(1 0 0 1 9.1846 19.9505)">
			</image>
			<g>
				<linearGradient id="SVGID_47_" gradientUnits="userSpaceOnUse" x1="12.6513" y1="31.6743" x2="23.3064" y2="31.6743">
					<stop  offset="0" style="stop-color:#174575"/>
					<stop  offset="1" style="stop-color:#3D113C"/>
				</linearGradient>
				<path class="st36" d="M21.2,40.4h-6.5c-1.2,0-2.1-0.9-2.1-2.1V25.1c0-1.2,0.9-2.1,2.1-2.1h6.5c1.2,0,2.1,0.9,2.1,2.1v13.2
					C23.3,39.4,22.4,40.4,21.2,40.4z"/>
			</g>
		</g>
	</g>
	<linearGradient id="SVGID_48_" gradientUnits="userSpaceOnUse" x1="12.6513" y1="31.6743" x2="23.3064" y2="31.6743">
		<stop  offset="0" style="stop-color:#174575"/>
		<stop  offset="1" style="stop-color:#3D113C"/>
	</linearGradient>
	<path class="st37" d="M21.2,40.4h-6.5c-1.2,0-2.1-0.9-2.1-2.1V25.1c0-1.2,0.9-2.1,2.1-2.1h6.5c1.2,0,2.1,0.9,2.1,2.1v13.2
		C23.3,39.4,22.4,40.4,21.2,40.4z"/>
</g>
<g>
	<linearGradient id="SVGID_49_" gradientUnits="userSpaceOnUse" x1="29.0828" y1="34.6796" x2="71.7031" y2="34.6796">
		<stop  offset="0" style="stop-color:#174575"/>
		<stop  offset="1" style="stop-color:#3D113C"/>
	</linearGradient>
	<path class="st38" d="M67.1,45.1H33.7c-2.5,0-4.6-2.1-4.6-4.6V28.8c0-2.5,2.1-4.6,4.6-4.6h33.4c2.5,0,4.6,2.1,4.6,4.6v11.7
		C71.7,43.1,69.6,45.1,67.1,45.1z"/>
</g>
<linearGradient id="SVGID_50_" gradientUnits="userSpaceOnUse" x1="46.4607" y1="49.5303" x2="54.1886" y2="49.5303">
	<stop  offset="0" style="stop-color:#7A9FB4"/>
	<stop  offset="1" style="stop-color:#00C9B4"/>
</linearGradient>
<circle class="st39" cx="50.3" cy="49.5" r="3.9"/>
<linearGradient id="SVGID_51_" gradientUnits="userSpaceOnUse" x1="46.8841" y1="49.5303" x2="53.7652" y2="49.5303">
	<stop  offset="0" style="stop-color:#00C9B4"/>
	<stop  offset="1" style="stop-color:#7A9FB4"/>
</linearGradient>
<circle class="st40" cx="50.3" cy="49.5" r="3.4"/>
<linearGradient id="SVGID_52_" gradientUnits="userSpaceOnUse" x1="47.2795" y1="49.5303" x2="53.3698" y2="49.5303">
	<stop  offset="0" style="stop-color:#CCCCCC"/>
	<stop  offset="1" style="stop-color:#FFFFFF"/>
</linearGradient>
<circle class="st41" cx="50.3" cy="49.5" r="3"/>
<linearGradient id="SVGID_53_" gradientUnits="userSpaceOnUse" x1="48.2165" y1="49.5303" x2="52.4328" y2="49.5303">
	<stop  offset="0" style="stop-color:#4D3933"/>
	<stop  offset="1" style="stop-color:#3D113C"/>
</linearGradient>
<circle class="st42" cx="50.3" cy="49.5" r="2.1"/>
<g>
	<defs>
		<polygon id="SVGID_54_" points="50,63 -8.7,103.9 108.6,103.9 		"/>
	</defs>
	<clipPath id="SVGID_55_">
		<use xlink:href="#SVGID_54_"  style="overflow:visible;"/>
	</clipPath>
	
		<linearGradient id="SVGID_56_" gradientUnits="userSpaceOnUse" x1="8669.75" y1="-4378.1899" x2="8718.8086" y2="-4378.1899" gradientTransform="matrix(-0.7071 -0.7071 0.7071 -0.7071 9293.5381 3117.072)">
		<stop  offset="0" style="stop-color:#FC6719"/>
		<stop  offset="5.904639e-02" style="stop-color:#F45924"/>
		<stop  offset="0.2124" style="stop-color:#E23C3B"/>
		<stop  offset="0.3753" style="stop-color:#D4254D"/>
		<stop  offset="0.55" style="stop-color:#CB155A"/>
		<stop  offset="0.7447" style="stop-color:#C50B62"/>
		<stop  offset="1" style="stop-color:#C30864"/>
	</linearGradient>
	<circle class="st43" cx="49.9" cy="65.1" r="22.8"/>
	
		<linearGradient id="SVGID_57_" gradientUnits="userSpaceOnUse" x1="8660.6045" y1="-4378.1899" x2="8727.9551" y2="-4378.1899" gradientTransform="matrix(-0.7071 -0.7071 0.7071 -0.7071 9293.5381 3117.072)">
		<stop  offset="0" style="stop-color:#FC6719"/>
		<stop  offset="5.904639e-02" style="stop-color:#F45924"/>
		<stop  offset="0.2124" style="stop-color:#E23C3B"/>
		<stop  offset="0.3753" style="stop-color:#D4254D"/>
		<stop  offset="0.55" style="stop-color:#CB155A"/>
		<stop  offset="0.7447" style="stop-color:#C50B62"/>
		<stop  offset="1" style="stop-color:#C30864"/>
	</linearGradient>
	<circle class="st44" cx="49.9" cy="65.1" r="31.9"/>
	
		<linearGradient id="SVGID_58_" gradientUnits="userSpaceOnUse" x1="8678.8721" y1="-4378.1899" x2="8709.6875" y2="-4378.1899" gradientTransform="matrix(-0.7071 -0.7071 0.7071 -0.7071 9293.5381 3117.072)">
		<stop  offset="0" style="stop-color:#FC6719"/>
		<stop  offset="5.904639e-02" style="stop-color:#F45924"/>
		<stop  offset="0.2124" style="stop-color:#E23C3B"/>
		<stop  offset="0.3753" style="stop-color:#D4254D"/>
		<stop  offset="0.55" style="stop-color:#CB155A"/>
		<stop  offset="0.7447" style="stop-color:#C50B62"/>
		<stop  offset="1" style="stop-color:#C30864"/>
	</linearGradient>
	<circle class="st45" cx="49.9" cy="65.1" r="13.7"/>
	
		<linearGradient id="SVGID_59_" gradientUnits="userSpaceOnUse" x1="8684.6553" y1="-4382.979" x2="8694.2852" y2="-4382.979" gradientTransform="matrix(-0.7071 -0.7071 0.7071 -0.7071 9293.5381 3117.072)">
		<stop  offset="0" style="stop-color:#FC6719"/>
		<stop  offset="5.904639e-02" style="stop-color:#F45924"/>
		<stop  offset="0.2124" style="stop-color:#E23C3B"/>
		<stop  offset="0.3753" style="stop-color:#D4254D"/>
		<stop  offset="0.55" style="stop-color:#CB155A"/>
		<stop  offset="0.7447" style="stop-color:#C50B62"/>
		<stop  offset="1" style="stop-color:#C30864"/>
	</linearGradient>
	<circle class="st46" cx="49.9" cy="71.9" r="3.7"/>
</g>
</svg>
