<svg xmlns="http://www.w3.org/2000/svg" viewBox="0 0 25.148 24.031">
  <defs>
    <style>
      .cls-1 {
        fill: #a7e4ea;
      }
    </style>
  </defs>
  <path id="ico_linkedin" class="cls-1" d="M25.148,14.734v9.3H19.757V15.354c0-2.181-.778-3.666-2.731-3.666a2.947,2.947,0,0,0-2.766,1.97,3.73,3.73,0,0,0-.181,1.316v9.057H8.689s.07-14.694,0-16.214H14.08v2.3l-.035.053h.035v-.053a5.351,5.351,0,0,1,4.859-2.678C22.488,7.437,25.148,9.753,25.148,14.734ZM3.052,0a2.809,2.809,0,1,0-.07,5.6h.035A2.81,2.81,0,1,0,3.052,0ZM.322,24.031H5.713V7.817H.322Z" transform="translate(0)"/>
</svg>
