<?xml version="1.0" encoding="utf-8"?>
<!-- Generator: Adobe Illustrator 22.1.0, SVG Export Plug-In . SVG Version: 6.00 Build 0)  -->
<svg version="1.0" id="Calque_1" xmlns="http://www.w3.org/2000/svg" xmlns:xlink="http://www.w3.org/1999/xlink" x="0px" y="0px"
	 viewBox="0 0 40 40" style="enable-background:new 0 0 40 40;" xml:space="preserve">
<style type="text/css">
	.st0{fill:#00ACD7;}
</style>
<g id="g4158" transform="matrix(1.2464229,0,0,1.2464229,-30.786646,-97.053558)">
	<g id="g4160">
		<g id="g4162">
			<g id="g4164">
				<path id="path4166" inkscape:connector-curvature="0" class="st0" d="M27.1,91.9C27.1,91.9,27,91.9,27.1,91.9l0.3-0.5
					c0,0,0.1-0.1,0.2-0.1h5.6c0.1,0,0.1,0,0,0.1l-0.3,0.4c0,0-0.1,0.1-0.2,0.1C32.8,91.9,27.1,91.9,27.1,91.9z"/>
			</g>
		</g>
	</g>
	<g id="g4168">
		<g id="g4170">
			<g id="g4172">
				<path id="path4174" inkscape:connector-curvature="0" class="st0" d="M24.8,93.4C24.7,93.4,24.7,93.3,24.8,93.4l0.3-0.5
					c0,0,0.1-0.1,0.2-0.1h7.1c0.1,0,0.1,0,0.1,0.1l-0.1,0.4c0,0.1-0.1,0.1-0.1,0.1C32.2,93.3,24.8,93.4,24.8,93.4z"/>
			</g>
		</g>
	</g>
	<g id="g4176">
		<g id="g4178">
			<g id="g4180">
				<path id="path4182" inkscape:connector-curvature="0" class="st0" d="M28.5,94.8C28.5,94.8,28.5,94.8,28.5,94.8l0.2-0.5
					c0,0,0.1-0.1,0.2-0.1H32c0.1,0,0.1,0,0.1,0.1l0,0.4c0,0.1-0.1,0.1-0.1,0.1C31.9,94.8,28.5,94.8,28.5,94.8z"/>
			</g>
		</g>
	</g>
	<g id="g4184">
		<g id="CXHf1q_3_">
			<g id="g4187">
				<g id="g4189">
					<path id="path4191" inkscape:connector-curvature="0" class="st0" d="M44.8,91.6c-1,0.2-1.7,0.4-2.6,0.7
						c-0.2,0.1-0.3,0.1-0.5-0.2c-0.2-0.3-0.4-0.4-0.7-0.6c-1-0.5-1.9-0.3-2.8,0.2c-1.1,0.7-1.6,1.7-1.6,3c0,1.3,0.9,2.3,2.1,2.5
						c1.1,0.1,2-0.2,2.7-1c0.1-0.2,0.3-0.4,0.4-0.6c-0.6,0-1.3,0-3,0c-0.3,0-0.4-0.2-0.3-0.5c0.2-0.5,0.6-1.3,0.8-1.7
						c0-0.1,0.2-0.3,0.4-0.3c0.8,0,3.7,0,5.7,0c0,0.4,0,0.8-0.1,1.3c-0.2,1.1-0.6,2.2-1.3,3.1c-1.1,1.5-2.6,2.4-4.5,2.7
						c-1.5,0.2-3-0.1-4.2-1c-1.2-0.9-1.8-2-2-3.5c-0.2-1.7,0.3-3.2,1.3-4.6c1.1-1.5,2.6-2.4,4.4-2.7c1.5-0.3,2.9-0.1,4.1,0.8
						c0.8,0.5,1.4,1.3,1.8,2.2C45,91.5,45,91.6,44.8,91.6L44.8,91.6z"/>
				</g>
				<g id="g4193">
					<path id="path4195" inkscape:connector-curvature="0" class="st0" d="M49.9,100.3c-1.4,0-2.7-0.4-3.8-1.4
						c-0.9-0.8-1.5-1.8-1.7-3c-0.3-1.8,0.2-3.3,1.3-4.7c1.1-1.5,2.5-2.3,4.4-2.6c1.6-0.3,3.1-0.1,4.5,0.8c1.2,0.8,2,2,2.2,3.5
						c0.3,2.1-0.3,3.8-1.8,5.3c-1,1-2.3,1.7-3.8,2C50.8,100.2,50.3,100.2,49.9,100.3L49.9,100.3z M53.7,94c0-0.2,0-0.4,0-0.5
						c-0.3-1.5-1.7-2.4-3.2-2.1c-1.5,0.3-2.4,1.3-2.7,2.7c-0.3,1.2,0.3,2.5,1.4,3c0.9,0.4,1.7,0.3,2.5-0.1
						C52.9,96.3,53.6,95.3,53.7,94z"/>
				</g>
			</g>
		</g>
	</g>
</g>
</svg>
