<?xml version="1.0" encoding="utf-8"?>
<!-- Generator: Adobe Illustrator 23.0.3, SVG Export Plug-In . SVG Version: 6.00 Build 0)  -->
<svg version="1.1" id="Calque_1" xmlns="http://www.w3.org/2000/svg" xmlns:xlink="http://www.w3.org/1999/xlink" x="0px" y="0px"
	 viewBox="0 0 100 100" style="enable-background:new 0 0 100 100;" xml:space="preserve">
<style type="text/css">
	.st0{fill:url(#SVGID_1_);}
	.st1{fill:url(#SVGID_2_);}
	.st2{opacity:0.22;clip-path:url(#SVGID_3_);fill:#FDB98D;}
	.st3{opacity:0.13;fill:url(#SVGID_4_);}
	.st4{opacity:0.13;fill:url(#SVGID_5_);}
	.st5{opacity:0.13;fill:url(#SVGID_6_);}
	.st6{fill:url(#SVGID_7_);}
	.st7{clip-path:url(#SVGID_8_);}
	.st8{fill:url(#SVGID_9_);}
	.st9{fill:url(#SVGID_10_);}
	.st10{fill:url(#SVGID_11_);}
	.st11{clip-path:url(#SVGID_12_);}
	.st12{fill:url(#SVGID_13_);}
	.st13{fill:url(#SVGID_14_);}
	.st14{fill:url(#SVGID_15_);}
	.st15{fill:url(#SVGID_16_);}
	.st16{clip-path:url(#SVGID_17_);}
	.st17{fill:url(#SVGID_18_);}
	.st18{fill:url(#SVGID_19_);}
	.st19{fill:url(#SVGID_20_);}
	.st20{fill:url(#SVGID_21_);}
	.st21{fill:url(#SVGID_22_);}
</style>
<linearGradient id="SVGID_1_" gradientUnits="userSpaceOnUse" x1="8505.5986" y1="32.0708" x2="8533.1641" y2="32.0708" gradientTransform="matrix(-1 0 0 1 8533.1641 0)">
	<stop  offset="0" style="stop-color:#C30864"/>
	<stop  offset="1" style="stop-color:#FC6719"/>
</linearGradient>
<path class="st0" d="M4.87,26.71c3.21-3.14,7.44-4.89,11.9-4.89c1.24,0,2.55,0.15,3.8,0.44c1.09,0.22,2.12,0.58,3.14,1.02
	c1.39,0.58,2.7,1.39,3.87,2.41l-4.23,4.31l-6.71,6.71l0,0c-0.22,0.22-0.36,0.44-0.58,0.66c-0.29,0.22-0.51,0.44-0.73,0.66
	c-3.07,2.77-7.01,4.31-11.17,4.31c-1.31,0-2.55-0.15-3.8-0.44C-0.75,36.56,0.78,30.87,4.87,26.71z"/>
<linearGradient id="SVGID_2_" gradientUnits="userSpaceOnUse" x1="8473.8721" y1="48.6019" x2="8531.873" y2="48.6019" gradientTransform="matrix(-1 0 0 1 8533.1641 0)">
	<stop  offset="0" style="stop-color:#C30864"/>
	<stop  offset="1" style="stop-color:#FC6719"/>
</linearGradient>
<path class="st1" d="M47.13,57.8L29.68,75.31L12.24,57.8l-7.3-7.3c-0.29-0.36-0.66-0.73-0.95-1.09c-1.17-1.31-2.04-2.77-2.7-4.38
	c0.88,0.15,1.9,0.22,2.85,0.22c1.53,0,3.07-0.15,4.53-0.51c3.14-0.73,6.13-2.26,8.61-4.53l1.53-1.53l10.8-10.8l1.02-1.02
	c0.29-0.36,0.66-0.66,1.02-0.95c0.07-0.07,0.07-0.07,0.07-0.07c3.07-2.55,6.79-3.94,10.8-3.94c4.53,0,8.76,1.75,11.9,4.89
	c6.13,6.13,6.5,16.06,0.95,22.63c-0.29,0.36-0.58,0.73-0.95,1.09L47.13,57.8z"/>
<g>
	<defs>
		<path id="SVGID_29_" d="M47.13,57.8L29.68,75.31L12.24,57.8l-7.3-7.3c-0.29-0.36-0.66-0.73-0.95-1.09
			c-1.17-1.31-2.04-2.77-2.7-4.38c0.88,0.15,1.9,0.22,2.85,0.22c1.53,0,3.07-0.15,4.53-0.51c3.14-0.73,6.13-2.26,8.61-4.53
			l1.53-1.53l10.8-10.8l1.02-1.02c0.29-0.36,0.66-0.66,1.02-0.95c0.07-0.07,0.07-0.07,0.07-0.07c3.07-2.55,6.79-3.94,10.8-3.94
			c4.53,0,8.76,1.75,11.9,4.89c6.13,6.13,6.5,16.06,0.95,22.63c-0.29,0.36-0.58,0.73-0.95,1.09L47.13,57.8z"/>
	</defs>
	<clipPath id="SVGID_3_">
		<use xlink:href="#SVGID_29_"  style="overflow:visible;"/>
	</clipPath>
	<path class="st2" d="M16.08,98.85c13.19,2.15,17.24-3.98,23.64-5.89s7.95,1.67,14.49,3.46c4.97,1.36,19.91-0.02,21.07-14.67
		c1.3-16.48-6.38-38.12-17.54-44.96C46,29.6,40.82,39.87,29.06,42.62c-8.36,1.96-17.3-9.27-26.48-0.85
		C-14.27,57.24-7.5,95.01,16.08,98.85z"/>
	<path class="st2" d="M32.05,107.31c13.34-0.75,15.97-7.61,21.81-10.85s8.13-0.08,14.9,0.25c5.14,0.26,19.44-4.31,17.41-18.87
		C83.88,61.47,71.71,42,59.33,37.73c-13.02-4.49-15.86,6.65-26.74,11.87c-7.74,3.71-18.9-5.32-26.04,4.89
		C-6.57,73.22,8.19,108.65,32.05,107.31z"/>
	<path class="st2" d="M47.83,113.59c12.78-3.89,13.72-11.17,18.62-15.7c4.9-4.53,7.87-2,14.53-3.28
		c5.06-0.97,17.87-8.79,12.45-22.45c-6.1-15.37-22.53-31.4-35.56-32.62c-13.71-1.28-13.83,10.22-23.17,17.86
		c-6.64,5.44-19.62-0.7-24.15,10.92C2.24,89.61,24.97,120.54,47.83,113.59z"/>
	<path class="st2" d="M69.54,112.31c10.93-7.69,9.54-14.9,12.78-20.73c3.24-5.84,6.85-4.36,12.78-7.65
		c4.5-2.5,14.23-13.93,4.81-25.22C89.32,46,68.7,35.9,55.94,38.81c-13.42,3.06-9.95,14.03-16.43,24.21
		c-4.61,7.24-18.86,5.47-19.53,17.91C18.74,103.77,49.99,126.05,69.54,112.31z"/>
</g>
<linearGradient id="SVGID_4_" gradientUnits="userSpaceOnUse" x1="19.5792" y1="62.0976" x2="38.4025" y2="62.0976">
	<stop  offset="0" style="stop-color:#CCCCCC"/>
	<stop  offset="1" style="stop-color:#FFFFFF"/>
</linearGradient>
<circle class="st3" cx="28.99" cy="62.1" r="9.41"/>
<linearGradient id="SVGID_5_" gradientUnits="userSpaceOnUse" x1="20.3664" y1="62.0976" x2="37.6152" y2="62.0976">
	<stop  offset="0" style="stop-color:#CCCCCC"/>
	<stop  offset="1" style="stop-color:#FFFFFF"/>
</linearGradient>
<circle class="st4" cx="28.99" cy="62.1" r="8.62"/>
<linearGradient id="SVGID_6_" gradientUnits="userSpaceOnUse" x1="21.2969" y1="62.0976" x2="36.6847" y2="62.0976">
	<stop  offset="0" style="stop-color:#CCCCCC"/>
	<stop  offset="1" style="stop-color:#FFFFFF"/>
</linearGradient>
<circle class="st5" cx="28.99" cy="62.1" r="7.69"/>
<linearGradient id="SVGID_7_" gradientUnits="userSpaceOnUse" x1="25.5351" y1="77.113" x2="78.0803" y2="77.113">
	<stop  offset="0" style="stop-color:#00C9B4"/>
	<stop  offset="0.9022" style="stop-color:#7A9FB4"/>
</linearGradient>
<path class="st6" d="M60.1,89.78c4.8,0,9.28-1.85,12.67-5.21c3.42-3.4,5.31-7.92,5.31-12.74v-7.39h-6.53v7.39
	c0,3.07-1.2,5.95-3.38,8.11c-2.18,2.16-5.04,3.37-8.14,3.31l-16.55-0.2c-6.3,0-11.43-5.13-11.43-11.43v-4.97h-6.53v4.97
	c0,9.9,8.05,17.96,17.96,17.96h4.45l12.02,0.2C60.01,89.78,60.06,89.78,60.1,89.78z"/>
<g>
	<defs>
		<path id="SVGID_35_" d="M47.13,57.8L29.68,75.31L12.24,57.8l-7.3-7.3c-0.29-0.36-0.66-0.73-0.95-1.09
			c-1.17-1.31-2.04-2.77-2.7-4.38c0.88,0.15,1.9,0.22,2.85,0.22c1.53,0,3.07-0.15,4.53-0.51c3.14-0.73,6.13-2.26,8.61-4.53
			l1.53-1.53l10.8-10.8l1.02-1.02c0.29-0.36,0.66-0.66,1.02-0.95c0.07-0.07,0.07-0.07,0.07-0.07c3.07-2.55,6.79-3.94,10.8-3.94
			c4.53,0,8.76,1.75,11.9,4.89c6.13,6.13,6.5,16.06,0.95,22.63c-0.29,0.36-0.58,0.73-0.95,1.09L47.13,57.8z"/>
	</defs>
	<clipPath id="SVGID_8_">
		<use xlink:href="#SVGID_35_"  style="overflow:visible;"/>
	</clipPath>
	<g class="st7">
		
			<image style="overflow:visible;opacity:0.3;" width="290" height="319" xlink:href="73256F7.png"  transform="matrix(0.24 0 0 0.24 40.1264 1.9664)">
		</image>
		<g>
			<linearGradient id="SVGID_9_" gradientUnits="userSpaceOnUse" x1="74.9197" y1="67.1334" x2="74.9197" y2="17.3316">
				<stop  offset="0" style="stop-color:#7A9FB4"/>
				<stop  offset="1" style="stop-color:#00C9B4"/>
			</linearGradient>
			<path class="st8" d="M99.81,22.07c-0.25-3.5-3.07-10.11-11.98-10.11v5.83c5.41,0,6.07,3.85,6.15,4.6v21.35
				c0,10.46-8.51,18.96-18.96,18.96h-0.21c-10.46,0-18.96-8.51-18.96-18.96V22.41c0.13-1.15,0.96-4.62,6.15-4.62v-5.83
				c-8.91,0-11.73,6.61-11.98,10.11l-0.01,0.2v21.47c0,13.67,11.12,24.8,24.8,24.8h0.21c13.67,0,24.8-11.12,24.8-24.8L99.81,22.07z"
				/>
		</g>
	</g>
	<g class="st7">
		
			<image style="overflow:visible;opacity:0.5;" width="302" height="189" xlink:href="73256F2.png"  transform="matrix(0.24 0 0 0.24 15.6464 54.5264)">
		</image>
		<g>
			<linearGradient id="SVGID_10_" gradientUnits="userSpaceOnUse" x1="25.5351" y1="77.113" x2="78.0803" y2="77.113">
				<stop  offset="0" style="stop-color:#00C9B4"/>
				<stop  offset="0.9022" style="stop-color:#7A9FB4"/>
			</linearGradient>
			<path class="st9" d="M60.1,89.78c4.8,0,9.28-1.85,12.67-5.21c3.42-3.4,5.31-7.92,5.31-12.74v-7.39h-6.53v7.39
				c0,3.07-1.2,5.95-3.38,8.11c-2.18,2.16-5.04,3.37-8.14,3.31l-16.55-0.2c-6.3,0-11.43-5.13-11.43-11.43v-4.97h-6.53v4.97
				c0,9.9,8.05,17.96,17.96,17.96h4.45l12.02,0.2C60.01,89.78,60.06,89.78,60.1,89.78z"/>
		</g>
	</g>
</g>
<linearGradient id="SVGID_11_" gradientUnits="userSpaceOnUse" x1="74.9197" y1="67.1334" x2="74.9197" y2="17.3316">
	<stop  offset="0" style="stop-color:#7A9FB4"/>
	<stop  offset="1" style="stop-color:#00C9B4"/>
</linearGradient>
<path class="st10" d="M99.81,22.07c-0.25-3.5-3.07-10.11-11.98-10.11v5.83c5.41,0,6.07,3.85,6.15,4.6v21.35
	c0,10.46-8.51,18.96-18.96,18.96h-0.21c-10.46,0-18.96-8.51-18.96-18.96V22.41c0.13-1.15,0.96-4.62,6.15-4.62v-5.83
	c-8.91,0-11.73,6.61-11.98,10.11l-0.01,0.2v21.47c0,13.67,11.12,24.8,24.8,24.8h0.21c13.67,0,24.8-11.12,24.8-24.8L99.81,22.07z"/>
<g>
	<defs>
		<path id="SVGID_40_" d="M60.1,89.78c4.8,0,9.28-1.85,12.67-5.21c3.42-3.4,5.31-7.92,5.31-12.74v-7.39h-6.53v7.39
			c0,3.07-1.2,5.95-3.38,8.11c-2.18,2.16-5.04,3.37-8.14,3.31l-16.55-0.2c-6.3,0-11.43-5.13-11.43-11.43v-4.97h-6.53v4.97
			c0,9.9,8.05,17.96,17.96,17.96h4.45l12.02,0.2C60.01,89.78,60.06,89.78,60.1,89.78z"/>
	</defs>
	<clipPath id="SVGID_12_">
		<use xlink:href="#SVGID_40_"  style="overflow:visible;"/>
	</clipPath>
	<g class="st11">
		
			<image style="overflow:visible;opacity:0.5;" width="331" height="360" xlink:href="73256F1.png"  transform="matrix(0.24 0 0 0.24 35.2295 -2.9305)">
		</image>
		<g>
			<linearGradient id="SVGID_13_" gradientUnits="userSpaceOnUse" x1="74.9197" y1="67.1334" x2="74.9197" y2="17.3316">
				<stop  offset="0" style="stop-color:#7A9FB4"/>
				<stop  offset="1" style="stop-color:#00C9B4"/>
			</linearGradient>
			<path class="st12" d="M99.81,22.07c-0.25-3.5-3.07-10.11-11.98-10.11v5.83c5.41,0,6.07,3.85,6.15,4.6v21.35
				c0,10.46-8.51,18.96-18.96,18.96h-0.21c-10.46,0-18.96-8.51-18.96-18.96V22.41c0.13-1.15,0.96-4.62,6.15-4.62v-5.83
				c-8.91,0-11.73,6.61-11.98,10.11l-0.01,0.2v21.47c0,13.67,11.12,24.8,24.8,24.8h0.21c13.67,0,24.8-11.12,24.8-24.8L99.81,22.07z"
				/>
		</g>
	</g>
	<g class="st11">
		
			<image style="overflow:visible;opacity:0.5;" width="133" height="133" xlink:href="73256FE.png"  transform="matrix(0.24 0 0 0.24 13.0064 46.1264)">
		</image>
		<g>
			<linearGradient id="SVGID_14_" gradientUnits="userSpaceOnUse" x1="22.9827" y1="62.0976" x2="34.999" y2="62.0976">
				<stop  offset="0" style="stop-color:#CCCCCC"/>
				<stop  offset="1" style="stop-color:#FFFFFF"/>
			</linearGradient>
			<circle class="st13" cx="28.99" cy="62.1" r="6.01"/>
		</g>
	</g>
</g>
<linearGradient id="SVGID_15_" gradientUnits="userSpaceOnUse" x1="22.9827" y1="62.0976" x2="34.999" y2="62.0976">
	<stop  offset="0" style="stop-color:#CCCCCC"/>
	<stop  offset="1" style="stop-color:#FFFFFF"/>
</linearGradient>
<circle class="st14" cx="28.99" cy="62.1" r="6.01"/>
<linearGradient id="SVGID_16_" gradientUnits="userSpaceOnUse" x1="25.761" y1="62.0976" x2="32.2206" y2="62.0976">
	<stop  offset="0" style="stop-color:#4D3933"/>
	<stop  offset="1" style="stop-color:#3D113C"/>
</linearGradient>
<circle class="st15" cx="28.99" cy="62.1" r="3.23"/>
<g>
	<defs>
		<path id="SVGID_46_" d="M99.81,22.07c-0.25-3.5-3.07-10.11-11.98-10.11v5.83c5.41,0,6.07,3.85,6.15,4.6v21.35
			c0,10.46-8.51,18.96-18.96,18.96h-0.21c-10.46,0-18.96-8.51-18.96-18.96V22.41c0.13-1.15,0.96-4.62,6.15-4.62v-5.83
			c-8.91,0-11.73,6.61-11.98,10.11l-0.01,0.2v21.47c0,13.67,11.12,24.8,24.8,24.8h0.21c13.67,0,24.8-11.12,24.8-24.8L99.81,22.07z"
			/>
	</defs>
	<clipPath id="SVGID_17_">
		<use xlink:href="#SVGID_46_"  style="overflow:visible;"/>
	</clipPath>
	<g class="st16">
		
			<image style="overflow:visible;opacity:0.5;" width="129" height="129" xlink:href="73256F0.png"  transform="matrix(0.24 0 0 0.24 70.3664 0.0464)">
		</image>
		<g>
			<linearGradient id="SVGID_18_" gradientUnits="userSpaceOnUse" x1="91.6597" y1="15.5219" x2="80.6158" y2="15.5219">
				<stop  offset="0" style="stop-color:#4D3933"/>
				<stop  offset="1" style="stop-color:#3D113C"/>
			</linearGradient>
			<circle class="st17" cx="85.79" cy="15.52" r="5.52"/>
		</g>
	</g>
	<g class="st16">
		
			<image style="overflow:visible;opacity:0.5;" width="129" height="129" xlink:href="73256F6.png"  transform="matrix(0.24 0 0 0.24 48.5264 0.2864)">
		</image>
		<g>
			<linearGradient id="SVGID_19_" gradientUnits="userSpaceOnUse" x1="58.528" y1="15.6088" x2="69.5719" y2="15.6088">
				<stop  offset="0" style="stop-color:#4D3933"/>
				<stop  offset="1" style="stop-color:#3D113C"/>
			</linearGradient>
			<circle class="st18" cx="64.05" cy="15.61" r="5.52"/>
		</g>
	</g>
</g>
<linearGradient id="SVGID_20_" gradientUnits="userSpaceOnUse" x1="80.2685" y1="15.5219" x2="91.3124" y2="15.5219">
	<stop  offset="0" style="stop-color:#174575"/>
	<stop  offset="1" style="stop-color:#3D113C"/>
</linearGradient>
<circle class="st19" cx="85.79" cy="15.52" r="5.52"/>
<linearGradient id="SVGID_21_" gradientUnits="userSpaceOnUse" x1="58.528" y1="15.6088" x2="69.5719" y2="15.6088">
	<stop  offset="0" style="stop-color:#4D3933"/>
	<stop  offset="1" style="stop-color:#3D113C"/>
</linearGradient>
<circle class="st20" cx="64.05" cy="15.61" r="5.52"/>
<linearGradient id="SVGID_22_" gradientUnits="userSpaceOnUse" x1="58.528" y1="15.6088" x2="69.5719" y2="15.6088">
	<stop  offset="0" style="stop-color:#174575"/>
	<stop  offset="1" style="stop-color:#3D113C"/>
</linearGradient>
<circle class="st21" cx="64.05" cy="15.61" r="5.52"/>
</svg>
