<?xml version="1.0" encoding="utf-8"?>
<!-- Generator: Adobe Illustrator 22.1.0, SVG Export Plug-In . SVG Version: 6.00 Build 0)  -->
<svg version="1.1" id="Calque_1" xmlns="http://www.w3.org/2000/svg" xmlns:xlink="http://www.w3.org/1999/xlink" x="0px" y="0px"
	 viewBox="0 0 40 40" style="enable-background:new 0 0 40 40;" xml:space="preserve">
<style type="text/css">
	.st0{fill:url(#path1948_1_);}
	.st1{fill:url(#path1950_1_);}
</style>
<linearGradient id="path1948_1_" gradientUnits="userSpaceOnUse" x1="282.3176" y1="-196.6487" x2="321.119" y2="-230.0321" gradientTransform="matrix(0.5625 0 0 -0.568 -159.7737 -110.5587)">
	<stop  offset="0" style="stop-color:#5A9FD4"/>
	<stop  offset="1" style="stop-color:#306998"/>
</linearGradient>
<path id="path1948" class="st0" d="M19.5,0c-1.6,0-3.2,0.1-4.6,0.4c-4,0.7-4.8,2.2-4.8,5V9h9.5v1.2h-9.5H6.6c-2.8,0-5.2,1.7-6,4.8
	c-0.9,3.6-0.9,5.9,0,9.7c0.7,2.8,2.3,4.8,5.1,4.8H9v-4.4c0-3.1,2.7-5.9,6-5.9h9.5c2.7,0,4.8-2.2,4.8-4.8V5.4c0-2.6-2.2-4.5-4.8-5
	C22.9,0.1,21.2,0,19.5,0z M14.4,2.9c1,0,1.8,0.8,1.8,1.8c0,1-0.8,1.8-1.8,1.8c-1,0-1.8-0.8-1.8-1.8C12.6,3.7,13.4,2.9,14.4,2.9z"/>
<linearGradient id="path1950_1_" gradientUnits="userSpaceOnUse" x1="336.1189" y1="-250.2339" x2="322.2637" y2="-230.6311" gradientTransform="matrix(0.5625 0 0 -0.568 -159.7737 -110.5587)">
	<stop  offset="0" style="stop-color:#FFD43B"/>
	<stop  offset="1" style="stop-color:#FFE873"/>
</linearGradient>
<path id="path1950" class="st1" d="M30.5,10.2v4.2c0,3.3-2.8,6.1-6,6.1H15c-2.6,0-4.8,2.2-4.8,4.8v9.1c0,2.6,2.2,4.1,4.8,4.8
	c3,0.9,5.9,1,9.5,0c2.4-0.7,4.8-2.1,4.8-4.8v-3.6h-9.5v-1.2h9.5h4.8c2.8,0,3.8-1.9,4.8-4.8c1-3,1-5.9,0-9.7c-0.7-2.8-2-4.8-4.8-4.8
	H30.5z M25.1,33.2c1,0,1.8,0.8,1.8,1.8c0,1-0.8,1.8-1.8,1.8c-1,0-1.8-0.8-1.8-1.8C23.3,34,24.1,33.2,25.1,33.2z"/>
</svg>
