<?xml version="1.0" encoding="utf-8"?>
<!-- Generator: Adobe Illustrator 23.0.3, SVG Export Plug-In . SVG Version: 6.00 Build 0)  -->
<svg version="1.1" id="Calque_1" xmlns="http://www.w3.org/2000/svg" xmlns:xlink="http://www.w3.org/1999/xlink" x="0px" y="0px"
	 viewBox="0 0 100 100" style="enable-background:new 0 0 100 100;" xml:space="preserve">
<style type="text/css">
	.st0{fill:url(#SVGID_1_);}
	.st1{fill:url(#SVGID_2_);}
	.st2{clip-path:url(#SVGID_4_);}
	.st3{fill:url(#SVGID_5_);}
	.st4{fill:url(#SVGID_6_);}
	.st5{fill:url(#SVGID_7_);}
	.st6{fill:url(#SVGID_8_);}
	.st7{clip-path:url(#SVGID_10_);}
	.st8{fill:url(#SVGID_11_);}
	.st9{fill:url(#SVGID_12_);}
	.st10{fill:url(#SVGID_13_);}
	.st11{opacity:5.000000e-02;clip-path:url(#SVGID_15_);}
	.st12{fill:#00DDC7;}
	.st13{clip-path:url(#SVGID_17_);fill:none;stroke:url(#SVGID_18_);stroke-width:3;stroke-miterlimit:10;}
	.st14{clip-path:url(#SVGID_17_);fill:none;stroke:url(#SVGID_19_);stroke-width:3;stroke-miterlimit:10;}
	.st15{clip-path:url(#SVGID_17_);fill:none;stroke:url(#SVGID_20_);stroke-width:3;stroke-miterlimit:10;}
	.st16{clip-path:url(#SVGID_17_);fill:none;stroke:url(#SVGID_21_);stroke-width:3;stroke-miterlimit:10;}
</style>
<linearGradient id="SVGID_1_" gradientUnits="userSpaceOnUse" x1="56.1397" y1="76.5756" x2="88.3806" y2="76.5756">
	<stop  offset="0" style="stop-color:#00C9B4"/>
	<stop  offset="1" style="stop-color:#7A9FB4"/>
</linearGradient>
<polygon class="st0" points="67.2,56 56.1,97.2 88.4,97.2 79.6,60.5 "/>
<g>
	<linearGradient id="SVGID_2_" gradientUnits="userSpaceOnUse" x1="51.3728" y1="95.8683" x2="93.6383" y2="95.8683">
		<stop  offset="0" style="stop-color:#174575"/>
		<stop  offset="1" style="stop-color:#3D113C"/>
	</linearGradient>
	<path class="st1" d="M93.6,100L93.6,100c0-4.5-2.6-8.3-5.8-8.3H57.2c-3.2,0-5.8,3.7-5.8,8.3v0H93.6z"/>
</g>
<g>
	<defs>
		<polygon id="SVGID_3_" points="67.2,56 56.1,97.2 88.4,97.2 79.6,60.5 		"/>
	</defs>
	<clipPath id="SVGID_4_">
		<use xlink:href="#SVGID_3_"  style="overflow:visible;"/>
	</clipPath>
	<g class="st2">
		
			<image style="overflow:visible;opacity:0.3;" width="49" height="15" xlink:href="3C40835F.png"  transform="matrix(1 0 0 1 47.8723 88.1702)">
		</image>
		<g>
			<linearGradient id="SVGID_5_" gradientUnits="userSpaceOnUse" x1="51.3728" y1="95.8683" x2="93.6383" y2="95.8683">
				<stop  offset="0" style="stop-color:#174575"/>
				<stop  offset="1" style="stop-color:#3D113C"/>
			</linearGradient>
			<path class="st3" d="M93.6,100L93.6,100c0-4.5-2.6-8.3-5.8-8.3H57.2c-3.2,0-5.8,3.7-5.8,8.3v0H93.6z"/>
		</g>
	</g>
	<g class="st2">
		
			<image style="overflow:visible;opacity:0.3;" width="48" height="48" xlink:href="3C408354.png"  transform="matrix(1 0 0 1 43.8723 30.1702)">
		</image>
		<g>
			
				<linearGradient id="SVGID_6_" gradientUnits="userSpaceOnUse" x1="35.0922" y1="-106.3335" x2="76.9221" y2="-106.3335" gradientTransform="matrix(0.9995 -3.155516e-02 3.155516e-02 0.9995 15.2844 162.4807)">
				<stop  offset="0" style="stop-color:#174575"/>
				<stop  offset="1" style="stop-color:#3D113C"/>
			</linearGradient>
			<path class="st4" d="M81.6,33.6c9.4,9.5,9.4,24.8-0.1,34.2s-24.8,9.4-34.2-0.1"/>
		</g>
	</g>
</g>
<linearGradient id="SVGID_7_" gradientUnits="userSpaceOnUse" x1="52.0054" y1="50.6599" x2="77.5914" y2="50.6599">
	<stop  offset="0" style="stop-color:#4D3933"/>
	<stop  offset="1" style="stop-color:#3D113C"/>
</linearGradient>
<path class="st5" d="M58.9,63.5L52,37.9l25.6,6.9L58.9,63.5z M55.8,41.6l4.5,16.7l12.2-12.2L55.8,41.6z"/>
<g>
	
		<linearGradient id="SVGID_8_" gradientUnits="userSpaceOnUse" x1="35.0922" y1="-106.3335" x2="76.9221" y2="-106.3335" gradientTransform="matrix(0.9995 -3.155516e-02 3.155516e-02 0.9995 15.2844 162.4807)">
		<stop  offset="0" style="stop-color:#174575"/>
		<stop  offset="1" style="stop-color:#3D113C"/>
	</linearGradient>
	<path class="st6" d="M81.6,33.6c9.4,9.5,9.4,24.8-0.1,34.2s-24.8,9.4-34.2-0.1"/>
</g>
<g>
	<defs>
		<path id="SVGID_9_" d="M58.9,63.5L52,37.9l25.6,6.9L58.9,63.5z M55.8,41.6l4.5,16.7l12.2-12.2L55.8,41.6z"/>
	</defs>
	<clipPath id="SVGID_10_">
		<use xlink:href="#SVGID_9_"  style="overflow:visible;"/>
	</clipPath>
	<g class="st7">
		
			<image style="overflow:visible;opacity:0.9;" width="48" height="48" xlink:href="3C408355.png"  transform="matrix(1 0 0 1 43.8723 30.1702)">
		</image>
		<g>
			
				<linearGradient id="SVGID_11_" gradientUnits="userSpaceOnUse" x1="35.0922" y1="-106.3335" x2="76.9221" y2="-106.3335" gradientTransform="matrix(0.9995 -3.155516e-02 3.155516e-02 0.9995 15.2844 162.4807)">
				<stop  offset="0" style="stop-color:#174575"/>
				<stop  offset="1" style="stop-color:#3D113C"/>
			</linearGradient>
			<path class="st8" d="M81.6,33.6c9.4,9.5,9.4,24.8-0.1,34.2s-24.8,9.4-34.2-0.1"/>
		</g>
	</g>
	<g class="st7">
		
			<image style="overflow:visible;opacity:0.9;" width="16" height="16" xlink:href="3C408356.png"  transform="matrix(1 0 0 1 45.8723 31.1702)">
		</image>
		<g>
			<linearGradient id="SVGID_12_" gradientUnits="userSpaceOnUse" x1="49.2731" y1="39.266" x2="58.6203" y2="39.266">
				<stop  offset="0" style="stop-color:#FC6719"/>
				<stop  offset="5.904639e-02" style="stop-color:#F45924"/>
				<stop  offset="0.2124" style="stop-color:#E23C3B"/>
				<stop  offset="0.3753" style="stop-color:#D4254D"/>
				<stop  offset="0.55" style="stop-color:#CB155A"/>
				<stop  offset="0.7447" style="stop-color:#C50B62"/>
				<stop  offset="1" style="stop-color:#C30864"/>
			</linearGradient>
			<circle class="st9" cx="53.9" cy="39.3" r="4.7"/>
		</g>
	</g>
</g>
<g>
	<linearGradient id="SVGID_13_" gradientUnits="userSpaceOnUse" x1="49.2731" y1="39.266" x2="58.6203" y2="39.266">
		<stop  offset="0" style="stop-color:#FC6719"/>
		<stop  offset="5.904639e-02" style="stop-color:#F45924"/>
		<stop  offset="0.2124" style="stop-color:#E23C3B"/>
		<stop  offset="0.3753" style="stop-color:#D4254D"/>
		<stop  offset="0.55" style="stop-color:#CB155A"/>
		<stop  offset="0.7447" style="stop-color:#C50B62"/>
		<stop  offset="1" style="stop-color:#C30864"/>
	</linearGradient>
	<circle class="st10" cx="53.9" cy="39.3" r="4.7"/>
</g>
<g>
	<defs>
		<path id="SVGID_14_" d="M81.6,33.6c9.4,9.5,9.4,24.8-0.1,34.2s-24.8,9.4-34.2-0.1"/>
	</defs>
	<clipPath id="SVGID_15_">
		<use xlink:href="#SVGID_14_"  style="overflow:visible;"/>
	</clipPath>
	<g class="st11">
		
			<image style="overflow:visible;opacity:0.1;" width="79" height="74" xlink:href="3C408357.png"  transform="matrix(1 0 0 1 28.563 42.8609)">
		</image>
		<g>
			<path class="st12" d="M50.4,66.6c-7.9,1.3-12.7,13.7-9.4,23.9s15.1,17.3,31.5,11.6s25.5-21,21.9-34c-3-10.7-12.6-15.1-18-12.6
				c-6.3,2.9-6.7,7.4-13.2,9.7C57.4,67.3,58.3,65.3,50.4,66.6z"/>
		</g>
	</g>
	<g class="st11">
		
			<image style="overflow:visible;opacity:0.1;" width="81" height="68" xlink:href="3C408367.png"  transform="matrix(1 0 0 1 23.563 51.8609)">
		</image>
		<g>
			<path class="st12" d="M50.7,67.4c-7.9-0.8-15.9,9.8-15.5,20.6s10,20.7,27.3,19.6c17.3-1.1,30.2-13.5,30.2-27
				c0-11.1-8.1-17.9-14-17c-6.9,1.1-8.4,5.4-15.3,5.9C57.2,69.8,58.6,68.2,50.7,67.4z"/>
		</g>
	</g>
	<g class="st11">
		
			<image style="overflow:visible;opacity:0.1;" width="82" height="66" xlink:href="3C408368.png"  transform="matrix(1 0 0 1 20.563 55.8609)">
		</image>
		<g>
			<path class="st12" d="M51.3,67.9c-7.7-2.2-17.3,7-18.7,17.6c-1.4,10.7,6.3,22.1,23.5,23.9s32.1-8.1,34.3-21.4
				c1.8-11-4.9-19.1-10.9-19.1c-7,0-9.2,3.9-16.1,3.2C57.4,71.4,59,70.1,51.3,67.9z"/>
		</g>
	</g>
	<g class="st11">
		
			<image style="overflow:visible;opacity:0.1;" width="83" height="67" xlink:href="3C40836B.png"  transform="matrix(1 0 0 1 18.563 55.8609)">
		</image>
		<g>
			<path class="st12" d="M51.4,68.3C44,65.4,33.4,73.6,31,84.1s4.2,22.6,21.1,26c17,3.5,32.7-5,36.2-18.1c2.9-10.7-3.1-19.4-9-20
				c-7-0.7-9.6,3-16.3,1.6C57.1,72.4,58.8,71.2,51.4,68.3z"/>
		</g>
	</g>
</g>
<g>
	<defs>
		<polygon id="SVGID_16_" points="46.7,34.6 57.8,-27.1 -15,45.6 		"/>
	</defs>
	<clipPath id="SVGID_17_">
		<use xlink:href="#SVGID_16_"  style="overflow:visible;"/>
	</clipPath>
	<linearGradient id="SVGID_18_" gradientUnits="userSpaceOnUse" x1="23.9398" y1="33.2101" x2="66.9398" y2="33.2101">
		<stop  offset="0" style="stop-color:#FC6719"/>
		<stop  offset="5.904639e-02" style="stop-color:#F45924"/>
		<stop  offset="0.2124" style="stop-color:#E23C3B"/>
		<stop  offset="0.3753" style="stop-color:#D4254D"/>
		<stop  offset="0.55" style="stop-color:#CB155A"/>
		<stop  offset="0.7447" style="stop-color:#C50B62"/>
		<stop  offset="1" style="stop-color:#C30864"/>
	</linearGradient>
	<circle class="st13" cx="45.4" cy="33.2" r="20"/>
	<linearGradient id="SVGID_19_" gradientUnits="userSpaceOnUse" x1="15.9185" y1="33.2101" x2="74.9611" y2="33.2101">
		<stop  offset="0" style="stop-color:#FC6719"/>
		<stop  offset="5.904639e-02" style="stop-color:#F45924"/>
		<stop  offset="0.2124" style="stop-color:#E23C3B"/>
		<stop  offset="0.3753" style="stop-color:#D4254D"/>
		<stop  offset="0.55" style="stop-color:#CB155A"/>
		<stop  offset="0.7447" style="stop-color:#C50B62"/>
		<stop  offset="1" style="stop-color:#C30864"/>
	</linearGradient>
	<circle class="st14" cx="45.4" cy="33.2" r="28"/>
	<linearGradient id="SVGID_20_" gradientUnits="userSpaceOnUse" x1="31.9398" y1="33.2101" x2="58.9398" y2="33.2101">
		<stop  offset="0" style="stop-color:#FC6719"/>
		<stop  offset="5.904639e-02" style="stop-color:#F45924"/>
		<stop  offset="0.2124" style="stop-color:#E23C3B"/>
		<stop  offset="0.3753" style="stop-color:#D4254D"/>
		<stop  offset="0.55" style="stop-color:#CB155A"/>
		<stop  offset="0.7447" style="stop-color:#C50B62"/>
		<stop  offset="1" style="stop-color:#C30864"/>
	</linearGradient>
	<circle class="st15" cx="45.4" cy="33.2" r="12"/>
	<linearGradient id="SVGID_21_" gradientUnits="userSpaceOnUse" x1="39.9398" y1="33.2101" x2="50.9398" y2="33.2101">
		<stop  offset="0" style="stop-color:#FC6719"/>
		<stop  offset="5.904639e-02" style="stop-color:#F45924"/>
		<stop  offset="0.2124" style="stop-color:#E23C3B"/>
		<stop  offset="0.3753" style="stop-color:#D4254D"/>
		<stop  offset="0.55" style="stop-color:#CB155A"/>
		<stop  offset="0.7447" style="stop-color:#C50B62"/>
		<stop  offset="1" style="stop-color:#C30864"/>
	</linearGradient>
	<circle class="st16" cx="45.4" cy="33.2" r="4"/>
</g>
</svg>
