<?xml version="1.0" encoding="utf-8"?>
<!-- Generator: Adobe Illustrator 23.0.3, SVG Export Plug-In . SVG Version: 6.00 Build 0)  -->
<svg version="1.1" id="Calque_1" xmlns="http://www.w3.org/2000/svg" xmlns:xlink="http://www.w3.org/1999/xlink" x="0px" y="0px"
	 viewBox="0 0 530 470" style="enable-background:new 0 0 530 470;" xml:space="preserve">
<style type="text/css">
	.st0{fill:url(#SVGID_1_);}
	.st1{fill:url(#SVGID_2_);}
	.st2{fill:url(#SVGID_3_);}
	.st3{fill:url(#SVGID_4_);}
	.st4{fill:url(#SVGID_5_);}
	.st5{fill:url(#SVGID_6_);}
	.st6{fill:url(#SVGID_7_);}
	.st7{fill:#273058;}
	.st8{fill:url(#SVGID_8_);}
	.st9{fill:url(#SVGID_9_);}
	.st10{fill:url(#SVGID_10_);}
	.st11{fill:url(#SVGID_11_);}
	.st12{fill:url(#SVGID_12_);}
	.st13{fill:url(#SVGID_13_);}
	.st14{fill:url(#SVGID_14_);}
	.st15{fill:url(#SVGID_15_);}
	.st16{fill:url(#SVGID_16_);}
	.st17{fill:url(#SVGID_17_);}
	.st18{fill:url(#SVGID_18_);}
	.st19{fill:url(#SVGID_19_);}
	.st20{fill:url(#SVGID_20_);}
	.st21{fill:url(#SVGID_21_);}
	.st22{fill:url(#SVGID_22_);}
	.st23{fill:url(#SVGID_23_);}
	.st24{fill:url(#SVGID_24_);}
	.st25{fill:url(#SVGID_25_);}
	.st26{fill:url(#SVGID_26_);}
	.st27{fill:url(#SVGID_27_);}
	.st28{fill:url(#SVGID_28_);}
	.st29{fill:url(#SVGID_29_);}
	.st30{fill:url(#SVGID_30_);}
	.st31{fill:url(#SVGID_31_);}
	.st32{fill:url(#SVGID_32_);}
	.st33{fill:url(#SVGID_33_);}
	.st34{fill:url(#SVGID_34_);}
	.st35{fill:url(#SVGID_35_);}
	.st36{fill:#F2F2F2;}
	.st37{fill:url(#SVGID_36_);}
	.st38{display:none;opacity:0.19;fill:#FFFFFF;}
	.st39{opacity:0.14;clip-path:url(#SVGID_38_);}
	.st40{fill:#57BDB7;}
	.st41{fill:url(#SVGID_39_);}
	.st42{fill:url(#SVGID_40_);}
	.st43{fill:url(#SVGID_41_);}
	.st44{fill:url(#SVGID_42_);}
	.st45{display:none;}
	.st46{display:inline;}
	.st47{display:inline;opacity:0.11;clip-path:url(#SVGID_44_);fill:#020203;}
	.st48{display:inline;opacity:5.000000e-02;clip-path:url(#SVGID_44_);fill:#020203;}
	.st49{fill:url(#SVGID_45_);}
	.st50{opacity:0.14;clip-path:url(#SVGID_47_);}
	.st51{fill:url(#SVGID_48_);}
	.st52{fill:url(#SVGID_49_);}
	.st53{fill:url(#SVGID_50_);}
	.st54{clip-path:url(#SVGID_52_);}
	.st55{fill:url(#SVGID_53_);}
	.st56{fill:url(#SVGID_54_);}
	.st57{clip-path:url(#SVGID_56_);}
	.st58{fill:url(#SVGID_57_);}
	.st59{fill:url(#SVGID_58_);}
	.st60{fill:url(#SVGID_59_);}
	.st61{fill:url(#SVGID_60_);}
	.st62{fill:url(#SVGID_61_);}
	.st63{fill:url(#SVGID_62_);}
	.st64{fill:url(#SVGID_63_);}
	.st65{fill:url(#SVGID_64_);}
	.st66{fill:url(#SVGID_65_);}
	.st67{fill:url(#SVGID_66_);}
	.st68{fill:url(#SVGID_67_);}
	.st69{fill:url(#SVGID_68_);}
	.st70{fill:url(#SVGID_69_);}
	.st71{fill:url(#SVGID_70_);}
	.st72{fill:url(#SVGID_71_);}
	.st73{fill:url(#SVGID_72_);}
	.st74{fill:url(#SVGID_73_);}
	.st75{fill:url(#SVGID_74_);}
	.st76{fill:url(#SVGID_75_);}
	.st77{fill:url(#SVGID_76_);}
	.st78{fill:url(#SVGID_77_);}
	.st79{fill:url(#SVGID_78_);}
	.st80{fill:url(#SVGID_79_);}
	.st81{opacity:5.000000e-02;fill:url(#SVGID_80_);}
	.st82{opacity:5.000000e-02;fill:url(#SVGID_81_);}
	.st83{opacity:5.000000e-02;fill:url(#SVGID_82_);}
	.st84{fill:url(#SVGID_83_);}
	.st85{fill:url(#SVGID_84_);}
	.st86{fill:url(#SVGID_85_);}
	.st87{fill:url(#SVGID_86_);}
	.st88{fill:url(#SVGID_87_);}
	.st89{fill:url(#SVGID_88_);}
</style>
<linearGradient id="SVGID_1_" gradientUnits="userSpaceOnUse" x1="161.3361" y1="193.6016" x2="178.7887" y2="193.6016">
	<stop  offset="0" style="stop-color:#BF0C6A"/>
	<stop  offset="1" style="stop-color:#EC6727"/>
</linearGradient>
<path class="st0" d="M176.7,195.7h-13.3c-1.1,0-2.1-0.9-2.1-2.1c0-1.1,0.9-2.1,2.1-2.1h13.3c1.1,0,2.1,0.9,2.1,2.1
	C178.8,194.7,177.9,195.7,176.7,195.7z"/>
<linearGradient id="SVGID_2_" gradientUnits="userSpaceOnUse" x1="161.3361" y1="246.3155" x2="178.7887" y2="246.3155">
	<stop  offset="0" style="stop-color:#BF0C6A"/>
	<stop  offset="1" style="stop-color:#EC6727"/>
</linearGradient>
<path class="st1" d="M176.7,248.4h-13.3c-1.1,0-2.1-0.9-2.1-2.1c0-1.1,0.9-2.1,2.1-2.1h13.3c1.1,0,2.1,0.9,2.1,2.1
	C178.8,247.5,177.9,248.4,176.7,248.4z"/>
<linearGradient id="SVGID_3_" gradientUnits="userSpaceOnUse" x1="170.9642" y1="266.8062" x2="188.4168" y2="266.8062">
	<stop  offset="0" style="stop-color:#7BA0B5"/>
	<stop  offset="1" style="stop-color:#40B7AB"/>
</linearGradient>
<path class="st2" d="M186.3,268.9H173c-1.1,0-2.1-0.9-2.1-2.1s0.9-2.1,2.1-2.1h13.3c1.1,0,2.1,0.9,2.1,2.1S187.5,268.9,186.3,268.9z
	"/>
<linearGradient id="SVGID_4_" gradientUnits="userSpaceOnUse" x1="183.9767" y1="202.4813" x2="223.3781" y2="202.4813">
	<stop  offset="0" style="stop-color:#7BA0B5"/>
	<stop  offset="1" style="stop-color:#40B7AB"/>
</linearGradient>
<path class="st3" d="M221.3,204.6h-35.2c-1.1,0-2.1-0.9-2.1-2.1s0.9-2.1,2.1-2.1h35.2c1.1,0,2.1,0.9,2.1,2.1
	S222.4,204.6,221.3,204.6z"/>
<linearGradient id="SVGID_5_" gradientUnits="userSpaceOnUse" x1="183.9767" y1="216.9344" x2="262.2789" y2="216.9344">
	<stop  offset="0" style="stop-color:#BF0C6A"/>
	<stop  offset="1" style="stop-color:#EC6727"/>
</linearGradient>
<path class="st4" d="M260.2,219h-74.2c-1.1,0-2.1-0.9-2.1-2.1s0.9-2.1,2.1-2.1h74.2c1.1,0,2.1,0.9,2.1,2.1S261.3,219,260.2,219z"/>
<linearGradient id="SVGID_6_" gradientUnits="userSpaceOnUse" x1="271.1966" y1="216.9344" x2="283.3441" y2="216.9344">
	<stop  offset="0" style="stop-color:#CCCCCC"/>
	<stop  offset="1" style="stop-color:#9C9C9C"/>
</linearGradient>
<path class="st5" d="M281.3,219h-8c-1.1,0-2.1-0.9-2.1-2.1s0.9-2.1,2.1-2.1h8c1.1,0,2.1,0.9,2.1,2.1S282.4,219,281.3,219z"/>
<linearGradient id="SVGID_7_" gradientUnits="userSpaceOnUse" x1="290.8867" y1="216.9344" x2="298.6522" y2="216.9344">
	<stop  offset="0" style="stop-color:#7BA0B5"/>
	<stop  offset="1" style="stop-color:#40B7AB"/>
</linearGradient>
<path class="st6" d="M296.6,219H293c-1.1,0-2.1-0.9-2.1-2.1s0.9-2.1,2.1-2.1h3.6c1.1,0,2.1,0.9,2.1,2.1S297.7,219,296.6,219z"/>
<path class="st7" d="M273.7,204.6H254c-1.1,0-2.1-0.9-2.1-2.1s0.9-2.1,2.1-2.1h19.7c1.1,0,2.1,0.9,2.1,2.1S274.8,204.6,273.7,204.6z
	"/>
<path class="st7" d="M243,204.6h-10.7c-1.1,0-2.1-0.9-2.1-2.1s0.9-2.1,2.1-2.1H243c1.1,0,2.1,0.9,2.1,2.1S244.1,204.6,243,204.6z"/>
<linearGradient id="SVGID_8_" gradientUnits="userSpaceOnUse" x1="184.0543" y1="232.8102" x2="198.8921" y2="232.8102">
	<stop  offset="0" style="stop-color:#7BA0B5"/>
	<stop  offset="1" style="stop-color:#40B7AB"/>
</linearGradient>
<path class="st8" d="M196.8,234.9h-10.7c-1.1,0-2.1-0.9-2.1-2.1s0.9-2.1,2.1-2.1h10.7c1.1,0,2.1,0.9,2.1,2.1S198,234.9,196.8,234.9z
	"/>
<linearGradient id="SVGID_9_" gradientUnits="userSpaceOnUse" x1="267.4011" y1="232.6297" x2="316.1814" y2="232.6297">
	<stop  offset="0" style="stop-color:#7BA0B5"/>
	<stop  offset="1" style="stop-color:#40B7AB"/>
</linearGradient>
<path class="st9" d="M314.1,234.7h-44.6c-1.1,0-2.1-0.9-2.1-2.1s0.9-2.1,2.1-2.1h44.6c1.1,0,2.1,0.9,2.1,2.1
	S315.3,234.7,314.1,234.7z"/>
<linearGradient id="SVGID_10_" gradientUnits="userSpaceOnUse" x1="171.0825" y1="279.2733" x2="245.5968" y2="279.2733">
	<stop  offset="0" style="stop-color:#BF0C6A"/>
	<stop  offset="1" style="stop-color:#EC6727"/>
</linearGradient>
<path class="st10" d="M243.5,281.3h-70.4c-1.1,0-2.1-0.9-2.1-2.1s0.9-2.1,2.1-2.1h70.4c1.1,0,2.1,0.9,2.1,2.1
	S244.7,281.3,243.5,281.3z"/>
<linearGradient id="SVGID_11_" gradientUnits="userSpaceOnUse" x1="257.7354" y1="279.2733" x2="270.359" y2="279.2733">
	<stop  offset="0" style="stop-color:#BF0C6A"/>
	<stop  offset="1" style="stop-color:#EC6727"/>
</linearGradient>
<path class="st11" d="M268.3,281.3h-8.5c-1.1,0-2.1-0.9-2.1-2.1s0.9-2.1,2.1-2.1h8.5c1.1,0,2.1,0.9,2.1,2.1S269.4,281.3,268.3,281.3
	z"/>
<linearGradient id="SVGID_12_" gradientUnits="userSpaceOnUse" x1="275.5474" y1="279.2733" x2="288.171" y2="279.2733">
	<stop  offset="0" style="stop-color:#7BA0B5"/>
	<stop  offset="1" style="stop-color:#40B7AB"/>
</linearGradient>
<path class="st12" d="M286.1,281.3h-8.5c-1.1,0-2.1-0.9-2.1-2.1s0.9-2.1,2.1-2.1h8.5c1.1,0,2.1,0.9,2.1,2.1S287.2,281.3,286.1,281.3
	z"/>
<linearGradient id="SVGID_13_" gradientUnits="userSpaceOnUse" x1="327.9526" y1="232.5168" x2="338.2934" y2="232.5168">
	<stop  offset="0" style="stop-color:#BF0C6A"/>
	<stop  offset="1" style="stop-color:#EC6727"/>
</linearGradient>
<path class="st13" d="M336.2,234.6H330c-1.1,0-2.1-0.9-2.1-2.1c0-1.1,0.9-2.1,2.1-2.1h6.2c1.1,0,2.1,0.9,2.1,2.1
	C338.3,233.7,337.4,234.6,336.2,234.6z"/>
<path class="st7" d="M356,234.6h-6.2c-1.1,0-2.1-0.9-2.1-2.1c0-1.1,0.9-2.1,2.1-2.1h6.2c1.1,0,2.1,0.9,2.1,2.1
	C358.1,233.7,357.1,234.6,356,234.6z"/>
<linearGradient id="SVGID_14_" gradientUnits="userSpaceOnUse" x1="205.8106" y1="232.8102" x2="220.6491" y2="232.8102">
	<stop  offset="0" style="stop-color:#7BA0B5"/>
	<stop  offset="1" style="stop-color:#40B7AB"/>
</linearGradient>
<path class="st14" d="M218.6,234.9h-10.7c-1.1,0-2.1-0.9-2.1-2.1s0.9-2.1,2.1-2.1h10.7c1.1,0,2.1,0.9,2.1,2.1
	S219.7,234.9,218.6,234.9z"/>
<linearGradient id="SVGID_15_" gradientUnits="userSpaceOnUse" x1="228.1826" y1="232.8102" x2="243.021" y2="232.8102">
	<stop  offset="0" style="stop-color:#CCCCCC"/>
	<stop  offset="1" style="stop-color:#9C9C9C"/>
</linearGradient>
<path class="st15" d="M240.9,234.9h-10.7c-1.1,0-2.1-0.9-2.1-2.1s0.9-2.1,2.1-2.1h10.7c1.1,0,2.1,0.9,2.1,2.1
	S242.1,234.9,240.9,234.9z"/>
<path class="st7" d="M184.1,293.9h-10.7c-1.1,0-2.1-0.9-2.1-2.1s0.9-2.1,2.1-2.1h10.7c1.1,0,2.1,0.9,2.1,2.1
	S185.2,293.9,184.1,293.9z"/>
<path class="st7" d="M205.8,293.9h-10.7c-1.1,0-2.1-0.9-2.1-2.1s0.9-2.1,2.1-2.1h10.7c1.1,0,2.1,0.9,2.1,2.1S207,293.9,205.8,293.9z
	"/>
<linearGradient id="SVGID_16_" gradientUnits="userSpaceOnUse" x1="215.4253" y1="291.7823" x2="230.2638" y2="291.7823">
	<stop  offset="0" style="stop-color:#CCCCCC"/>
	<stop  offset="1" style="stop-color:#9C9C9C"/>
</linearGradient>
<path class="st16" d="M228.2,293.9h-10.7c-1.1,0-2.1-0.9-2.1-2.1s0.9-2.1,2.1-2.1h10.7c1.1,0,2.1,0.9,2.1,2.1
	S229.3,293.9,228.2,293.9z"/>
<linearGradient id="SVGID_17_" gradientUnits="userSpaceOnUse" x1="250.9" y1="232.8102" x2="257.9737" y2="232.8102">
	<stop  offset="0" style="stop-color:#CCCCCC"/>
	<stop  offset="1" style="stop-color:#9C9C9C"/>
</linearGradient>
<path class="st17" d="M255.9,234.9H253c-1.1,0-2.1-0.9-2.1-2.1s0.9-2.1,2.1-2.1h2.9c1.1,0,2.1,0.9,2.1,2.1S257,234.9,255.9,234.9z"
	/>
<linearGradient id="SVGID_18_" gradientUnits="userSpaceOnUse" x1="171.7089" y1="303.8174" x2="178.7826" y2="303.8174">
	<stop  offset="0" style="stop-color:#7BA0B5"/>
	<stop  offset="1" style="stop-color:#40B7AB"/>
</linearGradient>
<path class="st18" d="M176.7,305.9h-2.9c-1.1,0-2.1-0.9-2.1-2.1s0.9-2.1,2.1-2.1h2.9c1.1,0,2.1,0.9,2.1,2.1S177.9,305.9,176.7,305.9
	z"/>
<linearGradient id="SVGID_19_" gradientUnits="userSpaceOnUse" x1="145.5325" y1="351.296" x2="185.5114" y2="351.296">
	<stop  offset="0" style="stop-color:#7BA0B5"/>
	<stop  offset="1" style="stop-color:#40B7AB"/>
</linearGradient>
<path class="st19" d="M183.4,353.4h-35.8c-1.1,0-2.1-0.9-2.1-2.1s0.9-2.1,2.1-2.1h35.8c1.1,0,2.1,0.9,2.1,2.1
	S184.6,353.4,183.4,353.4z"/>
<linearGradient id="SVGID_20_" gradientUnits="userSpaceOnUse" x1="236.3977" y1="384.9944" x2="253.3895" y2="384.9944">
	<stop  offset="0" style="stop-color:#7BA0B5"/>
	<stop  offset="1" style="stop-color:#40B7AB"/>
</linearGradient>
<path class="st20" d="M251.3,387.1h-12.8c-1.1,0-2.1-0.9-2.1-2.1s0.9-2.1,2.1-2.1h12.8c1.1,0,2.1,0.9,2.1,2.1
	S252.5,387.1,251.3,387.1z"/>
<linearGradient id="SVGID_21_" gradientUnits="userSpaceOnUse" x1="145.5325" y1="402.4453" x2="185.5114" y2="402.4453">
	<stop  offset="0" style="stop-color:#7BA0B5"/>
	<stop  offset="1" style="stop-color:#40B7AB"/>
</linearGradient>
<path class="st21" d="M183.4,404.5h-35.8c-1.1,0-2.1-0.9-2.1-2.1s0.9-2.1,2.1-2.1h35.8c1.1,0,2.1,0.9,2.1,2.1
	S184.6,404.5,183.4,404.5z"/>
<linearGradient id="SVGID_22_" gradientUnits="userSpaceOnUse" x1="184.8272" y1="303.8174" x2="200.435" y2="303.8174">
	<stop  offset="0" style="stop-color:#CCCCCC"/>
	<stop  offset="1" style="stop-color:#9C9C9C"/>
</linearGradient>
<path class="st22" d="M198.4,305.9h-11.5c-1.1,0-2.1-0.9-2.1-2.1s0.9-2.1,2.1-2.1h11.5c1.1,0,2.1,0.9,2.1,2.1
	S199.5,305.9,198.4,305.9z"/>
<linearGradient id="SVGID_23_" gradientUnits="userSpaceOnUse" x1="187.5953" y1="364.0532" x2="203.203" y2="364.0532">
	<stop  offset="0" style="stop-color:#BF0C6A"/>
	<stop  offset="1" style="stop-color:#EC6727"/>
</linearGradient>
<path class="st23" d="M201.1,366.1h-11.5c-1.1,0-2.1-0.9-2.1-2.1s0.9-2.1,2.1-2.1h11.5c1.1,0,2.1,0.9,2.1,2.1
	S202.3,366.1,201.1,366.1z"/>
<linearGradient id="SVGID_24_" gradientUnits="userSpaceOnUse" x1="187.5953" y1="398.7144" x2="203.203" y2="398.7144">
	<stop  offset="0" style="stop-color:#BF0C6A"/>
	<stop  offset="1" style="stop-color:#EC6727"/>
</linearGradient>
<path class="st24" d="M201.1,400.8h-11.5c-1.1,0-2.1-0.9-2.1-2.1s0.9-2.1,2.1-2.1h11.5c1.1,0,2.1,0.9,2.1,2.1
	S202.3,400.8,201.1,400.8z"/>
<linearGradient id="SVGID_25_" gradientUnits="userSpaceOnUse" x1="226.9953" y1="374.4787" x2="235.0359" y2="374.4787">
	<stop  offset="0" style="stop-color:#CCCCCC"/>
	<stop  offset="1" style="stop-color:#9C9C9C"/>
</linearGradient>
<path class="st25" d="M233,376.6h-3.9c-1.1,0-2.1-0.9-2.1-2.1c0-1.1,0.9-2.1,2.1-2.1h3.9c1.1,0,2.1,0.9,2.1,2.1
	C235,375.6,234.1,376.6,233,376.6z"/>
<linearGradient id="SVGID_26_" gradientUnits="userSpaceOnUse" x1="226.9953" y1="393.9756" x2="235.0359" y2="393.9756">
	<stop  offset="0" style="stop-color:#CCCCCC"/>
	<stop  offset="1" style="stop-color:#9C9C9C"/>
</linearGradient>
<path class="st26" d="M233,396.1h-3.9c-1.1,0-2.1-0.9-2.1-2.1s0.9-2.1,2.1-2.1h3.9c1.1,0,2.1,0.9,2.1,2.1S234.1,396.1,233,396.1z"/>
<linearGradient id="SVGID_27_" gradientUnits="userSpaceOnUse" x1="187.5953" y1="374.4034" x2="219.3301" y2="374.4034">
	<stop  offset="0" style="stop-color:#164676"/>
	<stop  offset="1" style="stop-color:#3C163C"/>
</linearGradient>
<path class="st27" d="M217.3,376.5h-27.6c-1.1,0-2.1-0.9-2.1-2.1s0.9-2.1,2.1-2.1h27.6c1.1,0,2.1,0.9,2.1,2.1
	S218.4,376.5,217.3,376.5z"/>
<linearGradient id="SVGID_28_" gradientUnits="userSpaceOnUse" x1="209.9204" y1="303.8174" x2="225.5282" y2="303.8174">
	<stop  offset="0" style="stop-color:#7BA0B5"/>
	<stop  offset="1" style="stop-color:#40B7AB"/>
</linearGradient>
<path class="st28" d="M223.5,305.9H212c-1.1,0-2.1-0.9-2.1-2.1s0.9-2.1,2.1-2.1h11.5c1.1,0,2.1,0.9,2.1,2.1S224.6,305.9,223.5,305.9
	z"/>
<linearGradient id="SVGID_29_" gradientUnits="userSpaceOnUse" x1="234.8933" y1="303.8174" x2="250.5011" y2="303.8174">
	<stop  offset="0" style="stop-color:#BF0C6A"/>
	<stop  offset="1" style="stop-color:#EC6727"/>
</linearGradient>
<path class="st29" d="M248.4,305.9H237c-1.1,0-2.1-0.9-2.1-2.1s0.9-2.1,2.1-2.1h11.5c1.1,0,2.1,0.9,2.1,2.1S249.6,305.9,248.4,305.9
	z"/>
<linearGradient id="SVGID_30_" gradientUnits="userSpaceOnUse" x1="161.5994" y1="257.3618" x2="168.6731" y2="257.3618">
	<stop  offset="0" style="stop-color:#CCCCCC"/>
	<stop  offset="1" style="stop-color:#9C9C9C"/>
</linearGradient>
<path class="st30" d="M166.6,259.4h-2.9c-1.1,0-2.1-0.9-2.1-2.1c0-1.1,0.9-2.1,2.1-2.1h2.9c1.1,0,2.1,0.9,2.1,2.1
	C168.7,258.5,167.7,259.4,166.6,259.4z"/>
<linearGradient id="SVGID_31_" gradientUnits="userSpaceOnUse" x1="161.5994" y1="313.5057" x2="168.6731" y2="313.5057">
	<stop  offset="0" style="stop-color:#CCCCCC"/>
	<stop  offset="1" style="stop-color:#9C9C9C"/>
</linearGradient>
<path class="st31" d="M166.6,315.6h-2.9c-1.1,0-2.1-0.9-2.1-2.1s0.9-2.1,2.1-2.1h2.9c1.1,0,2.1,0.9,2.1,2.1S167.7,315.6,166.6,315.6
	z"/>
<linearGradient id="SVGID_32_" gradientUnits="userSpaceOnUse" x1="144.4425" y1="178.0497" x2="195.3172" y2="178.0497">
	<stop  offset="0" style="stop-color:#164676"/>
	<stop  offset="1" style="stop-color:#3C163C"/>
</linearGradient>
<path class="st32" d="M193.2,180.1h-46.7c-1.1,0-2.1-0.9-2.1-2.1c0-1.1,0.9-2.1,2.1-2.1h46.7c1.1,0,2.1,0.9,2.1,2.1
	C195.3,179.2,194.4,180.1,193.2,180.1z"/>
<linearGradient id="SVGID_33_" gradientUnits="userSpaceOnUse" x1="205.34" y1="178.0497" x2="222.4886" y2="178.0497">
	<stop  offset="0" style="stop-color:#164676"/>
	<stop  offset="1" style="stop-color:#3C163C"/>
</linearGradient>
<path class="st33" d="M220.4,180.1h-13c-1.1,0-2.1-0.9-2.1-2.1c0-1.1,0.9-2.1,2.1-2.1h13c1.1,0,2.1,0.9,2.1,2.1
	C222.5,179.2,221.6,180.1,220.4,180.1z"/>
<linearGradient id="SVGID_34_" gradientUnits="userSpaceOnUse" x1="145.044" y1="326.3224" x2="162.1926" y2="326.3224">
	<stop  offset="0" style="stop-color:#164676"/>
	<stop  offset="1" style="stop-color:#3C163C"/>
</linearGradient>
<path class="st34" d="M160.1,328.4h-13c-1.1,0-2.1-0.9-2.1-2.1c0-1.1,0.9-2.1,2.1-2.1h13c1.1,0,2.1,0.9,2.1,2.1
	C162.2,327.5,161.3,328.4,160.1,328.4z"/>
<linearGradient id="SVGID_35_" gradientUnits="userSpaceOnUse" x1="232.2385" y1="178.0497" x2="261.1214" y2="178.0497">
	<stop  offset="0" style="stop-color:#164676"/>
	<stop  offset="1" style="stop-color:#3C163C"/>
</linearGradient>
<path class="st35" d="M259,180.1h-24.7c-1.1,0-2.1-0.9-2.1-2.1c0-1.1,0.9-2.1,2.1-2.1H259c1.1,0,2.1,0.9,2.1,2.1
	C261.1,179.2,260.2,180.1,259,180.1z"/>
<g>
	<path class="st36" d="M458.4,425.6H19.2V126.3c0-3.8,3.1-6.9,6.9-6.9h425.3c3.8,0,6.9,3.1,6.9,6.9V425.6z"/>
	<g>
		
			<image style="overflow:visible;opacity:0.35;" width="1976" height="1422" xlink:href="2D852ABE.png"  transform="matrix(0.24 0 0 0.24 1.849 101.9698)">
		</image>
		<g>
			<g>
				<linearGradient id="SVGID_36_" gradientUnits="userSpaceOnUse" x1="19.2604" y1="272.4795" x2="458.3934" y2="272.4795">
					<stop  offset="0" style="stop-color:#7BA0B5"/>
					<stop  offset="1" style="stop-color:#40B7AB"/>
				</linearGradient>
				<path class="st37" d="M458.4,425.6H19.3V126.3c0-3.8,3.1-6.9,6.9-6.9h425.3c3.8,0,6.9,3.1,6.9,6.9V425.6z"/>
				<path class="st38" d="M458.4,425.6H19.2V126.3c0-3.8,3.1-6.9,6.9-6.9h425.3c3.8,0,6.9,3.1,6.9,6.9V425.6z"/>
			</g>
		</g>
	</g>
	<g>
		<defs>
			<path id="SVGID_37_" d="M458.4,425.6H19.3V126.3c0-3.8,3.1-6.9,6.9-6.9h425.3c3.8,0,6.9,3.1,6.9,6.9V425.6z"/>
		</defs>
		<clipPath id="SVGID_38_">
			<use xlink:href="#SVGID_37_"  style="overflow:visible;"/>
		</clipPath>
		<g class="st39">
			
				<image style="overflow:visible;opacity:0.24;" width="1851" height="2004" xlink:href="2D852AB9.png"  transform="matrix(0.24 0 0 0.24 248.7757 251.6965)">
			</image>
			<g>
				<path class="st40" d="M417.6,586.1c-29.7,1.2-84.5-2.2-116.2-55S293.6,411.1,363,401c69.5-10.2,67.8-18.9,87.1-69.5
					s71.5-55.1,132.8-10.4S683.5,431.5,627.3,507s-64.3,39.9-88.5,134.8c-21.6,84.6-101.2,53.8-96.3-1.9
					C447.1,588.6,430.1,585.6,417.6,586.1z"/>
			</g>
		</g>
		<g class="st39">
			
				<image style="overflow:visible;opacity:0.24;" width="1840" height="2048" xlink:href="2D852AB8.png"  transform="matrix(0.24 0 0 0.24 256.144 212.5048)">
			</image>
			<g>
				<path class="st40" d="M450.5,570c-29.5,7.5-85.3,15.9-128.5-30.3S288.5,420.9,356,395.8c67.6-25.1,64-33.5,72.5-88.4
					c8.5-54.9,59.9-70.7,131.1-38.9s124.8,89.3,84.5,177.2c-40.2,87.9-56,53.9-60,154.3c-3.5,89.6-90.1,75.7-97.1,18.7
					C480.7,566.2,463,566.8,450.5,570z"/>
			</g>
		</g>
		<g class="st39">
			
				<image style="overflow:visible;opacity:0.24;" width="1990" height="2247" xlink:href="2D852AB7.png"  transform="matrix(0.24 0 0 0.24 251.5383 163.9792)">
			</image>
			<g>
				<path class="st40" d="M482.1,567.4c-31.5,12.9-91.9,30.7-146.8-13.7S280,427.5,350.8,389.3s65.7-46.9,66.6-108.9
					c1-62,55.4-87.4,139-63.2c83.5,24.1,151.7,79.6,120.7,182.9c-31,103.3-53.6,68.2-42.6,179.9c9.9,99.6-88,97.6-104.5,35.6
					C515,558.6,495.4,562,482.1,567.4z"/>
			</g>
		</g>
	</g>
	<g>
		
			<image style="overflow:visible;opacity:0.15;" width="1886" height="186" xlink:href="2D852AC6.png"  transform="matrix(0.24 0 0 0.24 12.6806 112.8015)">
		</image>
		<g>
			<linearGradient id="SVGID_39_" gradientUnits="userSpaceOnUse" x1="19.2641" y1="134.9388" x2="458.3971" y2="134.9388">
				<stop  offset="0" style="stop-color:#164676"/>
				<stop  offset="1" style="stop-color:#3C163C"/>
			</linearGradient>
			<path class="st41" d="M458.4,150.5H19.3v-24.3c0-3.8,3.1-6.9,6.9-6.9h425.3c3.8,0,6.9,3.1,6.9,6.9V150.5z"/>
		</g>
	</g>
	<linearGradient id="SVGID_40_" gradientUnits="userSpaceOnUse" x1="40.1367" y1="135.0584" x2="49.1316" y2="135.0584">
		<stop  offset="0" style="stop-color:#DEDEDE"/>
		<stop  offset="1" style="stop-color:#FFFFFF"/>
	</linearGradient>
	<circle class="st42" cx="44.6" cy="135.1" r="4.5"/>
	<linearGradient id="SVGID_41_" gradientUnits="userSpaceOnUse" x1="60.4328" y1="135.0584" x2="69.4276" y2="135.0584">
		<stop  offset="0" style="stop-color:#EC6727"/>
		<stop  offset="1" style="stop-color:#BF0C6A"/>
	</linearGradient>
	<circle class="st43" cx="64.9" cy="135.1" r="4.5"/>
	<linearGradient id="SVGID_42_" gradientUnits="userSpaceOnUse" x1="80.2676" y1="135.0584" x2="89.2624" y2="135.0584">
		<stop  offset="0" style="stop-color:#7BA0B5"/>
		<stop  offset="1" style="stop-color:#40B7AB"/>
	</linearGradient>
	<circle class="st44" cx="84.8" cy="135.1" r="4.5"/>
	<g class="st45">
		<defs>
			<path id="SVGID_43_" d="M136.7,425.6H19.2V126.3c0-3.8,3.1-6.9,6.9-6.9h110.5V425.6z"/>
		</defs>
		<clipPath id="SVGID_44_" class="st46">
			<use xlink:href="#SVGID_43_"  style="overflow:visible;"/>
		</clipPath>
		<rect x="50.6" y="150.5" class="st47" width="86" height="30.8"/>
		<rect x="50.6" y="181.1" class="st48" width="86" height="30.8"/>
		<rect x="50.6" y="211.4" class="st47" width="86" height="214.2"/>
	</g>
	<g>
		
			<image style="overflow:visible;opacity:0.2;" width="551" height="412" xlink:href="2D852AC9.png"  transform="matrix(0.24 0 0 0.24 34.2285 164.8293)">
		</image>
		<g>
			<linearGradient id="SVGID_45_" gradientUnits="userSpaceOnUse" x1="44.2037" y1="214.2904" x2="156.2993" y2="214.2904">
				<stop  offset="0" style="stop-color:#164676"/>
				<stop  offset="1" style="stop-color:#3C163C"/>
			</linearGradient>
			<rect x="44.2" y="174.9" class="st49" width="112.1" height="78.7"/>
		</g>
	</g>
	<g>
		<defs>
			<rect id="SVGID_46_" x="44.2" y="174.9" width="112.1" height="78.7"/>
		</defs>
		<clipPath id="SVGID_47_">
			<use xlink:href="#SVGID_46_"  style="overflow:visible;"/>
		</clipPath>
		<g class="st50">
			
				<image style="overflow:visible;opacity:0.24;" width="833" height="734" xlink:href="2D852AC8.png"  transform="matrix(0.24 0 0 0.24 59.1481 60.8689)">
			</image>
			<g>
				<path class="st40" d="M209.7,149.9c5.2,11.6,12.7,33.8-3.1,54.8s-46.2,22.3-61.4-3.6s-18.3-23.8-41.4-23.3S70.5,158.4,78.3,127
					s27.6-57.5,66.4-47.4s26.1,19,67.5,13.4c37-5,37.5,31.4,14.7,38.4C206,137.8,207.5,145,209.7,149.9z"/>
			</g>
		</g>
		<g class="st50">
			
				<image style="overflow:visible;opacity:0.24;" width="853" height="768" xlink:href="2D852ACF.png"  transform="matrix(0.24 0 0 0.24 55.0681 64.9489)">
			</image>
			<g>
				<path class="st40" d="M203.4,169.3c2.9,12.3,5.9,35.6-13.7,53.2s-49.7,12.9-59.5-15.4s-13.4-26.9-36.1-30.9
					c-22.8-4-28.9-25.5-15.1-54.8s38.2-51.1,74.4-33.6s21.9,23.7,63.6,26.2c37.2,2.2,30.7,38.1,7,40.5
					C202,156.7,202.1,164.1,203.4,169.3z"/>
			</g>
		</g>
		<g class="st50">
			
				<image style="overflow:visible;opacity:0.24;" width="856" height="789" xlink:href="2D852ACE.png"  transform="matrix(0.24 0 0 0.24 50.0281 68.0689)">
			</image>
			<g>
				<path class="st40" d="M193.5,184.3c0.8,12.7-0.2,36.1-22.4,50.1s-51.1,4.4-56.1-25.2s-8.7-28.8-30.4-36.5
					c-21.8-7.8-24.2-30-5.7-56.6s46.2-44,79-20.7s17.6,27.1,58.3,36.6c36.3,8.4,23.9,42.7,0,41.1C194.3,171.7,193.2,179,193.5,184.3
					z"/>
			</g>
		</g>
	</g>
	<g>
		
			<image style="overflow:visible;opacity:0.2;" width="1182" height="747" xlink:href="943F2D57.png"  transform="matrix(0.24 0 0 0.24 164.7983 155.2392)">
		</image>
		<g>
			<linearGradient id="SVGID_48_" gradientUnits="userSpaceOnUse" x1="184.3233" y1="244.8033" x2="428.7951" y2="244.8033">
				<stop  offset="0" style="stop-color:#4D3933"/>
				<stop  offset="1" style="stop-color:#3C163C"/>
			</linearGradient>
			<rect x="184.3" y="174.9" class="st51" width="244.5" height="139.8"/>
		</g>
	</g>
	<g>
		
			<image style="overflow:visible;opacity:0.2;" width="1124" height="348" xlink:href="943F2D53.png"  transform="matrix(0.24 0 0 0.24 171.7482 325.149)">
		</image>
		<g>
			<linearGradient id="SVGID_49_" gradientUnits="userSpaceOnUse" x1="184.3233" y1="366.8549" x2="428.7951" y2="366.8549">
				<stop  offset="0" style="stop-color:#164676"/>
				<stop  offset="1" style="stop-color:#3C163C"/>
			</linearGradient>
			<rect x="184.3" y="337.9" class="st52" width="244.5" height="57.9"/>
		</g>
	</g>
	<g>
		
			<image style="overflow:visible;opacity:0.2;" width="565" height="627" xlink:href="943F2D4E.png"  transform="matrix(0.24 0 0 0.24 32.5601 257.9609)">
		</image>
		<g>
			<linearGradient id="SVGID_50_" gradientUnits="userSpaceOnUse" x1="44.2037" y1="333.1155" x2="156.2993" y2="333.1155">
				<stop  offset="0" style="stop-color:#164676"/>
				<stop  offset="1" style="stop-color:#3C163C"/>
			</linearGradient>
			<rect x="44.2" y="269.7" class="st53" width="112.1" height="126.8"/>
		</g>
	</g>
	<g>
		<defs>
			<rect id="SVGID_51_" x="184.3" y="174.9" width="244.5" height="139.8"/>
		</defs>
		<clipPath id="SVGID_52_">
			<use xlink:href="#SVGID_51_"  style="overflow:visible;"/>
		</clipPath>
		<g class="st54">
			
				<image style="overflow:visible;opacity:0.2;" width="1310" height="724" xlink:href="943F2D4F.png"  transform="matrix(0.24 0 0 0.24 171.3206 135.1215)">
			</image>
			<g>
				<linearGradient id="SVGID_53_" gradientUnits="userSpaceOnUse" x1="178.012" y1="214.655" x2="478.9885" y2="214.655">
					<stop  offset="0" style="stop-color:#EC6727"/>
					<stop  offset="1" style="stop-color:#BF0C6A"/>
				</linearGradient>
				<path class="st55" d="M183.3,294.9l-5.2-2.4c0.7-1.5,17.2-37,35.9-39.7c5.9-0.9,11.3,1.5,16.1,6.9c5.7,6.5,9.9,9.7,12.9,9.7
					c0,0,0.1,0,0.1,0c3.2-0.1,6.3-4,10.6-9.5c2.6-3.3,5.6-7.1,9.4-11c1.7-1.8,3.4-3.6,5.3-5.6c10.2-11,21.9-23.5,37.8-23.1
					c13.7,0.4,28.5,10.3,45.3,30.3c11.1,13.3,22.8,17.6,36,13.4c23.1-7.5,44.9-39.8,59.1-65.5c16.4-29.6,26.5-57.3,26.8-60.7
					c-0.1,0.8,0.7,2.4,2.5,2.6l0.6-5.8c1.4,0.1,2.4,1.2,2.7,2.6c0.7,4.2-11.5,34.5-25,59.6c-14,26.2-35.8,59.7-59.9,70.8
					c-17.3,8-33.2,3.5-47.2-13.2c-15.6-18.7-29-27.9-41-28.2c-0.2,0-0.4,0-0.6,0c-13.1,0-23.1,10.8-32.8,21.3
					c-1.8,1.9-3.6,3.8-5.3,5.7c-3.6,3.7-6.5,7.3-9,10.6c-5.1,6.4-9.1,11.5-15,11.7c-5,0.1-10.3-3.4-17.5-11.7c-3.4-3.9-7-5.6-10.9-5
					C201.8,260.4,187.6,285.4,183.3,294.9z"/>
			</g>
		</g>
		<g class="st54">
			
				<image style="overflow:visible;opacity:0.2;" width="1372" height="529" xlink:href="943F2D6F.png"  transform="matrix(0.24 0 0 0.24 167.7206 201.1215)">
			</image>
			<g>
				<linearGradient id="SVGID_54_" gradientUnits="userSpaceOnUse" x1="174.4135" y1="257.267" x2="490.2636" y2="257.267">
					<stop  offset="0" style="stop-color:#7BA0B5"/>
					<stop  offset="1" style="stop-color:#40B7AB"/>
				</linearGradient>
				<path class="st56" d="M177.1,314.1l-1.8-5.5c-0.5,0.2-0.8,0.5-0.9,0.5c0.1-0.1,0.5-0.5,0.8-0.9c20.6-22.4,46.3-29.6,72.4-20.3
					c26.9,9.6,38.4-3.6,49.6-16.4c6-6.9,11.7-13.4,19.6-16.4c7.5-2.8,14.6-1.5,22.2-0.1c15.8,3,32.1,6,56.1-27.7
					c10.7-15.1,24.1-23.9,39.6-26.3c28.7-4.5,54.5,14.6,55.6,15.4l-3.5,4.6c-0.2-0.2-25-18.4-51.3-14.3c-13.9,2.2-26,10.2-35.7,24
					c-26.1,36.7-45.9,33-61.9,30c-7.1-1.3-13.2-2.5-19.1-0.2c-6.5,2.5-11.7,8.5-17.3,14.8c-8.7,9.9-18.9,21.7-37,21.7
					c-5.5,0-11.7-1.1-18.9-3.6c-24.1-8.7-47-2.2-66.2,18.7C178.3,313.4,177.9,313.8,177.1,314.1z"/>
			</g>
		</g>
	</g>
	<g>
		<defs>
			<rect id="SVGID_55_" x="184.3" y="337.9" width="244.5" height="57.9"/>
		</defs>
		<clipPath id="SVGID_56_">
			<use xlink:href="#SVGID_55_"  style="overflow:visible;"/>
		</clipPath>
		<g class="st57">
			
				<image style="overflow:visible;opacity:0.2;" width="1155" height="273" xlink:href="943F2D75.png"  transform="matrix(0.24 0 0 0.24 170.6006 346.3215)">
			</image>
			<g>
				<linearGradient id="SVGID_57_" gradientUnits="userSpaceOnUse" x1="177.1329" y1="379.0394" x2="440.9633" y2="379.0394">
					<stop  offset="0" style="stop-color:#EC6727"/>
					<stop  offset="1" style="stop-color:#BF0C6A"/>
				</linearGradient>
				<path class="st58" d="M177.1,396.9c4.6-7.2,9-20.1,15.5-8.1s7.6,5,9.2,2c1.7-2.9,6.5-23.6,9.6-16.8c3.1,6.8,5.2,5.9,9-0.2
					c3.9-6.1,7.4-15.7,13.1-2.6c5.7,13.1,6.8,15.7,9.2,10.7c2.4-5,5.9-30.8,10.1-21.2c4.2,9.6,5.7,27.1,12,22.7
					c6.3-4.4,7.2-6.8,12.5-2.6c5.3,4.2,11.1,2.8,14.9-0.7c3.9-3.5,5-7,7-11.4c2-4.4,4.1-17,10.7-8.8c6.6,8.1,8.1,19.9,15.3,23.2
					c7.2,3.3,14.6,4.4,17.3-2.6c2.8-7,9.4-22.7,14-16c4.6,6.6,4.2,11.2,6.1,5.9c1.8-5.3,2.8-4.2,5-1.1c2.2,3.1,4.2-2.2,5.3-5
					c1.1-2.8,2.8,4.4,4.2,5.2c1.5,0.7,4.2-4.8,5.9-7.9c1.7-3.1,2.2,1.3,5,5c2.8,3.7,7.4-1.3,10.3,3.5c2.9,4.8,12-3.3,16.6-10.1
					s8.5-8.3,11.4-5.3c2.9,2.9,9.8,10.7,9.8,10.7L441,405L177.1,396.9z"/>
			</g>
		</g>
		<g class="st57">
			
				<image style="overflow:visible;opacity:0.2;" width="1128" height="209" xlink:href="943F2D77.png"  transform="matrix(0.24 0 0 0.24 178.2806 364.3215)">
			</image>
			<g>
				<linearGradient id="SVGID_58_" gradientUnits="userSpaceOnUse" x1="184.9378" y1="389.2821" x2="442.2539" y2="389.2821">
					<stop  offset="0" style="stop-color:#CCCCCC"/>
					<stop  offset="1" style="stop-color:#FFFFFF"/>
				</linearGradient>
				<path class="st59" d="M184.9,407.7c0,0,6-10.8,7.7-8c1.7,2.8,0.7,6,3.6,5.7c2.8-0.4,3.3-2.8,5.5-5.5c2.2-2.7,6.6-3.3,8.2-5.7
					s5.7-1.5,8.5-6.1c2.8-4.7,7.6-1,8.4,3.6s3.2,3.9,3.6,0.9c0.4-3.1,0.6-7.7,2.3-4.3s4.1,5.8,5.8,7.9c1.7,2.1,2.9,4.4,5.2,0.7
					c2.2-3.7,4.7-1.8,7.9-0.7s5.9,1.1,8,0.5s3.1-3.2,4.5-5.3c1.5-2.1,3.6-6.1,5.3-6c1.3,0,1.2,0.5,1.6,5.2c0.5,5.1,8.4,0,10.8-2.2
					c2.5-2.2,5-5,6.6-2.3c1.6,2.7,4.9,4.2,8.6,4.3c3.7,0.1,7.5,1.8,10.4-2.9c2.9-4.8,2.1-15.7,6.4-16.3c1.5-0.2,3.7,3.5,4.9,9.3
					c0.6,2.8,4.8,8.3,7.7,9.2s1.6-3.3,3.7-3.4c1.2-0.1,0.6,2.7,2.2,3.5c1.6,0.8,12.4,0.3,13.6-1.6c1.2-1.9,0.6-6.2,3-6.3
					c2.3-0.1,1.5,6.2,2.5,7.1c1.5,1.4,5.3,5.3,13.1,4.4c2.8-0.3,3.9-2.6,7.2-2.8c3.3-0.2,11.8,1.6,15.5-4.2c1.1-1.8,5.3-4.2,8.1-2.9
					c1.9,0.9,10.5,3.2,12.9-0.7c2.4-3.9,3.4-2.8,4.4,0.1c1,2.9,3.4,3.7,4.3,3.7c3.7-0.1,4.2-3.7,5.8-3c1.7,0.7,2.9,2.3,3.9,2.6
					c1,0.3,4.9,0.5,4.9,0.5l10.6,15.7l-229.5,5.3L184.9,407.7z"/>
			</g>
		</g>
	</g>
</g>
<linearGradient id="SVGID_59_" gradientUnits="userSpaceOnUse" x1="55.0506" y1="215.2891" x2="111.9589" y2="215.2891">
	<stop  offset="0" style="stop-color:#FFFFFF"/>
	<stop  offset="1" style="stop-color:#CCCCCC"/>
</linearGradient>
<circle class="st60" cx="83.5" cy="215.3" r="28.5"/>
<linearGradient id="SVGID_60_" gradientUnits="userSpaceOnUse" x1="57.9391" y1="215.2891" x2="109.0704" y2="215.2891">
	<stop  offset="0" style="stop-color:#CCCCCC"/>
	<stop  offset="1" style="stop-color:#FFFFFF"/>
</linearGradient>
<circle class="st61" cx="83.5" cy="215.3" r="25.6"/>
<g>
	
		<image style="overflow:visible;opacity:0.2;" width="231" height="231" xlink:href="943F2D74.png"  transform="matrix(0.24 0 0 0.24 55.8806 187.6815)">
	</image>
	<g>
		<linearGradient id="SVGID_61_" gradientUnits="userSpaceOnUse" x1="62.4254" y1="215.2891" x2="104.5841" y2="215.2891">
			<stop  offset="0" style="stop-color:#164676"/>
			<stop  offset="1" style="stop-color:#3C163C"/>
		</linearGradient>
		<circle class="st62" cx="83.5" cy="215.3" r="21.1"/>
	</g>
</g>
<linearGradient id="SVGID_62_" gradientUnits="userSpaceOnUse" x1="62.4254" y1="215.2891" x2="83.5047" y2="215.2891">
	<stop  offset="0" style="stop-color:#164676"/>
	<stop  offset="1" style="stop-color:#3C163C"/>
</linearGradient>
<path class="st63" d="M83.5,236.4c-11.6,0-21.1-9.4-21.1-21.1s9.4-21.1,21.1-21.1"/>
<g>
	
		<image style="overflow:visible;opacity:0.2;" width="143" height="231" xlink:href="943F2D7C.png"  transform="matrix(0.24 0 0 0.24 77.0006 187.6815)">
	</image>
	<g>
		<linearGradient id="SVGID_63_" gradientUnits="userSpaceOnUse" x1="83.5047" y1="215.2891" x2="104.5841" y2="215.2891">
			<stop  offset="0" style="stop-color:#EC6727"/>
			<stop  offset="0.516" style="stop-color:#BF0C6A"/>
		</linearGradient>
		<path class="st64" d="M83.5,194.2c11.6,0,21.1,9.4,21.1,21.1s-9.4,21.1-21.1,21.1"/>
	</g>
</g>
<linearGradient id="SVGID_64_" gradientUnits="userSpaceOnUse" x1="879.491" y1="5162.0615" x2="921.6498" y2="5162.0615" gradientTransform="matrix(0.7071 0.7071 -0.7071 0.7071 3104.2866 -4079.0918)">
	<stop  offset="0" style="stop-color:#164676"/>
	<stop  offset="1" style="stop-color:#3C163C"/>
</linearGradient>
<path class="st65" d="M68.6,200.4c8.2-8.2,21.6-8.2,29.8,0s8.2,21.6,0,29.8"/>
<g>
	
		<image style="overflow:visible;opacity:0.2;" width="119" height="143" xlink:href="943F2D7D.png"  transform="matrix(0.24 0 0 0.24 61.8806 187.6815)">
	</image>
	<g>
		<linearGradient id="SVGID_65_" gradientUnits="userSpaceOnUse" x1="68.5992" y1="204.7494" x2="83.5047" y2="204.7494">
			<stop  offset="0" style="stop-color:#7BA0B5"/>
			<stop  offset="1" style="stop-color:#40B7AB"/>
		</linearGradient>
		<path class="st66" d="M83.5,194.2c-5.8,0-11.1,2.4-14.9,6.2l14.9,14.9V194.2z"/>
	</g>
</g>
<linearGradient id="SVGID_66_" gradientUnits="userSpaceOnUse" x1="59.5745" y1="292.1456" x2="98.9759" y2="292.1456">
	<stop  offset="0" style="stop-color:#CCCCCC"/>
	<stop  offset="1" style="stop-color:#FFFFFF"/>
</linearGradient>
<path class="st67" d="M96.9,294.2H61.7c-1.1,0-2.1-0.9-2.1-2.1c0-1.1,0.9-2.1,2.1-2.1h35.2c1.1,0,2.1,0.9,2.1,2.1
	C99,293.3,98,294.2,96.9,294.2z"/>
<linearGradient id="SVGID_67_" gradientUnits="userSpaceOnUse" x1="59.5745" y1="306.5986" x2="137.8766" y2="306.5986">
	<stop  offset="0" style="stop-color:#CCCCCC"/>
	<stop  offset="1" style="stop-color:#FFFFFF"/>
</linearGradient>
<path class="st68" d="M135.8,308.7H61.7c-1.1,0-2.1-0.9-2.1-2.1s0.9-2.1,2.1-2.1h74.2c1.1,0,2.1,0.9,2.1,2.1
	S136.9,308.7,135.8,308.7z"/>
<linearGradient id="SVGID_68_" gradientUnits="userSpaceOnUse" x1="105.8176" y1="292.1456" x2="120.6561" y2="292.1456">
	<stop  offset="0" style="stop-color:#CCCCCC"/>
	<stop  offset="1" style="stop-color:#FFFFFF"/>
</linearGradient>
<path class="st69" d="M118.6,294.2h-10.7c-1.1,0-2.1-0.9-2.1-2.1c0-1.1,0.9-2.1,2.1-2.1h10.7c1.1,0,2.1,0.9,2.1,2.1
	C120.7,293.3,119.7,294.2,118.6,294.2z"/>
<linearGradient id="SVGID_69_" gradientUnits="userSpaceOnUse" x1="59.6521" y1="322.4744" x2="74.4898" y2="322.4744">
	<stop  offset="0" style="stop-color:#CCCCCC"/>
	<stop  offset="1" style="stop-color:#FFFFFF"/>
</linearGradient>
<path class="st70" d="M72.4,324.6H61.7c-1.1,0-2.1-0.9-2.1-2.1s0.9-2.1,2.1-2.1h10.7c1.1,0,2.1,0.9,2.1,2.1S73.6,324.6,72.4,324.6z"
	/>
<linearGradient id="SVGID_70_" gradientUnits="userSpaceOnUse" x1="81.4084" y1="322.4744" x2="96.2469" y2="322.4744">
	<stop  offset="0" style="stop-color:#CCCCCC"/>
	<stop  offset="1" style="stop-color:#FFFFFF"/>
</linearGradient>
<path class="st71" d="M94.2,324.6H83.5c-1.1,0-2.1-0.9-2.1-2.1s0.9-2.1,2.1-2.1h10.7c1.1,0,2.1,0.9,2.1,2.1S95.3,324.6,94.2,324.6z"
	/>
<linearGradient id="SVGID_71_" gradientUnits="userSpaceOnUse" x1="103.7803" y1="322.4744" x2="118.6188" y2="322.4744">
	<stop  offset="0" style="stop-color:#CCCCCC"/>
	<stop  offset="1" style="stop-color:#FFFFFF"/>
</linearGradient>
<path class="st72" d="M116.5,324.6h-10.7c-1.1,0-2.1-0.9-2.1-2.1s0.9-2.1,2.1-2.1h10.7c1.1,0,2.1,0.9,2.1,2.1
	S117.7,324.6,116.5,324.6z"/>
<linearGradient id="SVGID_72_" gradientUnits="userSpaceOnUse" x1="59.5706" y1="352.7746" x2="134.0849" y2="352.7746">
	<stop  offset="0" style="stop-color:#7BA0B5"/>
	<stop  offset="1" style="stop-color:#40B7AB"/>
</linearGradient>
<path class="st73" d="M132,354.9H61.6c-1.1,0-2.1-0.9-2.1-2.1c0-1.1,0.9-2.1,2.1-2.1H132c1.1,0,2.1,0.9,2.1,2.1
	C134.1,353.9,133.2,354.9,132,354.9z"/>
<linearGradient id="SVGID_73_" gradientUnits="userSpaceOnUse" x1="59.7852" y1="365.2836" x2="74.623" y2="365.2836">
	<stop  offset="0" style="stop-color:#7BA0B5"/>
	<stop  offset="1" style="stop-color:#40B7AB"/>
</linearGradient>
<path class="st74" d="M72.5,367.4H61.9c-1.1,0-2.1-0.9-2.1-2.1s0.9-2.1,2.1-2.1h10.7c1.1,0,2.1,0.9,2.1,2.1S73.7,367.4,72.5,367.4z"
	/>
<linearGradient id="SVGID_74_" gradientUnits="userSpaceOnUse" x1="81.5415" y1="365.2836" x2="96.38" y2="365.2836">
	<stop  offset="0" style="stop-color:#7BA0B5"/>
	<stop  offset="1" style="stop-color:#40B7AB"/>
</linearGradient>
<path class="st75" d="M94.3,367.4H83.6c-1.1,0-2.1-0.9-2.1-2.1s0.9-2.1,2.1-2.1h10.7c1.1,0,2.1,0.9,2.1,2.1S95.5,367.4,94.3,367.4z"
	/>
<linearGradient id="SVGID_75_" gradientUnits="userSpaceOnUse" x1="103.9135" y1="365.2836" x2="118.7519" y2="365.2836">
	<stop  offset="0" style="stop-color:#7BA0B5"/>
	<stop  offset="1" style="stop-color:#40B7AB"/>
</linearGradient>
<path class="st76" d="M116.7,367.4H106c-1.1,0-2.1-0.9-2.1-2.1s0.9-2.1,2.1-2.1h10.7c1.1,0,2.1,0.9,2.1,2.1S117.8,367.4,116.7,367.4
	z"/>
<linearGradient id="SVGID_76_" gradientUnits="userSpaceOnUse" x1="60.1971" y1="377.3188" x2="67.2708" y2="377.3188">
	<stop  offset="0" style="stop-color:#7BA0B5"/>
	<stop  offset="1" style="stop-color:#40B7AB"/>
</linearGradient>
<path class="st77" d="M65.2,379.4h-2.9c-1.1,0-2.1-0.9-2.1-2.1s0.9-2.1,2.1-2.1h2.9c1.1,0,2.1,0.9,2.1,2.1S66.3,379.4,65.2,379.4z"
	/>
<linearGradient id="SVGID_77_" gradientUnits="userSpaceOnUse" x1="73.3153" y1="377.3188" x2="88.9231" y2="377.3188">
	<stop  offset="0" style="stop-color:#7BA0B5"/>
	<stop  offset="1" style="stop-color:#40B7AB"/>
</linearGradient>
<path class="st78" d="M86.8,379.4H75.4c-1.1,0-2.1-0.9-2.1-2.1s0.9-2.1,2.1-2.1h11.5c1.1,0,2.1,0.9,2.1,2.1S88,379.4,86.8,379.4z"/>
<linearGradient id="SVGID_78_" gradientUnits="userSpaceOnUse" x1="98.4086" y1="377.3188" x2="114.0164" y2="377.3188">
	<stop  offset="0" style="stop-color:#7BA0B5"/>
	<stop  offset="1" style="stop-color:#40B7AB"/>
</linearGradient>
<path class="st79" d="M111.9,379.4h-11.5c-1.1,0-2.1-0.9-2.1-2.1s0.9-2.1,2.1-2.1h11.5c1.1,0,2.1,0.9,2.1,2.1
	S113.1,379.4,111.9,379.4z"/>
<linearGradient id="SVGID_79_" gradientUnits="userSpaceOnUse" x1="123.3815" y1="377.3188" x2="138.9892" y2="377.3188">
	<stop  offset="0" style="stop-color:#7BA0B5"/>
	<stop  offset="1" style="stop-color:#40B7AB"/>
</linearGradient>
<path class="st80" d="M136.9,379.4h-11.5c-1.1,0-2.1-0.9-2.1-2.1s0.9-2.1,2.1-2.1h11.5c1.1,0,2.1,0.9,2.1,2.1
	S138.1,379.4,136.9,379.4z"/>
<linearGradient id="SVGID_80_" gradientUnits="userSpaceOnUse" x1="437.8256" y1="95.4808" x2="513.1139" y2="95.4808">
	<stop  offset="0" style="stop-color:#EC6727"/>
	<stop  offset="0.115" style="stop-color:#E15442"/>
	<stop  offset="0.2342" style="stop-color:#D74250"/>
	<stop  offset="0.36" style="stop-color:#D03459"/>
	<stop  offset="0.4924" style="stop-color:#CA275F"/>
	<stop  offset="0.6344" style="stop-color:#C61A62"/>
	<stop  offset="0.7926" style="stop-color:#C41064"/>
	<stop  offset="1" style="stop-color:#C30B64"/>
</linearGradient>
<circle class="st81" cx="475.5" cy="95.5" r="37.6"/>
<linearGradient id="SVGID_81_" gradientUnits="userSpaceOnUse" x1="444.4641" y1="95.4808" x2="506.4754" y2="95.4808">
	<stop  offset="0" style="stop-color:#EC6727"/>
	<stop  offset="0.115" style="stop-color:#E15442"/>
	<stop  offset="0.2342" style="stop-color:#D74250"/>
	<stop  offset="0.36" style="stop-color:#D03459"/>
	<stop  offset="0.4924" style="stop-color:#CA275F"/>
	<stop  offset="0.6344" style="stop-color:#C61A62"/>
	<stop  offset="0.7926" style="stop-color:#C41064"/>
	<stop  offset="1" style="stop-color:#C30B64"/>
</linearGradient>
<circle class="st82" cx="475.5" cy="95.5" r="31"/>
<linearGradient id="SVGID_82_" gradientUnits="userSpaceOnUse" x1="440.8983" y1="95.4808" x2="510.0411" y2="95.4808">
	<stop  offset="0" style="stop-color:#EC6727"/>
	<stop  offset="0.115" style="stop-color:#E15442"/>
	<stop  offset="0.2342" style="stop-color:#D74250"/>
	<stop  offset="0.36" style="stop-color:#D03459"/>
	<stop  offset="0.4924" style="stop-color:#CA275F"/>
	<stop  offset="0.6344" style="stop-color:#C61A62"/>
	<stop  offset="0.7926" style="stop-color:#C41064"/>
	<stop  offset="1" style="stop-color:#C30B64"/>
</linearGradient>
<circle class="st83" cx="475.5" cy="95.5" r="34.6"/>
<linearGradient id="SVGID_83_" gradientUnits="userSpaceOnUse" x1="448.5189" y1="95.4808" x2="502.4206" y2="95.4808">
	<stop  offset="0" style="stop-color:#EC6727"/>
	<stop  offset="0.115" style="stop-color:#E15442"/>
	<stop  offset="0.2342" style="stop-color:#D74250"/>
	<stop  offset="0.36" style="stop-color:#D03459"/>
	<stop  offset="0.4924" style="stop-color:#CA275F"/>
	<stop  offset="0.6344" style="stop-color:#C61A62"/>
	<stop  offset="0.7926" style="stop-color:#C41064"/>
	<stop  offset="1" style="stop-color:#C30B64"/>
</linearGradient>
<circle class="st84" cx="475.5" cy="95.5" r="27"/>
<g>
	
		<image style="overflow:visible;opacity:0.3;" width="481" height="558" xlink:href="943F2D94.png"  transform="matrix(0.24 0 0 0.24 420.9016 276.2225)">
	</image>
	<g>
		<g>
			
				<linearGradient id="SVGID_84_" gradientUnits="userSpaceOnUse" x1="13083.7783" y1="4462.7642" x2="13187.4209" y2="4462.7642" gradientTransform="matrix(-0.879 0.121 0.121 -0.879 11489.2451 2660.7583)">
				<stop  offset="0" style="stop-color:#EC6727"/>
				<stop  offset="1" style="stop-color:#BF0C6A"/>
			</linearGradient>
			<path class="st85" d="M516.9,367.4c-1.6,0-3.1-0.6-4.3-1.8L444.9,298c-2.4-2.4-2.4-6.3,0-8.7c2.4-2.4,6.3-2.4,8.7,0l67.7,67.7
				c2.4,2.4,2.4,6.3,0,8.7C520.1,366.8,518.5,367.4,516.9,367.4z"/>
			
				<linearGradient id="SVGID_85_" gradientUnits="userSpaceOnUse" x1="13098.8389" y1="4488.647" x2="13144.8711" y2="4488.647" gradientTransform="matrix(-0.879 0.121 0.121 -0.879 11489.2451 2660.7583)">
				<stop  offset="0" style="stop-color:#EC6727"/>
				<stop  offset="1" style="stop-color:#BF0C6A"/>
			</linearGradient>
			<path class="st86" d="M510.3,321.2c-1.6,0-3.1-0.6-4.3-1.8l-24-24c-2.4-2.4-2.4-6.3,0-8.7c2.4-2.4,6.3-2.4,8.7,0l24,24
				c2.4,2.4,2.4,6.3,0,8.7C513.5,320.6,511.9,321.2,510.3,321.2z"/>
			
				<linearGradient id="SVGID_86_" gradientUnits="userSpaceOnUse" x1="13146.7002" y1="4454.8022" x2="13192.7324" y2="4454.8022" gradientTransform="matrix(-0.879 0.121 0.121 -0.879 11489.2451 2660.7583)">
				<stop  offset="0" style="stop-color:#EC6727"/>
				<stop  offset="1" style="stop-color:#BF0C6A"/>
			</linearGradient>
			<path class="st87" d="M464.2,356.7c-1.6,0-3.1-0.6-4.3-1.8l-24-24c-2.4-2.4-2.4-6.3,0-8.7c2.4-2.4,6.3-2.4,8.7,0l24,24
				c2.4,2.4,2.4,6.3,0,8.7C467.3,356.1,465.7,356.7,464.2,356.7z"/>
			
				<linearGradient id="SVGID_87_" gradientUnits="userSpaceOnUse" x1="13099.3447" y1="4394.4761" x2="13119.4346" y2="4394.4761" gradientTransform="matrix(-0.879 0.121 0.121 -0.879 11489.2451 2660.7583)">
				<stop  offset="0" style="stop-color:#EC6727"/>
				<stop  offset="1" style="stop-color:#BF0C6A"/>
			</linearGradient>
			<path class="st88" d="M500.1,392.6c-1.6,0-3.1-0.6-4.3-1.8l-4.3-4.3c-2.4-2.4-2.4-6.3,0-8.7c2.4-2.4,6.3-2.4,8.7,0l4.3,4.3
				c2.4,2.4,2.4,6.3,0,8.7C503.2,392,501.6,392.6,500.1,392.6z"/>
			
				<linearGradient id="SVGID_88_" gradientUnits="userSpaceOnUse" x1="13118.458" y1="4410.9897" x2="13133.3486" y2="4410.9897" gradientTransform="matrix(-0.879 0.121 0.121 -0.879 11489.2451 2660.7583)">
				<stop  offset="0" style="stop-color:#EC6727"/>
				<stop  offset="1" style="stop-color:#BF0C6A"/>
			</linearGradient>
			<path class="st89" d="M485.6,378.1c-1.6,0-3.1-0.6-4.3-1.8l-0.4-0.4c-2.4-2.4-2.4-6.3,0-8.7c2.4-2.4,6.3-2.4,8.7,0l0.4,0.4
				c2.4,2.4,2.4,6.3,0,8.7C488.7,377.5,487.1,378.1,485.6,378.1z"/>
		</g>
	</g>
</g>
</svg>
