<?xml version="1.0" encoding="utf-8"?>
<!-- Generator: Adobe Illustrator 23.0.3, SVG Export Plug-In . SVG Version: 6.00 Build 0)  -->
<svg version="1.1" id="Calque_1" xmlns="http://www.w3.org/2000/svg" xmlns:xlink="http://www.w3.org/1999/xlink" x="0px" y="0px"
	 viewBox="0 0 1095 984" style="enable-background:new 0 0 1095 984;" xml:space="preserve">
<style type="text/css">
	.st0{fill:#FFFFFF;}
	.st1{opacity:3.000000e-02;}
	.st2{fill:url(#SVGID_1_);}
	.st3{fill:#F2F2F2;}
	.st4{fill:url(#SVGID_2_);}
	.st5{fill:url(#SVGID_3_);}
	.st6{clip-path:url(#SVGID_5_);}
	.st7{opacity:0.14;}
	.st8{fill:#00DDC7;}
	.st9{fill:url(#SVGID_6_);}
	.st10{fill:#A2C3CA;}
	.st11{fill:url(#SVGID_7_);}
	.st12{fill:#00BCB4;}
	.st13{fill:url(#SVGID_8_);}
	.st14{clip-path:url(#SVGID_10_);}
	.st15{opacity:0.22;}
	.st16{fill:#FDB98D;}
	.st17{opacity:0.44;fill:none;stroke:#3D113C;stroke-width:9;stroke-miterlimit:10;enable-background:new    ;}
	.st18{fill:url(#SVGID_11_);}
	.st19{fill:none;stroke:#3D113C;stroke-width:2.62;stroke-miterlimit:10;}
	.st20{fill:#3D113C;}
	.st21{fill:url(#SVGID_12_);}
	.st22{fill:url(#SVGID_13_);}
	.st23{fill:url(#SVGID_14_);}
	.st24{fill:url(#SVGID_15_);}
	.st25{fill:url(#SVGID_16_);}
	.st26{clip-path:url(#SVGID_18_);}
	.st27{fill:url(#SVGID_19_);}
	.st28{fill:url(#SVGID_20_);}
	.st29{clip-path:url(#SVGID_22_);}
	.st30{fill:url(#SVGID_23_);}
	.st31{fill:url(#SVGID_24_);}
	.st32{opacity:0.11;fill:#FFFFFF;enable-background:new    ;}
	.st33{fill:url(#SVGID_25_);}
	.st34{fill:url(#SVGID_26_);}
	.st35{fill:url(#SVGID_27_);}
	.st36{fill:url(#SVGID_28_);}
	.st37{fill:url(#SVGID_29_);}
	.st38{clip-path:url(#SVGID_31_);}
	.st39{fill:#FFB699;}
	.st40{fill:url(#SVGID_32_);}
	.st41{fill:url(#SVGID_33_);}
	.st42{fill:#198D8E;}
	.st43{fill:url(#SVGID_34_);}
	.st44{fill:url(#SVGID_35_);}
	.st45{fill:none;stroke:#FFFFFF;stroke-width:0.48;stroke-linecap:round;stroke-miterlimit:10;}
	.st46{fill:url(#SVGID_36_);}
	.st47{fill:none;stroke:#3D3937;stroke-width:0.75;stroke-miterlimit:10;}
	.st48{fill:url(#SVGID_37_);}
	.st49{fill:#3D3937;}
	.st50{fill:url(#SVGID_38_);}
	.st51{clip-path:url(#SVGID_40_);}
	.st52{fill:url(#SVGID_41_);}
	.st53{fill:url(#SVGID_42_);}
	.st54{fill:url(#SVGID_43_);}
	.st55{fill:url(#SVGID_44_);}
	.st56{fill:url(#SVGID_45_);}
	.st57{fill:url(#SVGID_46_);}
	.st58{fill:none;stroke:url(#SVGID_47_);stroke-width:0.39;stroke-miterlimit:10;}
	.st59{fill:none;stroke:url(#SVGID_48_);stroke-width:0.81;stroke-miterlimit:10;}
	.st60{fill:none;stroke:url(#SVGID_49_);stroke-width:0.81;stroke-miterlimit:10;}
	.st61{fill:url(#SVGID_50_);}
	.st62{clip-path:url(#SVGID_52_);}
	.st63{fill:url(#SVGID_53_);}
	.st64{fill:url(#SVGID_54_);}
	.st65{fill:url(#SVGID_55_);}
	.st66{fill:none;stroke:url(#SVGID_56_);stroke-width:0.39;stroke-miterlimit:10;}
	.st67{fill:none;stroke:url(#SVGID_57_);stroke-width:0.81;stroke-miterlimit:10;}
	.st68{fill:none;stroke:url(#SVGID_58_);stroke-width:0.81;stroke-miterlimit:10;}
	.st69{fill:url(#SVGID_59_);}
	.st70{fill:url(#SVGID_60_);}
	.st71{fill:url(#SVGID_61_);}
	.st72{clip-path:url(#SVGID_63_);}
	.st73{fill:url(#SVGID_64_);}
	.st74{fill:url(#SVGID_65_);}
	.st75{fill:url(#SVGID_66_);}
	.st76{clip-path:url(#SVGID_68_);}
	.st77{fill:url(#SVGID_69_);}
	.st78{fill:url(#SVGID_70_);}
	.st79{fill:url(#SVGID_71_);}
	.st80{fill:url(#SVGID_72_);}
	.st81{opacity:6.000000e-02;fill:#FFFFFF;enable-background:new    ;}
	.st82{fill:url(#SVGID_73_);}
	.st83{fill:url(#SVGID_74_);}
	.st84{fill:none;stroke:url(#SVGID_75_);stroke-width:2.44;stroke-miterlimit:10;}
	.st85{fill:none;stroke:url(#SVGID_76_);stroke-width:2.44;stroke-miterlimit:10;}
	.st86{fill:none;stroke:url(#SVGID_77_);stroke-miterlimit:10;}
	.st87{fill:url(#SVGID_78_);}
	.st88{fill:url(#SVGID_79_);}
	.st89{fill:url(#SVGID_80_);}
	.st90{fill:none;stroke:#00BCB4;stroke-width:1.83;stroke-miterlimit:10;}
	.st91{fill:none;stroke:url(#SVGID_81_);stroke-width:2.44;stroke-miterlimit:10;}
	.st92{fill:none;stroke:url(#SVGID_82_);stroke-width:2.44;stroke-miterlimit:10;}
	.st93{fill:none;stroke:url(#SVGID_83_);stroke-width:1.22;stroke-miterlimit:10;}
	.st94{fill:url(#SVGID_84_);}
	.st95{fill:url(#SVGID_85_);}
	.st96{fill:url(#SVGID_86_);}
	.st97{opacity:0.34;fill:url(#SVGID_87_);enable-background:new    ;}
</style>
<title>illustration_header</title>
<g>
	
		<image style="overflow:visible;opacity:0.15;" width="891" height="670" xlink:href="8E103106.png"  transform="matrix(1 0 0 1 0 292)">
	</image>
	<g>
		<g>
			<g>
				<path class="st0" d="M45.4,327h790l0,0v580l0,0h-790c-5.5,0-10-4.5-10-10V337C35.4,331.5,39.9,327,45.4,327z"/>
			</g>
		</g>
	</g>
</g>
<g class="st1">
	<path d="M103.4,327v580h-50c-5.5,0-10-4.5-10-10V337c0-5.5,4.5-10,10-10H103.4z"/>
</g>
<linearGradient id="SVGID_1_" gradientUnits="userSpaceOnUse" x1="75.4041" y1="-414.4603" x2="72.2141" y2="43.5198" gradientTransform="matrix(1 0 0 1 -8 748.72)">
	<stop  offset="0" style="stop-color:#4D3933"/>
	<stop  offset="1" style="stop-color:#3D113C"/>
</linearGradient>
<path class="st2" d="M95.4,327v580h-50c-5.5,0-10-4.5-10-10V337c0-5.5,4.5-10,10-10H95.4z"/>
<g>
	
		<image style="overflow:visible;opacity:5.000000e-02;" width="316" height="63" xlink:href="8E103104.png"  transform="matrix(1 0 0 1 488 604)">
	</image>
	<g>
		<rect x="492.9" y="608.4" class="st3" width="302.4" height="50.1"/>
	</g>
</g>
<g>
	
		<image style="overflow:visible;opacity:5.000000e-02;" width="316" height="63" xlink:href="8E10310C.png"  transform="matrix(1 0 0 1 488 672)">
	</image>
	<g>
		<rect x="492.9" y="676.5" class="st3" width="302.4" height="50.1"/>
	</g>
</g>
<linearGradient id="SVGID_2_" gradientUnits="userSpaceOnUse" x1="492.9" y1="-42.45" x2="741.8" y2="-42.45" gradientTransform="matrix(1 0 0 1 0 744)">
	<stop  offset="0" style="stop-color:#7A9FB4"/>
	<stop  offset="1" style="stop-color:#00BCB4"/>
</linearGradient>
<polygon class="st4" points="741.8,715.8 730.7,676.5 709.4,676.5 492.9,676.5 492.9,726.6 723.7,726.6 720.6,715.8 "/>
<g>
	
		<image style="overflow:visible;opacity:5.000000e-02;" width="316" height="63" xlink:href="8E10310D.png"  transform="matrix(1 0 0 1 488 738)">
	</image>
	<g>
		<rect x="492.9" y="742.7" class="st3" width="302.4" height="50.1"/>
	</g>
</g>
<g>
	
		<image style="overflow:visible;opacity:5.000000e-02;" width="316" height="63" xlink:href="8E10310A.png"  transform="matrix(1 0 0 1 488 810)">
	</image>
	<g>
		<rect x="492.9" y="814.3" class="st3" width="302.4" height="50.1"/>
	</g>
</g>
<g>
	
		<image style="overflow:visible;opacity:0.1;" width="321" height="130" xlink:href="8E10310B.png"  transform="matrix(1 0 0 1 139 754)">
	</image>
	<g>
		
			<linearGradient id="SVGID_3_" gradientUnits="userSpaceOnUse" x1="143.4" y1="70.25" x2="446" y2="70.25" gradientTransform="matrix(1 0 0 1 0 744)">
			<stop  offset="0" style="stop-color:#7A9FB4"/>
			<stop  offset="1" style="stop-color:#00BCB4"/>
		</linearGradient>
		<rect x="143.4" y="758.5" class="st5" width="302.6" height="111.5"/>
	</g>
</g>
<g>
	<g>
		<g>
			<g>
				<defs>
					<rect id="SVGID_4_" x="143.4" y="758.5" width="302.6" height="111.5"/>
				</defs>
				<clipPath id="SVGID_5_">
					<use xlink:href="#SVGID_4_"  style="overflow:visible;"/>
				</clipPath>
				<g class="st6">
					<g class="st7">
						<path class="st8" d="M111.8,997C86.2,970.2,44,916.2,67.2,842.8S173.1,736.5,240,793.1s73.7,47.9,136.9,24.1
							s110.6,21.4,119.4,115.6c8.8,94.3-20.2,185.4-137.3,195.2s-90.5-27.2-199.2,28.5c-97.1,49.7-133.9-50.4-77.7-91.7
							C133.8,1026.8,122.6,1008.4,111.8,997z"/>
					</g>
					<g class="st7">
						<path class="st8" d="M102.9,944.3c-21.7-30-56-89.3-23-158.9s119.4-90.8,177.9-25.6s66.4,57.5,132.3,42.6
							s106.6,36.3,102.5,130.9s-45.4,180.9-162.6,174.6s-85.9-39.3-201.2,1c-102.9,36-125.8-68.2-64.4-101.5
							C120.7,976.8,112.1,957,102.9,944.3z"/>
					</g>
				</g>
			</g>
		</g>
	</g>
</g>
<linearGradient id="SVGID_6_" gradientUnits="userSpaceOnUse" x1="-2524.6699" y1="-67.19" x2="-2477.21" y2="-67.19" gradientTransform="matrix(-1 0 0 -1 -2297 746.81)">
	<stop  offset="0" style="stop-color:#7A9FB4"/>
	<stop  offset="1" style="stop-color:#00C9B4"/>
</linearGradient>
<circle class="st9" cx="203.9" cy="814" r="23.7"/>
<path class="st0" d="M252.6,809.1h69.5c0.9,0,1.6,0.7,1.6,1.6v6.7c0,0.9-0.7,1.6-1.6,1.6h-69.5c-0.9,0-1.6-0.7-1.6-1.6v-6.7
	C251,809.8,251.7,809.1,252.6,809.1z"/>
<path class="st0" d="M252.6,790.3h147.1c0.9,0,1.6,0.7,1.6,1.6v7.3c0,0.9-0.7,1.6-1.6,1.6H252.6c-0.9,0-1.6-0.7-1.6-1.6v-7.3
	C251,791,251.7,790.3,252.6,790.3z"/>
<path class="st0" d="M252.6,828.1h122.5c0.9,0,1.6,0.7,1.6,1.6v6.5c0,0.9-0.7,1.6-1.6,1.6H252.6c-0.9,0-1.6-0.7-1.6-1.6v-6.5
	C251,828.8,251.7,828.1,252.6,828.1z"/>
<ellipse transform="matrix(9.968685e-02 -0.995 0.995 9.968685e-02 -307.582 396.6326)" class="st0" cx="65.4" cy="368.3" rx="9.8" ry="9.8"/>
<ellipse transform="matrix(9.968685e-02 -0.995 0.995 9.968685e-02 -348.8744 433.9927)" class="st10" cx="65.4" cy="409.8" rx="9.8" ry="9.8"/>
<linearGradient id="SVGID_7_" gradientUnits="userSpaceOnUse" x1="55.69" y1="-292.7" x2="75.19" y2="-292.7" gradientTransform="matrix(1 0 0 1 0 744)">
	<stop  offset="0" style="stop-color:#FC8581"/>
	<stop  offset="1" style="stop-color:#FC6719"/>
</linearGradient>
<circle class="st11" cx="65.4" cy="451.3" r="9.8"/>
<ellipse transform="matrix(9.968685e-02 -0.995 0.995 9.968685e-02 -431.4593 508.713)" class="st12" cx="65.4" cy="492.8" rx="9.8" ry="9.8"/>
<g>
	
		<image style="overflow:visible;opacity:5.000000e-02;" width="316" height="210" xlink:href="8E103118.png"  transform="matrix(1 0 0 1 488 370)">
	</image>
	<g>
		
			<linearGradient id="SVGID_8_" gradientUnits="userSpaceOnUse" x1="530.1531" y1="-336.6255" x2="792.813" y2="-186.4055" gradientTransform="matrix(1 0 0 1 0 744)">
			<stop  offset="0" style="stop-color:#FC8581"/>
			<stop  offset="1" style="stop-color:#FC6719"/>
		</linearGradient>
		<rect x="492.9" y="374" class="st13" width="302.6" height="197.2"/>
	</g>
</g>
<g>
	<g>
		<g>
			<g>
				<defs>
					<rect id="SVGID_9_" x="492.9" y="374" width="302.6" height="197.2"/>
				</defs>
				<clipPath id="SVGID_10_">
					<use xlink:href="#SVGID_9_"  style="overflow:visible;"/>
				</clipPath>
				<g class="st14">
					<g class="st15">
						<path class="st16" d="M868.3,494c-5.9,32.2-22.6,90.5-87.1,112s-131.1-20.4-125.4-97.7s-4.1-77.6-53.9-110.4
							s-42.3-90.2,20.6-145.5s143.1-82,210.9-3.4s27.6,78.8,124,127.6c86,43.5,33.6,122-25.2,103.3
							C878.1,462.7,870.7,480.3,868.3,494z"/>
					</g>
				</g>
			</g>
		</g>
	</g>
</g>
<line class="st17" x1="520.3" y1="635" x2="646.2" y2="635"/>
<linearGradient id="SVGID_11_" gradientUnits="userSpaceOnUse" x1="-2177.6001" y1="-400.58" x2="-2154.6001" y2="-400.58" gradientTransform="matrix(-1 0 0 -1 -1627.3301 80.22)">
	<stop  offset="0" style="stop-color:#BF0269"/>
	<stop  offset="1" style="stop-color:#FC6719"/>
</linearGradient>
<circle class="st18" cx="538.8" cy="480.8" r="11.5"/>
<path class="st0" d="M528.3,510.2h31.1c0.6,0,1.1,0.5,1.1,1.1v7.8c0,0.6-0.5,1.1-1.1,1.1h-31.1c-0.6,0-1.1-0.5-1.1-1.1v-7.8
	C527.3,510.7,527.7,510.2,528.3,510.2z"/>
<path class="st0" d="M528.3,529.2h55.3c0.6,0,1.1,0.5,1.1,1.1v7.5c0,0.6-0.5,1.1-1.1,1.1h-55.3c-0.6,0-1.1-0.5-1.1-1.1v-7.5
	C527.3,529.7,527.7,529.2,528.3,529.2z"/>
<line class="st19" x1="327.4" y1="174.1" x2="327.4" y2="0"/>
<path class="st20" d="M240.3,290.6L240.3,290.6c-0.4-0.7-0.2-1.6,0.5-2l0,0l89.6-54.7c0.4-0.3,1-0.3,1.4-0.1l0.6,0.3l-90,57
	C241.7,291.5,240.8,291.3,240.3,290.6C240.4,290.6,240.4,290.6,240.3,290.6z"/>
<linearGradient id="SVGID_12_" gradientUnits="userSpaceOnUse" x1="322.9326" y1="-517.7079" x2="347.9626" y2="-519.288" gradientTransform="matrix(1 0 0 1 -8 748.72)">
	<stop  offset="0" style="stop-color:#C4C2C1"/>
	<stop  offset="1" style="stop-color:#9D9B9A"/>
</linearGradient>
<path class="st21" d="M322.2,220.9c-5.7,3.2-7.7,10.4-4.5,16s10.4,7.7,16,4.5c3.6-2.1,5.9-5.9,6-10.1c-1.5,3.4-5.5,5-8.9,3.6
	c-3.4-1.5-5-5.5-3.6-8.9c0.9-2.2,2.9-3.7,5.3-4v-3.4l-10.1-0.8l-0.2,0.2L322.2,220.9z"/>
<linearGradient id="SVGID_13_" gradientUnits="userSpaceOnUse" x1="325.2" y1="-534.2167" x2="345.9" y2="-534.2167" gradientTransform="matrix(1 0 0 1 -8 748.72)">
	<stop  offset="0" style="stop-color:#174575"/>
	<stop  offset="1" style="stop-color:#3D113C"/>
</linearGradient>
<path class="st22" d="M337.9,209.5c-0.2,5.7-5,10.2-10.7,10c-5.5-0.2-9.9-4.6-10-10"/>
<linearGradient id="SVGID_14_" gradientUnits="userSpaceOnUse" x1="325.2" y1="-574.4232" x2="345.9" y2="-574.4232" gradientTransform="matrix(1 0 0 1 -8 748.72)">
	<stop  offset="0" style="stop-color:#174575"/>
	<stop  offset="1" style="stop-color:#3D113C"/>
</linearGradient>
<path class="st23" d="M317.2,179.3c0.2-5.7,5-10.2,10.7-10c5.5,0.2,9.9,4.6,10,10"/>
<linearGradient id="SVGID_15_" gradientUnits="userSpaceOnUse" x1="311.9" y1="-549.25" x2="342.8" y2="-549.25" gradientTransform="matrix(1 0 0 1 0 744)">
	<stop  offset="0" style="stop-color:#FC8581"/>
	<stop  offset="1" style="stop-color:#FC6719"/>
</linearGradient>
<path class="st24" d="M314.9,179.3h24.9c1.7,0,3,1.3,3,3v24.9c0,1.7-1.3,3-3,3h-24.9c-1.7,0-3-1.3-3-3v-24.9
	C311.9,180.7,313.2,179.3,314.9,179.3z"/>
<path class="st20" d="M427.1,284.7l-94.4-48.9l-1.8-1l-1-0.8l0,0c0.7-0.4,1.6-0.5,2.4-0.1l96.2,48.1L427.1,284.7z"/>
<g>
	
		<image style="overflow:visible;opacity:0.15;" width="368" height="185" xlink:href="8E103119.png"  transform="matrix(1 0 0 1 162 258)">
	</image>
	<g>
		
			<linearGradient id="SVGID_16_" gradientUnits="userSpaceOnUse" x1="190.2969" y1="-408.5771" x2="497.2969" y2="-408.5771" gradientTransform="matrix(1 0 0 1 -7.9969 748.7272)">
			<stop  offset="0" style="stop-color:#174575"/>
			<stop  offset="1" style="stop-color:#3D113C"/>
		</linearGradient>
		<polygon class="st25" points="182.3,290.7 484.6,278.2 489.3,389.6 186.9,402.1 		"/>
	</g>
</g>
<g>
	<g>
		<g>
			<g>
				<defs>
					
						<rect id="SVGID_17_" x="184.5" y="284.5" transform="matrix(0.9991 -4.135795e-02 4.135795e-02 0.9991 -13.7841 14.1785)" width="302.6" height="111.5"/>
				</defs>
				<clipPath id="SVGID_18_">
					<use xlink:href="#SVGID_17_"  style="overflow:visible;"/>
				</clipPath>
				<g class="st26">
					<g class="st7">
						<path class="st8" d="M160.6,530.3c-26.7-25.7-71-78-50.9-152.3s101.4-110.6,170.6-56.8s75.6,44.8,137.8,18.5
							s111.4,16.8,124.1,110.6S529.6,636.5,413.1,651s-91.5-23.4-197.9,36.7c-94.9,53.7-135.9-44.8-81.4-88.4
							C183.8,559.2,171.9,541.3,160.6,530.3z"/>
					</g>
					<g class="st7">
						<path class="st8" d="M149.5,478c-22.9-29.1-59.7-87-29.6-157.8s115.6-95.7,176.7-32.9s68.8,54.7,134,37.1
							s108,31.9,107.8,126.5S500.5,633.5,383.1,632s-87.5-35.7-201,9.3c-101.4,40.2-128.5-63-68.6-98.7
							C168.7,509.7,159.3,490.3,149.5,478z"/>
					</g>
				</g>
			</g>
		</g>
	</g>
</g>
<linearGradient id="SVGID_19_" gradientUnits="userSpaceOnUse" x1="221.4" y1="-400.3" x2="268.86" y2="-400.3" gradientTransform="matrix(1 0 0 1 0 744)">
	<stop  offset="0" style="stop-color:#174575"/>
	<stop  offset="1" style="stop-color:#3D113C"/>
</linearGradient>
<circle class="st27" cx="245.1" cy="343.7" r="23.7"/>
<path class="st0" d="M293.5,336.7l69.4-2.9c0.9,0,1.6,0.6,1.6,1.5l0.3,6.7c0,0.9-0.6,1.6-1.5,1.6l-69.4,2.9c-0.9,0-1.6-0.6-1.6-1.5
	l-0.3-6.7C292,337.5,292.7,336.8,293.5,336.7z"/>
<path class="st0" d="M292.8,318l147-6.1c0.9,0,1.6,0.6,1.6,1.5l0.3,7.3c0,0.9-0.6,1.6-1.5,1.6l-147,6.1c-0.9,0-1.6-0.6-1.6-1.5
	l-0.3-7.3C291.2,318.7,291.9,318,292.8,318z"/>
<path class="st0" d="M294.3,355.7l122.4-5.1c0.9,0,1.6,0.6,1.6,1.5l0.3,6.5c0,0.9-0.6,1.6-1.5,1.6l-122.4,5.1
	c-0.9,0-1.6-0.6-1.6-1.5l-0.3-6.5C292.8,356.5,293.5,355.7,294.3,355.7z"/>
<g id="perso_assis">
	
		<linearGradient id="SVGID_20_" gradientUnits="userSpaceOnUse" x1="687.155" y1="-481.1776" x2="747.58" y2="-481.1776" gradientTransform="matrix(1 0 0 1 -8 748.72)">
		<stop  offset="0" style="stop-color:#7A9FB4"/>
		<stop  offset="1" style="stop-color:#00C9B4"/>
	</linearGradient>
	<path class="st28" d="M730.3,304.5c0,0,9.3-4.9,9.3-14.9s-7.7-23.5-7.7-23.5s-3.2-9.2-12.6-9.2s-8.2,0.7-9.1-2.2
		c-0.6-1.8-0.8-3.6-0.7-5.4c0,0,3.1-2.3,3.1-10.1c1.1-0.1,2-0.8,2.4-1.8c0.5-1.5,0.2-3-0.6-3s-0.7,0.4-0.7,0.4V233
		c0,0,0.9-0.2,0.9-3.1s-2.2-6.5-4.4-7.6s-19.5-5.7-27.8,14.8c-7.1,17.4,1.2,18.8,1.1,24.6c-0.1,4.8-4.4,3.5-4.1,11.3
		c0.1,1.9,0.8,3.8,1.9,5.3c0,0-7.1,15.4,5.3,26.1l16.8,6.6l16,3L730.3,304.5z"/>
	<g>
		<g>
			<g>
				<g>
					<defs>
						<path id="SVGID_21_" d="M730.3,304.5c0,0,9.3-4.9,9.3-14.9s-7.7-23.5-7.7-23.5s-3.2-9.2-12.6-9.2s-8.2,0.7-9.1-2.2
							c-0.6-1.8-0.8-3.6-0.7-5.4c0,0,3.1-2.3,3.1-10.1c1.1-0.1,2-0.8,2.4-1.8c0.5-1.5,0.2-3-0.6-3s-0.7,0.4-0.7,0.4V233
							c0,0,0.9-0.2,0.9-3.1s-2.2-6.5-4.4-7.6s-19.5-5.7-27.8,14.8c-7.1,17.4,1.2,18.8,1.1,24.6c-0.1,4.8-4.4,3.5-4.1,11.3
							c0.1,1.9,0.8,3.8,1.9,5.3c0,0-7.4,16.4,5,27l17.3,5.4l4.9,1.9L730.3,304.5z"/>
					</defs>
					<clipPath id="SVGID_22_">
						<use xlink:href="#SVGID_21_"  style="overflow:visible;"/>
					</clipPath>
					<g class="st29">
						
							<linearGradient id="SVGID_23_" gradientUnits="userSpaceOnUse" x1="703.26" y1="-492.7146" x2="723.05" y2="-492.7146" gradientTransform="matrix(1 0 0 1 -8 748.72)">
							<stop  offset="0" style="stop-color:#FFD3A8"/>
							<stop  offset="1" style="stop-color:#FFB699"/>
						</linearGradient>
						<path class="st30" d="M699.2,264c1.6,1.1,3.4,1.7,5.4,1.6c3.6,0,6.8-1.5,9.4-9.4s-0.3-7.4-0.3-7.4l-4.9-2.4l-11,1.4l-2.4,5.7
							L699.2,264z"/>
						
							<linearGradient id="SVGID_24_" gradientUnits="userSpaceOnUse" x1="700.3" y1="-509.57" x2="727.9399" y2="-509.57" gradientTransform="matrix(1 0 0 1 -8 748.72)">
							<stop  offset="0" style="stop-color:#FFD3A8"/>
							<stop  offset="1" style="stop-color:#FFB699"/>
						</linearGradient>
						<path class="st31" d="M709.4,249.1c0,0-2.9,2.5-5.8,2.5c-2.5-0.1-5-0.5-7.4-1l-3.9-12.8l12.7-8.5l6.1-2.6l0.9,0.8l6.6,1.9
							l1.2,11.3L709.4,249.1z"/>
						<path class="st32" d="M709.4,249.1c0,0-2.9,2.5-5.8,2.5c-2.5-0.1-5-0.5-7.4-1l-3.9-12.8l12.7-8.5l6.1-2.6l0.9,0.8l6.6,1.9
							l1.2,11.3L709.4,249.1z"/>
						
							<linearGradient id="SVGID_25_" gradientUnits="userSpaceOnUse" x1="730.5724" y1="-455.7064" x2="748.6923" y2="-456.2264" gradientTransform="matrix(1 0 0 1 -8 748.72)">
							<stop  offset="0" style="stop-color:#FFD3A8"/>
							<stop  offset="1" style="stop-color:#FFB699"/>
						</linearGradient>
						<path class="st33" d="M725.7,282.3l11-5.7l9.1,0.9l-5.3,26l-10.2,5.3l-6.1-9l5.9-7C730,292.7,727.5,285.1,725.7,282.3z"/>
						
							<linearGradient id="SVGID_26_" gradientUnits="userSpaceOnUse" x1="678.66" y1="-449.55" x2="688.19" y2="-449.55" gradientTransform="matrix(1 0 0 1 0 744)">
							<stop  offset="0" style="stop-color:#FFD3A8"/>
							<stop  offset="1" style="stop-color:#FFB699"/>
						</linearGradient>
						<polygon class="st34" points="678.4,282 686.3,285.8 694.1,295.7 690.2,306.9 682.5,305.2 675.8,284.3 						"/>
						
							<linearGradient id="SVGID_27_" gradientUnits="userSpaceOnUse" x1="687.39" y1="-490.97" x2="724.2" y2="-490.97" gradientTransform="matrix(1 0 0 1 -8 748.72)">
							<stop  offset="0" style="stop-color:#4D3933"/>
							<stop  offset="1" style="stop-color:#3D113C"/>
						</linearGradient>
						<path class="st35" d="M713.6,234.2l-1.5,1.7c-0.5-1.8-0.8-3.7-0.7-5.6c0,0-4.7,10.6-16.7,9.6c0.9,3.4,2.5,6.6,4.6,9.5
							c3.4,4.5,6.7,8.1,4.2,13.5s-4.5,6.3-4.3,9.5s2.6,6.1,2.4,8.8s-1.7,5.7-5.2,9.5c-2.6,3-4.9,6.1-7.1,9.4c0,0-5.8-1.5-5.8-6.5
							s1.5-4.9,1.5-7.8c0.1-2.9-1.3-5.6-3.7-7.2c-2.6-1.8-5.7-3.8-5.7-3.8l5-14.9l-7.1-12l5.9-17.6l13.5-14.9l16,0.6l7.3,6.8
							l4.2,10.5L713.6,234.2z"/>
						
							<linearGradient id="SVGID_28_" gradientUnits="userSpaceOnUse" x1="689" y1="-442.9" x2="730.25" y2="-442.9" gradientTransform="matrix(1 0 0 1 0 744)">
							<stop  offset="0" style="stop-color:#FFFFFF"/>
							<stop  offset="1" style="stop-color:#EDEDED"/>
						</linearGradient>
						<rect x="689" y="287.7" class="st36" width="41.3" height="26.8"/>
					</g>
				</g>
			</g>
		</g>
	</g>
	
		<linearGradient id="SVGID_29_" gradientUnits="userSpaceOnUse" x1="664.9703" y1="-432.7596" x2="767.7" y2="-432.7596" gradientTransform="matrix(1 0 0 1 -8 748.72)">
		<stop  offset="0" style="stop-color:#174575"/>
		<stop  offset="1" style="stop-color:#3D113C"/>
	</linearGradient>
	<path class="st37" d="M657.5,305.7c0,0,0.2-6.4,13.5-4.1s36.4,10.3,37.4,11.1c0,0,22.2-10.6,38.5-11.4c0,0,10.8-1.2,12.5,4.4
		s-4.1,12.3-27.2,16.8c0,0,0.5,0.6,4.5,0.7c0,0,10.2-1.3,11.7-1.5s4.8-0.7,6.7-0.2s4.6,2.1,4.6,5.3s-3.5,3.8-6.3,4
		s-9.6-1.2-16.7-1.5s-9.8-0.5-9.8-0.5l-16.7-2c-1.1-0.1-2.1-0.1-3.2,0c0,0-11,1.6-12,1.6c0,0-11.7,0.2-14,0.5s-11.5,2-16,1.9
		s-7.6-1-8-4.3s3.3-5.5,7.5-5.2s12,1.8,21.5,1.6c0,0-15.3-4.1-19.7-6.5S655.7,311.2,657.5,305.7z"/>
	<g>
		<g>
			<g>
				<g>
					<defs>
						<path id="SVGID_30_" d="M657.5,305.7c0,0,0.2-6.4,13.5-4.1s36.4,10.3,37.4,11.1c0,0,22.2-10.6,38.5-11.4
							c0,0,10.8-1.2,12.5,4.4s-4.1,12.3-27.2,16.8c0,0,0.5,0.6,4.5,0.7c0,0,10.2-1.3,11.7-1.5s4.8-0.7,6.7-0.2s4.6,2.1,4.6,5.3
							s-3.5,3.8-6.3,4s-9.6-1.2-16.7-1.5s-9.8-0.5-9.8-0.5l-16.7-2c-1.1-0.1-2.1-0.1-3.2,0c0,0-11,1.6-12,1.6c0,0-11.7,0.2-14,0.5
							s-11.5,2-16,1.9s-7.6-1-8-4.3s3.3-5.5,7.5-5.2s12,1.8,21.5,1.6c0,0-15.3-4.1-19.7-6.5S655.7,311.2,657.5,305.7z"/>
					</defs>
					<clipPath id="SVGID_31_">
						<use xlink:href="#SVGID_30_"  style="overflow:visible;"/>
					</clipPath>
					<g class="st38">
						<path class="st39" d="M681.1,330c0,0-3-2.5-1.1-7.1l9.1,0.2l1.3,0.4l0.8,6.2L681.1,330z"/>
						<path class="st39" d="M736.6,322.5c0,0,2.7,2.7,0.3,7.1l-10.3-0.3l1.2-7.1c0,0,6.9,0.9,8.7,0.9S736.6,322.5,736.6,322.5z"/>
						
							<linearGradient id="SVGID_32_" gradientUnits="userSpaceOnUse" x1="767.8755" y1="-428.1334" x2="765.8254" y2="-414.0518" gradientTransform="matrix(1 0 0 1 -8 748.72)">
							<stop  offset="0" style="stop-color:#B79FB4"/>
							<stop  offset="1" style="stop-color:#00C9B4"/>
						</linearGradient>
						<path class="st40" d="M754.2,319.7v14.4l9.6-0.6l-1.4-11.3L754.2,319.7z"/>
						
							<linearGradient id="SVGID_33_" gradientUnits="userSpaceOnUse" x1="658.5354" y1="-423.2899" x2="658.5954" y2="-412.8099" gradientTransform="matrix(1 0 0 1 0 744)">
							<stop  offset="0" style="stop-color:#B79FB4"/>
							<stop  offset="1" style="stop-color:#00C9B4"/>
						</linearGradient>
						<polygon class="st41" points="654.5,321.1 662.2,319.2 662.7,333.1 654.5,330.9 						"/>
					</g>
				</g>
			</g>
		</g>
	</g>
	<path class="st42" d="M653.9,319.9"/>
	
		<linearGradient id="SVGID_34_" gradientUnits="userSpaceOnUse" x1="733.6417" y1="-426.8426" x2="732.7618" y2="-420.7726" gradientTransform="matrix(1 0 0 1 -8 748.72)">
		<stop  offset="0" style="stop-color:#7A9FB4"/>
		<stop  offset="1" style="stop-color:#00C9B4"/>
	</linearGradient>
	<path class="st43" d="M726.8,329.4l-4.6-0.5c0-1.5,0.2-3,0.4-4.4c0.3-1.3,0.6-2.6,1.1-3.9l4.6,1.3c0,0-0.7,2.1-1,4
		C727.1,327,726.9,328.2,726.8,329.4z"/>
	
		<linearGradient id="SVGID_35_" gradientUnits="userSpaceOnUse" x1="699.5626" y1="-424.819" x2="700.3425" y2="-419.289" gradientTransform="matrix(1 0 0 1 -8 748.72)">
		<stop  offset="0" style="stop-color:#7A9FB4"/>
		<stop  offset="1" style="stop-color:#00C9B4"/>
	</linearGradient>
	<path class="st44" d="M694.6,330l-4.3,1.1L689,323l4.7,1.2c0.4,0.7,0.6,1.4,0.6,2.1C694.5,327.8,694.6,330,694.6,330z"/>
	<path class="st45" d="M675.3,324.9c-0.1,0.4-0.2,0.8-0.2,1.3c0,0.4,0,0.8,0.2,1.2"/>
	<path class="st45" d="M673.7,324.9c-0.1,0.4-0.2,0.8-0.2,1.3c0,0.4,0,0.8,0.2,1.2"/>
	<path class="st45" d="M742.8,327.4c0.1-0.4,0.2-0.8,0.2-1.3c0-0.4,0-0.8-0.2-1.2"/>
	<path class="st45" d="M744.3,327.4c0.1-0.4,0.2-0.8,0.2-1.3c0-0.4,0-0.8-0.2-1.2"/>
	
		<linearGradient id="SVGID_36_" gradientUnits="userSpaceOnUse" x1="-1998.48" y1="-581.24" x2="-1993.6899" y2="-581.24" gradientTransform="matrix(-1 0 0 -1 -1287.29 -281.24)">
		<stop  offset="0" style="stop-color:#FFFFFF"/>
		<stop  offset="1" style="stop-color:#D6D6D6"/>
	</linearGradient>
	<circle class="st46" cx="708.8" cy="300" r="2.4"/>
</g>
<g id="perso_paint">
	<path class="st47" d="M741,712.1l0.9,3.3c0.1,0.4,0,0.8-0.3,1l-8.4,6.1l0.4,1.3"/>
	
		<linearGradient id="SVGID_37_" gradientUnits="userSpaceOnUse" x1="855.3525" y1="718.0557" x2="855.1227" y2="725.3958" gradientTransform="matrix(0.9661 -0.2581 0.2581 0.9661 -281.459 238.3952)">
		<stop  offset="0" style="stop-color:#7A9FB4"/>
		<stop  offset="1" style="stop-color:#00C9B4"/>
	</linearGradient>
	<path class="st48" d="M740.6,715.8l-17.3,4.6c-0.7,0.2-1.4-0.2-1.6-0.9l-1.2-4.4c-0.1-0.5,0.2-1,0.6-1.1l17.7-4.7
		c0.7-0.2,1.4,0.2,1.6,0.9l1.1,4C741.7,714.9,741.3,715.6,740.6,715.8L740.6,715.8z"/>
	<polygon class="st49" points="735.3,727 733.2,727.5 732.3,723.7 734.3,723.2 	"/>
	
		<linearGradient id="SVGID_38_" gradientUnits="userSpaceOnUse" x1="648.0179" y1="50.63" x2="756.4509" y2="50.63" gradientTransform="matrix(1 0 0 1 -8 748.72)">
		<stop  offset="0" style="stop-color:#174575"/>
		<stop  offset="1" style="stop-color:#3D113C"/>
	</linearGradient>
	<path class="st50" d="M717.7,850.8c0,0,1.3-40.2,2.1-41.6c0,0,9,0.5,9-7.8s-3.4-10.5-5.1-12.2c0,0,20-15.3,23.9-23.2
		c0,0,1.6-1.6,0-7s-8.5-25.9-9.5-28.1l-0.7-2l-4.2,1.2c0,0,2.1,14.2,2.9,17s2.4,11.5,2.4,11.5c0.3,0.9,0,1.9-0.7,2.5
		c-1.2,0.8-26.1,15.5-26.9,17l-0.6,0.8c-1.5-2.1-2.9-4.2-4.2-6.5c0,0,0.5-5.4-0.3-7.7s-3.2-5.3-3.9-5.5c-1.9-5.5-7.2-9.2-13-8.9
		c-10.4,0-11,11.3-11,13.5s0.5,19.5,2.6,27.1c0,0-10.5,10.5-18.6,39.6l-12.3,28.3c-0.1,0.7-0.6,1.2-1.3,1.4
		c-2.2,0.3-4.8,0.3-6.1,1.5s-2.5,2.2-2.3,4.8s1.2,3.3,2,3.3s0.5-2.9,3.3-3.6s4.5,0.8,6.7-2.7s27.5-44.8,29.6-46.3
		c0,0,3,18.8-1.8,37.9l2.6,6.2l16.8,5.6L717.7,850.8z"/>
	<g>
		<g>
			<g>
				<g>
					<defs>
						<path id="SVGID_39_" d="M747.7,759.1c-1.5-5.2-8-24.3-9.3-27.7l0,0c-0.1-0.8-0.1-1.7,0-2.5c0-0.7-0.2-1.4-0.7-1.9
							c-0.1-0.1,0,0-0.1-0.2s0-0.5-0.3-0.8s-0.4-0.2-0.5-0.3s-0.1-0.5-0.2-0.6c-0.2-0.2-0.3-0.3-0.6-0.4c0,0,0.3-0.2-0.2-1
							s-1.5-0.2-1.5-0.2s0.3,1.5-0.2,1.8c-0.5,0.4-0.8,0.9-1.1,1.5l-0.7-2.4c-0.9-0.3-0.4,0.5-0.7,2.2s0.8,3.8,1.3,4.7
							c0.5,0.6,0.7,1.4,0.8,2.1l0,0c0.7,4.4,1.8,11.8,2.4,13.8c0.8,2.9,2.4,11.5,2.4,11.5c0.3,0.9,0,1.9-0.7,2.5
							c-1.2,0.8-26.1,15.5-26.9,17l-0.6,0.8c-1.5-2.1-2.9-4.2-4.2-6.5c0,0,0.5-5.4-0.3-7.7s-3.2-5.3-3.9-5.5
							c-1.9-5.5-7.2-9.2-13-8.9c-10.4,0-11,11.3-11,13.5s0.5,19.5,2.6,27.1c0,0-10.5,10.5-18.6,39.6l-12.3,28.3
							c-0.1,0.7-0.6,1.2-1.3,1.4c-2.2,0.3-4.8,0.3-6.1,1.5s-2.5,2.2-2.3,4.8s1.2,3.3,2,3.3s0.5-2.9,3.3-3.6s4.5,0.8,6.7-2.7
							s27.5-44.8,29.6-46.3c0,0,3,18.8-1.8,37.9l2.6,6.2l16.8,5.6l18.3-16c0,0,1.3-40.2,2.1-41.6c0,0,9,0.5,9-7.8
							s-3.4-10.5-5.1-12.2c0,0,20-15.3,23.9-23.2C747.7,766,749.2,764.5,747.7,759.1z"/>
					</defs>
					<clipPath id="SVGID_40_">
						<use xlink:href="#SVGID_39_"  style="overflow:visible;"/>
					</clipPath>
					<g class="st51">
						
							<linearGradient id="SVGID_41_" gradientUnits="userSpaceOnUse" x1="650.5956" y1="105.5765" x2="660.9656" y2="112.4965" gradientTransform="matrix(1 0 0 1 0 744)">
							<stop  offset="0" style="stop-color:#FFD3A8"/>
							<stop  offset="1" style="stop-color:#FFB699"/>
						</linearGradient>
						<polygon class="st52" points="660.5,829.3 670.7,835.5 653.4,863.2 649.1,866.9 646,866.9 644.4,869.2 642.4,871.6 
							638.5,867.3 639.5,860.5 643.8,857.1 647.3,857.9 						"/>
						
							<linearGradient id="SVGID_42_" gradientUnits="userSpaceOnUse" x1="700.7" y1="21.35" x2="711.85" y2="21.35" gradientTransform="matrix(1 0 0 1 0 744)">
							<stop  offset="0" style="stop-color:#FFD3A8"/>
							<stop  offset="1" style="stop-color:#FFB699"/>
						</linearGradient>
						<polygon class="st53" points="702.8,757.8 700.7,760 705,772.7 707.4,772.9 711.9,770.8 						"/>
						
							<linearGradient id="SVGID_43_" gradientUnits="userSpaceOnUse" x1="685.1" y1="33.7813" x2="755" y2="33.7813" gradientTransform="matrix(1 0 0 1 -8 748.72)">
							<stop  offset="0" style="stop-color:#BF0269"/>
							<stop  offset="1" style="stop-color:#FC6719"/>
						</linearGradient>
						<path class="st54" d="M680.7,790.9c0,0,3.9,25.6,18.2,25.3s10-8.2,20.9-6.9S747,803,747,803l-23.3-13.8
							c-4.9-2.8-9.3-6.3-13.3-10.3l0.8-5.7l-5-0.8c0,0-0.9-9.1-4.3-13.2l-0.5-5.3l-7.2-4.2l-6.8-0.9l-3.6,1.6L679,752l-1,3.9
							l-0.9,5.3L680.7,790.9z"/>
						
							<linearGradient id="SVGID_44_" gradientUnits="userSpaceOnUse" x1="736.72" y1="-2.528" x2="758.25" y2="-2.528" gradientTransform="matrix(1 0 0 1 -8 748.72)">
							<stop  offset="0" style="stop-color:#FFD3A8"/>
							<stop  offset="1" style="stop-color:#FFB699"/>
						</linearGradient>
						<path class="st55" d="M747.5,756.6l-9.2-26.5c0-0.5,0-0.9,0-1.4c0-0.7-0.2-1.4-0.7-1.9c-0.1-0.1,0,0-0.1-0.2s0-0.5-0.3-0.8
							s-0.4-0.2-0.5-0.3s-0.1-0.5-0.2-0.6c-0.2-0.2-0.3-0.3-0.6-0.4c0,0,0.3-0.2-0.2-1s-1.5-0.2-1.5-0.2s0.3,1.5-0.2,1.8
							c-0.5,0.4-0.8,0.9-1.1,1.5l-0.7-2.4c-0.9-0.3-0.4,0.5-0.7,2.2c-0.1,1.1,0.1,2.2,0.6,3.2l-0.8,0.1l6.8,29.3l-0.8,1.5l-9.2,5
							c0,0,10.8,0.8,17.4,3.4l1.9,0.4l2.3-6.2L747.5,756.6z"/>
					</g>
				</g>
			</g>
		</g>
	</g>
	
		<linearGradient id="SVGID_45_" gradientUnits="userSpaceOnUse" x1="710.37" y1="218.55" x2="714.94" y2="218.55" gradientTransform="matrix(1 0 0 1 0 744)">
		<stop  offset="0" style="stop-color:#FFD3A8"/>
		<stop  offset="1" style="stop-color:#FFB699"/>
	</linearGradient>
	<polygon class="st56" points="714.6,967 711.5,967 710.4,958.1 714.9,958.1 	"/>
	
		<linearGradient id="SVGID_46_" gradientUnits="userSpaceOnUse" x1="727.356" y1="222.81" x2="727.426" y2="216.63" gradientTransform="matrix(1 0 0 1 -8 748.72)">
		<stop  offset="0" style="stop-color:#BF0269"/>
		<stop  offset="1" style="stop-color:#FC6719"/>
	</linearGradient>
	<path class="st57" d="M710.4,965.3v4.5h18c0,0,0.3-4.5-4.6-4.5h-7.5c0,0-3.3,2.1-5,0.4l-0.1-0.5L710.4,965.3z"/>
	
		<linearGradient id="SVGID_47_" gradientUnits="userSpaceOnUse" x1="710.37" y1="225.8" x2="728.41" y2="225.8" gradientTransform="matrix(1 0 0 1 0 744)">
		<stop  offset="0" style="stop-color:#C9C9C9"/>
		<stop  offset="1" style="stop-color:#C4C4C4"/>
	</linearGradient>
	<line class="st58" x1="710.4" y1="969.8" x2="728.4" y2="969.8"/>
	
		<linearGradient id="SVGID_48_" gradientUnits="userSpaceOnUse" x1="717.65" y1="221.95" x2="718.46" y2="221.95" gradientTransform="matrix(1 0 0 1 0 744)">
		<stop  offset="0" style="stop-color:#C9C9C9"/>
		<stop  offset="1" style="stop-color:#C4C4C4"/>
	</linearGradient>
	<line class="st59" x1="718.1" y1="965.3" x2="718.1" y2="966.6"/>
	
		<linearGradient id="SVGID_49_" gradientUnits="userSpaceOnUse" x1="719.68" y1="221.95" x2="720.49" y2="221.95" gradientTransform="matrix(1 0 0 1 0 744)">
		<stop  offset="0" style="stop-color:#C9C9C9"/>
		<stop  offset="1" style="stop-color:#C4C4C4"/>
	</linearGradient>
	<line class="st60" x1="720.1" y1="965.3" x2="720.1" y2="966.6"/>
	
		<linearGradient id="SVGID_50_" gradientUnits="userSpaceOnUse" x1="645.8" y1="155.7801" x2="733.4767" y2="155.7801" gradientTransform="matrix(1 0 0 1 -8 748.72)">
		<stop  offset="0" style="stop-color:#4D3933"/>
		<stop  offset="1" style="stop-color:#3D113C"/>
	</linearGradient>
	<path class="st61" d="M679.9,855c0,0-4.7,6.7-1.5,32.7c0,0,0.4,8.2-0.7,9.8s-34.6,27.4-34.6,27.4l-5.3,3.2c0,0,0,1.7,1,2.2
		s38.1-5.7,49-17.5s10.9-28.1,10.9-28.1s7.4,10.4,9.2,12.3c0,0,2.5,4.2,1.7,7.8s-5.4,19.9,0.7,53.4h4.9c0,0,4-27.2,5.4-32.8
		s5.4-27.8,5-41s-3.9-29-7.7-33.6c0,0-17.9,8.1-25.1,8.1C682.4,859,679.9,855,679.9,855z"/>
	<g>
		<g>
			<g>
				<g>
					<defs>
						<path id="SVGID_51_" d="M679.9,855c0,0-4.7,6.7-1.5,32.7c0,0,0.4,8.2-0.7,9.8s-34.6,27.4-34.6,27.4l-5.3,3.2c0,0,0,1.7,1,2.2
							s38.1-5.7,49-17.5s10.9-28.1,10.9-28.1s7.4,10.4,9.2,12.3c0,0,2.5,4.2,1.7,7.8s-5.4,19.9,0.7,53.4h4.9c0,0,4-27.2,5.4-32.8
							s5.4-27.8,5-41s-3.9-29-7.7-33.6c0,0-17.9,8.1-25.1,8.1C682.4,859,679.9,855,679.9,855z"/>
					</defs>
					<clipPath id="SVGID_52_">
						<use xlink:href="#SVGID_51_"  style="overflow:visible;"/>
					</clipPath>
					<g class="st62">
						
							<linearGradient id="SVGID_53_" gradientUnits="userSpaceOnUse" x1="702" y1="153.08" x2="754.9" y2="153.08" gradientTransform="matrix(1 0 0 1 -8 748.72)">
							<stop  offset="0" style="stop-color:#4D3933"/>
							<stop  offset="1" style="stop-color:#3D113C"/>
						</linearGradient>
						<path class="st63" d="M698.6,884.7c0,0-4.6-4-4.6-13.5s1.8-12.7,1.8-12.7l19.9-15.6l15.8-0.1L746.9,960l-34.3,0.8l-14.1-1"/>
						
							<linearGradient id="SVGID_54_" gradientUnits="userSpaceOnUse" x1="644.06" y1="179.33" x2="652.96" y2="179.33" gradientTransform="matrix(1 0 0 1 -8 748.72)">
							<stop  offset="0" style="stop-color:#FFD3A8"/>
							<stop  offset="1" style="stop-color:#FFB699"/>
						</linearGradient>
						<path class="st64" d="M642.7,925.1c0,0-0.6,3.5,2.2,4.5L640,931h-2.5l-1.6-2.3l5.9-3.3L642.7,925.1z"/>
					</g>
				</g>
			</g>
		</g>
	</g>
	
		<linearGradient id="SVGID_55_" gradientUnits="userSpaceOnUse" x1="-1728.3595" y1="-1960.9354" x2="-1710.2924" y2="-1960.9354" gradientTransform="matrix(0.37 0.93 -0.93 0.37 -549.5599 3256.6699)">
		<stop  offset="0" style="stop-color:#BF0269"/>
		<stop  offset="1" style="stop-color:#FC6719"/>
	</linearGradient>
	<path class="st65" d="M638.2,926.6l-4.2,1.7l6.6,16.8c0,0,4.3-1.3,2.5-6l-2.7-6.9c0,0-3.1-2.1-2.1-4.3l0.4-0.2L638.2,926.6z"/>
	
		<linearGradient id="SVGID_56_" gradientUnits="userSpaceOnUse" x1="-1728.3595" y1="-1958.7729" x2="-1710.3242" y2="-1958.7729" gradientTransform="matrix(0.37 0.93 -0.93 0.37 -549.5599 3256.6702)">
		<stop  offset="0" style="stop-color:#C9C9C9"/>
		<stop  offset="1" style="stop-color:#C4C4C4"/>
	</linearGradient>
	<line class="st66" x1="634.1" y1="928.2" x2="640.7" y2="945"/>
	
		<linearGradient id="SVGID_57_" gradientUnits="userSpaceOnUse" x1="-1721.0696" y1="-1962.6295" x2="-1720.2695" y2="-1962.6295" gradientTransform="matrix(0.37 0.93 -0.93 0.37 -549.5599 3256.6702)">
		<stop  offset="0" style="stop-color:#C9C9C9"/>
		<stop  offset="1" style="stop-color:#C4C4C4"/>
	</linearGradient>
	<line class="st67" x1="641.1" y1="933.7" x2="639.9" y2="934.2"/>
	
		<linearGradient id="SVGID_58_" gradientUnits="userSpaceOnUse" x1="-1744.301" y1="-1971.1761" x2="-1743.501" y2="-1971.1761" gradientTransform="matrix(0.36 0.93 -0.93 0.36 -564.07 3267.5598)">
		<stop  offset="0" style="stop-color:#C9C9C9"/>
		<stop  offset="1" style="stop-color:#C4C4C4"/>
	</linearGradient>
	<line class="st68" x1="641.8" y1="935.6" x2="640.6" y2="936"/>
</g>
<linearGradient id="SVGID_59_" gradientUnits="userSpaceOnUse" x1="250.2173" y1="818.0638" x2="254.5074" y2="818.0638" gradientTransform="matrix(0.9406 -0.3396 0.6893 1.9094 -586.3437 -519.8158)">
	<stop  offset="0" style="stop-color:#FFD3A8"/>
	<stop  offset="1" style="stop-color:#FFB699"/>
</linearGradient>
<polygon class="st69" points="211.2,952.5 215.2,951 218.7,960.5 214.6,962 "/>
<linearGradient id="SVGID_60_" gradientUnits="userSpaceOnUse" x1="-24.5998" y1="-71.1729" x2="-20.3098" y2="-71.1729" gradientTransform="matrix(0.9639 0.2662 -0.3621 1.3109 165.7586 1061.1379)">
	<stop  offset="0" style="stop-color:#FFD3A8"/>
	<stop  offset="1" style="stop-color:#FFB699"/>
</linearGradient>
<polygon class="st70" points="168.7,958 172.8,959.2 171,965.7 166.9,964.5 "/>
<linearGradient id="SVGID_61_" gradientUnits="userSpaceOnUse" x1="161.7094" y1="217.7801" x2="181.1194" y2="217.7801" gradientTransform="matrix(1 0 0 1 -8 748.72)">
	<stop  offset="0" style="stop-color:#174575"/>
	<stop  offset="1" style="stop-color:#3D113C"/>
</linearGradient>
<path class="st71" d="M166.9,962.9c0.8,0.6,1.8,1,2.9,1c0.9,0,1.9-0.3,2.5-1c0.5,1.3,0.8,2.6,0.8,4c-0.1,1.1-0.4,2.2-0.8,3.2h-2.7
	v-1.8h-2.2c-0.5,0.2-0.9,0.5-1.3,0.8c-1,0.7-2.2,1-3.4,1h-8.8c0,0-0.6-1.9,1.6-1.8c1.5,0,3-0.2,4.4-0.6
	C161.8,966.9,166.9,962.9,166.9,962.9z"/>
<g>
	<g>
		<g>
			<g>
				<defs>
					<path id="SVGID_62_" d="M166.4,960.7h7c0,0,14.6-25.4,17.6-34.6c0,0,4.4,7.5,20.1,28.9h7.1c0,0-9.9-33.7-16.3-44.2
						c0,0,44.7-5,44.7-30.3h-38.3c0,0-21,10.8-28.3,23.4C175.4,911.6,166.4,960.7,166.4,960.7z"/>
				</defs>
				<clipPath id="SVGID_63_">
					<use xlink:href="#SVGID_62_"  style="overflow:visible;"/>
				</clipPath>
				<g class="st72">
					
						<linearGradient id="SVGID_64_" gradientUnits="userSpaceOnUse" x1="174.4" y1="171.8801" x2="254.48" y2="171.8801" gradientTransform="matrix(1 0 0 1 -8 748.72)">
						<stop  offset="0" style="stop-color:#174575"/>
						<stop  offset="1" style="stop-color:#3D113C"/>
					</linearGradient>
					<path class="st73" d="M166.4,960.7h7c0,0,14.6-25.4,17.6-34.6c0,0,4.4,7.5,20.1,28.9h7.1c0,0-9.9-33.7-16.3-44.2
						c0,0,44.7-5,44.7-30.3h-38.3c0,0-21,10.8-28.3,23.4C175.4,911.6,166.4,960.7,166.4,960.7z"/>
					
						<linearGradient id="SVGID_65_" gradientUnits="userSpaceOnUse" x1="199" y1="185.33" x2="230.77" y2="185.33" gradientTransform="matrix(1 0 0 1 -8 748.72)">
						<stop  offset="0" style="stop-color:#174575"/>
						<stop  offset="1" style="stop-color:#3D113C"/>
					</linearGradient>
					<path class="st74" d="M191,926.1c0,0,2.4-10.9,5.5-12.8c1.7-1.1,3.5-1.9,5.3-2.5l20.9,28.4l-1.7,15.7l-10,2.4l-11.6-3.9
						L191,926.1z"/>
				</g>
			</g>
		</g>
	</g>
</g>
<linearGradient id="SVGID_66_" gradientUnits="userSpaceOnUse" x1="211.64" y1="215.18" x2="230.2538" y2="215.18" gradientTransform="matrix(1 0 0 1 -8 748.72)">
	<stop  offset="0" style="stop-color:#174575"/>
	<stop  offset="1" style="stop-color:#3D113C"/>
</linearGradient>
<path class="st75" d="M213.9,960.8c1.1,0.1,2.1-0.2,3-0.7c0.8-0.5,1.4-1.2,1.6-2.2c1.1,0.8,2,1.8,2.8,3c0.5,1,0.8,2.1,1,3.1
	l-2.3,1.4l-1-1.5l-1.9,1.2c-0.4,0.2-0.7,0.7-0.7,1.1c-0.3,1.5-3.8,3.7-3.8,3.7h-8.9c0,0-0.3-2.4,1.9-2.4c1.3,0.1,2.6-0.3,3.6-1.1
	C211,964.8,212.6,962.9,213.9,960.8z"/>
<g>
	<g>
		<g>
			<g>
				<defs>
					<path id="SVGID_67_" d="M223.1,818.1c-0.9-1.8-1.3-3.7-1.2-5.7c0,0,1.9-1.8,1.9-8.1s0.4-9.7-2.9-11.1s-3.6,1-6.3,1.3
						s-7.4,0.8-8.7-0.1c0,0-1.2,4.1,3.7,4.1c-0.8,2.7-1,5.5-0.5,8.3l0,0c0.1,0.4,0,0.7-0.1,1.1c-0.3,0.4-1.3,1.4,0.1,1.5
						c-0.7,0,0.4,9.3,1.1,9.5c1.6,0.3,3.3-0.1,4.6-1.1v2.3c-2.9,6.6-4.8,13.5-5.5,20.6c0,0-4.5,7.8-6.1,12.5l-31.1-0.6
						c-1.9-0.2-3.9,0.4-5.3,1.7c-2,2-3.6,3.6-3.8,3.8l0,0l0,0c-0.1,0.1-0.1,0.2-0.1,0.3c0,0.3,0.2,0.5,0.5,0.5l0,0
						c0.1,0,0.3-0.1,0.4-0.2l0,0c0,0,2-1.4,2.8-1.3l0.8,0.1l-0.7,4.6l0,0c0,0.3,0.2,0.5,0.5,0.5s0.5-0.1,0.6-0.4l0,0l0.8-3
						c0,0,1.3-0.5,1.7,0.1s1.6,1.9,2.7,1.9s2.9-1.8,2.9-1.8h5.3c0,0,23.9,11,26.6,11.5c-0.3,3.2,0.1,6.4,1.1,9.4h38.2
						C246.7,880.4,251.5,830.4,223.1,818.1z"/>
				</defs>
				<clipPath id="SVGID_68_">
					<use xlink:href="#SVGID_67_"  style="overflow:visible;"/>
				</clipPath>
				<g class="st76">
					
						<linearGradient id="SVGID_69_" gradientUnits="userSpaceOnUse" x1="213.22" y1="87.8126" x2="256.43" y2="87.8126" gradientTransform="matrix(1 0 0 1 -8 748.72)">
						<stop  offset="0" style="stop-color:#BF0269"/>
						<stop  offset="1" style="stop-color:#FC6719"/>
					</linearGradient>
					<path class="st77" d="M223.1,818.1c-0.9-1.8-1.3-3.7-1.2-5.7c0,0,1.9-1.8,1.9-8.1s0.4-9.7-2.9-11.1s-3.6,1-6.3,1.3
						s-7.4,0.8-8.7-0.1c0,0-1.2,4.1,3.7,4.1c-1,3.3-1,6.7-0.1,10c0,0,0.3,0.8-0.4,0.8s0.4,9.3,1.1,9.5c1.6,0.3,3.3-0.1,4.6-1.1v2.3
						c-2.9,6.6-4.7,13.5-5.5,20.7c0,0-4.5,7.8-6.1,12.5l-31.1-0.6c-1.9-0.2-3.9,0.4-5.3,1.7c-2,2-3.6,3.6-3.8,3.8l0,0l0,0
						c-0.1,0.1-0.1,0.2-0.1,0.3c0,0.3,0.2,0.5,0.5,0.5l0,0c0.1,0,0.3-0.1,0.4-0.2l0,0c0,0,2-1.4,2.8-1.3l0.8,0.1l-0.7,4.6l0,0
						c0,0.3,0.2,0.5,0.5,0.5s0.5-0.1,0.6-0.4l0,0l0.8-3c0,0,1.3-0.5,1.7,0.1s1.6,1.9,2.7,1.9s2.9-1.8,2.9-1.8h5.3
						c0,0,23.9,11,26.6,11.5c-0.3,3.2,0.1,6.4,1.1,9.4h38.2C246.7,880.4,251.5,830.4,223.1,818.1z"/>
					
						<linearGradient id="SVGID_70_" gradientUnits="userSpaceOnUse" x1="205.54" y1="61.05" x2="224.57" y2="61.05" gradientTransform="matrix(1 0 0 1 0 744)">
						<stop  offset="0" style="stop-color:#4D3933"/>
						<stop  offset="1" style="stop-color:#3D113C"/>
					</linearGradient>
					<polygon class="st78" points="209.6,820.9 228.4,810.5 224.7,793.8 204.9,789.2 204.9,792.2 					"/>
					
						<linearGradient id="SVGID_71_" gradientUnits="userSpaceOnUse" x1="168.11" y1="101.48" x2="217.22" y2="101.48" gradientTransform="matrix(1 0 0 1 -8 748.72)">
						<stop  offset="0" style="stop-color:#FFD3A8"/>
						<stop  offset="1" style="stop-color:#FFB699"/>
					</linearGradient>
					<path class="st79" d="M209.2,840.7c0,0-2,5.7-2.2,18.8l-32.5-2.5l-7,1.2l-4.2,1.5l-3.3-0.2l1.8-9.2L209.2,840.7z"/>
					
						<linearGradient id="SVGID_72_" gradientUnits="userSpaceOnUse" x1="172.3" y1="110.43" x2="240.2" y2="110.43" gradientTransform="matrix(1 0 0 1 -8 748.72)">
						<stop  offset="0" style="stop-color:#FFD3A8"/>
						<stop  offset="1" style="stop-color:#FFB699"/>
					</linearGradient>
					<path class="st80" d="M207.4,871.1c2.4,1.1,5,1.4,7.6,1c11.1-2,17.2-22.5,17.2-22.5c-3.2-0.1-15.9-5.2-15.9-5.2
						s-5.9,11.1-6.8,13.6s-2.4,1.2-4.6,1s-13.3-2.7-23.4-3.4c-1.5,0-2.9-0.2-4.3-0.5c-1.2-0.4-1.4-1-3.6-0.8c-1.9,0.3-3.8,1-5.5,2
						c-0.4,0.4-0.7,0.8-1,1.3l-2.8,5.1l37.5,11.2L207.4,871.1z"/>
					<path class="st81" d="M207.4,871.1c2.4,1.1,5,1.4,7.6,1c11.1-2,17.2-22.5,17.2-22.5c-3.2-0.1-15.9-5.2-15.9-5.2
						s-5.9,11.1-6.8,13.6s-2.4,1.2-4.6,1s-13.3-2.7-23.4-3.4c-1.5,0-2.9-0.2-4.3-0.5c-1.2-0.4-1.4-1-3.6-0.8c-1.9,0.3-3.8,1-5.5,2
						c-0.4,0.4-0.7,0.8-1,1.3l-2.8,5.1l37.5,11.2L207.4,871.1z"/>
					
						<linearGradient id="SVGID_73_" gradientUnits="userSpaceOnUse" x1="221.86" y1="62.6801" x2="235.19" y2="62.6801" gradientTransform="matrix(1 0 0 1 -8 748.72)">
						<stop  offset="0" style="stop-color:#FFD3A8"/>
						<stop  offset="1" style="stop-color:#FFB699"/>
					</linearGradient>
					<path class="st82" d="M221.9,812.4c0,0,0.3-5.2,0-6s-0.4-1.7-0.1-2.5c0.3-0.4,0.1-2.8-1-2.8s-2.2,0-2.3,1.8
						c0,2.1,0.3,4.2,0.7,6.2c0.7,3,3.1,4.7-1.2,6.8c-1.1,0.5-2.2,1-3.2,1.7l-0.9,2.4l0.9-0.1l0.1,1.1c0,0,0.4,0.7,2.7,0.7
						c2.4-0.2,4.5-1.6,5.6-3.7l4.1-1.7L221.9,812.4z"/>
					
						<linearGradient id="SVGID_74_" gradientUnits="userSpaceOnUse" x1="213.32" y1="55.9074" x2="224.82" y2="55.9074" gradientTransform="matrix(1 0 0 1 -8 748.72)">
						<stop  offset="0" style="stop-color:#FFD3A8"/>
						<stop  offset="1" style="stop-color:#FFB699"/>
					</linearGradient>
					<path class="st83" d="M209,809.4c0.7,0.1,1.3,0.2,2,0.1c0.9-0.2,2,1.6,3.3,1.6s2.2-0.3,2.2-1.5c0-1,0.1-2.1,0.3-3.1
						c0,0-1.8-3.5-1.3-5.8s0.4-2.7-1.6-2.5c-1.5,0.2-2.9,0.3-4.4,0.4c-1.4,0.1-2.8,0.4-4.2,0.9l2.9,9.8L209,809.4z"/>
				</g>
			</g>
		</g>
	</g>
</g>
<linearGradient id="SVGID_75_" gradientUnits="userSpaceOnUse" x1="104.4235" y1="174.45" x2="114.8365" y2="174.45" gradientTransform="matrix(1 0 0 1 0 744)">
	<stop  offset="0" style="stop-color:#4D3933"/>
	<stop  offset="1" style="stop-color:#3D113C"/>
</linearGradient>
<line class="st84" x1="113.6" y1="866" x2="105.6" y2="970.9"/>
<linearGradient id="SVGID_76_" gradientUnits="userSpaceOnUse" x1="175.2646" y1="174.55" x2="186.8653" y2="174.55" gradientTransform="matrix(1 0 0 1 0 744)">
	<stop  offset="0" style="stop-color:#4D3933"/>
	<stop  offset="1" style="stop-color:#3D113C"/>
</linearGradient>
<line class="st85" x1="176.5" y1="866.2" x2="185.6" y2="970.9"/>
<linearGradient id="SVGID_77_" gradientUnits="userSpaceOnUse" x1="127.2" y1="109.73" x2="147.7602" y2="109.73" gradientTransform="matrix(1 0 0 1 -8 748.72)">
	<stop  offset="0" style="stop-color:#C9C9C9"/>
	<stop  offset="1" style="stop-color:#C4C4C4"/>
</linearGradient>
<path class="st86" d="M119.7,852.9c0,5.8,4.6,10.6,10.4,10.6l0,0h9.6"/>
<linearGradient id="SVGID_78_" gradientUnits="userSpaceOnUse" x1="158.4" y1="119.45" x2="176.48" y2="119.45" gradientTransform="matrix(1 0 0 1 0 744)">
	<stop  offset="0" style="stop-color:#C9C9C9"/>
	<stop  offset="1" style="stop-color:#C4C4C4"/>
</linearGradient>
<path class="st87" d="M159.7,862.8h15.5c0.7,0,1.3,0.6,1.3,1.3l0,0l0,0h-18.1l0,0l0,0C158.4,863.4,159,862.8,159.7,862.8
	L159.7,862.8z"/>
<linearGradient id="SVGID_79_" gradientUnits="userSpaceOnUse" x1="120.7" y1="88.5782" x2="125.43" y2="88.5782" gradientTransform="matrix(1 0 0 1 -8.0583 748.6794)">
	<stop  offset="0" style="stop-color:#C9C9C9"/>
	<stop  offset="1" style="stop-color:#C4C4C4"/>
</linearGradient>
<path class="st88" d="M115.8,845.1l-3.2-15.1c-0.1-0.7,0.3-1.4,1-1.6l0,0l0,0l3.7,17.7l0,0l0,0C116.7,846.2,116,845.8,115.8,845.1z"
	/>
<linearGradient id="SVGID_80_" gradientUnits="userSpaceOnUse" x1="117.6" y1="82.3331" x2="129.01" y2="82.3331" gradientTransform="matrix(1 0 0 1 -8.0612 748.6863)">
	<stop  offset="0" style="stop-color:#C9C9C9"/>
	<stop  offset="1" style="stop-color:#C4C4C4"/>
</linearGradient>
<path class="st89" d="M118.9,853.7l-9.3-44.7c-0.2-0.8,0.4-1.7,1.2-1.9l0,0h0.2l0,0l10,47.8l0,0h-0.2
	C119.9,855.1,119.1,854.5,118.9,853.7L118.9,853.7z"/>
<line class="st90" x1="112" y1="807" x2="121.9" y2="854.8"/>
<linearGradient id="SVGID_81_" gradientUnits="userSpaceOnUse" x1="214.3915" y1="195.45" x2="225.5085" y2="195.45" gradientTransform="matrix(1 0 0 1 0 744)">
	<stop  offset="0" style="stop-color:#4D3933"/>
	<stop  offset="1" style="stop-color:#3D113C"/>
</linearGradient>
<line class="st91" x1="224.3" y1="908" x2="215.6" y2="970.9"/>
<linearGradient id="SVGID_82_" gradientUnits="userSpaceOnUse" x1="244.5524" y1="195.1" x2="256.0876" y2="195.1" gradientTransform="matrix(1 0 0 1 0 744)">
	<stop  offset="0" style="stop-color:#4D3933"/>
	<stop  offset="1" style="stop-color:#3D113C"/>
</linearGradient>
<line class="st92" x1="245.8" y1="907.3" x2="254.9" y2="970.9"/>
<linearGradient id="SVGID_83_" gradientUnits="userSpaceOnUse" x1="256.92" y1="142.4493" x2="264.8392" y2="142.4493" gradientTransform="matrix(1 0 0 1 -8 748.72)">
	<stop  offset="0" style="stop-color:#4D3933"/>
	<stop  offset="1" style="stop-color:#3D113C"/>
</linearGradient>
<path class="st93" d="M249.8,874.1c0,0,7.2,14.5,6.4,24.1s-7.3,9.7-7.3,9.7"/>
<linearGradient id="SVGID_84_" gradientUnits="userSpaceOnUse" x1="220.75" y1="155.5504" x2="257.49" y2="155.5504" gradientTransform="matrix(1 0 0 1 -8 748.72)">
	<stop  offset="0" style="stop-color:#7A9FB4"/>
	<stop  offset="1" style="stop-color:#00C9B4"/>
</linearGradient>
<path class="st94" d="M212.8,905.5v3.4h36.7V902C249.5,901.9,237.7,894.9,212.8,905.5z"/>
<linearGradient id="SVGID_85_" gradientUnits="userSpaceOnUse" x1="245.42" y1="117.6685" x2="259.0192" y2="117.6685" gradientTransform="matrix(1 0 0 1 -8 748.72)">
	<stop  offset="0" style="stop-color:#7A9FB4"/>
	<stop  offset="1" style="stop-color:#00C9B4"/>
</linearGradient>
<path class="st95" d="M250.6,859.1c-0.9,5.4-0.8,10.9,0.4,16.2c0,0-3.6-0.5-5.8,0.3s-3.9,2.2-4.9-0.4s-3.5-7.3-2.8-12.5
	S243.4,852.8,250.6,859.1z"/>
<linearGradient id="SVGID_86_" gradientUnits="userSpaceOnUse" x1="104.2" y1="122.05" x2="186.3" y2="122.05" gradientTransform="matrix(1 0 0 1 0 744)">
	<stop  offset="0" style="stop-color:#4D3933"/>
	<stop  offset="1" style="stop-color:#3D113C"/>
</linearGradient>
<path class="st96" d="M106.1,864.1h78.3c1.1,0,1.9,0.9,1.9,1.9v2l0,0h-82.1l0,0v-2C104.2,865,105.1,864.1,106.1,864.1z"/>
<linearGradient id="SVGID_87_" gradientUnits="userSpaceOnUse" x1="118.0834" y1="86.8486" x2="145.1434" y2="81.8185" gradientTransform="matrix(1 0 0 1 0 744)">
	<stop  offset="0" style="stop-color:#7A9FB4"/>
	<stop  offset="1" style="stop-color:#FFFFFF;stop-opacity:0"/>
</linearGradient>
<polygon class="st97" points="150.3,856 122.3,852 113.9,812 141.8,795.3 "/>
</svg>
