<svg xmlns="http://www.w3.org/2000/svg" xmlns:xlink="http://www.w3.org/1999/xlink" viewBox="0 0 435.872 479.693">
  <defs>
    <style>
      .cls-1, .cls-18, .cls-19, .cls-24, .cls-35, .cls-38, .cls-8 {
        fill: none;
      }

      .cls-1 {
        opacity: 0.32;
      }

      .cls-2 {
        clip-path: url(#clip-path);
      }

      .cls-3 {
        fill: #fff;
      }

      .cls-4 {
        fill: url(#linear-gradient);
      }

      .cls-5 {
        fill: url(#linear-gradient-2);
      }

      .cls-6 {
        fill: url(#linear-gradient-3);
      }

      .cls-7 {
        fill: url(#linear-gradient-4);
      }

      .cls-8 {
        stroke: #707070;
        stroke-width: 0.276px;
      }

      .cls-18, .cls-19, .cls-8 {
        stroke-miterlimit: 10;
      }

      .cls-9 {
        fill: url(#linear-gradient-5);
      }

      .cls-10 {
        fill: url(#linear-gradient-6);
      }

      .cls-11 {
        fill: url(#linear-gradient-7);
      }

      .cls-12 {
        fill: url(#linear-gradient-8);
      }

      .cls-13 {
        fill: url(#linear-gradient-9);
      }

      .cls-14 {
        fill: url(#linear-gradient-10);
      }

      .cls-15 {
        fill: url(#linear-gradient-11);
      }

      .cls-16 {
        fill: url(#linear-gradient-12);
      }

      .cls-17 {
        fill: url(#linear-gradient-13);
      }

      .cls-18 {
        stroke: #08557d;
        stroke-width: 4px;
      }

      .cls-18, .cls-27 {
        opacity: 0.22;
      }

      .cls-19 {
        stroke: #ededed;
        stroke-width: 0.75px;
      }

      .cls-20 {
        opacity: 0.05;
      }

      .cls-21 {
        fill: url(#linear-gradient-15);
      }

      .cls-22 {
        fill: url(#linear-gradient-16);
      }

      .cls-23 {
        opacity: 0.14;
      }

      .cls-23, .cls-28 {
        clip-path: url(#clip-path-2);
      }

      .cls-24 {
        opacity: 0.24;
      }

      .cls-25 {
        fill: #00ddc7;
      }

      .cls-26 {
        clip-path: url(#clip-path-4);
      }

      .cls-27 {
        fill: #fdb98d;
      }

      .cls-29, .cls-30 {
        opacity: 0.1;
      }

      .cls-29 {
        fill: url(#linear-gradient-17);
      }

      .cls-30 {
        fill: url(#linear-gradient-18);
      }

      .cls-31 {
        fill: url(#linear-gradient-19);
      }

      .cls-32 {
        fill: url(#linear-gradient-20);
      }

      .cls-33 {
        fill: url(#linear-gradient-21);
      }

      .cls-34 {
        clip-path: url(#clip-path-10);
      }

      .cls-35 {
        opacity: 0.2;
      }

      .cls-36 {
        fill: url(#linear-gradient-23);
      }

      .cls-37 {
        clip-path: url(#clip-path-11);
      }

      .cls-38 {
        opacity: 0.15;
      }

      .cls-39 {
        fill: url(#linear-gradient-25);
      }

      .cls-40 {
        fill: url(#linear-gradient-26);
      }

      .cls-41 {
        fill: url(#linear-gradient-27);
      }

      .cls-42 {
        clip-path: url(#clip-path-12);
      }

      .cls-43 {
        fill: url(#linear-gradient-29);
      }

      .cls-44 {
        clip-path: url(#clip-path-13);
      }

      .cls-45 {
        filter: url(#Rectangle_878);
      }
    </style>
    <filter id="Rectangle_878" x="95.869" y="60.39" width="271.808" height="419.303" filterUnits="userSpaceOnUse">
      <feOffset dx="15" dy="15" input="SourceAlpha"/>
      <feGaussianBlur stdDeviation="3" result="blur"/>
      <feFlood/>
      <feComposite operator="in" in2="blur"/>
      <feComposite in="SourceGraphic"/>
    </filter>
    <clipPath id="clip-path">
      <path id="Tracé_30167" data-name="Tracé 30167" d="M574.313,185.879v308.46a16.971,16.971,0,0,1-16.979,16.979H427.679A16.971,16.971,0,0,1,410.7,494.339V185.879A16.971,16.971,0,0,1,427.679,168.9h129.7A16.989,16.989,0,0,1,574.313,185.879Z" transform="translate(-410.7 -168.9)"/>
    </clipPath>
    <linearGradient id="linear-gradient" x1="0.005" y1="0.5" x2="0.999" y2="0.5" gradientUnits="objectBoundingBox">
      <stop offset="0" stop-color="#fff"/>
      <stop offset="1" stop-color="#d6d6d6"/>
    </linearGradient>
    <linearGradient id="linear-gradient-2" x1="0" y1="0.5" x2="0.58" y2="0.5" xlink:href="#linear-gradient"/>
    <linearGradient id="linear-gradient-3" y1="0.5" x2="1" y2="0.5" gradientUnits="objectBoundingBox">
      <stop offset="0" stop-color="#e0e0e0"/>
      <stop offset="1" stop-color="#bfbfbf"/>
    </linearGradient>
    <linearGradient id="linear-gradient-4" x1="-0.004" y1="0.499" x2="1" y2="0.499" xlink:href="#linear-gradient"/>
    <linearGradient id="linear-gradient-5" x1="-0.005" y1="0.498" x2="0.997" y2="0.498" gradientUnits="objectBoundingBox">
      <stop offset="0" stop-color="#174575"/>
      <stop offset="1" stop-color="#3d113c"/>
    </linearGradient>
    <linearGradient id="linear-gradient-6" x1="0.003" y1="0.499" x2="1" y2="0.499" xlink:href="#linear-gradient-5"/>
    <linearGradient id="linear-gradient-7" x1="0.001" y1="0.499" x2="1.003" y2="0.499" xlink:href="#linear-gradient-5"/>
    <linearGradient id="linear-gradient-8" x1="-0.002" y1="0.499" x2="0.998" y2="0.499" xlink:href="#linear-gradient"/>
    <linearGradient id="linear-gradient-9" x1="-0.001" y1="0.499" x2="0.995" y2="0.499" xlink:href="#linear-gradient-5"/>
    <linearGradient id="linear-gradient-10" x1="0" y1="0.502" x2="1" y2="0.502" xlink:href="#linear-gradient-5"/>
    <linearGradient id="linear-gradient-11" x1="0" y1="0.497" x2="1" y2="0.497" xlink:href="#linear-gradient-5"/>
    <linearGradient id="linear-gradient-12" y1="0.5" x2="1" y2="0.5" gradientUnits="objectBoundingBox">
      <stop offset="0" stop-color="#bf0269"/>
      <stop offset="1" stop-color="#fc6719"/>
    </linearGradient>
    <linearGradient id="linear-gradient-13" y1="0.502" x2="1" y2="0.502" gradientUnits="objectBoundingBox">
      <stop offset="0" stop-color="#7a9fb4"/>
      <stop offset="1" stop-color="#00c9b4"/>
    </linearGradient>
    <linearGradient id="linear-gradient-15" x1="0" y1="0.5" x2="1" y2="0.5" xlink:href="#linear-gradient-5"/>
    <linearGradient id="linear-gradient-16" y1="0.5" x2="1" y2="0.5" gradientUnits="objectBoundingBox">
      <stop offset="0" stop-color="#4d3933"/>
      <stop offset="1" stop-color="#3d113c"/>
    </linearGradient>
    <clipPath id="clip-path-2">
      <rect id="Rectangle_888" data-name="Rectangle 888" width="126.528" height="58.532"/>
    </clipPath>
    <clipPath id="clip-path-4">
      <rect id="Rectangle_891" data-name="Rectangle 891" width="35.46" height="35.46"/>
    </clipPath>
    <linearGradient id="linear-gradient-17" y1="0.5" x2="1" y2="0.5" gradientUnits="objectBoundingBox">
      <stop offset="0" stop-color="#ccc"/>
      <stop offset="1" stop-color="#fff"/>
    </linearGradient>
    <linearGradient id="linear-gradient-18" x1="-0.026" y1="0.49" x2="1.031" y2="0.49" xlink:href="#linear-gradient-17"/>
    <linearGradient id="linear-gradient-19" x1="0" y1="0.5" x2="1" y2="0.5" xlink:href="#linear-gradient-17"/>
    <linearGradient id="linear-gradient-20" x1="0" y1="0.5" x2="1.001" y2="0.5" xlink:href="#linear-gradient-17"/>
    <linearGradient id="linear-gradient-21" x1="0" y1="0.5" x2="1" y2="0.5" xlink:href="#linear-gradient-17"/>
    <clipPath id="clip-path-10">
      <circle id="Ellipse_329" data-name="Ellipse 329" cx="17.832" cy="17.832" r="17.832"/>
    </clipPath>
    <linearGradient id="linear-gradient-23" x1="0" y1="0.5" x2="1" y2="0.5" xlink:href="#linear-gradient-17"/>
    <clipPath id="clip-path-11">
      <circle id="Ellipse_332" data-name="Ellipse 332" cx="35.014" cy="35.014" r="35.014"/>
    </clipPath>
    <linearGradient id="linear-gradient-25" x1="0" y1="0.5" x2="1" y2="0.5" xlink:href="#linear-gradient-17"/>
    <linearGradient id="linear-gradient-26" x1="0.001" y1="0.501" x2="1.001" y2="0.501" xlink:href="#linear-gradient-17"/>
    <linearGradient id="linear-gradient-27" x1="0" y1="0.5" x2="1" y2="0.5" xlink:href="#linear-gradient-17"/>
    <clipPath id="clip-path-12">
      <circle id="Ellipse_336" data-name="Ellipse 336" cx="14.623" cy="14.623" r="14.623"/>
    </clipPath>
    <linearGradient id="linear-gradient-29" x1="0" y1="0.5" x2="1" y2="0.5" xlink:href="#linear-gradient-17"/>
    <clipPath id="clip-path-13">
      <circle id="Ellipse_339" data-name="Ellipse 339" cx="28.677" cy="28.677" r="28.677"/>
    </clipPath>
  </defs>
  <g id="illustr_cloud_native" transform="translate(0 0)">
    <g id="Groupe_1470" data-name="Groupe 1470" transform="translate(95.87 47.971)">
      <g id="Groupe_1444" data-name="Groupe 1444" transform="translate(0 6.58)">
        <g class="cls-45" transform="matrix(1, 0, 0, 1, -95.87, -54.55)">
          <rect id="Rectangle_878-2" data-name="Rectangle 878" class="cls-1" width="247.808" height="395.303" transform="translate(95.87 60.39)"/>
        </g>
        <g id="Groupe_1443" data-name="Groupe 1443" transform="translate(15.142)">
          <g id="Groupe_1441" data-name="Groupe 1441">
            <g id="Groupe_1440" data-name="Groupe 1440" class="cls-2">
              <rect id="Rectangle_879" data-name="Rectangle 879" class="cls-3" width="204.598" height="352.126" transform="translate(-20.513 -4.874)"/>
            </g>
          </g>
        </g>
      </g>
      <g id="Groupe_1448" data-name="Groupe 1448" transform="translate(7.181)">
        <path id="Tracé_30168" data-name="Tracé 30168" class="cls-4" d="M826.7,357.8v41.716h2.6V357.8Z" transform="translate(-649.764 -274.491)"/>
        <path id="Tracé_30169" data-name="Tracé 30169" class="cls-5" d="M391.1,284.5h2.6V270.2h-2.6Zm0,37.532h2.6V295.343h-2.6Zm0,33.917h2.6V329.26h-2.6Z" transform="translate(-391.1 -222.473)"/>
        <path id="Tracé_30170" data-name="Tracé 30170" class="cls-6" d="M546.112,152.7H419.543A25.136,25.136,0,0,0,394.4,177.843V484.8a25.136,25.136,0,0,0,25.143,25.143H546.112A25.136,25.136,0,0,0,571.255,484.8V177.884A25.171,25.171,0,0,0,546.112,152.7Zm16.9,332.141a16.91,16.91,0,0,1-16.9,16.9H419.543a16.91,16.91,0,0,1-16.9-16.9V177.884a16.91,16.91,0,0,1,16.9-16.9h16.532c1.259.244,1.909,1.34,2.193,2.681,0,0,2.8,9.992,7.515,9.992h74.13c4.712,0,7.514-9.992,7.514-9.992.487-1.747.934-2.437,2.193-2.681h16.532a16.91,16.91,0,0,1,16.9,16.9V484.841Z" transform="translate(-393.06 -152.7)"/>
        <g id="Groupe_1447" data-name="Groupe 1447" transform="translate(51.911 8.002)">
          <g id="Groupe_1445" data-name="Groupe 1445" transform="translate(0 3.331)">
            <circle id="Ellipse_319" data-name="Ellipse 319" class="cls-7" cx="3.087" cy="3.087" r="3.087"/>
            <circle id="Ellipse_320" data-name="Ellipse 320" class="cls-8" cx="3.087" cy="3.087" r="3.087"/>
            <path id="Tracé_30171" data-name="Tracé 30171" class="cls-9" d="M525.806,186a1.5,1.5,0,1,1-1.5-1.5A1.5,1.5,0,0,1,525.806,186Z" transform="translate(-521.216 -182.916)"/>
          </g>
          <circle id="Ellipse_321" data-name="Ellipse 321" class="cls-10" cx="3.128" cy="3.128" r="3.128" transform="translate(54.389 3.29)"/>
          <circle id="Ellipse_322" data-name="Ellipse 322" class="cls-11" cx="3.737" cy="3.737" r="3.737" transform="translate(68.24 2.681)"/>
          <g id="Groupe_1446" data-name="Groupe 1446" transform="translate(15.313 2.803)">
            <circle id="Ellipse_323" data-name="Ellipse 323" class="cls-12" cx="3.615" cy="3.615" r="3.615"/>
            <circle id="Ellipse_324" data-name="Ellipse 324" class="cls-8" cx="3.615" cy="3.615" r="3.615"/>
            <circle id="Ellipse_325" data-name="Ellipse 325" class="cls-13" cx="2.153" cy="2.153" r="2.153" transform="translate(1.462 1.462)"/>
          </g>
          <path id="Tracé_30172" data-name="Tracé 30172" class="cls-14" d="M606.478,187.981H586.94a1.352,1.352,0,0,1-1.34-1.34h0a1.352,1.352,0,0,1,1.34-1.34h19.538a1.352,1.352,0,0,1,1.34,1.34h0A1.352,1.352,0,0,1,606.478,187.981Z" transform="translate(-558.507 -180.06)"/>
          <path id="Tracé_30173" data-name="Tracé 30173" class="cls-15" d="M606.478,175.081H586.94a1.352,1.352,0,0,1-1.34-1.34h0a1.352,1.352,0,0,1,1.34-1.34h19.538a1.352,1.352,0,0,1,1.34,1.34h0A1.352,1.352,0,0,1,606.478,175.081Z" transform="translate(-558.507 -172.4)"/>
        </g>
      </g>
      <rect id="Rectangle_880" data-name="Rectangle 880" class="cls-16" width="35.46" height="35.46" transform="translate(33.38 41.919)"/>
      <rect id="Rectangle_881" data-name="Rectangle 881" class="cls-17" width="78.598" height="5.687" transform="translate(81.513 45.696)"/>
      <line id="Ligne_218" data-name="Ligne 218" class="cls-18" x2="48.946" transform="translate(81.513 58.288)"/>
      <line id="Ligne_219" data-name="Ligne 219" class="cls-18" x2="42.447" transform="translate(81.513 65.6)"/>
      <line id="Ligne_220" data-name="Ligne 220" class="cls-18" x2="48.337" transform="translate(81.554 72.383)"/>
      <line id="Ligne_221" data-name="Ligne 221" class="cls-19" x2="127.381" y2="0.162" transform="translate(33.583 92.814)"/>
      <g id="Groupe_1449" data-name="Groupe 1449" transform="translate(34.395 109.671)">
        <rect id="Rectangle_882" data-name="Rectangle 882" class="cls-17" width="126.325" height="5.687"/>
        <line id="Ligne_222" data-name="Ligne 222" class="cls-18" x2="125.919" transform="translate(0 16.857)"/>
        <line id="Ligne_223" data-name="Ligne 223" class="cls-18" x2="109.265" transform="translate(0 24.168)"/>
        <line id="Ligne_224" data-name="Ligne 224" class="cls-18" x2="125.309" transform="translate(0.203 31.48)"/>
        <line id="Ligne_225" data-name="Ligne 225" class="cls-18" x2="84.894" transform="translate(0.203 38.994)"/>
        <line id="Ligne_226" data-name="Ligne 226" class="cls-18" x2="118.404" transform="translate(0.203 46.306)"/>
        <line id="Ligne_227" data-name="Ligne 227" class="cls-18" x2="120.029" transform="translate(0.406 53.617)"/>
      </g>
      <g id="Groupe_1452" data-name="Groupe 1452" transform="translate(34.598 186.441)">
        <g id="Groupe_1450" data-name="Groupe 1450" class="cls-20" transform="translate(4.062 4.062)">
          <rect id="Rectangle_883" data-name="Rectangle 883" width="126.528" height="58.532"/>
        </g>
        <g id="Groupe_1451" data-name="Groupe 1451">
          <rect id="Rectangle_884" data-name="Rectangle 884" class="cls-21" width="126.528" height="58.532"/>
        </g>
      </g>
      <g id="Groupe_1455" data-name="Groupe 1455" transform="translate(35.817 263.211)">
        <g id="Groupe_1453" data-name="Groupe 1453" class="cls-20" transform="translate(4.062 4.062)">
          <rect id="Rectangle_885" data-name="Rectangle 885" width="126.528" height="58.532"/>
        </g>
        <g id="Groupe_1454" data-name="Groupe 1454">
          <rect id="Rectangle_886" data-name="Rectangle 886" class="cls-22" width="126.528" height="58.532"/>
        </g>
      </g>
      <g id="Groupe_1461" data-name="Groupe 1461" transform="translate(34.598 186.441)">
        <g id="Groupe_1458" data-name="Groupe 1458" class="cls-23">
          <rect id="Rectangle_887" data-name="Rectangle 887" class="cls-24" width="265.063" height="245.956" transform="translate(-62.327 -13.019)"/>
          <g id="Groupe_1457" data-name="Groupe 1457" transform="translate(-46.443 2.898)">
            <path id="Tracé_30174" data-name="Tracé 30174" class="cls-25" d="M373.848,741.611c-13.526-14.135-35.745-42.65-23.518-81.4s55.851-56.135,91.149-26.28,38.872,25.265,72.261,12.714c33.389-12.511,58.369,11.251,63.041,61.01S566.138,805.5,504.356,810.7s-47.768-14.339-105.122,15.07c-51.22,26.24-70.677-26.565-41.025-48.377C385.505,757.331,379.575,747.582,373.848,741.611Z" transform="translate(-344.261 -618.834)"/>
          </g>
        </g>
        <g id="Groupe_1460" data-name="Groupe 1460" class="cls-23">
          <rect id="Rectangle_889" data-name="Rectangle 889" class="cls-24" width="275.786" height="240.594" transform="translate(-75.585 -36.123)"/>
          <g id="Groupe_1459" data-name="Groupe 1459" transform="translate(-59.702 -20.269)">
            <path id="Tracé_30175" data-name="Tracé 30175" class="cls-25" d="M349.793,679.88c-11.455-15.841-29.611-47.159-12.186-83.838s63-47.971,93.911-13.567,35.054,30.342,69.865,22.462,56.3,19.131,54.1,69.052-23.925,95.5-85.828,92.164-45.371-20.716-106.219.569c-54.308,19.01-66.412-35.988-34.039-53.536C359.176,697.021,354.627,686.582,349.793,679.88Z" transform="translate(-311.619 -561.801)"/>
          </g>
        </g>
      </g>
      <g id="Groupe_1466" data-name="Groupe 1466" transform="translate(33.38 41.919)">
        <g id="Groupe_1462" data-name="Groupe 1462" class="cls-26">
          <path id="Tracé_30176" data-name="Tracé 30176" class="cls-27" d="M524.675,255.945c-3.29,16.613-12.348,18.725-17.466,25.509-5.077,6.743-1.544,10.2-2.275,18.766-.569,6.5-8.814,23.681-26.768,18.563-20.188-5.727-42.487-24.453-45.7-40.741-3.371-17.141,11.13-18.766,19.619-31.52,6.012-9.058-3.371-24.656,10.723-31.845C488.646,201.475,530.524,226.212,524.675,255.945Z" transform="translate(-441.569 -229.258)"/>
        </g>
        <g id="Groupe_1463" data-name="Groupe 1463" class="cls-26">
          <path id="Tracé_30177" data-name="Tracé 30177" class="cls-27" d="M543.175,268.445c-3.29,16.613-12.348,18.725-17.466,25.509-5.077,6.743-1.544,10.2-2.275,18.766-.569,6.5-8.814,23.681-26.768,18.563-20.188-5.727-42.487-24.453-45.7-40.741-3.371-17.141,11.13-18.766,19.619-31.52,6.012-9.058-3.371-24.656,10.723-31.845C507.146,213.975,549.024,238.712,543.175,268.445Z" transform="translate(-452.554 -236.681)"/>
        </g>
        <g id="Groupe_1464" data-name="Groupe 1464" class="cls-26">
          <path id="Tracé_30178" data-name="Tracé 30178" class="cls-27" d="M563.175,273.945c-3.29,16.613-12.348,18.725-17.466,25.509-5.077,6.743-1.544,10.2-2.275,18.766-.569,6.5-8.814,23.681-26.768,18.563-20.188-5.727-42.487-24.453-45.7-40.741-3.371-17.141,11.13-18.766,19.619-31.52,6.012-9.058-3.371-24.656,10.723-31.845C527.146,219.475,569.024,244.212,563.175,273.945Z" transform="translate(-464.431 -239.947)"/>
        </g>
        <g id="Groupe_1465" data-name="Groupe 1465" class="cls-26">
          <path id="Tracé_30179" data-name="Tracé 30179" class="cls-27" d="M578.675,281.723c-3.29,16.613-12.348,18.725-17.466,25.509-5.077,6.743-1.544,10.2-2.275,18.766-.569,6.5-8.814,23.681-26.768,18.563-20.188-5.727-42.487-24.453-45.7-40.741-3.371-17.141,11.13-18.766,19.619-31.52,6.012-9.058-3.371-24.656,10.723-31.845C542.646,227.212,584.524,251.989,578.675,281.723Z" transform="translate(-473.635 -244.556)"/>
        </g>
      </g>
      <g id="Groupe_1469" data-name="Groupe 1469" transform="translate(35.817 263.211)">
        <g id="Groupe_1467" data-name="Groupe 1467" class="cls-28">
          <path id="Tracé_30180" data-name="Tracé 30180" class="cls-29" d="M525.7,781.681c18.319,13.973,54.1-.366,69.215-27.621s6.377-66.209-38.06-89.4-95.089-12.1-115.236,21.406c-16.613,27.58-7.027,56.582,9.1,63.041,18.807,7.515,29-.609,46.671,8.489C513.145,765.758,507.378,767.708,525.7,781.681Z" transform="translate(-444.581 -712.629)"/>
        </g>
        <g id="Groupe_1468" data-name="Groupe 1468" class="cls-28">
          <path id="Tracé_30181" data-name="Tracé 30181" class="cls-30" d="M545.755,740.44c11.658,19.9,50.2,20.188,74.536.691s30.992-58.857-1.34-97.16-83.391-47.24-114.789-23.843c-25.834,19.253-27.946,49.677-15.476,61.781,14.542,14.095,27.093,10.4,39.969,25.549C540.15,720.943,534.1,720.577,545.755,740.44Z" transform="translate(-473.291 -685.848)"/>
        </g>
      </g>
    </g>
    <g id="Groupe_1481" data-name="Groupe 1481" transform="translate(0 0)">
      <g id="Groupe_1472" data-name="Groupe 1472" transform="translate(0.122 0.081)">
        <rect id="Rectangle_897" data-name="Rectangle 897" class="cls-1" width="166.115" height="120.102" transform="translate(6.126 12.41)"/>
        <g id="Groupe_1471" data-name="Groupe 1471">
          <path id="Tracé_30182" data-name="Tracé 30182" class="cls-31" d="M160.284,104.99a22.584,22.584,0,1,1,7.433-43.909,34.906,34.906,0,0,1,68.727,8.205,17.855,17.855,0,0,1-.487,35.7H183.884" transform="translate(-137.7 -34.8)"/>
        </g>
      </g>
      <circle id="Ellipse_326" data-name="Ellipse 326" class="cls-32" cx="17.832" cy="17.832" r="17.832" transform="translate(80.466 34.445)"/>
      <g id="Groupe_1473" data-name="Groupe 1473" transform="translate(29.002)">
        <circle id="Ellipse_327" data-name="Ellipse 327" class="cls-33" cx="35.014" cy="35.014" r="35.014"/>
      </g>
      <g id="Groupe_1476" data-name="Groupe 1476" transform="translate(80.466 34.445)">
        <g id="Groupe_1475" data-name="Groupe 1475" class="cls-34" transform="translate(0)">
          <rect id="Rectangle_898" data-name="Rectangle 898" class="cls-35" width="98.168" height="98.168" transform="translate(-65.474 -48.499)"/>
          <g id="Groupe_1474" data-name="Groupe 1474" transform="translate(-51.464 -34.445)">
            <circle id="Ellipse_328" data-name="Ellipse 328" class="cls-33" cx="35.014" cy="35.014" r="35.014"/>
          </g>
        </g>
      </g>
      <g id="Groupe_1477" data-name="Groupe 1477" transform="translate(0 24.818)">
        <circle id="Ellipse_330" data-name="Ellipse 330" class="cls-36" cx="22.706" cy="22.706" r="22.706"/>
      </g>
      <g id="Groupe_1480" data-name="Groupe 1480" transform="translate(29.002)">
        <g id="Groupe_1479" data-name="Groupe 1479" class="cls-37">
          <rect id="Rectangle_899" data-name="Rectangle 899" class="cls-38" width="70.482" height="70.482" transform="translate(-41.505 12.36)"/>
          <g id="Groupe_1478" data-name="Groupe 1478" transform="translate(-29.002 24.818)">
            <circle id="Ellipse_331" data-name="Ellipse 331" class="cls-36" cx="22.706" cy="22.706" r="22.706"/>
          </g>
        </g>
      </g>
    </g>
    <g id="Groupe_1492" data-name="Groupe 1492" transform="translate(294.609 314.675)">
      <g id="Groupe_1483" data-name="Groupe 1483" transform="translate(0.081 0.041)">
        <rect id="Rectangle_900" data-name="Rectangle 900" class="cls-1" width="136.09" height="98.46" transform="translate(5.092 10.125)"/>
        <g id="Groupe_1482" data-name="Groupe 1482">
          <path id="Tracé_30183" data-name="Tracé 30183" class="cls-39" d="M881.422,866.917a18.522,18.522,0,0,1,0-37.044,17.784,17.784,0,0,1,6.093,1.056,28.593,28.593,0,0,1,56.3,6.743,14.625,14.625,0,0,1-.366,29.246H900.757" transform="translate(-862.9 -809.4)"/>
        </g>
      </g>
      <circle id="Ellipse_333" data-name="Ellipse 333" class="cls-40" cx="14.623" cy="14.623" r="14.623" transform="translate(65.925 28.149)"/>
      <g id="Groupe_1484" data-name="Groupe 1484" transform="translate(23.762)">
        <circle id="Ellipse_334" data-name="Ellipse 334" class="cls-41" cx="28.677" cy="28.677" r="28.677"/>
      </g>
      <g id="Groupe_1487" data-name="Groupe 1487" transform="translate(65.925 28.149)">
        <g id="Groupe_1486" data-name="Groupe 1486" class="cls-42">
          <rect id="Rectangle_901" data-name="Rectangle 901" class="cls-35" width="80.425" height="80.425" transform="translate(-53.679 -39.669)"/>
          <g id="Groupe_1485" data-name="Groupe 1485" transform="translate(-42.162 -28.149)">
            <circle id="Ellipse_335" data-name="Ellipse 335" class="cls-41" cx="28.677" cy="28.677" r="28.677"/>
          </g>
        </g>
      </g>
      <g id="Groupe_1488" data-name="Groupe 1488" transform="translate(0 20.309)">
        <circle id="Ellipse_337" data-name="Ellipse 337" class="cls-43" cx="18.603" cy="18.603" r="18.603"/>
      </g>
      <g id="Groupe_1491" data-name="Groupe 1491" transform="translate(23.762)">
        <g id="Groupe_1490" data-name="Groupe 1490" class="cls-44">
          <rect id="Rectangle_902" data-name="Rectangle 902" class="cls-38" width="57.809" height="57.809" transform="translate(-34.028 10.032)"/>
          <g id="Groupe_1489" data-name="Groupe 1489" transform="translate(-23.762 20.309)">
            <circle id="Ellipse_338" data-name="Ellipse 338" class="cls-43" cx="18.603" cy="18.603" r="18.603"/>
          </g>
        </g>
      </g>
    </g>
  </g>
</svg>
