<?xml version="1.0" encoding="utf-8"?>
<!-- Generator: Adobe Illustrator 23.0.3, SVG Export Plug-In . SVG Version: 6.00 Build 0)  -->
<svg version="1.1" id="Calque_1" xmlns="http://www.w3.org/2000/svg" xmlns:xlink="http://www.w3.org/1999/xlink" x="0px" y="0px"
	 viewBox="0 0 530 360" style="enable-background:new 0 0 530 360;" xml:space="preserve">
<style type="text/css">
	.st0{fill:none;stroke:url(#SVGID_1_);stroke-width:2.6805;stroke-miterlimit:10;}
	.st1{fill:url(#SVGID_2_);}
	.st2{fill:url(#SVGID_3_);}
	.st3{fill:url(#SVGID_4_);}
	.st4{fill:url(#SVGID_5_);}
	.st5{fill:url(#SVGID_6_);}
	.st6{fill:url(#SVGID_7_);}
	.st7{clip-path:url(#SVGID_9_);}
	.st8{fill:url(#SVGID_10_);}
	.st9{fill:url(#SVGID_11_);}
	.st10{fill:url(#SVGID_12_);}
	.st11{fill:url(#SVGID_13_);}
	.st12{fill:url(#SVGID_14_);}
	.st13{fill:url(#SVGID_15_);}
	.st14{fill:url(#SVGID_16_);}
	.st15{fill:url(#SVGID_17_);}
	.st16{fill:url(#SVGID_18_);}
	.st17{fill:url(#SVGID_19_);}
	.st18{fill:url(#SVGID_20_);}
	.st19{fill:url(#SVGID_21_);}
	.st20{fill:url(#SVGID_22_);}
	.st21{fill:url(#SVGID_23_);}
	.st22{fill:url(#SVGID_24_);}
	.st23{fill:url(#SVGID_25_);}
	.st24{fill:url(#SVGID_26_);}
	.st25{fill:url(#SVGID_27_);}
	.st26{fill:url(#SVGID_28_);}
	.st27{fill:url(#SVGID_29_);}
	.st28{fill:url(#SVGID_30_);}
	.st29{fill:url(#SVGID_31_);}
	.st30{fill:url(#SVGID_32_);}
</style>
<g>
	
		<image style="overflow:visible;opacity:0.3;" width="1088" height="383" xlink:href="E7937F09.png"  transform="matrix(0.24 0 0 0.24 148.1176 7.4776)">
	</image>
	<g>
		<linearGradient id="SVGID_1_" gradientUnits="userSpaceOnUse" x1="157.1864" y1="48.946" x2="391.1188" y2="48.946">
			<stop  offset="0" style="stop-color:#4D3933"/>
			<stop  offset="1" style="stop-color:#3C163C"/>
		</linearGradient>
		<polyline class="st0" points="157.8,80.1 275.1,18.1 390.5,77.9 		"/>
	</g>
</g>
<g>
	
		<image style="overflow:visible;opacity:0.3;" width="216" height="216" xlink:href="E7937F0A.png"  transform="matrix(0.24 0 0 0.24 253.7175 -3.3224)">
	</image>
	<g>
		<linearGradient id="SVGID_2_" gradientUnits="userSpaceOnUse" x1="262.7516" y1="18.0848" x2="287.3893" y2="18.0848">
			<stop  offset="0" style="stop-color:#C30B64"/>
			<stop  offset="1" style="stop-color:#EC6727"/>
		</linearGradient>
		<circle class="st1" cx="275.1" cy="18.1" r="12.3"/>
	</g>
</g>
<g>
	
		<image style="overflow:visible;opacity:0.2;" width="1794" height="1250" xlink:href="E7937F0B.png"  transform="matrix(0.24 0 0 0.24 71.8091 55.0091)">
	</image>
	<g>
		<g>
			<linearGradient id="SVGID_3_" gradientUnits="userSpaceOnUse" x1="76.7901" y1="195.3152" x2="102.3287" y2="195.3152">
				<stop  offset="0" style="stop-color:#4D3933"/>
				<stop  offset="1" style="stop-color:#3C163C"/>
			</linearGradient>
			<path class="st2" d="M102.3,307.9V82.8L76.8,60.1v270.5L102.3,307.9z"/>
			<linearGradient id="SVGID_4_" gradientUnits="userSpaceOnUse" x1="76.7901" y1="319.2209" x2="477.8752" y2="319.2209">
				<stop  offset="0" style="stop-color:#4D3933"/>
				<stop  offset="1" style="stop-color:#3C163C"/>
			</linearGradient>
			<path class="st3" d="M76.8,330.6h401.1l-25.5-22.7h-350L76.8,330.6z"/>
			<linearGradient id="SVGID_5_" gradientUnits="userSpaceOnUse" x1="452.3371" y1="195.3152" x2="477.8752" y2="195.3152">
				<stop  offset="0" style="stop-color:#4D3933"/>
				<stop  offset="1" style="stop-color:#3C163C"/>
			</linearGradient>
			<path class="st4" d="M477.9,330.6V60.1l-25.5,22.7v225.1L477.9,330.6z"/>
			<linearGradient id="SVGID_6_" gradientUnits="userSpaceOnUse" x1="76.7901" y1="71.4095" x2="477.8752" y2="71.4095">
				<stop  offset="0" style="stop-color:#4D3933"/>
				<stop  offset="1" style="stop-color:#3C163C"/>
			</linearGradient>
			<path class="st5" d="M102.3,82.8h350l25.5-22.7H76.8L102.3,82.8z"/>
		</g>
	</g>
</g>
<linearGradient id="SVGID_7_" gradientUnits="userSpaceOnUse" x1="102.3285" y1="195.3152" x2="452.3369" y2="195.3152">
	<stop  offset="0" style="stop-color:#164676"/>
	<stop  offset="1" style="stop-color:#3C163C"/>
</linearGradient>
<rect x="102.3" y="82.8" class="st6" width="350" height="225.1"/>
<g>
	<defs>
		<rect id="SVGID_8_" x="102.3" y="82.8" width="350" height="225.1"/>
	</defs>
	<clipPath id="SVGID_9_">
		<use xlink:href="#SVGID_8_"  style="overflow:visible;"/>
	</clipPath>
	<g class="st7">
		
			<image style="overflow:visible;opacity:0.3;" width="1795" height="1250" xlink:href="E7937F18.png"  transform="matrix(0.24 0 0 0.24 61.9691 45.4091)">
		</image>
		<g>
			<g>
				<linearGradient id="SVGID_10_" gradientUnits="userSpaceOnUse" x1="76.7901" y1="195.3152" x2="102.3287" y2="195.3152">
					<stop  offset="0" style="stop-color:#4D3933"/>
					<stop  offset="1" style="stop-color:#3C163C"/>
				</linearGradient>
				<path class="st8" d="M102.3,307.9V82.8L76.8,60.1v270.5L102.3,307.9z"/>
				<linearGradient id="SVGID_11_" gradientUnits="userSpaceOnUse" x1="76.7901" y1="319.2209" x2="477.8752" y2="319.2209">
					<stop  offset="0" style="stop-color:#4D3933"/>
					<stop  offset="1" style="stop-color:#3C163C"/>
				</linearGradient>
				<path class="st9" d="M76.8,330.6h401.1l-25.5-22.7h-350L76.8,330.6z"/>
				<linearGradient id="SVGID_12_" gradientUnits="userSpaceOnUse" x1="452.3371" y1="195.3152" x2="477.8752" y2="195.3152">
					<stop  offset="0" style="stop-color:#4D3933"/>
					<stop  offset="1" style="stop-color:#3C163C"/>
				</linearGradient>
				<path class="st10" d="M477.9,330.6V60.1l-25.5,22.7v225.1L477.9,330.6z"/>
				<linearGradient id="SVGID_13_" gradientUnits="userSpaceOnUse" x1="76.7901" y1="71.4095" x2="477.8752" y2="71.4095">
					<stop  offset="0" style="stop-color:#4D3933"/>
					<stop  offset="1" style="stop-color:#3C163C"/>
				</linearGradient>
				<path class="st11" d="M102.3,82.8h350l25.5-22.7H76.8L102.3,82.8z"/>
			</g>
		</g>
	</g>
</g>
<g>
	<g>
		
			<image style="overflow:visible;opacity:0.6;" width="469" height="668" xlink:href="E7937F19.png"  transform="matrix(0.24 0 0 0.24 137.8751 202.4351)">
		</image>
		<g>
			<linearGradient id="SVGID_14_" gradientUnits="userSpaceOnUse" x1="159.2107" y1="282.5781" x2="229.0023" y2="282.5781">
				<stop  offset="0" style="stop-color:#C30B64"/>
				<stop  offset="1" style="stop-color:#EC6727"/>
			</linearGradient>
			<polygon class="st12" points="229,341.3 194.2,311.4 159.2,341.3 159.2,223.8 229,223.8 			"/>
		</g>
	</g>
	<linearGradient id="SVGID_15_" gradientUnits="userSpaceOnUse" x1="193.6846" y1="282.5781" x2="229.0023" y2="282.5781">
		<stop  offset="0" style="stop-color:#C30B64"/>
		<stop  offset="1" style="stop-color:#EC6727"/>
	</linearGradient>
	<polyline class="st13" points="193.7,223.8 229,223.8 229,341.3 194.2,311.4 	"/>
	<linearGradient id="SVGID_16_" gradientUnits="userSpaceOnUse" x1="128.1812" y1="198.0205" x2="257.5005" y2="198.0205">
		<stop  offset="0" style="stop-color:#40B7AB"/>
		<stop  offset="1" style="stop-color:#7BA0B5"/>
	</linearGradient>
	<path class="st14" d="M199.7,138l1.5-0.7c7.4-3.6,16.7-0.6,20.6,6.7l0.8,1.5c2,3.7,6.9,7.3,11.1,8l1.6,0.3
		c8.2,1.4,13.9,9.3,12.7,17.5l-0.2,1.7c-0.6,4.1,1.3,10,4.2,13l1.2,1.2c5.8,6,5.8,15.7,0,21.7l-1.2,1.2c-2.9,3-4.8,8.9-4.2,13
		l0.2,1.7c1.2,8.2-4.6,16.1-12.7,17.5l-1.6,0.3c-4.1,0.7-9.1,4.3-11.1,8l-0.8,1.5c-3.9,7.3-13.2,10.3-20.6,6.7l-1.5-0.7
		c-3.8-1.8-9.9-1.8-13.7,0l-1.5,0.7c-7.4,3.6-16.7,0.6-20.6-6.7l-0.8-1.5c-2-3.7-6.9-7.3-11.1-8l-1.6-0.3
		c-8.2-1.4-13.9-9.3-12.7-17.5l0.2-1.7c0.6-4.1-1.3-10-4.2-13l-1.2-1.2c-5.8-6-5.8-15.7,0-21.7l1.2-1.2c2.9-3,4.8-8.9,4.2-13
		l-0.2-1.7c-1.2-8.2,4.6-16.1,12.7-17.5l1.6-0.3c4.1-0.7,9.1-4.3,11.1-8l0.8-1.5c3.9-7.3,13.2-10.3,20.6-6.7l1.5,0.7
		C189.8,139.9,195.9,139.9,199.7,138z"/>
	<linearGradient id="SVGID_17_" gradientUnits="userSpaceOnUse" x1="132.5187" y1="198.0205" x2="253.163" y2="198.0205">
		<stop  offset="0" style="stop-color:#7BA0B5"/>
		<stop  offset="1" style="stop-color:#40B7AB"/>
	</linearGradient>
	<path class="st15" d="M199.2,142l1.4-0.7c6.9-3.4,15.6-0.6,19.2,6.2l0.7,1.4c1.8,3.5,6.5,6.8,10.3,7.5l1.5,0.3
		c7.6,1.3,13,8.7,11.9,16.4l-0.2,1.5c-0.5,3.9,1.2,9.3,3.9,12.1l1.1,1.1c5.4,5.6,5.4,14.7,0,20.2l-1.1,1.1
		c-2.7,2.8-4.5,8.3-3.9,12.1l0.2,1.5c1.1,7.7-4.3,15-11.9,16.4l-1.5,0.3c-3.8,0.7-8.5,4.1-10.3,7.5l-0.7,1.4
		c-3.6,6.8-12.3,9.6-19.2,6.2l-1.4-0.7c-3.5-1.7-9.3-1.7-12.8,0l-1.4,0.7c-6.9,3.4-15.6,0.6-19.2-6.2l-0.7-1.4
		c-1.8-3.5-6.5-6.8-10.3-7.5l-1.5-0.3c-7.6-1.3-13-8.7-11.9-16.4l0.2-1.5c0.5-3.9-1.2-9.3-3.9-12.1l-1.1-1.1
		c-5.4-5.6-5.4-14.7,0-20.2l1.1-1.1c2.7-2.8,4.5-8.3,3.9-12.1l-0.2-1.5c-1.1-7.7,4.3-15,11.9-16.4l1.5-0.3c3.8-0.7,8.5-4.1,10.3-7.5
		l0.7-1.4c3.6-6.8,12.3-9.6,19.2-6.2l1.4,0.7C190,143.8,195.7,143.8,199.2,142z"/>
	<g>
		
			<image style="overflow:visible;opacity:0.6;" width="628" height="611" xlink:href="E7937F1E.png"  transform="matrix(0.24 0 0 0.24 117.4751 124.6751)">
		</image>
		<g>
			<linearGradient id="SVGID_18_" gradientUnits="userSpaceOnUse" x1="138.9013" y1="198.0205" x2="246.7804" y2="198.0205">
				<stop  offset="0" style="stop-color:#7BA0B5"/>
				<stop  offset="1" style="stop-color:#40B7AB"/>
			</linearGradient>
			<path class="st16" d="M198.5,148l1.3-0.6c6.2-3,13.9-0.5,17.2,5.6l0.7,1.2c1.6,3.1,5.8,6.1,9.2,6.7l1.4,0.2
				c6.8,1.2,11.6,7.8,10.6,14.6l-0.2,1.4c-0.5,3.5,1.1,8.3,3.5,10.9l1,1c4.8,5,4.8,13.1,0,18.1l-1,1c-2.4,2.5-4,7.4-3.5,10.9
				l0.2,1.4c1,6.8-3.8,13.4-10.6,14.6l-1.4,0.2c-3.4,0.6-7.6,3.6-9.2,6.7l-0.7,1.2c-3.2,6.1-11,8.6-17.2,5.6l-1.3-0.6
				c-3.1-1.5-8.3-1.5-11.4,0l-1.3,0.6c-6.2,3-13.9,0.5-17.2-5.6l-0.7-1.2c-1.6-3.1-5.8-6.1-9.2-6.7l-1.4-0.2
				c-6.8-1.2-11.6-7.8-10.6-14.6l0.2-1.4c0.5-3.5-1.1-8.3-3.5-10.9l-1-1c-4.8-5-4.8-13.1,0-18.1l1-1c2.4-2.5,4-7.4,3.5-10.9
				l-0.2-1.4c-1-6.8,3.8-13.4,10.6-14.6l1.4-0.2c3.4-0.6,7.6-3.6,9.2-6.7l0.7-1.2c3.2-6.1,11-8.6,17.2-5.6l1.3,0.6
				C190.3,149.5,195.4,149.5,198.5,148z"/>
		</g>
	</g>
	<g>
		
			<image style="overflow:visible;opacity:0.3;" width="439" height="427" xlink:href="E7937F1F.png"  transform="matrix(0.24 0 0 0.24 140.2276 146.9476)">
		</image>
		<g>
			<linearGradient id="SVGID_19_" gradientUnits="userSpaceOnUse" x1="155.2329" y1="198.0205" x2="230.4488" y2="198.0205">
				<stop  offset="0" style="stop-color:#CCCCCC"/>
				<stop  offset="1" style="stop-color:#FFFFFF"/>
			</linearGradient>
			<path class="st17" d="M196.8,163.1l0.9-0.4c4.3-2.1,9.7-0.4,12,3.9l0.5,0.9c1.1,2.2,4,4.3,6.4,4.7l1,0.2
				c4.7,0.8,8.1,5.4,7.4,10.2l-0.1,1c-0.3,2.4,0.8,5.8,2.5,7.6l0.7,0.7c3.4,3.5,3.4,9.1,0,12.6l-0.7,0.7c-1.7,1.8-2.8,5.2-2.5,7.6
				l0.1,1c0.7,4.8-2.7,9.4-7.4,10.2l-1,0.2c-2.4,0.4-5.3,2.5-6.4,4.7l-0.5,0.9c-2.3,4.3-7.7,6-12,3.9l-0.9-0.4c-2.2-1.1-5.8-1.1-8,0
				l-0.9,0.4c-4.3,2.1-9.7,0.4-12-3.9l-0.5-0.9c-1.1-2.2-4-4.3-6.4-4.7l-1-0.2c-4.7-0.8-8.1-5.4-7.4-10.2l0.1-1
				c0.3-2.4-0.8-5.8-2.5-7.6l-0.7-0.7c-3.4-3.5-3.4-9.1,0-12.6l0.7-0.7c1.7-1.8,2.8-5.2,2.5-7.6l-0.1-1c-0.7-4.8,2.7-9.4,7.4-10.2
				l1-0.2c2.4-0.4,5.3-2.5,6.4-4.7l0.5-0.9c2.3-4.3,7.7-6,12-3.9l0.9,0.4C191.1,164.2,194.6,164.2,196.8,163.1z"/>
		</g>
	</g>
</g>
<g>
	
		<image style="overflow:visible;opacity:0.3;" width="739" height="366" xlink:href="E7937F14.png"  transform="matrix(0.24 0 0 0.24 275.8345 169.0345)">
	</image>
	<g>
		<g>
			<linearGradient id="SVGID_20_" gradientUnits="userSpaceOnUse" x1="289.3928" y1="185.5186" x2="385.2429" y2="185.5186">
				<stop  offset="0" style="stop-color:#CCCCCC"/>
				<stop  offset="1" style="stop-color:#FFFFFF"/>
			</linearGradient>
			<path class="st18" d="M382.4,188.3h-90.2c-1.6,0-2.8-1.3-2.8-2.8c0-1.6,1.3-2.8,2.8-2.8h90.2c1.6,0,2.8,1.3,2.8,2.8
				C385.2,187.1,384,188.3,382.4,188.3z"/>
			<linearGradient id="SVGID_21_" gradientUnits="userSpaceOnUse" x1="289.3928" y1="205.103" x2="425.8391" y2="205.103">
				<stop  offset="0" style="stop-color:#CCCCCC"/>
				<stop  offset="1" style="stop-color:#FFFFFF"/>
			</linearGradient>
			<path class="st19" d="M423,207.9H292.2c-1.6,0-2.8-1.3-2.8-2.8c0-1.6,1.3-2.8,2.8-2.8H423c1.6,0,2.8,1.3,2.8,2.8
				C425.8,206.7,424.6,207.9,423,207.9z"/>
			<linearGradient id="SVGID_22_" gradientUnits="userSpaceOnUse" x1="394.5136" y1="185.5186" x2="414.6202" y2="185.5186">
				<stop  offset="0" style="stop-color:#CCCCCC"/>
				<stop  offset="1" style="stop-color:#FFFFFF"/>
			</linearGradient>
			<path class="st20" d="M411.8,188.3h-14.5c-1.6,0-2.8-1.3-2.8-2.8c0-1.6,1.3-2.8,2.8-2.8h14.5c1.6,0,2.8,1.3,2.8,2.8
				C414.6,187.1,413.4,188.3,411.8,188.3z"/>
			<linearGradient id="SVGID_23_" gradientUnits="userSpaceOnUse" x1="289.4979" y1="226.6153" x2="339.1542" y2="226.6153">
				<stop  offset="0" style="stop-color:#CCCCCC"/>
				<stop  offset="1" style="stop-color:#FFFFFF"/>
			</linearGradient>
			<path class="st21" d="M336.3,229.4h-44c-1.6,0-2.8-1.3-2.8-2.8c0-1.6,1.3-2.8,2.8-2.8h44c1.6,0,2.8,1.3,2.8,2.8
				C339.2,228.2,337.9,229.4,336.3,229.4z"/>
			<linearGradient id="SVGID_24_" gradientUnits="userSpaceOnUse" x1="348.4851" y1="226.6153" x2="366.3125" y2="226.6153">
				<stop  offset="0" style="stop-color:#CCCCCC"/>
				<stop  offset="1" style="stop-color:#FFFFFF"/>
			</linearGradient>
			<path class="st22" d="M363.5,229.4h-12.2c-1.6,0-2.8-1.3-2.8-2.8c0-1.6,1.3-2.8,2.8-2.8h12.2c1.6,0,2.8,1.3,2.8,2.8
				C366.3,228.2,365.1,229.4,363.5,229.4z"/>
			<linearGradient id="SVGID_25_" gradientUnits="userSpaceOnUse" x1="374.7786" y1="226.6153" x2="384.6487" y2="226.6153">
				<stop  offset="0" style="stop-color:#CCCCCC"/>
				<stop  offset="1" style="stop-color:#FFFFFF"/>
			</linearGradient>
			<path class="st23" d="M381.8,229.4h-4.2c-1.6,0-2.8-1.3-2.8-2.8c0-1.6,1.3-2.8,2.8-2.8h4.2c1.6,0,2.8,1.3,2.8,2.8
				C384.6,228.2,383.4,229.4,381.8,229.4z"/>
		</g>
	</g>
</g>
<g>
	
		<image style="overflow:visible;opacity:0.3;" width="463" height="253" xlink:href="E7937F15.png"  transform="matrix(0.24 0 0 0.24 275.1145 134.7145)">
	</image>
	<g>
		<g>
			<linearGradient id="SVGID_26_" gradientUnits="userSpaceOnUse" x1="288.8126" y1="156.4682" x2="299.3156" y2="156.4682">
				<stop  offset="0" style="stop-color:#CCCCCC"/>
				<stop  offset="1" style="stop-color:#FFFFFF"/>
			</linearGradient>
			<path class="st24" d="M298.3,151.5c-0.1,0.2-0.2,0.3-0.3,0.3c-0.1,0.1-0.2,0.1-0.4,0.1c-0.2,0-0.3-0.1-0.5-0.2
				c-0.2-0.1-0.4-0.2-0.6-0.4c-0.2-0.1-0.5-0.3-0.9-0.4c-0.3-0.1-0.7-0.2-1.2-0.2c-0.4,0-0.8,0-1.1,0.1c-0.3,0.1-0.6,0.2-0.8,0.4
				c-0.2,0.2-0.4,0.4-0.5,0.6c-0.1,0.2-0.2,0.5-0.2,0.8c0,0.4,0.1,0.7,0.3,0.9c0.2,0.2,0.5,0.5,0.8,0.6c0.3,0.2,0.7,0.3,1.1,0.5
				c0.4,0.1,0.9,0.3,1.3,0.4c0.5,0.2,0.9,0.3,1.3,0.5s0.8,0.5,1.1,0.8c0.3,0.3,0.6,0.7,0.8,1.1c0.2,0.5,0.3,1,0.3,1.6
				c0,0.7-0.1,1.4-0.4,2c-0.2,0.6-0.6,1.1-1.1,1.6c-0.5,0.5-1,0.8-1.7,1.1c-0.7,0.3-1.4,0.4-2.3,0.4c-0.5,0-1,0-1.5-0.1
				c-0.5-0.1-0.9-0.2-1.4-0.4c-0.4-0.2-0.9-0.4-1.2-0.6s-0.7-0.5-1-0.8l0.8-1.4c0.1-0.1,0.2-0.2,0.3-0.3c0.1-0.1,0.2-0.1,0.4-0.1
				c0.2,0,0.4,0.1,0.6,0.2c0.2,0.1,0.5,0.3,0.7,0.5c0.3,0.2,0.6,0.3,1,0.5c0.4,0.1,0.8,0.2,1.4,0.2c0.8,0,1.5-0.2,1.9-0.6
				c0.5-0.4,0.7-1,0.7-1.7c0-0.4-0.1-0.7-0.3-1c-0.2-0.3-0.5-0.5-0.8-0.6c-0.3-0.2-0.7-0.3-1.1-0.4c-0.4-0.1-0.9-0.3-1.3-0.4
				c-0.4-0.1-0.9-0.3-1.3-0.5c-0.4-0.2-0.8-0.5-1.1-0.8c-0.3-0.3-0.6-0.7-0.8-1.2c-0.2-0.5-0.3-1.1-0.3-1.8c0-0.6,0.1-1.1,0.3-1.7
				c0.2-0.5,0.6-1,1-1.4c0.4-0.4,1-0.7,1.6-1c0.6-0.3,1.4-0.4,2.2-0.4c0.9,0,1.8,0.1,2.5,0.4c0.8,0.3,1.4,0.7,2,1.2L298.3,151.5z"/>
			<linearGradient id="SVGID_27_" gradientUnits="userSpaceOnUse" x1="302.505" y1="158.7182" x2="313.4053" y2="158.7182">
				<stop  offset="0" style="stop-color:#CCCCCC"/>
				<stop  offset="1" style="stop-color:#FFFFFF"/>
			</linearGradient>
			<path class="st25" d="M308,153c0.8,0,1.6,0.1,2.2,0.4c0.7,0.3,1.2,0.6,1.7,1.1c0.5,0.5,0.8,1.1,1.1,1.8s0.4,1.5,0.4,2.4
				c0,0.9-0.1,1.7-0.4,2.4c-0.3,0.7-0.6,1.3-1.1,1.8c-0.5,0.5-1,0.9-1.7,1.1c-0.7,0.3-1.4,0.4-2.2,0.4c-0.8,0-1.6-0.1-2.2-0.4
				c-0.7-0.3-1.2-0.6-1.7-1.1c-0.5-0.5-0.8-1.1-1.1-1.8c-0.3-0.7-0.4-1.5-0.4-2.4c0-0.9,0.1-1.7,0.4-2.4c0.3-0.7,0.6-1.3,1.1-1.8
				c0.5-0.5,1.1-0.9,1.7-1.1C306.4,153.2,307.1,153,308,153z M308,162.4c0.9,0,1.6-0.3,2-0.9c0.4-0.6,0.7-1.5,0.7-2.7
				c0-1.2-0.2-2.1-0.7-2.7c-0.4-0.6-1.1-0.9-2-0.9c-0.9,0-1.6,0.3-2.1,0.9c-0.4,0.6-0.7,1.5-0.7,2.7s0.2,2.1,0.7,2.7
				C306.4,162,307,162.4,308,162.4z"/>
			<linearGradient id="SVGID_28_" gradientUnits="userSpaceOnUse" x1="316.2834" y1="160.5652" x2="326.7327" y2="160.5652">
				<stop  offset="0" style="stop-color:#CCCCCC"/>
				<stop  offset="1" style="stop-color:#FFFFFF"/>
			</linearGradient>
			<path class="st26" d="M326.7,153.6v1c0,0.3-0.2,0.5-0.6,0.6l-1,0.2c0.2,0.4,0.2,0.8,0.2,1.2c0,0.5-0.1,1-0.3,1.5
				c-0.2,0.4-0.5,0.8-0.9,1.1c-0.4,0.3-0.8,0.5-1.4,0.7s-1.1,0.3-1.7,0.3c-0.2,0-0.4,0-0.6,0c-0.2,0-0.4-0.1-0.6-0.1
				c-0.3,0.2-0.5,0.4-0.5,0.7c0,0.2,0.1,0.4,0.3,0.5c0.2,0.1,0.5,0.2,0.8,0.2c0.3,0,0.7,0.1,1.1,0.1c0.4,0,0.9,0,1.3,0.1
				c0.5,0,0.9,0.1,1.3,0.2c0.4,0.1,0.8,0.2,1.1,0.4c0.3,0.2,0.6,0.5,0.8,0.8c0.2,0.3,0.3,0.8,0.3,1.3c0,0.5-0.1,1-0.4,1.4
				c-0.2,0.5-0.6,0.9-1,1.2c-0.5,0.4-1,0.6-1.7,0.9c-0.7,0.2-1.4,0.3-2.3,0.3c-0.8,0-1.6-0.1-2.2-0.2c-0.6-0.2-1.1-0.4-1.5-0.6
				c-0.4-0.3-0.7-0.6-0.9-0.9c-0.2-0.4-0.3-0.7-0.3-1.1c0-0.5,0.2-0.9,0.5-1.3c0.3-0.3,0.7-0.6,1.3-0.8c-0.3-0.2-0.5-0.4-0.7-0.6
				c-0.2-0.3-0.3-0.6-0.3-1c0-0.2,0-0.3,0.1-0.5c0.1-0.2,0.2-0.3,0.3-0.5s0.3-0.3,0.4-0.5c0.2-0.2,0.4-0.3,0.6-0.4
				c-0.6-0.3-1-0.7-1.3-1.2c-0.3-0.5-0.5-1.1-0.5-1.8c0-0.5,0.1-1,0.3-1.5c0.2-0.4,0.5-0.8,0.9-1.1c0.4-0.3,0.9-0.5,1.4-0.7
				c0.5-0.2,1.1-0.2,1.7-0.2c0.5,0,0.9,0,1.3,0.1c0.4,0.1,0.8,0.2,1.1,0.4H326.7z M324.1,164.7c0-0.2-0.1-0.4-0.2-0.5
				c-0.1-0.1-0.3-0.2-0.5-0.3c-0.2-0.1-0.5-0.1-0.8-0.2c-0.3,0-0.6-0.1-0.9-0.1c-0.3,0-0.7,0-1,0c-0.4,0-0.7,0-1-0.1
				c-0.3,0.2-0.5,0.4-0.7,0.6c-0.2,0.2-0.3,0.5-0.3,0.8c0,0.2,0,0.4,0.1,0.5c0.1,0.2,0.3,0.3,0.5,0.4c0.2,0.1,0.5,0.2,0.8,0.3
				c0.3,0.1,0.7,0.1,1.2,0.1c0.5,0,0.9,0,1.3-0.1c0.4-0.1,0.7-0.2,0.9-0.3c0.2-0.1,0.4-0.3,0.5-0.5
				C324,165.1,324.1,164.9,324.1,164.7z M321.1,158.5c0.3,0,0.6,0,0.9-0.1c0.2-0.1,0.4-0.2,0.6-0.4c0.2-0.2,0.3-0.3,0.4-0.6
				c0.1-0.2,0.1-0.5,0.1-0.7c0-0.5-0.2-1-0.5-1.3c-0.3-0.3-0.8-0.5-1.5-0.5c-0.7,0-1.1,0.2-1.5,0.5c-0.3,0.3-0.5,0.8-0.5,1.3
				c0,0.3,0,0.5,0.1,0.7c0.1,0.2,0.2,0.4,0.4,0.6c0.2,0.2,0.4,0.3,0.6,0.4C320.5,158.4,320.8,158.5,321.1,158.5z"/>
			<linearGradient id="SVGID_29_" gradientUnits="userSpaceOnUse" x1="329.8471" y1="156.2696" x2="333.2408" y2="156.2696">
				<stop  offset="0" style="stop-color:#CCCCCC"/>
				<stop  offset="1" style="stop-color:#FFFFFF"/>
			</linearGradient>
			<path class="st27" d="M333.2,150c0,0.2,0,0.4-0.1,0.6c-0.1,0.2-0.2,0.4-0.4,0.5s-0.3,0.3-0.5,0.4c-0.2,0.1-0.4,0.1-0.7,0.1
				c-0.2,0-0.4,0-0.6-0.1c-0.2-0.1-0.4-0.2-0.5-0.4c-0.2-0.2-0.3-0.3-0.4-0.5c-0.1-0.2-0.1-0.4-0.1-0.6c0-0.2,0-0.5,0.1-0.7
				c0.1-0.2,0.2-0.4,0.4-0.5c0.2-0.2,0.3-0.3,0.5-0.4c0.2-0.1,0.4-0.1,0.6-0.1c0.2,0,0.5,0,0.7,0.1c0.2,0.1,0.4,0.2,0.5,0.4
				s0.3,0.3,0.4,0.5C333.2,149.5,333.2,149.8,333.2,150z M332.9,153.2v11h-2.7v-11H332.9z"/>
			<linearGradient id="SVGID_30_" gradientUnits="userSpaceOnUse" x1="337.3322" y1="156.2534" x2="339.9848" y2="156.2534">
				<stop  offset="0" style="stop-color:#CCCCCC"/>
				<stop  offset="1" style="stop-color:#FFFFFF"/>
			</linearGradient>
			<path class="st28" d="M340,148.3v16h-2.7v-16H340z"/>
			<linearGradient id="SVGID_31_" gradientUnits="userSpaceOnUse" x1="344.0762" y1="156.2696" x2="347.47" y2="156.2696">
				<stop  offset="0" style="stop-color:#CCCCCC"/>
				<stop  offset="1" style="stop-color:#FFFFFF"/>
			</linearGradient>
			<path class="st29" d="M347.5,150c0,0.2,0,0.4-0.1,0.6c-0.1,0.2-0.2,0.4-0.4,0.5c-0.2,0.2-0.3,0.3-0.5,0.4
				c-0.2,0.1-0.4,0.1-0.7,0.1c-0.2,0-0.4,0-0.6-0.1c-0.2-0.1-0.4-0.2-0.5-0.4s-0.3-0.3-0.4-0.5c-0.1-0.2-0.1-0.4-0.1-0.6
				c0-0.2,0-0.5,0.1-0.7c0.1-0.2,0.2-0.4,0.4-0.5s0.3-0.3,0.5-0.4c0.2-0.1,0.4-0.1,0.6-0.1c0.2,0,0.5,0,0.7,0.1
				c0.2,0.1,0.4,0.2,0.5,0.4c0.2,0.2,0.3,0.3,0.4,0.5C347.4,149.5,347.5,149.8,347.5,150z M347.1,153.2v11h-2.7v-11H347.1z"/>
			<linearGradient id="SVGID_32_" gradientUnits="userSpaceOnUse" x1="350.7453" y1="158.7235" x2="358.9716" y2="158.7235">
				<stop  offset="0" style="stop-color:#CCCCCC"/>
				<stop  offset="1" style="stop-color:#FFFFFF"/>
			</linearGradient>
			<path class="st30" d="M358.3,155.4c-0.1,0.1-0.1,0.2-0.2,0.2c-0.1,0-0.2,0.1-0.3,0.1c-0.1,0-0.3,0-0.4-0.1
				c-0.1-0.1-0.3-0.2-0.5-0.2c-0.2-0.1-0.4-0.2-0.7-0.2c-0.2-0.1-0.5-0.1-0.9-0.1c-0.5,0-0.9,0.1-1.2,0.3c-0.3,0.2-0.4,0.5-0.4,0.9
				c0,0.2,0.1,0.4,0.2,0.6c0.2,0.2,0.4,0.3,0.6,0.4c0.3,0.1,0.5,0.2,0.9,0.3c0.3,0.1,0.6,0.2,1,0.3c0.3,0.1,0.7,0.2,1,0.4
				c0.3,0.1,0.6,0.3,0.9,0.6c0.3,0.2,0.5,0.5,0.6,0.8c0.2,0.3,0.2,0.7,0.2,1.1c0,0.5-0.1,1-0.3,1.5c-0.2,0.4-0.5,0.8-0.8,1.2
				c-0.4,0.3-0.8,0.6-1.4,0.8c-0.5,0.2-1.2,0.3-1.9,0.3c-0.4,0-0.7,0-1.1-0.1c-0.4-0.1-0.7-0.2-1-0.3c-0.3-0.1-0.6-0.3-0.9-0.4
				c-0.3-0.2-0.5-0.3-0.7-0.5l0.6-1c0.1-0.1,0.2-0.2,0.3-0.3c0.1-0.1,0.2-0.1,0.4-0.1c0.2,0,0.3,0,0.5,0.1c0.1,0.1,0.3,0.2,0.5,0.3
				c0.2,0.1,0.4,0.2,0.7,0.3c0.3,0.1,0.6,0.1,1,0.1c0.3,0,0.6,0,0.8-0.1c0.2-0.1,0.4-0.2,0.6-0.3c0.1-0.1,0.3-0.3,0.3-0.4
				c0.1-0.2,0.1-0.3,0.1-0.5c0-0.3-0.1-0.5-0.2-0.6c-0.2-0.2-0.4-0.3-0.6-0.4c-0.3-0.1-0.5-0.2-0.9-0.3c-0.3-0.1-0.7-0.2-1-0.3
				c-0.3-0.1-0.7-0.2-1-0.4c-0.3-0.2-0.6-0.3-0.9-0.6c-0.3-0.2-0.5-0.5-0.6-0.9c-0.2-0.3-0.2-0.8-0.2-1.2c0-0.5,0.1-0.9,0.3-1.3
				c0.2-0.4,0.4-0.8,0.8-1.1c0.3-0.3,0.8-0.5,1.3-0.7c0.5-0.2,1.1-0.3,1.8-0.3c0.8,0,1.4,0.1,2.1,0.4c0.6,0.3,1.1,0.6,1.6,1
				L358.3,155.4z"/>
		</g>
	</g>
</g>
</svg>
