<?xml version="1.0" encoding="utf-8"?>
<!-- Generator: Adobe Illustrator 22.1.0, SVG Export Plug-In . SVG Version: 6.00 Build 0)  -->
<svg version="1.1" id="Calque_1" xmlns="http://www.w3.org/2000/svg" xmlns:xlink="http://www.w3.org/1999/xlink" x="0px" y="0px"
	 viewBox="0 0 928.5 811.5" style="enable-background:new 0 0 928.5 811.5;" xml:space="preserve">
<style type="text/css">
	.st0{fill:#FFFFFF;}
	.st1{opacity:3.000000e-02;}
	.st2{fill:url(#SVGID_1_);}
	.st3{fill:#F2F2F2;}
	.st4{fill:url(#SVGID_2_);}
	.st5{fill:url(#SVGID_3_);}
	.st6{clip-path:url(#SVGID_5_);}
	.st7{opacity:0.14;}
	.st8{fill:#00DDC7;}
	.st9{fill:url(#SVGID_6_);}
	.st10{fill:#A2C3CA;}
	.st11{fill:url(#SVGID_7_);}
	.st12{fill:#00BCB4;}
	.st13{opacity:2.000000e-02;}
	.st14{fill:url(#SVGID_8_);}
	.st15{clip-path:url(#SVGID_10_);}
	.st16{opacity:0.22;}
	.st17{fill:#FDB98D;}
	.st18{opacity:0.44;fill:none;stroke:#3D113C;stroke-width:9;stroke-miterlimit:10;enable-background:new    ;}
	.st19{fill:url(#SVGID_11_);}
	.st20{fill:url(#SVGID_12_);}
	.st21{clip-path:url(#SVGID_14_);}
	.st22{fill:url(#SVGID_15_);}
	.st23{fill:url(#SVGID_16_);}
	.st24{clip-path:url(#SVGID_18_);}
	.st25{fill:url(#SVGID_19_);}
	.st26{fill:url(#SVGID_20_);}
	.st27{opacity:0.11;fill:#FFFFFF;enable-background:new    ;}
	.st28{fill:url(#SVGID_21_);}
	.st29{fill:url(#SVGID_22_);}
	.st30{fill:url(#SVGID_23_);}
	.st31{fill:url(#SVGID_24_);}
	.st32{fill:url(#SVGID_25_);}
	.st33{clip-path:url(#SVGID_27_);}
	.st34{fill:#FFB699;}
	.st35{fill:url(#SVGID_28_);}
	.st36{fill:url(#SVGID_29_);}
	.st37{fill:#198D8E;}
	.st38{fill:url(#SVGID_30_);}
	.st39{fill:url(#SVGID_31_);}
	.st40{fill:none;stroke:#FFFFFF;stroke-width:0.48;stroke-linecap:round;stroke-miterlimit:10;}
	.st41{fill:url(#SVGID_32_);}
	.st42{fill:none;stroke:#3D3937;stroke-width:0.75;stroke-miterlimit:10;}
	.st43{fill:url(#SVGID_33_);}
	.st44{fill:#3D3937;}
	.st45{fill:url(#SVGID_34_);}
	.st46{clip-path:url(#SVGID_36_);}
	.st47{fill:url(#SVGID_37_);}
	.st48{fill:url(#SVGID_38_);}
	.st49{fill:url(#SVGID_39_);}
	.st50{fill:url(#SVGID_40_);}
	.st51{fill:url(#SVGID_41_);}
	.st52{fill:url(#SVGID_42_);}
	.st53{fill:none;stroke:url(#SVGID_43_);stroke-width:0.39;stroke-miterlimit:10;}
	.st54{fill:none;stroke:url(#SVGID_44_);stroke-width:0.81;stroke-miterlimit:10;}
	.st55{fill:none;stroke:url(#SVGID_45_);stroke-width:0.81;stroke-miterlimit:10;}
	.st56{fill:url(#SVGID_46_);}
	.st57{clip-path:url(#SVGID_48_);}
	.st58{fill:url(#SVGID_49_);}
	.st59{fill:url(#SVGID_50_);}
	.st60{fill:url(#SVGID_51_);}
	.st61{fill:none;stroke:url(#SVGID_52_);stroke-width:0.39;stroke-miterlimit:10;}
	.st62{fill:none;stroke:url(#SVGID_53_);stroke-width:0.81;stroke-miterlimit:10;}
	.st63{fill:none;stroke:url(#SVGID_54_);stroke-width:0.81;stroke-miterlimit:10;}
	.st64{fill:url(#SVGID_55_);}
	.st65{fill:url(#SVGID_56_);}
	.st66{fill:url(#SVGID_57_);}
	.st67{clip-path:url(#SVGID_59_);}
	.st68{fill:url(#SVGID_60_);}
	.st69{fill:url(#SVGID_61_);}
	.st70{fill:url(#SVGID_62_);}
	.st71{clip-path:url(#SVGID_64_);}
	.st72{fill:url(#SVGID_65_);}
	.st73{fill:url(#SVGID_66_);}
	.st74{fill:url(#SVGID_67_);}
	.st75{fill:url(#SVGID_68_);}
	.st76{opacity:6.000000e-02;fill:#FFFFFF;enable-background:new    ;}
	.st77{fill:url(#SVGID_69_);}
	.st78{fill:url(#SVGID_70_);}
	.st79{fill:none;stroke:url(#SVGID_71_);stroke-width:2.44;stroke-miterlimit:10;}
	.st80{fill:none;stroke:url(#SVGID_72_);stroke-width:2.44;stroke-miterlimit:10;}
	.st81{fill:none;stroke:url(#SVGID_73_);stroke-miterlimit:10;}
	.st82{fill:url(#SVGID_74_);}
	.st83{fill:url(#SVGID_75_);}
	.st84{fill:url(#SVGID_76_);}
	.st85{fill:none;stroke:#00BCB4;stroke-width:1.83;stroke-miterlimit:10;}
	.st86{fill:none;stroke:url(#SVGID_77_);stroke-width:2.44;stroke-miterlimit:10;}
	.st87{fill:none;stroke:url(#SVGID_78_);stroke-width:2.44;stroke-miterlimit:10;}
	.st88{fill:none;stroke:url(#SVGID_79_);stroke-width:1.22;stroke-miterlimit:10;}
	.st89{fill:url(#SVGID_80_);}
	.st90{fill:url(#SVGID_81_);}
	.st91{fill:url(#SVGID_82_);}
	.st92{opacity:0.34;fill:url(#SVGID_83_);enable-background:new    ;}
</style>
<title>illustration_header</title>
<g>
	
		<image style="overflow:visible;opacity:0.2;enable-background:new    ;" width="921" height="701" xlink:href="65EDDD06.png"  transform="matrix(1 0 0 1 -25 94.2286)">
	</image>
	<g>
		<path class="st0" d="M45.4,154.5h790l0,0v580l0,0h-790c-5.5,0-10-4.5-10-10v-560C35.4,159,39.9,154.5,45.4,154.5z"/>
	</g>
</g>
<g class="st1">
	<path d="M103.4,154.5v580h-50c-5.5,0-10-4.5-10-10v-560c0-5.5,4.5-10,10-10H103.4z"/>
</g>
<linearGradient id="SVGID_1_" gradientUnits="userSpaceOnUse" x1="75.4041" y1="601.9689" x2="72.2141" y2="143.9888" gradientTransform="matrix(1 0 0 -1 -8 763.7372)">
	<stop  offset="0" style="stop-color:#4D3933"/>
	<stop  offset="1" style="stop-color:#3D113C"/>
</linearGradient>
<path class="st2" d="M95.4,154.5v580h-50c-5.5,0-10-4.5-10-10v-560c0-5.5,4.5-10,10-10H95.4z"/>
<g class="st1">
	<rect x="496.9" y="439.9" width="302.4" height="50.1"/>
</g>
<rect x="492.9" y="435.9" class="st3" width="302.4" height="50.1"/>
<g class="st1">
	<rect x="496.9" y="508" width="302.4" height="50.1"/>
</g>
<rect x="492.9" y="504" class="st3" width="302.4" height="50.1"/>
<linearGradient id="SVGID_2_" gradientUnits="userSpaceOnUse" x1="492.9" y1="229.9586" x2="741.8" y2="229.9586" gradientTransform="matrix(1 0 0 -1 0 759.0173)">
	<stop  offset="0" style="stop-color:#7A9FB4"/>
	<stop  offset="1" style="stop-color:#00BCB4"/>
</linearGradient>
<polygon class="st4" points="741.8,543.3 730.7,504 709.4,504 492.9,504 492.9,554.1 723.7,554.1 720.6,543.3 "/>
<g class="st1">
	<rect x="496.9" y="574.2" width="302.4" height="50.1"/>
</g>
<rect x="492.9" y="570.2" class="st3" width="302.4" height="50.1"/>
<g class="st1">
	<rect x="496.9" y="645.8" width="302.4" height="50.1"/>
</g>
<rect x="492.9" y="641.8" class="st3" width="302.4" height="50.1"/>
<g class="st1">
	<rect x="151.4" y="594" width="302.6" height="111.5"/>
</g>
<linearGradient id="SVGID_3_" gradientUnits="userSpaceOnUse" x1="143.4" y1="117.2586" x2="446" y2="117.2586" gradientTransform="matrix(1 0 0 -1 0 759.0173)">
	<stop  offset="0" style="stop-color:#7A9FB4"/>
	<stop  offset="1" style="stop-color:#00BCB4"/>
</linearGradient>
<rect x="143.4" y="586" class="st5" width="302.6" height="111.5"/>
<g>
	<g>
		<g>
			<defs>
				<rect id="SVGID_4_" x="143.4" y="586" width="302.6" height="111.5"/>
			</defs>
			<clipPath id="SVGID_5_">
				<use xlink:href="#SVGID_4_"  style="overflow:visible;"/>
			</clipPath>
			<g class="st6">
				<g class="st7">
					
						<image style="overflow:visible;opacity:0.24;enable-background:new    ;" width="503" height="467" xlink:href="65EDDD0C.png"  transform="matrix(1 0 0 1 25 561.2286)">
					</image>
					<path class="st8" d="M111.8,824.5C86.2,797.7,44,743.7,67.2,670.3S173.1,564,240,620.6s73.7,47.9,136.9,24.1
						s110.6,21.4,119.4,115.6c8.8,94.3-20.2,185.4-137.3,195.2s-90.5-27.2-199.2,28.5c-97.1,49.7-133.9-50.4-77.7-91.7
						C133.8,854.3,122.6,835.9,111.8,824.5z"/>
				</g>
				<g class="st7">
					
						<image style="overflow:visible;opacity:0.24;enable-background:new    ;" width="523" height="457" xlink:href="65EDDD0E.png"  transform="matrix(1 0 0 1 0 517.2286)">
					</image>
					<path class="st8" d="M102.9,771.8c-21.7-30-56-89.3-23-158.9s119.4-90.8,177.9-25.6s66.4,57.5,132.3,42.6
						s106.6,36.3,102.5,130.9S447.2,941.7,330,935.4s-85.9-39.3-201.2,1C25.9,972.4,3,868.2,64.4,834.9
						C120.7,804.3,112.1,784.5,102.9,771.8z"/>
				</g>
			</g>
		</g>
	</g>
</g>
<linearGradient id="SVGID_6_" gradientUnits="userSpaceOnUse" x1="-3090.6699" y1="878.6986" x2="-3043.21" y2="878.6986" gradientTransform="matrix(-1 0 0 1 -2863 -237.19)">
	<stop  offset="0" style="stop-color:#7A9FB4"/>
	<stop  offset="1" style="stop-color:#00C9B4"/>
</linearGradient>
<circle class="st9" cx="203.9" cy="641.5" r="23.7"/>
<path class="st0" d="M252.6,636.6h69.5c0.9,0,1.6,0.7,1.6,1.6v6.7c0,0.9-0.7,1.6-1.6,1.6h-69.5c-0.9,0-1.6-0.7-1.6-1.6v-6.7
	C251,637.3,251.7,636.6,252.6,636.6z"/>
<path class="st0" d="M252.6,617.8h147.1c0.9,0,1.6,0.7,1.6,1.6v7.3c0,0.9-0.7,1.6-1.6,1.6H252.6c-0.9,0-1.6-0.7-1.6-1.6v-7.3
	C251,618.5,251.7,617.8,252.6,617.8z"/>
<path class="st0" d="M252.6,655.6h122.5c0.9,0,1.6,0.7,1.6,1.6v6.5c0,0.9-0.7,1.6-1.6,1.6H252.6c-0.9,0-1.6-0.7-1.6-1.6v-6.5
	C251,656.3,251.7,655.6,252.6,655.6z"/>
<ellipse transform="matrix(6.652045e-02 -0.9978 0.9978 6.652045e-02 -134.3442 248.0243)" class="st0" cx="65.4" cy="195.8" rx="9.8" ry="9.8"/>
<ellipse transform="matrix(6.652045e-02 -0.9978 0.9978 6.652045e-02 -175.7541 286.7618)" class="st10" cx="65.4" cy="237.3" rx="9.8" ry="9.8"/>
<linearGradient id="SVGID_7_" gradientUnits="userSpaceOnUse" x1="55.69" y1="480.2086" x2="75.19" y2="480.2086" gradientTransform="matrix(1 0 0 -1 0 759.0173)">
	<stop  offset="0" style="stop-color:#FC8581"/>
	<stop  offset="1" style="stop-color:#FC6719"/>
</linearGradient>
<circle class="st11" cx="65.4" cy="278.8" r="9.8"/>
<ellipse transform="matrix(6.652045e-02 -0.9978 0.9978 6.652045e-02 -258.5738 364.2368)" class="st12" cx="65.4" cy="320.3" rx="9.8" ry="9.8"/>
<g class="st13">
	<rect x="500.9" y="209.5" width="302.6" height="197.2"/>
</g>
<linearGradient id="SVGID_8_" gradientUnits="userSpaceOnUse" x1="530.1531" y1="524.1342" x2="792.813" y2="373.9141" gradientTransform="matrix(1 0 0 -1 0 759.0173)">
	<stop  offset="0" style="stop-color:#FC8581"/>
	<stop  offset="1" style="stop-color:#FC6719"/>
</linearGradient>
<rect x="492.9" y="201.5" class="st14" width="302.6" height="197.2"/>
<g>
	<g>
		<g>
			<defs>
				<rect id="SVGID_9_" x="492.9" y="201.5" width="302.6" height="197.2"/>
			</defs>
			<clipPath id="SVGID_10_">
				<use xlink:href="#SVGID_9_"  style="overflow:visible;"/>
			</clipPath>
			<g class="st15">
				<g class="st16">
					
						<image style="overflow:visible;opacity:0.61;enable-background:new    ;" width="602" height="580" xlink:href="65EDDD0B.png"  transform="matrix(1 0 0 1 493 -56.7714)">
					</image>
					<path class="st17" d="M868.3,321.5c-5.9,32.2-22.6,90.5-87.1,112s-131.1-20.4-125.4-97.7s-4.1-77.6-53.9-110.4
						s-42.3-90.2,20.6-145.5s143.1-82,210.9-3.4s27.6,78.8,124,127.6c86,43.5,33.6,122-25.2,103.3
						C878.1,290.2,870.7,307.8,868.3,321.5z"/>
				</g>
			</g>
		</g>
	</g>
</g>
<line class="st18" x1="520.3" y1="462.5" x2="646.2" y2="462.5"/>
<linearGradient id="SVGID_11_" gradientUnits="userSpaceOnUse" x1="-2743.6001" y1="1212.0886" x2="-2720.6001" y2="1212.0886" gradientTransform="matrix(-1 0 0 1 -2193.3301 -903.78)">
	<stop  offset="0" style="stop-color:#BF0269"/>
	<stop  offset="1" style="stop-color:#FC6719"/>
</linearGradient>
<circle class="st19" cx="538.8" cy="308.3" r="11.5"/>
<path class="st0" d="M528.3,337.7h31.1c0.6,0,1.1,0.5,1.1,1.1v7.8c0,0.6-0.5,1.1-1.1,1.1h-31.1c-0.6,0-1.1-0.5-1.1-1.1v-7.8
	C527.3,338.2,527.7,337.7,528.3,337.7z"/>
<path class="st0" d="M528.3,356.7h55.3c0.6,0,1.1,0.5,1.1,1.1v7.5c0,0.6-0.5,1.1-1.1,1.1h-55.3c-0.6,0-1.1-0.5-1.1-1.1v-7.5
	C527.3,357.2,527.7,356.7,528.3,356.7z"/>
<g class="st1">
	
		<rect x="223.5" y="155.9" transform="matrix(0.9991 -4.135619e-02 4.135619e-02 0.9991 -8.432 15.6807)" width="302.6" height="111.5"/>
</g>
<linearGradient id="SVGID_12_" gradientUnits="userSpaceOnUse" x1="190.2969" y1="596.0858" x2="497.2969" y2="596.0858" gradientTransform="matrix(1 0 0 -1 -7.9969 763.7444)">
	<stop  offset="0" style="stop-color:#174575"/>
	<stop  offset="1" style="stop-color:#3D113C"/>
</linearGradient>
<polygon class="st20" points="182.3,118.2 484.6,105.7 489.3,217.1 186.9,229.6 "/>
<g>
	<g>
		<g>
			<defs>
				
					<rect id="SVGID_13_" x="184.5" y="112" transform="matrix(0.9991 -4.135611e-02 4.135611e-02 0.9991 -6.6499 14.0303)" width="302.6" height="111.5"/>
			</defs>
			<clipPath id="SVGID_14_">
				<use xlink:href="#SVGID_13_"  style="overflow:visible;"/>
			</clipPath>
			<g class="st21">
				<g class="st7">
					
						<image style="overflow:visible;opacity:0.24;enable-background:new    ;" width="502" height="469" xlink:href="65EDDD04.png"  transform="matrix(1 0 0 1 73.9999 92.2286)">
					</image>
					<path class="st8" d="M160.6,357.8c-26.7-25.7-71-78-50.9-152.3s101.4-110.6,170.6-56.8s75.6,44.8,137.8,18.5
						S529.5,184,542.2,277.8S529.6,464,413.1,478.5s-91.5-23.4-197.9,36.7c-94.9,53.7-135.9-44.8-81.4-88.4
						C183.8,386.7,171.9,368.8,160.6,357.8z"/>
				</g>
				<g class="st7">
					
						<image style="overflow:visible;opacity:0.24;enable-background:new    ;" width="517" height="460" xlink:href="65EDDD19.png"  transform="matrix(1 0 0 1 52 48.2286)">
					</image>
					<path class="st8" d="M149.5,305.5c-22.9-29.1-59.7-87-29.6-157.8S235.5,52,296.6,114.8s68.8,54.7,134,37.1
						s108,31.9,107.8,126.5S500.5,461,383.1,459.5s-87.5-35.7-201,9.3c-101.4,40.2-128.5-63-68.6-98.7
						C168.7,337.2,159.3,317.8,149.5,305.5z"/>
				</g>
			</g>
		</g>
	</g>
</g>
<linearGradient id="SVGID_15_" gradientUnits="userSpaceOnUse" x1="221.4" y1="587.8086" x2="268.86" y2="587.8086" gradientTransform="matrix(1 0 0 -1 0 759.0173)">
	<stop  offset="0" style="stop-color:#174575"/>
	<stop  offset="1" style="stop-color:#3D113C"/>
</linearGradient>
<circle class="st22" cx="245.1" cy="171.2" r="23.7"/>
<path class="st0" d="M293.5,164.2l69.4-2.9c0.9,0,1.6,0.6,1.6,1.5l0.3,6.7c0,0.9-0.6,1.6-1.5,1.6l-69.4,2.9c-0.9,0-1.6-0.6-1.6-1.5
	l-0.3-6.7C292,165,292.7,164.3,293.5,164.2z"/>
<path class="st0" d="M292.8,145.5l147-6.1c0.9,0,1.6,0.6,1.6,1.5l0.3,7.3c0,0.9-0.6,1.6-1.5,1.6l-147,6.1c-0.9,0-1.6-0.6-1.6-1.5
	l-0.3-7.3C291.2,146.2,291.9,145.5,292.8,145.5z"/>
<path class="st0" d="M294.3,183.2l122.4-5.1c0.9,0,1.6,0.6,1.6,1.5l0.3,6.5c0,0.9-0.6,1.6-1.5,1.6l-122.4,5.1
	c-0.9,0-1.6-0.6-1.6-1.5l-0.3-6.5C292.8,184,293.5,183.2,294.3,183.2z"/>
<g id="perso_assis">
	
		<linearGradient id="SVGID_16_" gradientUnits="userSpaceOnUse" x1="687.155" y1="668.6863" x2="747.58" y2="668.6863" gradientTransform="matrix(1 0 0 -1 -8 763.7372)">
		<stop  offset="0" style="stop-color:#7A9FB4"/>
		<stop  offset="1" style="stop-color:#00C9B4"/>
	</linearGradient>
	<path class="st23" d="M730.3,132c0,0,9.3-4.9,9.3-14.9s-7.7-23.5-7.7-23.5s-3.2-9.2-12.6-9.2s-8.2,0.7-9.1-2.2
		c-0.6-1.8-0.8-3.6-0.7-5.4c0,0,3.1-2.3,3.1-10.1c1.1-0.1,2-0.8,2.4-1.8c0.5-1.5,0.2-3-0.6-3s-0.7,0.4-0.7,0.4v-1.8
		c0,0,0.9-0.2,0.9-3.1s-2.2-6.5-4.4-7.6s-19.5-5.7-27.8,14.8c-7.1,17.4,1.2,18.8,1.1,24.6c-0.1,4.8-4.4,3.5-4.1,11.3
		c0.1,1.9,0.8,3.8,1.9,5.3c0,0-7.1,15.4,5.3,26.1l16.8,6.6l16,3L730.3,132z"/>
	<g>
		<g>
			<g>
				<defs>
					<path id="SVGID_17_" d="M730.3,132c0,0,9.3-4.9,9.3-14.9s-7.7-23.5-7.7-23.5s-3.2-9.2-12.6-9.2s-8.2,0.7-9.1-2.2
						c-0.6-1.8-0.8-3.6-0.7-5.4c0,0,3.1-2.3,3.1-10.1c1.1-0.1,2-0.8,2.4-1.8c0.5-1.5,0.2-3-0.6-3s-0.7,0.4-0.7,0.4v-1.8
						c0,0,0.9-0.2,0.9-3.1s-2.2-6.5-4.4-7.6s-19.5-5.7-27.8,14.8c-7.1,17.4,1.2,18.8,1.1,24.6c-0.1,4.8-4.4,3.5-4.1,11.3
						c0.1,1.9,0.8,3.8,1.9,5.3c0,0-7.4,16.4,5,27l17.3,5.4l4.9,1.9L730.3,132z"/>
				</defs>
				<clipPath id="SVGID_18_">
					<use xlink:href="#SVGID_17_"  style="overflow:visible;"/>
				</clipPath>
				<g class="st24">
					
						<linearGradient id="SVGID_19_" gradientUnits="userSpaceOnUse" x1="703.26" y1="680.2232" x2="723.05" y2="680.2232" gradientTransform="matrix(1 0 0 -1 -8 763.7372)">
						<stop  offset="0" style="stop-color:#FFD3A8"/>
						<stop  offset="1" style="stop-color:#FFB699"/>
					</linearGradient>
					<path class="st25" d="M699.2,91.5c1.6,1.1,3.4,1.7,5.4,1.6c3.6,0,6.8-1.5,9.4-9.4s-0.3-7.4-0.3-7.4l-4.9-2.4l-11,1.4l-2.4,5.7
						L699.2,91.5z"/>
					
						<linearGradient id="SVGID_20_" gradientUnits="userSpaceOnUse" x1="700.3" y1="697.0786" x2="727.9399" y2="697.0786" gradientTransform="matrix(1 0 0 -1 -8 763.7372)">
						<stop  offset="0" style="stop-color:#FFD3A8"/>
						<stop  offset="1" style="stop-color:#FFB699"/>
					</linearGradient>
					<path class="st26" d="M709.4,76.6c0,0-2.9,2.5-5.8,2.5c-2.5-0.1-5-0.5-7.4-1l-3.9-12.8l12.7-8.5l6.1-2.6L712,55l6.6,1.9
						l1.2,11.3L709.4,76.6z"/>
					<path class="st27" d="M709.4,76.6c0,0-2.9,2.5-5.8,2.5c-2.5-0.1-5-0.5-7.4-1l-3.9-12.8l12.7-8.5l6.1-2.6L712,55l6.6,1.9
						l1.2,11.3L709.4,76.6z"/>
					
						<linearGradient id="SVGID_21_" gradientUnits="userSpaceOnUse" x1="730.5724" y1="643.2151" x2="748.6923" y2="643.735" gradientTransform="matrix(1 0 0 -1 -8 763.7372)">
						<stop  offset="0" style="stop-color:#FFD3A8"/>
						<stop  offset="1" style="stop-color:#FFB699"/>
					</linearGradient>
					<path class="st28" d="M725.7,109.8l11-5.7l9.1,0.9l-5.3,26l-10.2,5.3l-6.1-9l5.9-7C730,120.2,727.5,112.6,725.7,109.8z"/>
					
						<linearGradient id="SVGID_22_" gradientUnits="userSpaceOnUse" x1="678.66" y1="637.0587" x2="688.19" y2="637.0587" gradientTransform="matrix(1 0 0 -1 0 759.0173)">
						<stop  offset="0" style="stop-color:#FFD3A8"/>
						<stop  offset="1" style="stop-color:#FFB699"/>
					</linearGradient>
					<polygon class="st29" points="678.4,109.5 686.3,113.3 694.1,123.2 690.2,134.4 682.5,132.7 675.8,111.8 					"/>
					
						<linearGradient id="SVGID_23_" gradientUnits="userSpaceOnUse" x1="687.39" y1="678.4786" x2="724.2" y2="678.4786" gradientTransform="matrix(1 0 0 -1 -8 763.7372)">
						<stop  offset="0" style="stop-color:#4D3933"/>
						<stop  offset="1" style="stop-color:#3D113C"/>
					</linearGradient>
					<path class="st30" d="M713.6,61.7l-1.5,1.7c-0.5-1.8-0.8-3.7-0.7-5.6c0,0-4.7,10.6-16.7,9.6c0.9,3.4,2.5,6.6,4.6,9.5
						c3.4,4.5,6.7,8.1,4.2,13.5s-4.5,6.3-4.3,9.5s2.6,6.1,2.4,8.8s-1.7,5.7-5.2,9.5c-2.6,3-4.9,6.1-7.1,9.4c0,0-5.8-1.5-5.8-6.5
						s1.5-4.9,1.5-7.8c0.1-2.9-1.3-5.6-3.7-7.2c-2.6-1.8-5.7-3.8-5.7-3.8l5-14.9l-7.1-12l5.9-17.6l13.5-14.9l16,0.6l7.3,6.8
						l4.2,10.5L713.6,61.7z"/>
					
						<linearGradient id="SVGID_24_" gradientUnits="userSpaceOnUse" x1="689" y1="630.4086" x2="730.25" y2="630.4086" gradientTransform="matrix(1 0 0 -1 0 759.0173)">
						<stop  offset="0" style="stop-color:#FFFFFF"/>
						<stop  offset="1" style="stop-color:#EDEDED"/>
					</linearGradient>
					<rect x="689" y="115.2" class="st31" width="41.3" height="26.8"/>
				</g>
			</g>
		</g>
	</g>
	
		<linearGradient id="SVGID_25_" gradientUnits="userSpaceOnUse" x1="664.9703" y1="620.2683" x2="767.7" y2="620.2683" gradientTransform="matrix(1 0 0 -1 -8 763.7372)">
		<stop  offset="0" style="stop-color:#174575"/>
		<stop  offset="1" style="stop-color:#3D113C"/>
	</linearGradient>
	<path class="st32" d="M657.5,133.2c0,0,0.2-6.4,13.5-4.1s36.4,10.3,37.4,11.1c0,0,22.2-10.6,38.5-11.4c0,0,10.8-1.2,12.5,4.4
		s-4.1,12.3-27.2,16.8c0,0,0.5,0.6,4.5,0.7c0,0,10.2-1.3,11.7-1.5s4.8-0.7,6.7-0.2s4.6,2.1,4.6,5.3s-3.5,3.8-6.3,4
		s-9.6-1.2-16.7-1.5s-9.8-0.5-9.8-0.5l-16.7-2c-1.1-0.1-2.1-0.1-3.2,0c0,0-11,1.6-12,1.6c0,0-11.7,0.2-14,0.5s-11.5,2-16,1.9
		s-7.6-1-8-4.3s3.3-5.5,7.5-5.2s12,1.8,21.5,1.6c0,0-15.3-4.1-19.7-6.5S655.7,138.7,657.5,133.2z"/>
	<g>
		<g>
			<g>
				<defs>
					<path id="SVGID_26_" d="M657.5,133.2c0,0,0.2-6.4,13.5-4.1s36.4,10.3,37.4,11.1c0,0,22.2-10.6,38.5-11.4c0,0,10.8-1.2,12.5,4.4
						s-4.1,12.3-27.2,16.8c0,0,0.5,0.6,4.5,0.7c0,0,10.2-1.3,11.7-1.5s4.8-0.7,6.7-0.2s4.6,2.1,4.6,5.3s-3.5,3.8-6.3,4
						s-9.6-1.2-16.7-1.5s-9.8-0.5-9.8-0.5l-16.7-2c-1.1-0.1-2.1-0.1-3.2,0c0,0-11,1.6-12,1.6c0,0-11.7,0.2-14,0.5s-11.5,2-16,1.9
						s-7.6-1-8-4.3s3.3-5.5,7.5-5.2s12,1.8,21.5,1.6c0,0-15.3-4.1-19.7-6.5S655.7,138.7,657.5,133.2z"/>
				</defs>
				<clipPath id="SVGID_27_">
					<use xlink:href="#SVGID_26_"  style="overflow:visible;"/>
				</clipPath>
				<g class="st33">
					<path class="st34" d="M681.1,157.5c0,0-3-2.5-1.1-7.1l9.1,0.2l1.3,0.4l0.8,6.2L681.1,157.5z"/>
					<path class="st34" d="M736.6,150c0,0,2.7,2.7,0.3,7.1l-10.3-0.3l1.2-7.1c0,0,6.9,0.9,8.7,0.9S736.6,150,736.6,150z"/>
					
						<linearGradient id="SVGID_28_" gradientUnits="userSpaceOnUse" x1="767.8755" y1="615.642" x2="765.8254" y2="601.5604" gradientTransform="matrix(1 0 0 -1 -8 763.7372)">
						<stop  offset="0" style="stop-color:#B79FB4"/>
						<stop  offset="1" style="stop-color:#00C9B4"/>
					</linearGradient>
					<path class="st35" d="M754.2,147.2v14.4l9.6-0.6l-1.4-11.3L754.2,147.2z"/>
					
						<linearGradient id="SVGID_29_" gradientUnits="userSpaceOnUse" x1="658.5354" y1="610.7985" x2="658.5954" y2="600.3185" gradientTransform="matrix(1 0 0 -1 0 759.0173)">
						<stop  offset="0" style="stop-color:#B79FB4"/>
						<stop  offset="1" style="stop-color:#00C9B4"/>
					</linearGradient>
					<polygon class="st36" points="654.5,148.6 662.2,146.7 662.7,160.6 654.5,158.4 					"/>
				</g>
			</g>
		</g>
	</g>
	<path class="st37" d="M653.9,147.4"/>
	
		<linearGradient id="SVGID_30_" gradientUnits="userSpaceOnUse" x1="733.6417" y1="614.3513" x2="732.7618" y2="608.2813" gradientTransform="matrix(1 0 0 -1 -8 763.7372)">
		<stop  offset="0" style="stop-color:#7A9FB4"/>
		<stop  offset="1" style="stop-color:#00C9B4"/>
	</linearGradient>
	<path class="st38" d="M726.8,156.9l-4.6-0.5c0-1.5,0.2-3,0.4-4.4c0.3-1.3,0.6-2.6,1.1-3.9l4.6,1.3c0,0-0.7,2.1-1,4
		C727.1,154.5,726.9,155.7,726.8,156.9z"/>
	
		<linearGradient id="SVGID_31_" gradientUnits="userSpaceOnUse" x1="699.5626" y1="612.3276" x2="700.3425" y2="606.7976" gradientTransform="matrix(1 0 0 -1 -8 763.7372)">
		<stop  offset="0" style="stop-color:#7A9FB4"/>
		<stop  offset="1" style="stop-color:#00C9B4"/>
	</linearGradient>
	<path class="st39" d="M694.6,157.5l-4.3,1.1l-1.3-8.1l4.7,1.2c0.4,0.7,0.6,1.4,0.6,2.1C694.5,155.3,694.6,157.5,694.6,157.5z"/>
	<path class="st40" d="M675.3,152.4c-0.1,0.4-0.2,0.8-0.2,1.3c0,0.4,0,0.8,0.2,1.2"/>
	<path class="st40" d="M673.7,152.4c-0.1,0.4-0.2,0.8-0.2,1.3c0,0.4,0,0.8,0.2,1.2"/>
	<path class="st40" d="M742.8,154.9c0.1-0.4,0.2-0.8,0.2-1.3c0-0.4,0-0.8-0.2-1.2"/>
	<path class="st40" d="M744.3,154.9c0.1-0.4,0.2-0.8,0.2-1.3c0-0.4,0-0.8-0.2-1.2"/>
	
		<image style="overflow:visible;opacity:7.000000e-02;enable-background:new    ;" width="12" height="12" xlink:href="65EDDD1A.png"  transform="matrix(1 0 0 1 703 121.2286)">
	</image>
	
		<linearGradient id="SVGID_32_" gradientUnits="userSpaceOnUse" x1="-2564.48" y1="1392.7487" x2="-2559.6899" y2="1392.7487" gradientTransform="matrix(-1 0 0 1 -1853.29 -1265.24)">
		<stop  offset="0" style="stop-color:#FFFFFF"/>
		<stop  offset="1" style="stop-color:#D6D6D6"/>
	</linearGradient>
	<circle class="st41" cx="708.8" cy="127.5" r="2.4"/>
</g>
<g id="perso_paint">
	<path class="st42" d="M741,539.6l0.9,3.3c0.1,0.4,0,0.8-0.3,1l-8.4,6.1l0.4,1.3"/>
	
		<image style="overflow:visible;opacity:0.19;enable-background:new    ;" width="28" height="18" xlink:href="65EDDD1B.png"  transform="matrix(1 0 0 1 717 533.2286)">
	</image>
	
		<linearGradient id="SVGID_33_" gradientUnits="userSpaceOnUse" x1="765.2383" y1="-593.0258" x2="765.0085" y2="-600.3658" gradientTransform="matrix(0.9661 -0.2581 -0.2581 -0.9661 -162.1295 163.4368)">
		<stop  offset="0" style="stop-color:#7A9FB4"/>
		<stop  offset="1" style="stop-color:#00C9B4"/>
	</linearGradient>
	<path class="st43" d="M740.6,543.3l-17.3,4.6c-0.7,0.2-1.4-0.2-1.6-0.9l-1.2-4.4c-0.1-0.5,0.2-1,0.6-1.1l17.7-4.7
		c0.7-0.2,1.4,0.2,1.6,0.9l1.1,4C741.7,542.4,741.3,543.1,740.6,543.3L740.6,543.3z"/>
	<polygon class="st44" points="735.3,554.5 733.2,555 732.3,551.2 734.3,550.7 	"/>
	
		<linearGradient id="SVGID_34_" gradientUnits="userSpaceOnUse" x1="648.0179" y1="136.8786" x2="756.4509" y2="136.8786" gradientTransform="matrix(1 0 0 -1 -8 763.7372)">
		<stop  offset="0" style="stop-color:#174575"/>
		<stop  offset="1" style="stop-color:#3D113C"/>
	</linearGradient>
	<path class="st45" d="M717.7,678.3c0,0,1.3-40.2,2.1-41.6c0,0,9,0.5,9-7.8s-3.4-10.5-5.1-12.2c0,0,20-15.3,23.9-23.2
		c0,0,1.6-1.6,0-7s-8.5-25.9-9.5-28.1l-0.7-2l-4.2,1.2c0,0,2.1,14.2,2.9,17s2.4,11.5,2.4,11.5c0.3,0.9,0,1.9-0.7,2.5
		c-1.2,0.8-26.1,15.5-26.9,17l-0.6,0.8c-1.5-2.1-2.9-4.2-4.2-6.5c0,0,0.5-5.4-0.3-7.7s-3.2-5.3-3.9-5.5c-1.9-5.5-7.2-9.2-13-8.9
		c-10.4,0-11,11.3-11,13.5s0.5,19.5,2.6,27.1c0,0-10.5,10.5-18.6,39.6l-12.3,28.3c-0.1,0.7-0.6,1.2-1.3,1.4
		c-2.2,0.3-4.8,0.3-6.1,1.5s-2.5,2.2-2.3,4.8s1.2,3.3,2,3.3s0.5-2.9,3.3-3.6s4.5,0.8,6.7-2.7s27.5-44.8,29.6-46.3
		c0,0,3,18.8-1.8,37.9l2.6,6.2l16.8,5.6L717.7,678.3z"/>
	<g>
		<g>
			<g>
				<defs>
					<path id="SVGID_35_" d="M747.7,586.6c-1.5-5.2-8-24.3-9.3-27.7l0,0c-0.1-0.8-0.1-1.7,0-2.5c0-0.7-0.2-1.4-0.7-1.9
						c-0.1-0.1,0,0-0.1-0.2s0-0.5-0.3-0.8s-0.4-0.2-0.5-0.3s-0.1-0.5-0.2-0.6c-0.2-0.2-0.3-0.3-0.6-0.4c0,0,0.3-0.2-0.2-1
						s-1.5-0.2-1.5-0.2s0.3,1.5-0.2,1.8c-0.5,0.4-0.8,0.9-1.1,1.5l-0.7-2.4c-0.9-0.3-0.4,0.5-0.7,2.2s0.8,3.8,1.3,4.7
						c0.5,0.6,0.7,1.4,0.8,2.1l0,0c0.7,4.4,1.8,11.8,2.4,13.8c0.8,2.9,2.4,11.5,2.4,11.5c0.3,0.9,0,1.9-0.7,2.5
						c-1.2,0.8-26.1,15.5-26.9,17l-0.6,0.8c-1.5-2.1-2.9-4.2-4.2-6.5c0,0,0.5-5.4-0.3-7.7s-3.2-5.3-3.9-5.5c-1.9-5.5-7.2-9.2-13-8.9
						c-10.4,0-11,11.3-11,13.5s0.5,19.5,2.6,27.1c0,0-10.5,10.5-18.6,39.6l-12.3,28.3c-0.1,0.7-0.6,1.2-1.3,1.4
						c-2.2,0.3-4.8,0.3-6.1,1.5s-2.5,2.2-2.3,4.8s1.2,3.3,2,3.3s0.5-2.9,3.3-3.6s4.5,0.8,6.7-2.7s27.5-44.8,29.6-46.3
						c0,0,3,18.8-1.8,37.9l2.6,6.2l16.8,5.6l18.3-16c0,0,1.3-40.2,2.1-41.6c0,0,9,0.5,9-7.8s-3.4-10.5-5.1-12.2
						c0,0,20-15.3,23.9-23.2C747.7,593.5,749.2,592,747.7,586.6z"/>
				</defs>
				<clipPath id="SVGID_36_">
					<use xlink:href="#SVGID_35_"  style="overflow:visible;"/>
				</clipPath>
				<g class="st46">
					
						<linearGradient id="SVGID_37_" gradientUnits="userSpaceOnUse" x1="650.5956" y1="81.9321" x2="660.9656" y2="75.0121" gradientTransform="matrix(1 0 0 -1 0 759.0173)">
						<stop  offset="0" style="stop-color:#FFD3A8"/>
						<stop  offset="1" style="stop-color:#FFB699"/>
					</linearGradient>
					<polygon class="st47" points="660.5,656.8 670.7,663 653.4,690.7 649.1,694.4 646,694.4 644.4,696.7 642.4,699.1 638.5,694.8 
						639.5,688 643.8,684.6 647.3,685.4 					"/>
					
						<linearGradient id="SVGID_38_" gradientUnits="userSpaceOnUse" x1="700.7" y1="166.1586" x2="711.85" y2="166.1586" gradientTransform="matrix(1 0 0 -1 0 759.0173)">
						<stop  offset="0" style="stop-color:#FFD3A8"/>
						<stop  offset="1" style="stop-color:#FFB699"/>
					</linearGradient>
					<polygon class="st48" points="702.8,585.3 700.7,587.5 705,600.2 707.4,600.4 711.9,598.3 					"/>
					
						<linearGradient id="SVGID_39_" gradientUnits="userSpaceOnUse" x1="685.1" y1="153.7273" x2="755" y2="153.7273" gradientTransform="matrix(1 0 0 -1 -8 763.7372)">
						<stop  offset="0" style="stop-color:#BF0269"/>
						<stop  offset="1" style="stop-color:#FC6719"/>
					</linearGradient>
					<path class="st49" d="M680.7,618.4c0,0,3.9,25.6,18.2,25.3s10-8.2,20.9-6.9s27.2-6.3,27.2-6.3l-23.3-13.8
						c-4.9-2.8-9.3-6.3-13.3-10.3l0.8-5.7l-5-0.8c0,0-0.9-9.1-4.3-13.2l-0.5-5.3l-7.2-4.2l-6.8-0.9l-3.6,1.6l-4.8,1.6l-1,3.9
						l-0.9,5.3L680.7,618.4z"/>
					
						<linearGradient id="SVGID_40_" gradientUnits="userSpaceOnUse" x1="736.72" y1="190.0367" x2="758.25" y2="190.0367" gradientTransform="matrix(1 0 0 -1 -8 763.7372)">
						<stop  offset="0" style="stop-color:#FFD3A8"/>
						<stop  offset="1" style="stop-color:#FFB699"/>
					</linearGradient>
					<path class="st50" d="M747.5,584.1l-9.2-26.5c0-0.5,0-0.9,0-1.4c0-0.7-0.2-1.4-0.7-1.9c-0.1-0.1,0,0-0.1-0.2s0-0.5-0.3-0.8
						s-0.4-0.2-0.5-0.3s-0.1-0.5-0.2-0.6c-0.2-0.2-0.3-0.3-0.6-0.4c0,0,0.3-0.2-0.2-1s-1.5-0.2-1.5-0.2s0.3,1.5-0.2,1.8
						c-0.5,0.4-0.8,0.9-1.1,1.5l-0.7-2.4c-0.9-0.3-0.4,0.5-0.7,2.2c-0.1,1.1,0.1,2.2,0.6,3.2l-0.8,0.1l6.8,29.3l-0.8,1.5l-9.2,5
						c0,0,10.8,0.8,17.4,3.4l1.9,0.4l2.3-6.2L747.5,584.1z"/>
				</g>
			</g>
		</g>
	</g>
	
		<linearGradient id="SVGID_41_" gradientUnits="userSpaceOnUse" x1="710.37" y1="-31.0414" x2="714.94" y2="-31.0414" gradientTransform="matrix(1 0 0 -1 0 759.0173)">
		<stop  offset="0" style="stop-color:#FFD3A8"/>
		<stop  offset="1" style="stop-color:#FFB699"/>
	</linearGradient>
	<polygon class="st51" points="714.6,794.5 711.5,794.5 710.4,785.6 714.9,785.6 	"/>
	
		<linearGradient id="SVGID_42_" gradientUnits="userSpaceOnUse" x1="727.356" y1="-35.3014" x2="727.426" y2="-29.1214" gradientTransform="matrix(1 0 0 -1 -8 763.7372)">
		<stop  offset="0" style="stop-color:#BF0269"/>
		<stop  offset="1" style="stop-color:#FC6719"/>
	</linearGradient>
	<path class="st52" d="M710.4,792.8v4.5h18c0,0,0.3-4.5-4.6-4.5h-7.5c0,0-3.3,2.1-5,0.4l-0.1-0.5L710.4,792.8z"/>
	
		<linearGradient id="SVGID_43_" gradientUnits="userSpaceOnUse" x1="710.37" y1="-38.2914" x2="728.41" y2="-38.2914" gradientTransform="matrix(1 0 0 -1 0 759.0173)">
		<stop  offset="0" style="stop-color:#C9C9C9"/>
		<stop  offset="1" style="stop-color:#C4C4C4"/>
	</linearGradient>
	<line class="st53" x1="710.4" y1="797.3" x2="728.4" y2="797.3"/>
	
		<linearGradient id="SVGID_44_" gradientUnits="userSpaceOnUse" x1="717.65" y1="-34.4414" x2="718.46" y2="-34.4414" gradientTransform="matrix(1 0 0 -1 0 759.0173)">
		<stop  offset="0" style="stop-color:#C9C9C9"/>
		<stop  offset="1" style="stop-color:#C4C4C4"/>
	</linearGradient>
	<line class="st54" x1="718.1" y1="792.8" x2="718.1" y2="794.1"/>
	
		<linearGradient id="SVGID_45_" gradientUnits="userSpaceOnUse" x1="719.68" y1="-34.4414" x2="720.49" y2="-34.4414" gradientTransform="matrix(1 0 0 -1 0 759.0173)">
		<stop  offset="0" style="stop-color:#C9C9C9"/>
		<stop  offset="1" style="stop-color:#C4C4C4"/>
	</linearGradient>
	<line class="st55" x1="720.1" y1="792.8" x2="720.1" y2="794.1"/>
	
		<linearGradient id="SVGID_46_" gradientUnits="userSpaceOnUse" x1="645.8" y1="31.7285" x2="733.4767" y2="31.7285" gradientTransform="matrix(1 0 0 -1 -8 763.7372)">
		<stop  offset="0" style="stop-color:#4D3933"/>
		<stop  offset="1" style="stop-color:#3D113C"/>
	</linearGradient>
	<path class="st56" d="M679.9,682.5c0,0-4.7,6.7-1.5,32.7c0,0,0.4,8.2-0.7,9.8s-34.6,27.4-34.6,27.4l-5.3,3.2c0,0,0,1.7,1,2.2
		s38.1-5.7,49-17.5s10.9-28.1,10.9-28.1s7.4,10.4,9.2,12.3c0,0,2.5,4.2,1.7,7.8s-5.4,19.9,0.7,53.4h4.9c0,0,4-27.2,5.4-32.8
		s5.4-27.8,5-41s-3.9-29-7.7-33.6c0,0-17.9,8.1-25.1,8.1C682.4,686.5,679.9,682.5,679.9,682.5z"/>
	<g>
		<g>
			<g>
				<defs>
					<path id="SVGID_47_" d="M679.9,682.5c0,0-4.7,6.7-1.5,32.7c0,0,0.4,8.2-0.7,9.8s-34.6,27.4-34.6,27.4l-5.3,3.2c0,0,0,1.7,1,2.2
						s38.1-5.7,49-17.5s10.9-28.1,10.9-28.1s7.4,10.4,9.2,12.3c0,0,2.5,4.2,1.7,7.8s-5.4,19.9,0.7,53.4h4.9c0,0,4-27.2,5.4-32.8
						s5.4-27.8,5-41s-3.9-29-7.7-33.6c0,0-17.9,8.1-25.1,8.1C682.4,686.5,679.9,682.5,679.9,682.5z"/>
				</defs>
				<clipPath id="SVGID_48_">
					<use xlink:href="#SVGID_47_"  style="overflow:visible;"/>
				</clipPath>
				<g class="st57">
					
						<linearGradient id="SVGID_49_" gradientUnits="userSpaceOnUse" x1="702" y1="34.4286" x2="754.9" y2="34.4286" gradientTransform="matrix(1 0 0 -1 -8 763.7372)">
						<stop  offset="0" style="stop-color:#4D3933"/>
						<stop  offset="1" style="stop-color:#3D113C"/>
					</linearGradient>
					<path class="st58" d="M698.6,712.2c0,0-4.6-4-4.6-13.5s1.8-12.7,1.8-12.7l19.9-15.6l15.8-0.1l15.4,117.2l-34.3,0.8l-14.1-1"/>
					
						<linearGradient id="SVGID_50_" gradientUnits="userSpaceOnUse" x1="644.06" y1="8.1786" x2="652.96" y2="8.1786" gradientTransform="matrix(1 0 0 -1 -8 763.7372)">
						<stop  offset="0" style="stop-color:#FFD3A8"/>
						<stop  offset="1" style="stop-color:#FFB699"/>
					</linearGradient>
					<path class="st59" d="M642.7,752.6c0,0-0.6,3.5,2.2,4.5l-4.9,1.4h-2.5l-1.6-2.3l5.9-3.3L642.7,752.6z"/>
				</g>
			</g>
		</g>
	</g>
	
		<linearGradient id="SVGID_51_" gradientUnits="userSpaceOnUse" x1="-1617.199" y1="2607.9285" x2="-1599.132" y2="2607.9285" gradientTransform="matrix(0.37 0.93 0.93 -0.37 -1192.3929 3220.1868)">
		<stop  offset="0" style="stop-color:#BF0269"/>
		<stop  offset="1" style="stop-color:#FC6719"/>
	</linearGradient>
	<path class="st60" d="M638.2,754.1l-4.2,1.7l6.6,16.8c0,0,4.3-1.3,2.5-6l-2.7-6.9c0,0-3.1-2.1-2.1-4.3l0.4-0.2L638.2,754.1z"/>
	
		<linearGradient id="SVGID_52_" gradientUnits="userSpaceOnUse" x1="-1617.199" y1="2605.7659" x2="-1599.1638" y2="2605.7659" gradientTransform="matrix(0.37 0.93 0.93 -0.37 -1192.3929 3220.187)">
		<stop  offset="0" style="stop-color:#C9C9C9"/>
		<stop  offset="1" style="stop-color:#C4C4C4"/>
	</linearGradient>
	<line class="st61" x1="634.1" y1="755.7" x2="640.7" y2="772.5"/>
	
		<linearGradient id="SVGID_53_" gradientUnits="userSpaceOnUse" x1="-1609.9091" y1="2609.6226" x2="-1609.109" y2="2609.6226" gradientTransform="matrix(0.37 0.93 0.93 -0.37 -1192.3929 3220.187)">
		<stop  offset="0" style="stop-color:#C9C9C9"/>
		<stop  offset="1" style="stop-color:#C4C4C4"/>
	</linearGradient>
	<line class="st62" x1="641.1" y1="761.2" x2="639.9" y2="761.7"/>
	
		<linearGradient id="SVGID_54_" gradientUnits="userSpaceOnUse" x1="-1633.0929" y1="2622.3892" x2="-1632.2928" y2="2622.3892" gradientTransform="matrix(0.36 0.93 0.93 -0.36 -1209.733 3226.0818)">
		<stop  offset="0" style="stop-color:#C9C9C9"/>
		<stop  offset="1" style="stop-color:#C4C4C4"/>
	</linearGradient>
	<line class="st63" x1="641.8" y1="763.1" x2="640.6" y2="763.5"/>
</g>
<linearGradient id="SVGID_55_" gradientUnits="userSpaceOnUse" x1="127.4576" y1="-510.4571" x2="131.7476" y2="-510.4571" gradientTransform="matrix(0.9406 -0.3396 -0.6893 -1.9094 -258.8426 -146.6522)">
	<stop  offset="0" style="stop-color:#FFD3A8"/>
	<stop  offset="1" style="stop-color:#FFB699"/>
</linearGradient>
<polygon class="st64" points="211.2,780 215.2,778.5 218.7,788 214.6,789.5 "/>
<linearGradient id="SVGID_56_" gradientUnits="userSpaceOnUse" x1="48.2616" y1="404.9406" x2="52.5516" y2="404.9406" gradientTransform="matrix(0.9639 0.2662 0.3621 -1.3109 -25.3298 1306.7871)">
	<stop  offset="0" style="stop-color:#FFD3A8"/>
	<stop  offset="1" style="stop-color:#FFB699"/>
</linearGradient>
<polygon class="st65" points="168.7,785.5 172.8,786.7 171,793.2 166.9,792 "/>
<linearGradient id="SVGID_57_" gradientUnits="userSpaceOnUse" x1="161.7094" y1="-30.2714" x2="181.1194" y2="-30.2714" gradientTransform="matrix(1 0 0 -1 -8 763.7372)">
	<stop  offset="0" style="stop-color:#174575"/>
	<stop  offset="1" style="stop-color:#3D113C"/>
</linearGradient>
<path class="st66" d="M166.9,790.4c0.8,0.6,1.8,1,2.9,1c0.9,0,1.9-0.3,2.5-1c0.5,1.3,0.8,2.6,0.8,4c-0.1,1.1-0.4,2.2-0.8,3.2h-2.7
	v-1.8h-2.2c-0.5,0.2-0.9,0.5-1.3,0.8c-1,0.7-2.2,1-3.4,1h-8.8c0,0-0.6-1.9,1.6-1.8c1.5,0,3-0.2,4.4-0.6
	C161.8,794.4,166.9,790.4,166.9,790.4z"/>
<g>
	<g>
		<g>
			<defs>
				<path id="SVGID_58_" d="M166.4,788.2h7c0,0,14.6-25.4,17.6-34.6c0,0,4.4,7.5,20.1,28.9h7.1c0,0-9.9-33.7-16.3-44.2
					c0,0,44.7-5,44.7-30.3h-38.3c0,0-21,10.8-28.3,23.4C175.4,739.1,166.4,788.2,166.4,788.2z"/>
			</defs>
			<clipPath id="SVGID_59_">
				<use xlink:href="#SVGID_58_"  style="overflow:visible;"/>
			</clipPath>
			<g class="st67">
				
					<linearGradient id="SVGID_60_" gradientUnits="userSpaceOnUse" x1="174.4" y1="15.6286" x2="254.48" y2="15.6286" gradientTransform="matrix(1 0 0 -1 -8 763.7372)">
					<stop  offset="0" style="stop-color:#174575"/>
					<stop  offset="1" style="stop-color:#3D113C"/>
				</linearGradient>
				<path class="st68" d="M166.4,788.2h7c0,0,14.6-25.4,17.6-34.6c0,0,4.4,7.5,20.1,28.9h7.1c0,0-9.9-33.7-16.3-44.2
					c0,0,44.7-5,44.7-30.3h-38.3c0,0-21,10.8-28.3,23.4C175.4,739.1,166.4,788.2,166.4,788.2z"/>
				
					<linearGradient id="SVGID_61_" gradientUnits="userSpaceOnUse" x1="199" y1="2.1786" x2="230.77" y2="2.1786" gradientTransform="matrix(1 0 0 -1 -8 763.7372)">
					<stop  offset="0" style="stop-color:#174575"/>
					<stop  offset="1" style="stop-color:#3D113C"/>
				</linearGradient>
				<path class="st69" d="M191,753.6c0,0,2.4-10.9,5.5-12.8c1.7-1.1,3.5-1.9,5.3-2.5l20.9,28.4l-1.7,15.7l-10,2.4l-11.6-3.9
					L191,753.6z"/>
			</g>
		</g>
	</g>
</g>
<linearGradient id="SVGID_62_" gradientUnits="userSpaceOnUse" x1="211.64" y1="-27.6713" x2="230.2538" y2="-27.6713" gradientTransform="matrix(1 0 0 -1 -8 763.7372)">
	<stop  offset="0" style="stop-color:#174575"/>
	<stop  offset="1" style="stop-color:#3D113C"/>
</linearGradient>
<path class="st70" d="M213.9,788.3c1.1,0.1,2.1-0.2,3-0.7c0.8-0.5,1.4-1.2,1.6-2.2c1.1,0.8,2,1.8,2.8,3c0.5,1,0.8,2.1,1,3.1
	l-2.3,1.4l-1-1.5l-1.9,1.2c-0.4,0.2-0.7,0.7-0.7,1.1c-0.3,1.5-3.8,3.7-3.8,3.7h-8.9c0,0-0.3-2.4,1.9-2.4c1.3,0.1,2.6-0.3,3.6-1.1
	C211,792.3,212.6,790.4,213.9,788.3z"/>
<g>
	<g>
		<g>
			<defs>
				<path id="SVGID_63_" d="M223.1,645.6c-0.9-1.8-1.3-3.7-1.2-5.7c0,0,1.9-1.8,1.9-8.1s0.4-9.7-2.9-11.1s-3.6,1-6.3,1.3
					s-7.4,0.8-8.7-0.1c0,0-1.2,4.1,3.7,4.1c-0.8,2.7-1,5.5-0.5,8.3l0,0c0.1,0.4,0,0.7-0.1,1.1c-0.3,0.4-1.3,1.4,0.1,1.5
					c-0.7,0,0.4,9.3,1.1,9.5c1.6,0.3,3.3-0.1,4.6-1.1v2.3c-2.9,6.6-4.8,13.5-5.5,20.6c0,0-4.5,7.8-6.1,12.5l-31.1-0.6
					c-1.9-0.2-3.9,0.4-5.3,1.7c-2,2-3.6,3.6-3.8,3.8l0,0l0,0c-0.1,0.1-0.1,0.2-0.1,0.3c0,0.3,0.2,0.5,0.5,0.5l0,0
					c0.1,0,0.3-0.1,0.4-0.2l0,0c0,0,2-1.4,2.8-1.3l0.8,0.1l-0.7,4.6l0,0c0,0.3,0.2,0.5,0.5,0.5s0.5-0.1,0.6-0.4l0,0l0.8-3
					c0,0,1.3-0.5,1.7,0.1s1.6,1.9,2.7,1.9s2.9-1.8,2.9-1.8h5.3c0,0,23.9,11,26.6,11.5c-0.3,3.2,0.1,6.4,1.1,9.4h38.2
					C246.7,707.9,251.5,657.9,223.1,645.6z"/>
			</defs>
			<clipPath id="SVGID_64_">
				<use xlink:href="#SVGID_63_"  style="overflow:visible;"/>
			</clipPath>
			<g class="st71">
				
					<linearGradient id="SVGID_65_" gradientUnits="userSpaceOnUse" x1="213.22" y1="99.6961" x2="256.43" y2="99.6961" gradientTransform="matrix(1 0 0 -1 -8 763.7372)">
					<stop  offset="0" style="stop-color:#BF0269"/>
					<stop  offset="1" style="stop-color:#FC6719"/>
				</linearGradient>
				<path class="st72" d="M223.1,645.6c-0.9-1.8-1.3-3.7-1.2-5.7c0,0,1.9-1.8,1.9-8.1s0.4-9.7-2.9-11.1s-3.6,1-6.3,1.3
					s-7.4,0.8-8.7-0.1c0,0-1.2,4.1,3.7,4.1c-1,3.3-1,6.7-0.1,10c0,0,0.3,0.8-0.4,0.8s0.4,9.3,1.1,9.5c1.6,0.3,3.3-0.1,4.6-1.1v2.3
					c-2.9,6.6-4.7,13.5-5.5,20.7c0,0-4.5,7.8-6.1,12.5l-31.1-0.6c-1.9-0.2-3.9,0.4-5.3,1.7c-2,2-3.6,3.6-3.8,3.8l0,0l0,0
					c-0.1,0.1-0.1,0.2-0.1,0.3c0,0.3,0.2,0.5,0.5,0.5l0,0c0.1,0,0.3-0.1,0.4-0.2l0,0c0,0,2-1.4,2.8-1.3l0.8,0.1l-0.7,4.6l0,0
					c0,0.3,0.2,0.5,0.5,0.5s0.5-0.1,0.6-0.4l0,0l0.8-3c0,0,1.3-0.5,1.7,0.1s1.6,1.9,2.7,1.9s2.9-1.8,2.9-1.8h5.3
					c0,0,23.9,11,26.6,11.5c-0.3,3.2,0.1,6.4,1.1,9.4h38.2C246.7,707.9,251.5,657.9,223.1,645.6z"/>
				
					<linearGradient id="SVGID_66_" gradientUnits="userSpaceOnUse" x1="205.54" y1="126.4586" x2="224.57" y2="126.4586" gradientTransform="matrix(1 0 0 -1 0 759.0173)">
					<stop  offset="0" style="stop-color:#4D3933"/>
					<stop  offset="1" style="stop-color:#3D113C"/>
				</linearGradient>
				<polygon class="st73" points="209.6,648.4 228.4,638 224.7,621.3 204.9,616.7 204.9,619.7 				"/>
				
					<linearGradient id="SVGID_67_" gradientUnits="userSpaceOnUse" x1="168.11" y1="86.0286" x2="217.22" y2="86.0286" gradientTransform="matrix(1 0 0 -1 -8 763.7372)">
					<stop  offset="0" style="stop-color:#FFD3A8"/>
					<stop  offset="1" style="stop-color:#FFB699"/>
				</linearGradient>
				<path class="st74" d="M209.2,668.2c0,0-2,5.7-2.2,18.8l-32.5-2.5l-7,1.2l-4.2,1.5L160,687l1.8-9.2L209.2,668.2z"/>
				
					<linearGradient id="SVGID_68_" gradientUnits="userSpaceOnUse" x1="172.3" y1="77.0787" x2="240.2" y2="77.0787" gradientTransform="matrix(1 0 0 -1 -8 763.7372)">
					<stop  offset="0" style="stop-color:#FFD3A8"/>
					<stop  offset="1" style="stop-color:#FFB699"/>
				</linearGradient>
				<path class="st75" d="M207.4,698.6c2.4,1.1,5,1.4,7.6,1c11.1-2,17.2-22.5,17.2-22.5c-3.2-0.1-15.9-5.2-15.9-5.2
					s-5.9,11.1-6.8,13.6s-2.4,1.2-4.6,1s-13.3-2.7-23.4-3.4c-1.5,0-2.9-0.2-4.3-0.5c-1.2-0.4-1.4-1-3.6-0.8c-1.9,0.3-3.8,1-5.5,2
					c-0.4,0.4-0.7,0.8-1,1.3l-2.8,5.1l37.5,11.2L207.4,698.6z"/>
				<path class="st76" d="M207.4,698.6c2.4,1.1,5,1.4,7.6,1c11.1-2,17.2-22.5,17.2-22.5c-3.2-0.1-15.9-5.2-15.9-5.2
					s-5.9,11.1-6.8,13.6s-2.4,1.2-4.6,1s-13.3-2.7-23.4-3.4c-1.5,0-2.9-0.2-4.3-0.5c-1.2-0.4-1.4-1-3.6-0.8c-1.9,0.3-3.8,1-5.5,2
					c-0.4,0.4-0.7,0.8-1,1.3l-2.8,5.1l37.5,11.2L207.4,698.6z"/>
				
					<linearGradient id="SVGID_69_" gradientUnits="userSpaceOnUse" x1="221.86" y1="124.8286" x2="235.19" y2="124.8286" gradientTransform="matrix(1 0 0 -1 -8 763.7372)">
					<stop  offset="0" style="stop-color:#FFD3A8"/>
					<stop  offset="1" style="stop-color:#FFB699"/>
				</linearGradient>
				<path class="st77" d="M221.9,639.9c0,0,0.3-5.2,0-6s-0.4-1.7-0.1-2.5c0.3-0.4,0.1-2.8-1-2.8s-2.2,0-2.3,1.8
					c0,2.1,0.3,4.2,0.7,6.2c0.7,3,3.1,4.7-1.2,6.8c-1.1,0.5-2.2,1-3.2,1.7l-0.9,2.4l0.9-0.1l0.1,1.1c0,0,0.4,0.7,2.7,0.7
					c2.4-0.2,4.5-1.6,5.6-3.7l4.1-1.7L221.9,639.9z"/>
				
					<linearGradient id="SVGID_70_" gradientUnits="userSpaceOnUse" x1="213.32" y1="131.6012" x2="224.82" y2="131.6012" gradientTransform="matrix(1 0 0 -1 -8 763.7372)">
					<stop  offset="0" style="stop-color:#FFD3A8"/>
					<stop  offset="1" style="stop-color:#FFB699"/>
				</linearGradient>
				<path class="st78" d="M209,636.9c0.7,0.1,1.3,0.2,2,0.1c0.9-0.2,2,1.6,3.3,1.6s2.2-0.3,2.2-1.5c0-1,0.1-2.1,0.3-3.1
					c0,0-1.8-3.5-1.3-5.8s0.4-2.7-1.6-2.5c-1.5,0.2-2.9,0.3-4.4,0.4c-1.4,0.1-2.8,0.4-4.2,0.9l2.9,9.8L209,636.9z"/>
			</g>
		</g>
	</g>
</g>
<linearGradient id="SVGID_71_" gradientUnits="userSpaceOnUse" x1="104.4235" y1="13.0586" x2="114.8365" y2="13.0586" gradientTransform="matrix(1 0 0 -1 0 759.0173)">
	<stop  offset="0" style="stop-color:#4D3933"/>
	<stop  offset="1" style="stop-color:#3D113C"/>
</linearGradient>
<line class="st79" x1="113.6" y1="693.5" x2="105.6" y2="798.4"/>
<linearGradient id="SVGID_72_" gradientUnits="userSpaceOnUse" x1="175.2646" y1="12.9586" x2="186.8653" y2="12.9586" gradientTransform="matrix(1 0 0 -1 0 759.0173)">
	<stop  offset="0" style="stop-color:#4D3933"/>
	<stop  offset="1" style="stop-color:#3D113C"/>
</linearGradient>
<line class="st80" x1="176.5" y1="693.7" x2="185.6" y2="798.4"/>
<linearGradient id="SVGID_73_" gradientUnits="userSpaceOnUse" x1="127.2" y1="77.7786" x2="147.7602" y2="77.7786" gradientTransform="matrix(1 0 0 -1 -8 763.7372)">
	<stop  offset="0" style="stop-color:#C9C9C9"/>
	<stop  offset="1" style="stop-color:#C4C4C4"/>
</linearGradient>
<path class="st81" d="M119.7,680.4c0,5.8,4.6,10.6,10.4,10.6l0,0h9.6"/>
<linearGradient id="SVGID_74_" gradientUnits="userSpaceOnUse" x1="158.4" y1="68.0586" x2="176.48" y2="68.0586" gradientTransform="matrix(1 0 0 -1 0 759.0173)">
	<stop  offset="0" style="stop-color:#C9C9C9"/>
	<stop  offset="1" style="stop-color:#C4C4C4"/>
</linearGradient>
<path class="st82" d="M159.7,690.3h15.5c0.7,0,1.3,0.6,1.3,1.3l0,0l0,0h-18.1l0,0l0,0C158.4,690.9,159,690.3,159.7,690.3
	L159.7,690.3z"/>
<linearGradient id="SVGID_75_" gradientUnits="userSpaceOnUse" x1="120.7" y1="98.9304" x2="125.43" y2="98.9304" gradientTransform="matrix(1 0 0 -1 -8.0583 763.6967)">
	<stop  offset="0" style="stop-color:#C9C9C9"/>
	<stop  offset="1" style="stop-color:#C4C4C4"/>
</linearGradient>
<path class="st83" d="M115.8,672.6l-3.2-15.1c-0.1-0.7,0.3-1.4,1-1.6l0,0l0,0l3.7,17.7l0,0l0,0C116.7,673.7,116,673.3,115.8,672.6z"
	/>
<linearGradient id="SVGID_76_" gradientUnits="userSpaceOnUse" x1="117.6" y1="105.1756" x2="129.01" y2="105.1756" gradientTransform="matrix(1 0 0 -1 -8.0612 763.7036)">
	<stop  offset="0" style="stop-color:#C9C9C9"/>
	<stop  offset="1" style="stop-color:#C4C4C4"/>
</linearGradient>
<path class="st84" d="M118.9,681.2l-9.3-44.7c-0.2-0.8,0.4-1.7,1.2-1.9l0,0h0.2l0,0l10,47.8l0,0h-0.2
	C119.9,682.6,119.1,682,118.9,681.2L118.9,681.2z"/>
<line class="st85" x1="112" y1="634.5" x2="121.9" y2="682.3"/>
<linearGradient id="SVGID_77_" gradientUnits="userSpaceOnUse" x1="214.3915" y1="-7.9414" x2="225.5085" y2="-7.9414" gradientTransform="matrix(1 0 0 -1 0 759.0173)">
	<stop  offset="0" style="stop-color:#4D3933"/>
	<stop  offset="1" style="stop-color:#3D113C"/>
</linearGradient>
<line class="st86" x1="224.3" y1="735.5" x2="215.6" y2="798.4"/>
<linearGradient id="SVGID_78_" gradientUnits="userSpaceOnUse" x1="244.5524" y1="-7.5914" x2="256.0876" y2="-7.5914" gradientTransform="matrix(1 0 0 -1 0 759.0173)">
	<stop  offset="0" style="stop-color:#4D3933"/>
	<stop  offset="1" style="stop-color:#3D113C"/>
</linearGradient>
<line class="st87" x1="245.8" y1="734.8" x2="254.9" y2="798.4"/>
<linearGradient id="SVGID_79_" gradientUnits="userSpaceOnUse" x1="256.92" y1="45.0593" x2="264.8392" y2="45.0593" gradientTransform="matrix(1 0 0 -1 -8 763.7372)">
	<stop  offset="0" style="stop-color:#4D3933"/>
	<stop  offset="1" style="stop-color:#3D113C"/>
</linearGradient>
<path class="st88" d="M249.8,701.6c0,0,7.2,14.5,6.4,24.1s-7.3,9.7-7.3,9.7"/>
<linearGradient id="SVGID_80_" gradientUnits="userSpaceOnUse" x1="220.75" y1="31.9582" x2="257.49" y2="31.9582" gradientTransform="matrix(1 0 0 -1 -8 763.7372)">
	<stop  offset="0" style="stop-color:#7A9FB4"/>
	<stop  offset="1" style="stop-color:#00C9B4"/>
</linearGradient>
<path class="st89" d="M212.8,733v3.4h36.7v-6.9C249.5,729.4,237.7,722.4,212.8,733z"/>
<linearGradient id="SVGID_81_" gradientUnits="userSpaceOnUse" x1="245.42" y1="69.8402" x2="259.0192" y2="69.8402" gradientTransform="matrix(1 0 0 -1 -8 763.7372)">
	<stop  offset="0" style="stop-color:#7A9FB4"/>
	<stop  offset="1" style="stop-color:#00C9B4"/>
</linearGradient>
<path class="st90" d="M250.6,686.6c-0.9,5.4-0.8,10.9,0.4,16.2c0,0-3.6-0.5-5.8,0.3s-3.9,2.2-4.9-0.4s-3.5-7.3-2.8-12.5
	S243.4,680.3,250.6,686.6z"/>
<linearGradient id="SVGID_82_" gradientUnits="userSpaceOnUse" x1="104.2" y1="65.4586" x2="186.3" y2="65.4586" gradientTransform="matrix(1 0 0 -1 0 759.0173)">
	<stop  offset="0" style="stop-color:#4D3933"/>
	<stop  offset="1" style="stop-color:#3D113C"/>
</linearGradient>
<path class="st91" d="M106.1,691.6h78.3c1.1,0,1.9,0.9,1.9,1.9v2l0,0h-82.1l0,0v-2C104.2,692.5,105.1,691.6,106.1,691.6z"/>
<linearGradient id="SVGID_83_" gradientUnits="userSpaceOnUse" x1="118.0834" y1="100.66" x2="145.1434" y2="105.6901" gradientTransform="matrix(1 0 0 -1 0 759.0173)">
	<stop  offset="0" style="stop-color:#7A9FB4"/>
	<stop  offset="1" style="stop-color:#FFFFFF;stop-opacity:0"/>
</linearGradient>
<polygon class="st92" points="150.3,683.5 122.3,679.5 113.9,639.5 141.8,622.8 "/>
</svg>
