<?xml version="1.0" encoding="utf-8"?>
<!-- Generator: Adobe Illustrator 23.0.3, SVG Export Plug-In . SVG Version: 6.00 Build 0)  -->
<svg version="1.1" id="Calque_1" xmlns="http://www.w3.org/2000/svg" xmlns:xlink="http://www.w3.org/1999/xlink" x="0px" y="0px"
	 viewBox="0 0 209.6 161.2" style="enable-background:new 0 0 209.6 161.2;" xml:space="preserve">
<style type="text/css">
	.st0{fill:none;}
	.st1{opacity:0.32;fill:url(#Rectangle_798_1_);enable-background:new    ;}
	.st2{fill:url(#Tracé_30091_1_);}
	.st3{fill:url(#Ellipse_244_1_);}
	.st4{fill:url(#Ellipse_245_1_);}
	.st5{clip-path:url(#SVGID_2_);}
	.st6{fill:url(#Ellipse_246_1_);}
	.st7{fill:url(#Ellipse_248_1_);}
	.st8{clip-path:url(#SVGID_4_);}
	.st9{opacity:0.15;fill:url(#Rectangle_800_1_);enable-background:new    ;}
	.st10{fill:url(#Ellipse_249_1_);}
</style>
<pattern  y="161.2" width="1708" height="1238" patternUnits="userSpaceOnUse" id="pattern" viewBox="0 -1238 1708 1238" style="overflow:visible;">
	<g>
		<rect y="-1238" class="st0" width="1708" height="1238"/>
		
			<image style="overflow:visible;enable-background:new    ;" width="1708" height="1238" xlink:href="DE52A99A.png"  transform="matrix(1 0 0 -1 0 0)">
		</image>
	</g>
</pattern>
<pattern  y="161.2" width="725" height="729" patternUnits="userSpaceOnUse" id="pattern-2" viewBox="0 -729 725 729" style="overflow:visible;">
	<g>
		<rect y="-729" class="st0" width="725" height="729"/>
		
			<image style="overflow:visible;enable-background:new    ;" width="725" height="729" xlink:href="DE52A99E.png"  transform="matrix(1 0 0 -1 0 0)">
		</image>
	</g>
</pattern>
<g id="illustr_nuage_native" transform="translate(0 0)">
	<g id="Groupe_1203" transform="translate(0.148 0.099)">
		
			<pattern  id="Rectangle_798_1_" xlink:href="#pattern" patternTransform="matrix(8.210155e-02 0 0 -8.194342e-02 -6925.7871 -9304.4961)">
		</pattern>
		<rect id="Rectangle_798" x="69.2" y="31.2" class="st1" width="140.2" height="101.4"/>
		<g id="Groupe_1202">
			
				<linearGradient id="Tracé_30091_1_" gradientUnits="userSpaceOnUse" x1="-486.2266" y1="501.6752" x2="-485.5321" y2="501.6752" gradientTransform="matrix(141.274 0 0 -85.3809 68755.1563 42883.8906)">
				<stop  offset="0" style="stop-color:#CCCCCC"/>
				<stop  offset="1" style="stop-color:#FFFFFF"/>
			</linearGradient>
			<path id="Tracé_30091" class="st2" d="M83.1,80.1C72.5,80.1,64,71.5,64,61c0-10.5,8.5-19.1,19.1-19.1c2.1,0,4.3,0.4,6.3,1.1
				c4-15.8,20.1-25.3,35.9-21.3c12.9,3.3,22,14.9,22.2,28.2c8.3,0.2,14.9,7.1,14.7,15.5c-0.2,8.2-6.9,14.7-15.1,14.7h-44"/>
		</g>
	</g>
	
		<linearGradient id="Ellipse_244_1_" gradientUnits="userSpaceOnUse" x1="-477.9171" y1="497.9315" x2="-477.2219" y2="497.9315" gradientTransform="matrix(43.378 0 0 -43.378 20863.0898 21664.1914)">
		<stop  offset="0" style="stop-color:#CCCCCC"/>
		<stop  offset="1" style="stop-color:#FFFFFF"/>
	</linearGradient>
	<circle id="Ellipse_244" class="st3" cx="147.1" cy="64.9" r="15.1"/>
	<g id="Groupe_1204" transform="translate(35.275 0)">
		
			<linearGradient id="Ellipse_245_1_" gradientUnits="userSpaceOnUse" x1="-518.8968" y1="501.7635" x2="-518.2023" y2="501.7635" gradientTransform="matrix(85.174 0 0 -85.174 44249.7734 42787.5781)">
			<stop  offset="0" style="stop-color:#CCCCCC"/>
			<stop  offset="1" style="stop-color:#FFFFFF"/>
		</linearGradient>
		<circle id="Ellipse_245" class="st4" cx="82.8" cy="50.4" r="29.6"/>
	</g>
	<g id="Groupe_1207" transform="translate(97.87 41.846)">
		<g>
			<defs>
				<circle id="SVGID_1_" cx="49.2" cy="23.1" r="15.1"/>
			</defs>
			<clipPath id="SVGID_2_">
				<use xlink:href="#SVGID_1_"  style="overflow:visible;"/>
			</clipPath>
			<g id="Groupe_1206" class="st5">
				
					<image style="overflow:visible;opacity:0.2;enable-background:new    ;" width="1013" height="1013" id="Rectangle_799" xlink:href="DE52A999.png"  transform="matrix(8.185506e-02 0 0 8.185506e-02 -21.2108 -32.9122)">
				</image>
				<g id="Groupe_1205" transform="translate(-62.596 -41.846)">
					
						<linearGradient id="Ellipse_246_1_" gradientUnits="userSpaceOnUse" x1="-518.8958" y1="501.7635" x2="-518.2013" y2="501.7635" gradientTransform="matrix(85.174 0 0 -85.174 44249.6914 42787.5781)">
						<stop  offset="0" style="stop-color:#CCCCCC"/>
						<stop  offset="1" style="stop-color:#FFFFFF"/>
					</linearGradient>
					<circle id="Ellipse_246" class="st6" cx="82.8" cy="50.4" r="29.6"/>
				</g>
			</g>
		</g>
	</g>
	<g id="Groupe_1208" transform="translate(0 30.186)">
		
			<linearGradient id="Ellipse_248_1_" gradientUnits="userSpaceOnUse" x1="-479.9693" y1="469.4229" x2="-479.2748" y2="469.4229" gradientTransform="matrix(55.234 0 0 -55.234 26574.6602 25958.8574)">
			<stop  offset="0" style="stop-color:#CCCCCC"/>
			<stop  offset="1" style="stop-color:#FFFFFF"/>
		</linearGradient>
		<circle id="Ellipse_248" class="st7" cx="83.2" cy="30.8" r="19.2"/>
	</g>
	<g id="Groupe_1211" transform="translate(35.275 0)">
		<g>
			<defs>
				<circle id="SVGID_3_" cx="82.8" cy="50.4" r="29.6"/>
			</defs>
			<clipPath id="SVGID_4_">
				<use xlink:href="#SVGID_3_"  style="overflow:visible;"/>
			</clipPath>
			<g id="Groupe_1210" class="st8">
				
					<pattern  id="Rectangle_800_1_" xlink:href="#pattern-2" patternTransform="matrix(8.200180e-02 0 0 -8.166521e-02 -6996.0342 -8858.8057)">
				</pattern>
				<rect id="Rectangle_800" x="18.2" y="31.2" class="st9" width="59.5" height="59.5"/>
				<g id="Groupe_1209" transform="translate(-35.275 30.186)">
					
						<linearGradient id="Ellipse_249_1_" gradientUnits="userSpaceOnUse" x1="-479.9693" y1="469.4229" x2="-479.2748" y2="469.4229" gradientTransform="matrix(55.234 0 0 -55.234 26574.6602 25958.8574)">
						<stop  offset="0" style="stop-color:#CCCCCC"/>
						<stop  offset="1" style="stop-color:#FFFFFF"/>
					</linearGradient>
					<circle id="Ellipse_249" class="st10" cx="83.2" cy="30.8" r="19.2"/>
				</g>
			</g>
		</g>
	</g>
</g>
</svg>
