<?xml version="1.0" encoding="utf-8"?>
<!-- Generator: Adobe Illustrator 22.1.0, SVG Export Plug-In . SVG Version: 6.00 Build 0)  -->
<svg version="1.1" id="Calque_1" xmlns="http://www.w3.org/2000/svg" xmlns:xlink="http://www.w3.org/1999/xlink" x="0px" y="0px"
	 viewBox="0 0 145 70" style="enable-background:new 0 0 145 70;" xml:space="preserve">
<style type="text/css">
	.st0{fill:#FFFFFF;}
	.st1{clip-path:url(#SVGID_4_);fill:#FFFFFF;}
	.st2{clip-path:url(#SVGID_8_);fill:#FFFFFF;}
	.st3{clip-path:url(#SVGID_12_);fill:#FFFFFF;}
	.st4{clip-path:url(#SVGID_14_);fill:#FFFFFF;}
	.st5{clip-path:url(#SVGID_17_);fill:#FFFFFF;}
	.st6{clip-path:url(#SVGID_19_);fill:#FFFFFF;}
	.st7{clip-path:url(#SVGID_21_);fill:#FFFFFF;}
</style>
<g>
	<g>
		<g>
			<g>
				<path id="SVGID_1_" class="st0" d="M62.4,24.4v-6.6c0-0.6-0.3-1.2-0.9-1.6l-5.7-3.3l-0.5-0.3c-0.6-0.3-1.4-0.1-1.7,0.5l-0.8,1.4
					c-0.3,0.6-0.1,1.4,0.5,1.7l2.9,1.7l1.8,1c0.3,0.1,0.4,0.4,0.4,0.7v3c0,0.3-0.1,0.5-0.4,0.7l-1.8,1l0,0L55,24.9
					C55,25,54.9,25,54.9,25l-1.6,0.9c-0.6,0.3-0.8,1.1-0.5,1.7l0.8,1.3c0.3,0.6,1.1,0.8,1.7,0.5l6.2-3.5C62,25.6,62.4,25,62.4,24.4z
					"/>
			</g>
			<g>
				<defs>
					<path id="SVGID_2_" d="M62.4,24.4v-6.6c0-0.6-0.3-1.2-0.9-1.6l-5.7-3.3l-0.5-0.3c-0.6-0.3-1.4-0.1-1.7,0.5l-0.8,1.4
						c-0.3,0.6-0.1,1.4,0.5,1.7l2.9,1.7l1.8,1c0.3,0.1,0.4,0.4,0.4,0.7v3c0,0.3-0.1,0.5-0.4,0.7l-1.8,1l0,0L55,24.9
						C55,25,54.9,25,54.9,25l-1.6,0.9c-0.6,0.3-0.8,1.1-0.5,1.7l0.8,1.3c0.3,0.6,1.1,0.8,1.7,0.5l6.2-3.5C62,25.6,62.4,25,62.4,24.4
						z"/>
				</defs>
				<use xlink:href="#SVGID_2_"  style="overflow:visible;fill:#FFFFFF;"/>
				<clipPath id="SVGID_4_">
					<use xlink:href="#SVGID_2_"  style="overflow:visible;"/>
				</clipPath>
				<polygon class="st1" points="94.4,33.6 94.4,7.6 71.8,-5.4 49.2,7.6 49.2,33.6 71.8,46.6 				"/>
			</g>
		</g>
		<g>
			<g>
				<path id="SVGID_3_" class="st0" d="M91.3,26l-1.6-0.9c-0.1,0-0.1-0.1-0.2-0.1l-1.1-0.6l0,0l-1.8-1c-0.2-0.1-0.4-0.4-0.4-0.7v-3
					c0-0.3,0.1-0.5,0.4-0.7l1.8-1l2.9-1.7c0.6-0.3,0.8-1.1,0.5-1.7L91,13.2c-0.3-0.6-1.1-0.8-1.7-0.5L88.9,13l-5.7,3.3
					c-0.6,0.3-0.9,0.9-0.9,1.6v6.6c0,0.6,0.3,1.2,0.9,1.6l6.2,3.5c0.6,0.3,1.4,0.1,1.7-0.5l0.8-1.3C92.1,27.1,91.9,26.3,91.3,26z"/>
			</g>
			<g>
				<defs>
					<path id="SVGID_6_" d="M91.3,26l-1.6-0.9c-0.1,0-0.1-0.1-0.2-0.1l-1.1-0.6l0,0l-1.8-1c-0.2-0.1-0.4-0.4-0.4-0.7v-3
						c0-0.3,0.1-0.5,0.4-0.7l1.8-1l2.9-1.7c0.6-0.3,0.8-1.1,0.5-1.7L91,13.2c-0.3-0.6-1.1-0.8-1.7-0.5L88.9,13l-5.7,3.3
						c-0.6,0.3-0.9,0.9-0.9,1.6v6.6c0,0.6,0.3,1.2,0.9,1.6l6.2,3.5c0.6,0.3,1.4,0.1,1.7-0.5l0.8-1.3C92.1,27.1,91.9,26.3,91.3,26z"
						/>
				</defs>
				<use xlink:href="#SVGID_6_"  style="overflow:visible;fill:#FFFFFF;"/>
				<clipPath id="SVGID_8_">
					<use xlink:href="#SVGID_6_"  style="overflow:visible;"/>
				</clipPath>
				<polygon class="st2" points="94.4,33.6 94.4,7.6 71.8,-5.4 49.2,7.6 49.2,33.6 71.8,46.6 				"/>
			</g>
		</g>
		<g>
			<g>
				<path id="SVGID_5_" class="st0" d="M88.1,31.2l-0.5-0.3l-5.8-3.2c-0.6-0.3-1.2-0.3-1.8,0l-5.7,3.4c-0.5,0.3-0.9,0.9-0.9,1.6
					l0.2,7.1c0,0.7,0.6,1.2,1.3,1.2l1.5,0c0.7,0,1.2-0.6,1.2-1.3l0-1.8c0-0.1,0-0.1,0-0.2l0-1.2l0,0l0-2c0-0.3,0.1-0.5,0.4-0.7
					l2.6-1.6c0.2-0.1,0.5-0.1,0.8,0l1.8,1l2.9,1.6c0.6,0.3,1.4,0.1,1.7-0.5l0.8-1.4C88.9,32.3,88.7,31.6,88.1,31.2z"/>
			</g>
			<g>
				<defs>
					<path id="SVGID_10_" d="M88.1,31.2l-0.5-0.3l-5.8-3.2c-0.6-0.3-1.2-0.3-1.8,0l-5.7,3.4c-0.5,0.3-0.9,0.9-0.9,1.6l0.2,7.1
						c0,0.7,0.6,1.2,1.3,1.2l1.5,0c0.7,0,1.2-0.6,1.2-1.3l0-1.8c0-0.1,0-0.1,0-0.2l0-1.2l0,0l0-2c0-0.3,0.1-0.5,0.4-0.7l2.6-1.6
						c0.2-0.1,0.5-0.1,0.8,0l1.8,1l2.9,1.6c0.6,0.3,1.4,0.1,1.7-0.5l0.8-1.4C88.9,32.3,88.7,31.6,88.1,31.2z"/>
				</defs>
				<use xlink:href="#SVGID_10_"  style="overflow:visible;fill:#FFFFFF;"/>
				<clipPath id="SVGID_12_">
					<use xlink:href="#SVGID_10_"  style="overflow:visible;"/>
				</clipPath>
				<polygon class="st3" points="94.4,33.6 94.4,7.6 71.8,-5.4 49.2,7.6 49.2,33.6 71.8,46.6 				"/>
			</g>
		</g>
		<g>
			<g>
				<path id="SVGID_7_" class="st0" d="M70.2,31.2l-5.7-3.4c-0.5-0.3-1.2-0.3-1.8,0L57,30.9l-0.5,0.3c-0.6,0.3-0.8,1.1-0.5,1.7
					l0.8,1.4c0.3,0.6,1.1,0.8,1.7,0.5l2.9-1.6l1.8-1c0.3-0.1,0.5-0.1,0.8,0l2.6,1.6c0.2,0.1,0.4,0.4,0.4,0.7l0,2l0,0l0,1.2
					c0,0.1,0,0.1,0,0.2l0,1.8c0,0.7,0.5,1.3,1.2,1.3l1.5,0c0.7,0,1.3-0.5,1.3-1.2l0.2-7.1C71.1,32.1,70.8,31.5,70.2,31.2z"/>
			</g>
			<g>
				<defs>
					<path id="SVGID_13_" d="M70.2,31.2l-5.7-3.4c-0.5-0.3-1.2-0.3-1.8,0L57,30.9l-0.5,0.3c-0.6,0.3-0.8,1.1-0.5,1.7l0.8,1.4
						c0.3,0.6,1.1,0.8,1.7,0.5l2.9-1.6l1.8-1c0.3-0.1,0.5-0.1,0.8,0l2.6,1.6c0.2,0.1,0.4,0.4,0.4,0.7l0,2l0,0l0,1.2
						c0,0.1,0,0.1,0,0.2l0,1.8c0,0.7,0.5,1.3,1.2,1.3l1.5,0c0.7,0,1.3-0.5,1.3-1.2l0.2-7.1C71.1,32.1,70.8,31.5,70.2,31.2z"/>
				</defs>
				<use xlink:href="#SVGID_13_"  style="overflow:visible;fill:#FFFFFF;"/>
				<clipPath id="SVGID_14_">
					<use xlink:href="#SVGID_13_"  style="overflow:visible;"/>
				</clipPath>
				<polygon class="st4" points="94.4,33.6 94.4,7.6 71.8,-5.4 49.2,7.6 49.2,33.6 71.8,46.6 				"/>
			</g>
		</g>
		<g>
			<g>
				<path id="SVGID_9_" class="st0" d="M74.4,10.9l5.7,3.4c0.5,0.3,1.2,0.3,1.8,0l5.8-3.2l0.5-0.3c0.6-0.3,0.8-1.1,0.5-1.7l-0.8-1.4
					c-0.3-0.6-1.1-0.8-1.7-0.5l-2.9,1.6l-1.8,1c-0.3,0.1-0.5,0.1-0.8,0l-2.6-1.6c-0.2-0.1-0.4-0.4-0.4-0.7l0-2l0,0l0-1.2
					c0-0.1,0-0.1,0-0.2l0-1.8c0-0.7-0.5-1.3-1.2-1.3l-1.5,0c-0.7,0-1.3,0.5-1.3,1.2l-0.2,7.1C73.5,10,73.8,10.6,74.4,10.9z"/>
			</g>
			<g>
				<defs>
					<path id="SVGID_16_" d="M74.4,10.9l5.7,3.4c0.5,0.3,1.2,0.3,1.8,0l5.8-3.2l0.5-0.3c0.6-0.3,0.8-1.1,0.5-1.7l-0.8-1.4
						c-0.3-0.6-1.1-0.8-1.7-0.5l-2.9,1.6l-1.8,1c-0.3,0.1-0.5,0.1-0.8,0l-2.6-1.6c-0.2-0.1-0.4-0.4-0.4-0.7l0-2l0,0l0-1.2
						c0-0.1,0-0.1,0-0.2l0-1.8c0-0.7-0.5-1.3-1.2-1.3l-1.5,0c-0.7,0-1.3,0.5-1.3,1.2l-0.2,7.1C73.5,10,73.8,10.6,74.4,10.9z"/>
				</defs>
				<use xlink:href="#SVGID_16_"  style="overflow:visible;fill:#FFFFFF;"/>
				<clipPath id="SVGID_17_">
					<use xlink:href="#SVGID_16_"  style="overflow:visible;"/>
				</clipPath>
				<polygon class="st5" points="94.4,33.6 94.4,7.6 71.8,-5.4 49.2,7.6 49.2,33.6 71.8,46.6 				"/>
			</g>
		</g>
		<g>
			<g>
				<path id="SVGID_11_" class="st0" d="M69.6,1l-1.5,0c-0.7,0-1.2,0.6-1.2,1.3l0,1.8c0,0.1,0,0.1,0,0.2l0,1.2l0,0l0,2
					c0,0.3-0.1,0.5-0.4,0.7l-2.6,1.6c-0.2,0.1-0.5,0.1-0.8,0l-1.8-1l-2.9-1.6c-0.6-0.3-1.4-0.1-1.7,0.5L56,9.1
					c-0.3,0.6-0.1,1.4,0.5,1.7l0.5,0.3l5.8,3.2c0.6,0.3,1.2,0.3,1.8,0l5.7-3.4c0.5-0.3,0.9-0.9,0.9-1.6l-0.2-7.1
					C70.9,1.6,70.3,1,69.6,1z"/>
			</g>
			<g>
				<defs>
					<path id="SVGID_18_" d="M69.6,1l-1.5,0c-0.7,0-1.2,0.6-1.2,1.3l0,1.8c0,0.1,0,0.1,0,0.2l0,1.2l0,0l0,2c0,0.3-0.1,0.5-0.4,0.7
						l-2.6,1.6c-0.2,0.1-0.5,0.1-0.8,0l-1.8-1l-2.9-1.6c-0.6-0.3-1.4-0.1-1.7,0.5L56,9.1c-0.3,0.6-0.1,1.4,0.5,1.7l0.5,0.3l5.8,3.2
						c0.6,0.3,1.2,0.3,1.8,0l5.7-3.4c0.5-0.3,0.9-0.9,0.9-1.6l-0.2-7.1C70.9,1.6,70.3,1,69.6,1z"/>
				</defs>
				<use xlink:href="#SVGID_18_"  style="overflow:visible;fill:#FFFFFF;"/>
				<clipPath id="SVGID_19_">
					<use xlink:href="#SVGID_18_"  style="overflow:visible;"/>
				</clipPath>
				<polygon class="st6" points="94.4,33.6 94.4,7.6 71.8,-5.4 49.2,7.6 49.2,33.6 71.8,46.6 				"/>
			</g>
		</g>
	</g>
	<g>
		<g>
			<defs>
				<path id="SVGID_20_" d="M78.4,16.4l-5.3-3c-0.6-0.3-1.3-0.3-1.9,0l-5.3,3c-0.6,0.3-0.9,1-0.9,1.6v6.1c0,0.7,0.4,1.3,0.9,1.6
					l5.3,3c0.6,0.3,1.3,0.3,1.9,0l5.3-3c0.6-0.3,0.9-1,0.9-1.6V18C79.4,17.3,79,16.7,78.4,16.4z M75.9,23.1l-3.6,2.1l-3.6-2.1v-4.2
					l3.6-2.1l3.6,2.1V23.1z"/>
			</defs>
			<use xlink:href="#SVGID_20_"  style="overflow:visible;fill:#FFFFFF;"/>
			<clipPath id="SVGID_21_">
				<use xlink:href="#SVGID_20_"  style="overflow:visible;"/>
			</clipPath>
			<polygon class="st7" points="94.4,33.6 94.4,7.6 71.8,-5.4 49.2,7.6 49.2,33.6 71.8,46.6 			"/>
		</g>
	</g>
</g>
<g>
	<path class="st0" d="M0.1,66.5l2.7-1.8c0.1-0.1,0.2,0,0.3,0.1c0.5,0.8,1.2,1.4,2.3,1.4c0.6,0,1-0.1,1-0.6c0-0.5-0.4-0.6-1.7-1.2
		l-0.7-0.3c-2.3-0.9-3.5-2.4-3.5-4.3c0-2.4,2-4.1,4.6-4.1c1.6,0,3.1,0.6,4.1,1.9c0.1,0.1,0,0.2,0,0.3l-2,1.9c-0.1,0.1-0.2,0.1-0.3,0
		c-0.5-0.6-1-1-1.8-1c-0.5,0-1,0.2-1,0.6c0,0.5,0.4,0.7,1.8,1.2l0.6,0.2c2.6,1,3.6,2.4,3.6,4.4c0,2.2-1.8,3.9-4,4.1
		c-2.6,0.2-4.8-0.5-6.1-2.6C0,66.7,0,66.5,0.1,66.5z"/>
	<path class="st0" d="M36.1,68.2c-0.8,0.8-2.1,1.2-3.2,1.2c-3.6,0-5.7-2.5-5.7-6.1v-7.2c0-0.1,0.1-0.2,0.2-0.2h3.6
		c0.1,0,0.2,0.1,0.2,0.2v6.5c0,1.8,0.8,3.1,2.3,3.1c1,0,2-0.5,2.5-1.3v-8.3c0-0.1,0.1-0.2,0.2-0.2H40c0.1,0,0.2,0.1,0.2,0.2V69
		c0,0.1-0.1,0.2-0.2,0.2h-3.6c-0.1,0-0.2-0.1-0.2-0.2L36.1,68.2L36.1,68.2z"/>
	<path class="st0" d="M52,68.5c-0.8,0.6-1.8,1-2.9,1c-3.9,0-6.5-3.2-6.5-6.9c0-3.6,2.5-6.9,6.5-6.9c1.1,0,2.1,0.4,2.9,1v-0.6
		c0-0.1,0.1-0.2,0.2-0.2h3.6c0.1,0,0.2,0.1,0.2,0.2V69c0,0.1-0.1,0.2-0.2,0.2h-3.6c-0.1,0-0.2-0.1-0.2-0.2V68.5z M52,64.7v-4.2
		c-0.6-0.7-1.3-1.1-2.3-1.1c-1.9,0-3.1,1.4-3.1,3.2c0,1.8,1.1,3.2,3.1,3.2C50.7,65.7,51.4,65.4,52,64.7z"/>
	<path class="st0" d="M59.3,55.9h3.6c0.1,0,0.2,0.1,0.2,0.2v1c0.8-0.9,1.7-1.4,3-1.4c0.4,0,0.8,0,1.3,0.2c0.1,0,0.2,0.1,0.2,0.2v3.7
		c0,0.2-0.2,0.3-0.3,0.2c-0.5-0.2-1.1-0.3-1.8-0.3c-0.8,0-1.8,0.3-2.4,0.9V69c0,0.1-0.1,0.2-0.2,0.2h-3.6c-0.1,0-0.2-0.1-0.2-0.2
		V56.1C59.1,56,59.2,55.9,59.3,55.9z"/>
	<path class="st0" d="M68.6,62.6c0-3.9,2.8-6.9,6.9-6.9c3.4,0,6.4,2.2,6.4,6.4c0,0.3,0,0.6,0,1c0,0.1-0.1,0.2-0.2,0.2h-9.2
		c0.2,1.8,1.7,2.5,2.9,2.5c1.3,0,2.2-0.6,2.7-1.5c0.1-0.1,0.2-0.2,0.3-0.1l2.8,1.9c0.1,0.1,0.1,0.2,0.1,0.3c-1.3,1.8-3.4,3-5.9,3
		C71.9,69.4,68.6,66.7,68.6,62.6z M72.5,60.9H78c-0.2-1.4-1.4-2-2.7-2C74.3,58.9,72.9,59.3,72.5,60.9z"/>
	<path class="st0" d="M83.3,66.5l2.7-1.8c0.1-0.1,0.2,0,0.3,0.1c0.5,0.8,1.2,1.4,2.3,1.4c0.6,0,1-0.1,1-0.6c0-0.5-0.4-0.6-1.7-1.2
		l-0.7-0.3c-2.3-0.9-3.5-2.4-3.5-4.3c0-2.4,2-4.1,4.6-4.1c1.6,0,3.1,0.6,4.1,1.9c0.1,0.1,0,0.2,0,0.3l-2,1.9c-0.1,0.1-0.2,0.1-0.3,0
		c-0.5-0.6-1-1-1.8-1c-0.5,0-1,0.2-1,0.6c0,0.5,0.4,0.7,1.8,1.2l0.6,0.2c2.6,1,3.6,2.4,3.6,4.4c0,2.2-1.8,3.9-4,4.1
		c-2.6,0.2-4.8-0.5-6.1-2.6C83.2,66.7,83.2,66.5,83.3,66.5z"/>
	<path class="st0" d="M94.8,62.6c0-3.8,3.1-6.9,6.9-6.9c2.4,0,4.5,1.2,5.7,3c0.1,0.1,0,0.2,0,0.3l-2.8,2c-0.1,0.1-0.2,0-0.3-0.1
		c-0.5-0.9-1.4-1.4-2.5-1.4c-1.6,0-2.9,1.3-2.9,3.1c0,1.8,1.2,3.1,2.9,3.1c1.1,0,2-0.6,2.5-1.4c0.1-0.1,0.2-0.2,0.3-0.1l2.8,2
		c0.1,0.1,0.1,0.2,0,0.3c-1.3,1.8-3.3,3-5.7,3C97.9,69.4,94.8,66.4,94.8,62.6z"/>
	<path class="st0" d="M118.1,68.5c-0.8,0.6-1.8,1-2.9,1c-3.9,0-6.5-3.2-6.5-6.9c0-3.6,2.5-6.9,6.5-6.9c1.1,0,2.1,0.4,2.9,1v-0.6
		c0-0.1,0.1-0.2,0.2-0.2h3.6c0.1,0,0.2,0.1,0.2,0.2V69c0,0.1-0.1,0.2-0.2,0.2h-3.6c-0.1,0-0.2-0.1-0.2-0.2V68.5z M118.1,64.7v-4.2
		c-0.6-0.7-1.3-1.1-2.3-1.1c-1.9,0-3.1,1.4-3.1,3.2c0,1.8,1.1,3.2,3.1,3.2C116.9,65.7,117.6,65.4,118.1,64.7z"/>
	<path class="st0" d="M125.6,50.3h3.6c0.1,0,0.2,0.1,0.2,0.2V69c0,0.1-0.1,0.2-0.2,0.2h-3.6c-0.1,0-0.2-0.1-0.2-0.2V50.6
		C125.3,50.4,125.4,50.3,125.6,50.3z"/>
	<path class="st0" d="M131.7,62.6c0-3.9,2.8-6.9,6.9-6.9c3.4,0,6.4,2.2,6.4,6.4c0,0.3,0,0.6,0,1c0,0.1-0.1,0.2-0.2,0.2h-9.2
		c0.2,1.8,1.7,2.5,2.9,2.5c1.3,0,2.2-0.6,2.7-1.5c0.1-0.1,0.2-0.2,0.3-0.1l2.8,1.9c0.1,0.1,0.1,0.2,0.1,0.3c-1.3,1.8-3.4,3-5.9,3
		C135,69.4,131.7,66.7,131.7,62.6z M135.6,60.9h5.4c-0.2-1.4-1.4-2-2.7-2C137.4,58.9,136,59.3,135.6,60.9z"/>
	<path class="st0" d="M18.4,59.3c1.8,0,3.3,1.5,3.3,3.3s-1.5,3.3-3.3,3.3c-1.8,0-3.3-1.5-3.3-3.3S16.6,59.3,18.4,59.3 M18.4,55.7
		c-3.8,0-6.9,3.1-6.9,6.9s3.1,6.9,6.9,6.9c3.8,0,6.9-3.1,6.9-6.9S22.2,55.7,18.4,55.7L18.4,55.7z"/>
	<g>
		<g>
			<path id="SVGID_15_" class="st0" d="M18.4,59.3c1.8,0,3.3,1.5,3.3,3.3s-1.5,3.3-3.3,3.3c-1.8,0-3.3-1.5-3.3-3.3
				S16.6,59.3,18.4,59.3 M18.4,55.7c-3.8,0-6.9,3.1-6.9,6.9s3.1,6.9,6.9,6.9c3.8,0,6.9-3.1,6.9-6.9S22.2,55.7,18.4,55.7L18.4,55.7z"
				/>
		</g>
		<g>
			<defs>
				<path id="SVGID_22_" d="M18.4,59.3c1.8,0,3.3,1.5,3.3,3.3s-1.5,3.3-3.3,3.3c-1.8,0-3.3-1.5-3.3-3.3S16.6,59.3,18.4,59.3
					 M18.4,55.7c-3.8,0-6.9,3.1-6.9,6.9s3.1,6.9,6.9,6.9c3.8,0,6.9-3.1,6.9-6.9S22.2,55.7,18.4,55.7L18.4,55.7z"/>
			</defs>
			<use xlink:href="#SVGID_22_"  style="overflow:visible;fill:#FFFFFF;"/>
			<clipPath id="SVGID_23_">
				<use xlink:href="#SVGID_22_"  style="overflow:visible;"/>
			</clipPath>
		</g>
	</g>
	<path class="st0" d="M25.5,68.1l-1.9,1.9c-0.1,0.1-0.2,0.1-0.3,0l-5.8-5.8c-0.1-0.1-0.1-0.2,0-0.3l1.9-1.9c0.1-0.1,0.2-0.1,0.3,0
		l5.8,5.8C25.6,67.8,25.6,68,25.5,68.1z"/>
</g>
<image style="display:none;overflow:visible;" width="144" height="70" xlink:href="673C0C8.jpg"  transform="matrix(1 0 0 1 1 0)">
</image>
</svg>
