<svg xmlns="http://www.w3.org/2000/svg" xmlns:xlink="http://www.w3.org/1999/xlink" viewBox="0 0 1984.56 773.45"><defs><style>.cls-1{isolation:isolate;}.cls-2{fill:#242021;}.cls-3{fill:#75c0c7;}.cls-4{fill:#f3977c;}.cls-5{fill:#126976;}.cls-6{fill:#146977;}.cls-7{fill:#2b2523;}.cls-10,.cls-11,.cls-12,.cls-16,.cls-18,.cls-19,.cls-20,.cls-21,.cls-22,.cls-23,.cls-24,.cls-25,.cls-26,.cls-27,.cls-28,.cls-29,.cls-30,.cls-31,.cls-32,.cls-33,.cls-34,.cls-35,.cls-8,.cls-9{fill:#fff;}.cls-13,.cls-8{opacity:0.2;}.cls-9{opacity:0.32;}.cls-10{opacity:0;}.cls-11,.cls-15{opacity:0.1;}.cls-12{opacity:0.4;}.cls-13,.cls-14,.cls-15,.cls-17{fill:#f3f3f3;}.cls-16{opacity:0.3;}.cls-17,.cls-29{opacity:0.15;}.cls-18{opacity:0.54;}.cls-19{opacity:0.8;}.cls-20{opacity:0.71;}.cls-21{opacity:0.43;}.cls-22{opacity:0.6;}.cls-23{opacity:0.5;}.cls-24{opacity:0.75;}.cls-25{opacity:0.7;}.cls-26{opacity:0.61;}.cls-28{opacity:0.66;}.cls-30{opacity:0.69;}.cls-31{opacity:0.51;}.cls-32{opacity:0.55;}.cls-33{opacity:0.65;}.cls-34{opacity:0.26;}.cls-35{opacity:0.62;}.cls-36{fill:#185a60;}.cls-37,.cls-38,.cls-39,.cls-40,.cls-41,.cls-42,.cls-43{mix-blend-mode:multiply;}.cls-37{fill:url(#Dégradé_sans_nom_338);}.cls-38{fill:url(#Dégradé_sans_nom_265);}.cls-39{fill:url(#Dégradé_sans_nom_265-2);}.cls-40{fill:url(#Dégradé_sans_nom_265-3);}.cls-41{fill:url(#Dégradé_sans_nom_265-4);}.cls-42{fill:url(#Dégradé_sans_nom_265-5);}.cls-43{fill:url(#Dégradé_sans_nom_421);}</style><radialGradient id="Dégradé_sans_nom_338" cx="1639.82" cy="439.67" r="272.01" gradientTransform="translate(631.77 1741.89) rotate(-57.53) scale(1 0.34)" gradientUnits="userSpaceOnUse"><stop offset="0" stop-color="#fff"/><stop offset="0.34" stop-color="#fdfdfd"/><stop offset="0.46" stop-color="#f6f6f6"/><stop offset="0.55" stop-color="#eaeaea"/><stop offset="0.62" stop-color="#d9d9d9"/><stop offset="0.68" stop-color="#c3c3c3"/><stop offset="0.74" stop-color="#a8a8a8"/><stop offset="0.79" stop-color="#878787"/><stop offset="0.83" stop-color="#616161"/><stop offset="0.88" stop-color="#363636"/><stop offset="0.91" stop-color="#080808"/><stop offset="0.92"/></radialGradient><linearGradient id="Dégradé_sans_nom_265" x1="1624.29" y1="182.47" x2="1738.49" y2="182.47" gradientUnits="userSpaceOnUse"><stop offset="0.08"/><stop offset="0.19" stop-color="#383838"/><stop offset="0.3" stop-color="#6c6c6c"/><stop offset="0.42" stop-color="#999"/><stop offset="0.54" stop-color="#bebebe"/><stop offset="0.65" stop-color="#dadada"/><stop offset="0.77" stop-color="#efefef"/><stop offset="0.89" stop-color="#fbfbfb"/><stop offset="1" stop-color="#fff"/></linearGradient><linearGradient id="Dégradé_sans_nom_265-2" x1="1192.04" y1="413.77" x2="1353.93" y2="192.55" xlink:href="#Dégradé_sans_nom_265"/><linearGradient id="Dégradé_sans_nom_265-3" x1="1243.9" y1="452.33" x2="1445.77" y2="121.23" xlink:href="#Dégradé_sans_nom_265"/><linearGradient id="Dégradé_sans_nom_265-4" x1="1490.41" y1="201.43" x2="1654.53" y2="201.43" xlink:href="#Dégradé_sans_nom_265"/><linearGradient id="Dégradé_sans_nom_265-5" x1="1034.76" y1="1090.4" x2="1557.97" y2="375.47" xlink:href="#Dégradé_sans_nom_265"/><radialGradient id="Dégradé_sans_nom_421" cx="1673.19" cy="651.06" r="308.98" gradientTransform="matrix(0.85, 0.52, -0.26, 0.42, 416.51, -500.03)" gradientUnits="userSpaceOnUse"><stop offset="0.26" stop-color="#fff"/><stop offset="0.43" stop-color="#fdfdfd"/><stop offset="0.53" stop-color="#f4f4f4"/><stop offset="0.62" stop-color="#e6e6e6"/><stop offset="0.69" stop-color="#d2d2d2"/><stop offset="0.75" stop-color="#b8b8b8"/><stop offset="0.82" stop-color="#999"/><stop offset="0.87" stop-color="#737373"/><stop offset="0.93" stop-color="#474747"/><stop offset="0.98" stop-color="#171717"/><stop offset="1"/></radialGradient></defs><title>logo_sogilis</title><g class="cls-1"><g id="Calque_1" data-name="Calque 1"><path class="cls-2" d="M178.51,447.32a18.54,18.54,0,0,1-5.08,6.07,11.25,11.25,0,0,1-6.67,1.89,17.18,17.18,0,0,1-9.07-3.08q-4.87-3.09-11.65-6.88a96.7,96.7,0,0,0-15.84-6.87,66.55,66.55,0,0,0-21.42-3.09,64,64,0,0,0-19.52,2.69,40.82,40.82,0,0,0-14,7.47A29.85,29.85,0,0,0,66.75,457,37.59,37.59,0,0,0,64,471.62q0,10.15,5.68,16.93a47.24,47.24,0,0,0,15,11.56A139.18,139.18,0,0,0,106,508.67q12,3.79,24.51,8.07a232.66,232.66,0,0,1,24.5,10,84.79,84.79,0,0,1,21.32,14.35,65.08,65.08,0,0,1,15,21.21Q197,574.82,197,592.74a99.32,99.32,0,0,1-6.68,36.56A84.2,84.2,0,0,1,170.84,659a91.81,91.81,0,0,1-31.38,19.92q-18.53,7.27-42.43,7.28a137,137,0,0,1-27.09-2.69,143.24,143.24,0,0,1-25.6-7.67,136.88,136.88,0,0,1-23-12A110.73,110.73,0,0,1,2.2,648.33l15.74-25.7a16.88,16.88,0,0,1,5.18-4.69,13,13,0,0,1,6.77-1.89q5,0,10.76,4.09T54.4,629.2A108.78,108.78,0,0,0,73,638.27q10.67,4.08,25.6,4.08,22.92,0,35.46-10.86t12.56-31.18q0-11.35-5.68-18.52a46,46,0,0,0-15-12.06,112.93,112.93,0,0,0-21.32-8.26q-12-3.39-24.3-7.37A209.85,209.85,0,0,1,56,544.53,78.37,78.37,0,0,1,34.68,530a66.22,66.22,0,0,1-15-22.41Q14,494.13,14,474.41a78.58,78.58,0,0,1,6.27-30.68,79.38,79.38,0,0,1,18.23-26.5,89.44,89.44,0,0,1,29.48-18.52q17.53-7,40.25-7a134.43,134.43,0,0,1,47,8A106.3,106.3,0,0,1,191.86,422Z" transform="translate(-2.2 -0.23)"/><path class="cls-2" d="M357.6,475.41q22.72,0,41.34,7.37a90.58,90.58,0,0,1,31.88,20.91,92,92,0,0,1,20.42,33.07q7.17,19.53,7.17,43.63,0,24.32-7.17,43.83a93.83,93.83,0,0,1-20.42,33.27,89.46,89.46,0,0,1-31.88,21.12Q380.31,686,357.6,686q-22.91,0-41.63-7.37a89.25,89.25,0,0,1-32-21.12,94.88,94.88,0,0,1-20.51-33.27q-7.28-19.51-7.28-43.83,0-24.1,7.28-43.63A93,93,0,0,1,284,503.69a90.36,90.36,0,0,1,32-20.91Q334.69,475.4,357.6,475.41Zm0,172.72q25.5,0,37.76-17.14t12.25-50.2q0-33.06-12.25-50.4T357.6,513.06q-25.89,0-38.34,17.43t-12.46,50.3q0,32.87,12.46,50.1T357.6,648.13Z" transform="translate(-2.2 -0.23)"/><path class="cls-2" d="M705.64,485.57v18.32q0,8.77-10.56,10.76L676.75,518a62.17,62.17,0,0,1,4.18,23.11A59.87,59.87,0,0,1,658,589.36a78.88,78.88,0,0,1-25.4,13.25,103.16,103.16,0,0,1-31.57,4.68,108.08,108.08,0,0,1-11.56-.6q-5.58-.6-11-1.59Q569,610.88,569,618a9.56,9.56,0,0,0,5.68,9.07q5.69,2.89,15,4.08a210.89,210.89,0,0,0,21.32,1.5q12,.3,24.5,1.29A197.29,197.29,0,0,1,660,637.47a71.87,71.87,0,0,1,21.31,7.87,41.7,41.7,0,0,1,15,14.64q5.68,9.27,5.68,23.81a56.12,56.12,0,0,1-6.67,26.29,70.59,70.59,0,0,1-19.33,22.71q-12.64,10-31.08,16T603,754.91q-23.12,0-40.24-4.49t-28.49-11.95Q523,731,517.38,721.24a40.4,40.4,0,0,1-5.58-20.32q0-14.34,8.66-24t23.81-15.44a34.28,34.28,0,0,1-12.95-11.15q-4.79-7-4.78-18.33a28.75,28.75,0,0,1,1.69-9.46,40.62,40.62,0,0,1,5-9.67,48.24,48.24,0,0,1,8.27-9.06,57.29,57.29,0,0,1,11.76-7.67,64.48,64.48,0,0,1-24.41-22.31q-8.87-14-8.86-32.67a59.92,59.92,0,0,1,23-48.31,77.2,77.2,0,0,1,25.69-13.25,115.88,115.88,0,0,1,57.08-1.89,83.93,83.93,0,0,1,21.12,7.87Zm-49,206.58a13.62,13.62,0,0,0-3.59-9.76,23.63,23.63,0,0,0-9.76-5.88,72.3,72.3,0,0,0-14.44-3.08q-8.26-1-17.53-1.5T592.18,671q-9.85-.4-19.22-1.6a46.26,46.26,0,0,0-13.25,10.76,21.88,21.88,0,0,0-5.08,14.34,19.88,19.88,0,0,0,2.69,10.06,22.49,22.49,0,0,0,8.56,8.07A50.79,50.79,0,0,0,581.13,718,117.91,117.91,0,0,0,604,719.84a116.41,116.41,0,0,0,23.7-2.09A56.89,56.89,0,0,0,644.18,712a24.79,24.79,0,0,0,9.46-8.76A21.45,21.45,0,0,0,656.63,692.15ZM601.05,575.81A46.14,46.14,0,0,0,617,573.32a31.28,31.28,0,0,0,11.26-6.87A28.17,28.17,0,0,0,635,555.89a38.61,38.61,0,0,0,2.29-13.55q0-15.14-9.06-24t-27.19-8.87q-18.13,0-27.2,8.87t-9.06,24a38,38,0,0,0,2.29,13.35,29.39,29.39,0,0,0,6.77,10.66,30.46,30.46,0,0,0,11.36,7A46.37,46.37,0,0,0,601.05,575.81Z" transform="translate(-2.2 -0.23)"/><path class="cls-2" d="M826.36,419a28,28,0,0,1-2.59,12,32.52,32.52,0,0,1-16.93,16.44,30.9,30.9,0,0,1-12.35,2.49,29.7,29.7,0,0,1-12.06-2.49A31.76,31.76,0,0,1,765.9,431a29,29,0,0,1-2.49-12,30.83,30.83,0,0,1,2.49-12.35,31.54,31.54,0,0,1,6.67-10,32.14,32.14,0,0,1,9.86-6.67,29.7,29.7,0,0,1,12.06-2.49A30.9,30.9,0,0,1,806.84,390a33.07,33.07,0,0,1,10.06,6.67,32.23,32.23,0,0,1,6.87,10A29.76,29.76,0,0,1,826.36,419Zm-6.77,59.56V683H770.18V478.59Z" transform="translate(-2.2 -0.23)"/><path class="cls-2" d="M951.47,387V683H902.26V387Z" transform="translate(-2.2 -0.23)"/><path class="cls-2" d="M1090.32,419a28.13,28.13,0,0,1-2.59,12,32.52,32.52,0,0,1-16.93,16.44,30.92,30.92,0,0,1-12.36,2.49,29.68,29.68,0,0,1-12-2.49A31.76,31.76,0,0,1,1029.86,431a28.82,28.82,0,0,1-2.49-12,30.66,30.66,0,0,1,2.49-12.35,31.54,31.54,0,0,1,6.67-10,32.14,32.14,0,0,1,9.86-6.67,29.68,29.68,0,0,1,12-2.49A30.92,30.92,0,0,1,1070.8,390a33.07,33.07,0,0,1,10.06,6.67,32.23,32.23,0,0,1,6.87,10A29.92,29.92,0,0,1,1090.32,419Zm-6.77,59.56V683h-49.41V478.59Z" transform="translate(-2.2 -0.23)"/><path class="cls-2" d="M1290.33,518.44a13.16,13.16,0,0,1-4.18,4.48,10.87,10.87,0,0,1-5.58,1.29,17.54,17.54,0,0,1-7.67-2q-4.08-2-9.46-4.48a87.18,87.18,0,0,0-12.25-4.48,58.67,58.67,0,0,0-16.24-2q-14.55,0-22.81,6.18a19.25,19.25,0,0,0-8.27,16.14,15.4,15.4,0,0,0,4.28,11,38.36,38.36,0,0,0,11.36,7.87,111.36,111.36,0,0,0,16,6.08q9,2.68,18.23,5.88t18.22,7.27a63.7,63.7,0,0,1,16,10.36,48.16,48.16,0,0,1,11.36,15q4.27,8.76,4.28,21.11a69,69,0,0,1-5.28,27.2A58.68,58.68,0,0,1,1282.76,667a73.74,73.74,0,0,1-25.6,14.15q-15.24,5.07-35.16,5.08a110.61,110.61,0,0,1-20.62-1.9,121,121,0,0,1-19.32-5.28,106.72,106.72,0,0,1-17.14-8,83.82,83.82,0,0,1-13.84-10l11.35-18.73a16,16,0,0,1,5.18-5.18,14.5,14.5,0,0,1,7.57-1.79,15.88,15.88,0,0,1,8.67,2.59q4.08,2.58,9.46,5.57a83.21,83.21,0,0,0,12.65,5.58q7.27,2.6,18.43,2.59a47.94,47.94,0,0,0,15-2.09,31.71,31.71,0,0,0,10.36-5.48,20.62,20.62,0,0,0,6-7.87,23.6,23.6,0,0,0,1.89-9.26,16.53,16.53,0,0,0-4.28-11.75,37.58,37.58,0,0,0-11.36-8,108.91,108.91,0,0,0-16.13-6.08q-9.08-2.69-18.53-5.88a169.15,169.15,0,0,1-18.53-7.47A63.21,63.21,0,0,1,1172.69,577a49.26,49.26,0,0,1-11.35-16.14q-4.29-9.57-4.28-23.11a58.72,58.72,0,0,1,5-23.91A55.88,55.88,0,0,1,1176.68,494a72.62,72.62,0,0,1,24.1-13.54q14.45-5.08,33.37-5.08,21.12,0,38.45,7t28.89,18.33Z" transform="translate(-2.2 -0.23)"/><g id="Corps"><path class="cls-3" d="M1711.38,730.22c-36.13-33.86-50.27-52.37-50.27-52.37-25.55-25.18-84.53-114.44-84.53-114.44l-12.79-8.4-37.32,31.9-8,6.87-28.79,72.66c14.73,12.44,84,49.73,84,49.73s107.55,40.4,122.16,43.17l66.43,14.34Z" transform="translate(-2.2 -0.23)"/><path id="Ventre" class="cls-4" d="M1608.49,368.44a174.66,174.66,0,0,0-47,61.34A183.79,183.79,0,0,0,1548.92,468c-6,28-11.45,59.39-13.49,80.92l-17,44.87,94.94-81.14,81.16-133.53-1.28-104.21c-4.91,11.66-14.27,24.63-26,37.91C1650,332.26,1627.74,352.22,1608.49,368.44Z" transform="translate(-2.2 -0.23)"/><path id="Aile_2" data-name="Aile 2" class="cls-5" d="M1413.32,236.9l-61.58-89.47-189.15,8.36C1193.88,167.15,1372.91,312,1372.91,312L1467.19,336l15.08-44.49,7.37-20.52Z" transform="translate(-2.2 -0.23)"/><path id="Aile_1" data-name="Aile 1" class="cls-4" d="M1626.9,250.85l-99.12-140.06c-21-29.83-47.17-45.51-82.4-55L1238.21.23c16.92,6.72,71.72,86.51,113.53,147.2,34.92,50.67,60.7,89,61.58,89.47l179.91,80.34,4.36-41.05,29.31,7.53V250.85Z" transform="translate(-2.2 -0.23)"/><path class="cls-6" d="M1715.73,104.79,1727.54,90s-70.74,8.34-92,17.42c-22.15,9.47-22,9.71-72,53.87l63.36,89.52V262l-29.31,14.23-4.36,41.05L1413.32,236.9l-61.58-89.47-189.15,8.36C1197.23,169.26,1372.91,312,1372.91,312L1467.19,336,1423,471.54l66.66,194.9,28.79-72.66,17-44.87c-.06,0,1.08-10,1.08-10-.1-.27,4.82-31.84,5-32.64.09-.48.32-1.69.46-2.54,2.1-12.81,6.24-31.83,7.11-36.31h0l.18-.89,0-.12h0a173.7,173.7,0,0,1,45.25-84.88,177.93,177.93,0,0,1,14-13.08c20-16.31,49.06-44.12,58.71-55.63,11.69-13.93,21.13-26.28,26-37.91s8.73-37.27,8.73-37.27c.15-.87.35-1.89.62-3.09l-13-85.52,12.76-33.58Z" transform="translate(-2.2 -0.23)"/><path id="Visage" class="cls-4" d="M1789.54,133l-62-42.93-11.81,14.75-13.38,10.65L1689.59,149l13,85.52c-.3,1.32-.52,2.43-.67,3.36-1.48,10.07-4.08,25-8.68,37l110.55-92.6Z" transform="translate(-2.2 -0.23)"/><polygon id="Bec" class="cls-7" points="1801.59 182.07 1787.34 132.74 1984.56 124.43 1801.59 182.07"/><path class="cls-6" d="M1535.43,548.91c-.06,0,1.08-10,1.08-10" transform="translate(-2.2 -0.23)"/></g><g id="Visage-2" data-name="Visage"><polygon class="cls-8" points="1766.74 170.29 1691.05 274.67 1801.59 182.07 1766.74 170.29"/><polygon class="cls-9" points="1787.34 132.74 1766.74 170.29 1801.59 182.07 1787.34 132.74"/><polygon class="cls-10" points="1713.53 104.56 1750.34 135.72 1738.64 147.9 1713.53 104.56"/><polygon class="cls-11" points="1713.53 104.56 1717.57 131.06 1729.39 141.05 1738.64 147.9 1713.53 104.56"/><polyline class="cls-8" points="1738.64 147.9 1766.74 170.29 1720.13 168.4 1738.65 147.89"/><polygon class="cls-8" points="1713.54 104.55 1713.53 104.56 1750.34 135.72 1725.33 89.81 1713.54 104.55"/><polygon class="cls-11" points="1703.12 146.44 1712.95 165.58 1687.39 148.79 1703.12 146.44"/><path class="cls-8" d="M1706.4,191.22l-3.8,43.32c-5.33,32.92-9.36,40.36-9.36,40.36l37.88-81.79-8.79-24.48Z" transform="translate(-2.2 -0.23)"/><polygon class="cls-12" points="1750.34 135.72 1725.33 89.81 1787.34 132.74 1750.34 135.72"/><polygon class="cls-10" points="1720.13 168.4 1728.92 192.88 1766.74 170.29 1720.13 168.4"/><polygon class="cls-11" points="1691.04 274.67 1728.92 192.88 1766.74 170.29 1691.04 274.67"/><polygon class="cls-9" points="1713.53 104.56 1700.15 115.22 1709.27 123.5 1717.57 131.06 1713.53 104.56"/><polygon class="cls-12" points="1709.27 123.5 1700.15 115.22 1687.39 148.79 1717.57 131.06 1709.27 123.5"/><polygon class="cls-10" points="1766.74 170.29 1775.28 154.73 1750.34 135.72 1766.74 170.29"/><polygon class="cls-8" points="1787.34 132.74 1750.34 135.72 1775.28 154.73 1787.34 132.74"/><polygon class="cls-11" points="1766.74 170.29 1750.34 135.72 1738.65 147.89 1766.74 170.29"/><polygon class="cls-11" points="1700.4 234.32 1687.39 148.79 1704.2 190.99 1700.4 234.32"/><polygon class="cls-11" points="1728.92 192.88 1704.2 190.99 1720.13 168.4 1728.92 192.88"/></g><g id="Oeil"><path class="cls-7" d="M1731.6,141.28l-11.84-10c-.94,4.65-1.8,10.29-2.65,17.32-.74,6-1.37,11.78-2,17.21l7.18,2.82,18.53-20.51Z" transform="translate(-2.2 -0.23)"/><polygon class="cls-13" points="1729.98 147.9 1724.5 143.8 1729.39 141.05 1729.98 147.9"/><polygon class="cls-14" points="1714.58 151.04 1729.98 147.9 1724.5 143.8 1714.58 151.04"/><polygon class="cls-13" points="1738.65 147.89 1729.98 147.9 1720.13 168.4 1738.65 147.89"/><polygon class="cls-7" points="1703.12 146.44 1712.95 165.58 1717.56 131.06 1703.12 146.44"/><polygon class="cls-15" points="1729.98 147.9 1714.58 151.04 1720.13 168.4 1729.98 147.9"/><polygon class="cls-15" points="1714.58 151.04 1703.12 146.44 1717.56 131.06 1714.58 151.04"/></g><g id="Bec-2" data-name="Bec"><polygon class="cls-15" points="1801.59 158.5 1910.09 147.89 1792.21 149.61 1801.59 158.5"/><polygon class="cls-16" points="1792.21 149.61 1821.82 131.28 1787.34 132.74 1792.21 149.61"/><path class="cls-13" d="M1803.8,158.73V182.3l66.12-20.83S1833.32,172.35,1803.8,158.73Z" transform="translate(-2.2 -0.23)"/><polygon class="cls-17" points="1792.21 149.61 1984.56 124.43 1910.09 147.89 1792.21 149.61"/><polygon class="cls-18" points="1792.21 149.61 1869.25 129.29 1933.92 131.06 1792.21 149.61"/></g><g id="Ventre-2" data-name="Ventre"><polygon class="cls-8" points="1611.17 512.41 1544.05 557.43 1516.23 593.55 1611.17 512.41"/><path class="cls-8" d="M1623.76,391.44l-29.25-9.92a190.54,190.54,0,0,1,15.88-14.76c7.28-6.07,14.84-12.68,23.64-20.71,14-12.79,26.74-26,33.17-33.24Z" transform="translate(-2.2 -0.23)"/><polygon class="cls-10" points="1547.05 466.17 1544.05 557.43 1579.46 513.46 1547.05 466.17"/><polygon class="cls-19" points="1665 391.21 1692.32 378.88 1691.05 274.67 1665 391.21"/><path class="cls-20" d="M1667.2,312.81s19.07-20.8,26-37.91l-26,116.54Z" transform="translate(-2.2 -0.23)"/><polygon class="cls-21" points="1665 391.21 1621.56 391.21 1665 312.59 1665 391.21"/><polygon class="cls-12" points="1544.05 557.43 1579.36 513.46 1611.17 512.41 1544.05 557.43"/><polygon class="cls-22" points="1638.74 450.33 1646.24 454.71 1611.17 512.41 1638.74 450.33"/><polygon class="cls-12" points="1638.74 450.33 1621.56 391.21 1579.36 513.46 1638.74 450.33"/><polygon class="cls-23" points="1611.17 512.41 1638.74 450.33 1579.36 513.46 1611.17 512.41"/><polygon class="cls-11" points="1547.05 466.17 1621.56 391.21 1579.36 513.46 1547.05 466.17"/><path class="cls-10" d="M1594.51,381.52s-2.83,2.76-7.31,8a171.62,171.62,0,0,0-25.73,40.3,182.26,182.26,0,0,0-12.21,36.62l74.5-75Z" transform="translate(-2.2 -0.23)"/><polygon class="cls-24" points="1692.32 378.88 1638.74 450.33 1665 391.21 1692.32 378.88"/><polygon class="cls-25" points="1638.74 450.33 1646.24 454.71 1692.32 378.88 1638.74 450.33"/><polygon class="cls-22" points="1665 391.21 1638.74 450.33 1621.56 391.21 1665 391.21"/><path class="cls-10" d="M1549.26,466.4s-6.17,29.25-8.55,44.22c0,0-2,12-3.38,22.1-.31,2.35-.61,4.49-.84,6.38-.77,6.24-1.06,9.81-1.06,9.81l-17,44.87,27.82-36.12Z" transform="translate(-2.2 -0.23)"/></g><g id="Corps-2" data-name="Corps"><polygon class="cls-11" points="1420.77 471.31 1516.23 593.55 1487.44 666.21 1420.77 471.31"/><polygon class="cls-10" points="1454.59 453.9 1516.23 593.55 1420.77 471.31 1454.59 453.9"/><polygon class="cls-11" points="1480.07 291.28 1454.59 453.9 1420.77 471.31 1464.99 335.77 1480.07 291.28"/><polygon class="cls-10" points="1480.07 291.28 1454.59 453.9 1516.18 283.63 1480.07 291.28"/><polygon class="cls-11" points="1454.59 453.9 1505.38 465.42 1516.23 593.55 1454.59 453.9"/><polygon class="cls-10" points="1533.22 548.68 1505.38 465.42 1516.23 593.55 1533.22 548.68"/><polygon class="cls-8" points="1454.59 453.9 1549.22 341.68 1505.38 465.42 1454.59 453.9"/><polygon class="cls-8" points="1492.07 272.85 1480.07 291.28 1516.27 283.64 1492.07 272.85"/><polygon class="cls-12" points="1505.38 465.42 1591.02 317.01 1549.22 341.68 1505.38 465.42"/><polygon class="cls-11" points="1516.18 283.63 1549.17 341.84 1454.54 454.06 1516.18 283.63"/><polygon class="cls-26" points="1516.18 283.63 1549.22 341.68 1591.02 317.01 1516.18 283.63"/><polygon class="cls-8" points="1592.31 381.3 1592.31 381.3 1591.02 317.01 1505.38 465.42 1592.31 381.3"/><polygon class="cls-12" points="1595.39 275.96 1624.7 283.49 1591.02 317.01 1595.39 275.96"/><polygon class="cls-26" points="1624.7 261.74 1624.7 283.49 1595.39 275.96 1624.7 261.74"/><polygon class="cls-24" points="1665 312.59 1624.7 250.63 1624.7 283.49 1665 312.59"/><polygon class="cls-11" points="1591.02 317.01 1624.7 283.49 1665 312.59 1591.02 317.01"/><line class="cls-27" x1="1665" y1="312.59" x2="1591.02" y2="317.01"/><path class="cls-22" d="M1701.27,104.79,1727.54,90S1711.27,91.93,1692,95c-23,3.62-35.93,6.37-44.91,8.75Z" transform="translate(-2.2 -0.23)"/><polygon class="cls-11" points="1624.7 250.63 1624.7 138.16 1700.4 234.32 1624.7 250.63"/><polygon class="cls-12" points="1658.91 132.74 1624.7 138.16 1700.4 234.32 1658.91 132.74"/><polygon class="cls-11" points="1644.85 103.49 1624.7 138.16 1658.91 132.74 1644.85 103.49"/><path class="cls-12" d="M1592.67,135.7l34.23,2.69,20.15-34.67a77.45,77.45,0,0,0-14,4.89c-5.09,2.26-11.61,4.89-16.23,8A237.26,237.26,0,0,0,1592.67,135.7Z" transform="translate(-2.2 -0.23)"/><polygon class="cls-11" points="1561.32 161.1 1595.39 157.41 1605.95 190.99 1593.16 206.06 1561.32 161.1"/><polygon class="cls-16" points="1590.47 135.47 1595.39 157.41 1624.7 138.16 1590.47 135.47"/><polygon class="cls-10" points="1605.95 190.99 1624.7 138.16 1595.39 157.41 1605.95 190.99"/><path class="cls-16" d="M1667.2,312.81c8.88-10,19.48-22.93,26-37.91,4.72-10.76,9.36-40.36,9.36-40.36l-75.7,16.31Z" transform="translate(-2.2 -0.23)"/><polygon class="cls-12" points="1605.95 190.99 1624.7 138.16 1624.7 250.63 1605.95 190.99"/><polygon class="cls-10" points="1593.16 206.06 1605.95 190.99 1624.7 250.63 1593.16 206.06"/><polygon class="cls-12" points="1644.85 103.49 1699.07 104.56 1658.91 132.74 1644.85 103.49"/><path class="cls-12" d="M1535.43,548.91s.29-3.6,1.07-9.89c.3-2.46.47-4,.83-6.3,1.64-10.25,3.38-22.1,3.38-22.1,1.19-7.41,3.43-19,5.34-28.58,1.74-8.73,3.21-15.64,3.21-15.64l-41.68-.75Z" transform="translate(-2.2 -0.23)"/><polygon class="cls-5" points="1699.07 104.56 1658.91 132.74 1700.15 115.22 1699.07 104.56"/><polygon class="cls-11" points="1699.07 104.56 1658.91 132.74 1700.15 115.22 1713.53 104.56 1699.07 104.56"/><path class="cls-11" d="M1594.51,381.52l-86.93,84.13,41.68.75c.32-1.5,1-4.18,1.33-5.67a175.61,175.61,0,0,1,36.61-71.25C1591.64,384.3,1594.51,381.52,1594.51,381.52Z" transform="translate(-2.2 -0.23)"/><polygon class="cls-12" points="1700.15 115.22 1699.07 104.56 1725.33 89.81 1713.53 104.56 1700.15 115.22"/><polygon class="cls-9" points="1687.39 148.79 1700.15 115.22 1683.81 134.39 1687.39 148.79"/><polygon class="cls-12" points="1658.91 132.64 1687.39 148.79 1683.81 134.39 1658.91 132.64"/></g><g id="Aile_2-2" data-name="Aile 2"><path class="cls-8" d="M1162.59,155.79l84.47,34.92,126.68,102.92s-114.34-82.69-177.37-120.38C1181.57,164.39,1169.22,158.43,1162.59,155.79Z" transform="translate(-2.2 -0.23)"/><polygon class="cls-11" points="1464.99 335.77 1480.07 291.28 1371.54 293.4 1464.99 335.77"/><polygon class="cls-16" points="1384.54 273 1371.54 293.4 1480.07 291.28 1384.54 273"/><polygon class="cls-11" points="1160.39 155.56 1244.86 190.48 1217.25 157.81 1160.39 155.56"/><polygon class="cls-28" points="1349.54 147.2 1217.25 157.81 1160.39 155.56 1349.54 147.2"/><polygon class="cls-10" points="1244.86 190.48 1371.54 293.4 1384.54 273 1244.86 190.48"/><polygon class="cls-11" points="1411.11 236.68 1244.86 190.48 1217.25 157.81 1411.11 236.68"/><polygon class="cls-12" points="1480.07 291.28 1411.11 236.68 1492.07 272.85 1480.07 291.28"/><polygon class="cls-11" points="1384.54 273 1480.07 291.28 1411.11 236.68 1384.54 273"/><polygon class="cls-11" points="1217.25 157.81 1347.03 182.07 1411.11 236.68 1217.25 157.81"/><polygon class="cls-24" points="1349.54 147.2 1347.03 182.07 1217.25 157.81 1349.54 147.2"/><polygon class="cls-26" points="1373.83 182.5 1347.03 182.07 1349.54 147.2 1373.83 182.5"/><polygon class="cls-8" points="1411.11 236.68 1384.54 273 1244.86 190.48 1411.11 236.68"/><polygon class="cls-12" points="1347.03 182.07 1373.83 182.5 1411.11 236.68 1347.03 182.07"/><polygon class="cls-10" points="1370.7 311.72 1371.54 293.4 1464.99 335.77 1370.7 311.72"/><path class="cls-11" d="M1372.91,312l.83-18.32-144.43-93.74s67.84,51.41,90.42,69.82C1332.89,280.44,1372.91,312,1372.91,312Z" transform="translate(-2.2 -0.23)"/></g><g id="Aile_1-2" data-name="Aile 1"><polygon class="cls-23" points="1385.54 171.83 1534.05 241.07 1411.11 236.68 1385.54 171.83"/><polygon class="cls-9" points="1595.39 275.96 1534.05 241.07 1476.71 113.72 1595.39 275.96"/><polygon class="cls-23" points="1411.11 236.68 1534.05 241.07 1595.39 275.96 1411.11 236.68"/><path class="cls-9" d="M1238.21.23a19.88,19.88,0,0,1,2,.93c3.44,1.83,12.59,7.69,37.32,25.21,6.71,4.76,27.4,18.24,27.4,18.24l99.78,21.74Z" transform="translate(-2.2 -0.23)"/><path class="cls-29" d="M1387.74,172.06,1304.9,44.61s-20.69-13.47-27.4-18.24c-20-14-34.37-24.19-39.29-26.14,0,0,3.62,1.19,10.36,8s17,18.38,32.91,39.85Z" transform="translate(-2.2 -0.23)"/><path class="cls-29" d="M1478.91,114l-174-69.34,99.78,21.74S1475.22,105.74,1478.91,114Z" transform="translate(-2.2 -0.23)"/><polygon class="cls-16" points="1476.71 113.72 1431.9 116.35 1302.69 44.38 1476.71 113.72"/><polygon class="cls-30" points="1595.39 275.96 1524.05 108.39 1624.7 261.74 1595.39 275.96"/><path class="cls-31" d="M1526.25,108.62c12.31,17.23,20.8,29.4,100.65,142.23V262Z" transform="translate(-2.2 -0.23)"/><polygon class="cls-23" points="1524.05 108.39 1476.71 113.72 1595.39 275.96 1524.05 108.39"/><polygon class="cls-29" points="1489.55 195.9 1476.71 113.72 1534.05 241.07 1489.55 195.9"/><path class="cls-16" d="M1404.68,66.35l121.57,42.27L1478.91,114s-1-2.67-11.66-10C1456.91,96.94,1437.94,85,1404.68,66.35Z" transform="translate(-2.2 -0.23)"/><polygon class="cls-22" points="1448.38 57.05 1367.43 35.27 1236.01 0 1402.48 66.12 1448.38 57.05"/><polygon class="cls-32" points="1302.69 44.38 1398.08 132.74 1402.79 118.06 1302.69 44.38"/><path class="cls-33" d="M1487.05,72.66c-14.85-8.64-27.55-12.92-41.67-16.83-2.61-.72-7.19-2-12.82-3.49-22.73-6.13-62.93-16.84-62.93-16.84l80.95,21.78,75.67,51.34A129.25,129.25,0,0,0,1487.05,72.66Z" transform="translate(-2.2 -0.23)"/><polygon class="cls-30" points="1448.38 57.05 1402.48 66.12 1524.05 108.39 1448.38 57.05"/><polygon class="cls-24" points="1489.55 195.9 1385.54 171.83 1534.05 241.07 1489.55 195.9"/><polygon class="cls-16" points="1489.55 195.9 1458.54 161.84 1385.54 171.83 1489.55 195.9"/><polygon class="cls-10" points="1476.71 113.72 1458.54 161.84 1489.55 195.9 1476.71 113.72"/><polygon class="cls-12" points="1458.54 161.84 1398.08 132.74 1385.54 171.83 1458.54 161.84"/><polygon class="cls-16" points="1476.71 113.72 1458.54 161.84 1431.9 116.35 1476.71 113.72"/><polygon class="cls-16" points="1458.54 161.84 1398.08 132.74 1402.79 118.06 1458.54 161.84"/><path class="cls-10" d="M1413.32,236.9l-25.58-64.84-103-119.68s47.53,65.74,67.37,95.52Z" transform="translate(-2.2 -0.23)"/><polygon class="cls-29" points="1431.9 116.35 1458.54 161.84 1402.79 118.06 1431.9 116.35"/><polygon class="cls-10" points="1398.08 132.74 1302.69 44.38 1385.54 171.83 1398.08 132.74"/><polygon class="cls-10" points="1431.9 116.35 1402.79 118.06 1302.69 44.38 1431.9 116.35"/></g><g id="Queue"><polygon class="cls-10" points="1524.26 586.68 1574.37 563.18 1561.59 554.78 1524.26 586.68"/><polygon class="cls-10" points="1658.91 677.62 1687.4 712.44 1658.91 712.44 1658.91 677.62"/><polygon class="cls-8" points="1658.91 712.44 1571.48 715.94 1652.73 741.78 1658.91 712.44"/><polygon class="cls-25" points="1687.4 712.44 1709.19 747.45 1658.91 712.44 1687.4 712.44"/><polygon class="cls-12" points="1652.73 741.78 1709.19 747.45 1658.91 712.44 1652.73 741.78"/><polygon class="cls-29" points="1652.73 741.78 1693.63 759.12 1760.07 773.45 1709.19 747.45 1652.73 741.78"/><polygon class="cls-12" points="1709.17 729.99 1687.4 712.44 1709.19 747.45 1717.86 751.73 1760.07 773.45 1709.17 729.99"/><path class="cls-8" d="M1711.38,730.22h0c-26.42-24.76-41.38-41.72-47.15-48.56l25.37,31Z" transform="translate(-2.2 -0.23)"/><path class="cls-8" d="M1661.8,678.71c.5.63,1.31,1.62,2.43,2.95l0-.06C1663.09,680.31,1662.3,679.34,1661.8,678.71Z" transform="translate(-2.2 -0.23)"/><path class="cls-8" d="M1661.11,677.85a1.56,1.56,0,0,1,.14.17l-.13-.17Z" transform="translate(-2.2 -0.23)"/><path class="cls-8" d="M1661.68,678.57l-.3-.39Z" transform="translate(-2.2 -0.23)"/><path class="cls-10" d="M1695.84,759.34h0L1654.93,742l-81.25-25.84S1681.23,756.57,1695.84,759.34Z" transform="translate(-2.2 -0.23)"/><polygon class="cls-11" points="1658.91 712.44 1658.91 677.62 1584.88 610.43 1658.91 712.44"/><path class="cls-8" d="M1576.58,563.41s59,89.26,84.53,114.44l-74-67.19Z" transform="translate(-2.2 -0.23)"/><polygon class="cls-34" points="1524.26 586.68 1584.88 610.43 1574.37 563.18 1524.26 586.68"/><polygon class="cls-12" points="1601.39 666.21 1584.88 610.43 1658.91 712.44 1601.39 666.21"/><polygon class="cls-10" points="1601.39 666.21 1529.89 639.94 1658.91 712.44 1601.39 666.21"/><polygon class="cls-29" points="1571.48 715.94 1529.89 639.94 1658.91 712.44 1571.48 715.94"/><polygon class="cls-23" points="1584.88 610.43 1565.64 632.44 1529.89 639.94 1601.39 666.21 1584.88 610.43"/><path class="cls-10" d="M1489.64,666.44l42.46-26.27,41.58,76S1531.66,700.17,1489.64,666.44Z" transform="translate(-2.2 -0.23)"/><polygon class="cls-29" points="1516.23 593.55 1529.89 639.94 1487.44 666.21 1516.23 593.55"/><polygon class="cls-35" points="1565.64 632.44 1529.89 639.94 1516.23 593.55 1565.64 632.44"/><polygon class="cls-12" points="1584.88 610.43 1565.64 632.44 1524.26 586.68 1584.88 610.43"/><polygon class="cls-10" points="1516.23 593.55 1524.26 586.68 1565.64 632.44 1516.23 593.55"/><polygon id="Arrière" class="cls-36" points="1574.37 563.18 1574.68 543.6 1561.59 554.78 1574.37 563.18"/></g><path class="cls-37" d="M1693.25,274.9s-5.53,15.05-26,37.91c-12.54,14-30.94,32.09-57.61,54.71-18.56,15.33-31,31.21-41.75,49.51-15.58,26.49-20.71,57-26.5,90.89-3.28,19.17-5.91,41-5.91,41l-17,44.87,94.94-81.14,81.16-133.53Z" transform="translate(-2.2 -0.23)"/><path class="cls-38" d="M1727.54,90l-11.81,14.75-13.38,10.65L1689.59,149l13,85.52s-4,27.17-9.35,40.36l110.55-92.6L1789.54,133Z" transform="translate(-2.2 -0.23)"/><path class="cls-39" d="M1494.17,273.23l-11.9,18.28L1467.19,336,1372.91,312S1257.39,218.79,1215.84,190c-19.13-13.25-45.79-33.16-53.25-34.24l186.65,26.51,26.79.43,37.29,54.17Z" transform="translate(-2.2 -0.23)"/><path class="cls-40" d="M1593.23,317.24l33.67-33.52V250.85L1526.25,108.62s-23.66-37.3-77.19-51.75S1239.12.59,1239.12.59s12.61,7.27,31.23,32.83c12.34,17.18,21.38,26.19,143,203.48Z" transform="translate(-2.2 -0.23)"/><path class="cls-41" d="M1727.54,90s-54,6.74-80.49,13.58c-27.79,7.16-43.12,21.66-83.63,57.71l63.48,89.52,40.3,62s18.32-19.68,26-37.91c5.42-13.11,9.35-40.61,9.35-40.61l-13-85.27,12.76-33.58,13.38-10.65Z" transform="translate(-2.2 -0.23)"/><path class="cls-42" d="M1489.64,271.22l-7.37,20.29-59.29,180,66.66,194.9,28.79-72.66,17-44.87s4.51-43.38,13.82-82.37c5-21,13.13-40.63,19.78-51.51a201.45,201.45,0,0,1,25.48-33.51l-1.28-64.28Z" transform="translate(-2.2 -0.23)"/><path class="cls-43" d="M1695.27,759.34l67,14.34-50.89-43.46h0c-36.13-33.86-50.27-52.37-50.27-52.37-25.55-25.18-84.53-114.44-84.53-114.44l-12.79-8.4-37.32,31.9-8,6.87-28.79,72.66c14.73,12.44,84,49.73,84,49.73s62.86,23.38,84,30.76C1686.25,756.93,1695.27,759.34,1695.27,759.34Z" transform="translate(-2.2 -0.23)"/></g></g></svg>