<?xml version="1.0" encoding="utf-8"?>
<!-- Generator: Adobe Illustrator 22.1.0, SVG Export Plug-In . SVG Version: 6.00 Build 0)  -->
<svg version="1.1" id="Calque_1" xmlns="http://www.w3.org/2000/svg" xmlns:xlink="http://www.w3.org/1999/xlink" x="0px" y="0px"
	 viewBox="0 0 145 70" style="enable-background:new 0 0 145 70;" xml:space="preserve">
<style type="text/css">
	.st0{fill:#FFFFFF;}
	.st1{opacity:0.98;}
</style>
<image style="display:none;overflow:visible;" width="144" height="70" xlink:href="4A105E9D.jpg"  transform="matrix(1 0 0 1 1 0)">
</image>
<path class="st0" d="M145,62.9c0-1.2-1-2.2-2.2-2.2c-1.2,0-2.2,1-2.2,2.2c0,1.2,1,2.2,2.2,2.2C144,65.1,145,64.1,145,62.9z
	 M142.8,64.5c-0.9,0-1.6-0.7-1.6-1.6c0-0.9,0.7-1.6,1.6-1.6s1.6,0.7,1.6,1.6C144.5,63.8,143.7,64.5,142.8,64.5z"/>
<path class="st0" d="M143.7,62.5L143.7,62.5c0-0.2-0.1-0.4-0.2-0.5c-0.1-0.1-0.3-0.2-0.6-0.2h-0.8v2.1h0.4v-0.7h0.3l0.4,0.7h0.5
	l-0.4-0.8C143.5,63.1,143.7,62.9,143.7,62.5z M143.2,62.5c0,0.2-0.1,0.3-0.3,0.3h-0.3v-0.6h0.3C143.1,62.2,143.2,62.3,143.2,62.5
	L143.2,62.5z"/>
<path class="st0" d="M15.8,56.6v-0.3c0-5.1-3.3-8.8-7.9-8.8c-4.6,0-7.9,3.8-7.9,8.8v0.3c0,5.1,3.3,8.8,7.9,8.8
	C12.4,65.4,15.8,61.7,15.8,56.6z M3.7,56.6v-0.2c0-3.2,1.7-5.6,4.2-5.6c2.5,0,4.3,2.4,4.3,5.6v0.2c0,3.2-1.7,5.6-4.2,5.6
	C5.4,62.2,3.7,59.8,3.7,56.6z"/>
<path class="st0" d="M33.3,56.7v-0.5c0-5.8-3.2-8.7-6.7-8.7c-2.5,0-4,1.4-5,3.1v-2.8h-3.7V70h3.7v-7.5c1,1.5,2.5,2.9,5,2.9
	C30,65.4,33.3,62.5,33.3,56.7z M21.5,56.6v-0.3c0-3.4,1.9-5.5,4.1-5.5c2.2,0,4,2.1,4,5.5v0.3c0,3.4-1.8,5.5-4,5.5
	C23.4,62.2,21.5,60,21.5,56.6z"/>
<path class="st0" d="M49.1,62.8l-1.9-2.3c-1.1,1.1-2.3,1.8-4,1.8c-2.2,0-4-1.6-4.3-4.4h10.8c0-0.5,0-1,0-1.3c0-5.2-2.5-9-7.1-9
	c-4.2,0-7.3,3.7-7.3,8.9v0.3c0,5.4,3.4,8.8,7.8,8.8C45.7,65.4,47.6,64.4,49.1,62.8z M42.6,50.6c2.1,0,3.4,2,3.6,4.7h-7.3
	C39.1,52.4,40.6,50.6,42.6,50.6z"/>
<path class="st0" d="M60.5,47.6c-2.3,0-3.7,1.3-4.7,2.9v-2.5h-3.7v17.2h3.7V54.7c0-2.4,1.3-3.8,3.2-3.8c1.9,0,3.1,1.3,3.1,3.7v10.5
	h3.7V53.6C65.8,49.9,63.8,47.6,60.5,47.6z"/>
<path class="st0" d="M80.5,60.2L80.5,60.2c0-2.7-2-4-4.7-5.2c-2-0.9-3.4-1.5-3.4-2.6v-0.1c0-0.9,0.8-1.7,2.2-1.7
	c1.4,0,2.8,0.6,4.1,1.5l1.6-2.7c-1.6-1.2-3.7-1.8-5.6-1.8c-3.2,0-5.7,1.9-5.7,5v0.1c0,2.8,2.1,4,4.7,5.1c2,0.9,3.4,1.4,3.4,2.7v0
	c0,1.1-0.9,1.9-2.4,1.9s-3.2-0.7-4.7-2L68.3,63c2,1.7,4.3,2.4,6.4,2.4C78,65.4,80.5,63.6,80.5,60.2z"/>
<path class="st0" d="M91.9,64.6v-3c-0.6,0.3-1.3,0.5-2,0.5c-1.2,0-1.8-0.6-1.8-1.9V51h3.9v-3.1H88v-4.6h-3.7v4.6h-1.9l0.6,3.1h1.3
	v9.9c0,3.3,1.9,4.4,4.4,4.4C90.1,65.3,91,65,91.9,64.6z"/>
<path class="st0" d="M105.9,49.4c-1.1-1.1-2.8-1.8-5.1-1.8c-2.3,0-4,0.6-5.7,1.4l1,2.9c1.1-0.5,2.5-1,4.1-1c2.3,0,3.7,1.2,3.7,3.5
	v0.7c-1.2-0.4-2.3-0.7-4-0.7c-3.6,0-6.1,1.8-6.1,5.5v0.2c0,3.3,2.4,5.3,5.3,5.3c2.2,0,3.8-1,4.8-2.4v2.1h3.6V54.4
	C107.6,52.3,107,50.6,105.9,49.4z M104.1,59.3c0,1.9-1.6,3.4-3.7,3.3c-1.6,0-2.8-1-2.8-2.7v-0.1c0-1.8,1.2-2.9,3.3-2.9
	c1.2,0,2.3,0.3,3.2,0.6V59.3z"/>
<path class="st0" d="M123.2,62.8l-2-2.4c-1,1-2,1.8-3.5,1.8c-2.5,0-4.2-2.2-4.2-5.6v-0.2c0-3.2,1.8-5.5,4.1-5.5
	c1.6,0,2.6,0.8,3.5,1.7l2-2.7c-1.4-1.4-3-2.3-5.5-2.3c-4.5,0-7.8,3.7-7.8,8.8v0.3c0,5.1,3.2,8.7,7.7,8.7
	C120.1,65.4,121.8,64.4,123.2,62.8z"/>
<g>
	<polygon class="st0" points="134.4,56.2 131.8,58.9 135.3,65.1 139.5,65.1 	"/>
	<polygon class="st0" points="135,47.9 129.2,55.4 129.2,41.7 125.5,41.7 125.5,65.1 129.2,65.1 129.2,60.1 139.4,47.9 	"/>
</g>
<g class="st1">
	<path class="st0" d="M84.7,0H55.5c-1.8,0-3.3,1.5-3.3,3.3v7.9h8.1V9.9c0-1,0.8-1.8,1.8-1.8h16.1c1,0,1.8,0.8,1.8,1.8v1.3h8.1V3.3
		C88.1,1.5,86.6,0,84.7,0z"/>
	<path class="st0" d="M79.9,25.2c0,1-0.8,1.8-1.8,1.8H62.1c-1,0-1.8-0.8-1.8-1.8v-1.3h-8.1v7.9c0,1.8,1.5,3.3,3.3,3.3h29.2
		c1.8,0,3.3-1.5,3.3-3.3v-7.9h-8.1V25.2z"/>
	<rect x="52.1" y="13.5" class="st0" width="8.1" height="8.1"/>
	<rect x="79.9" y="13.5" class="st0" width="8.1" height="8.1"/>
</g>
</svg>
