<?xml version="1.0" encoding="utf-8"?>
<!-- Generator: Adobe Illustrator 22.1.0, SVG Export Plug-In . SVG Version: 6.00 Build 0)  -->
<svg version="1.1" id="Calque_1" xmlns="http://www.w3.org/2000/svg" xmlns:xlink="http://www.w3.org/1999/xlink" x="0px" y="0px"
	 viewBox="0 0 145 70" style="enable-background:new 0 0 145 70;" xml:space="preserve">
<style type="text/css">
	.st0{fill:#FFFFFF;}
</style>
<g>
	<path class="st0" d="M76.5,13h0.1H76.5l4.3-4.3l0-0.1c-3.6-3.2-8.5-4.2-13.1-2.9c-4.6,1.4-8.1,5-9.4,9.6c0.1,0,0.2-0.1,0.2-0.1
		c1.6-1,3.5-1.6,5.4-1.6c0.7,0,1.3,0.1,1.9,0.2c0,0,0.1,0,0.1,0C68.8,10.8,73.4,10.4,76.5,13L76.5,13L76.5,13z"/>
	<path class="st0" d="M85,15.4c-0.7-2.6-2.2-4.9-4.2-6.7l-4.3,4.3c1.8,1.5,2.9,3.7,2.8,6.1v0.8c5.1,0,5.1,7.7,0,7.7h-7.7l0,0v6.1h0
		l0,0h7.7c4.4,0,8.3-2.8,9.6-7C90.3,22.4,88.7,17.8,85,15.4L85,15.4z"/>
	<path class="st0" d="M64,33.6h7.7v-6.1H64c-0.5,0-1.1-0.1-1.6-0.3L58,31.5l0,0C59.7,32.9,61.8,33.6,64,33.6L64,33.6z"/>
	<path class="st0" d="M64,13.6c-4.3,0-8,2.8-9.4,6.8c-1.4,4,0,8.5,3.4,11.1l4.5-4.5c-2.4-1.1-3-4.3-1.1-6.2c1.9-1.9,5.1-1.3,6.2,1.1
		l4.5-4.5C70.1,15.1,67.1,13.6,64,13.6L64,13.6z"/>
	<path class="st0" d="M10.1,60.7c-2.7,0-5.2-1-7.1-2.9c-1.9-1.8-3-4.4-3-7c0-2.7,1.1-5.2,3-7c1.9-1.9,4.4-3,7.1-3c2.5,0,5,1,6.8,2.8
		L15,45.5c-1.3-1.3-3.1-2-4.9-1.9c-1.9,0-3.8,0.8-5.1,2.2C3.7,47,2.9,48.9,3,50.8c0,1.9,0.7,3.7,2.1,5.1c2.8,2.8,7.3,2.8,10.1,0.1
		c0.8-0.9,1.4-2.1,1.5-3.4h-6.5v-2.8h9.2c0.1,0.6,0.1,1.1,0.1,1.7c0.1,2.4-0.7,4.7-2.4,6.4C15.2,59.8,12.7,60.8,10.1,60.7L10.1,60.7
		z M31.4,58.9c-2.6,2.4-6.6,2.4-9.1,0c-1.2-1.2-1.9-2.9-1.9-4.6c0-1.7,0.6-3.4,1.9-4.6c2.5-2.4,6.6-2.4,9.1,0
		c1.2,1.2,1.9,2.9,1.9,4.6C33.3,56,32.6,57.7,31.4,58.9L31.4,58.9L31.4,58.9z M24.3,57.1c1.4,1.5,3.7,1.5,5.1,0
		c0.7-0.7,1.1-1.7,1.1-2.8c0-1-0.4-2-1.1-2.8c-1.4-1.5-3.7-1.5-5.1,0c-0.7,0.7-1.1,1.8-1.1,2.8C23.1,55.4,23.5,56.4,24.3,57.1
		L24.3,57.1L24.3,57.1z M45.4,58.9c-2.6,2.4-6.6,2.4-9.1,0c-1.2-1.2-1.9-2.9-1.9-4.6c0-1.7,0.6-3.4,1.9-4.6c2.6-2.4,6.6-2.4,9.1,0
		c1.2,1.2,1.9,2.9,1.9,4.6C47.3,56,46.7,57.7,45.4,58.9L45.4,58.9z M38.3,57.1c1.4,1.5,3.7,1.5,5.1,0c0.7-0.7,1.1-1.7,1.1-2.8
		c0-1-0.4-2-1.1-2.8c-1.4-1.5-3.7-1.5-5.1,0c-0.7,0.7-1.1,1.8-1.1,2.8C37.2,55.4,37.6,56.4,38.3,57.1L38.3,57.1L38.3,57.1z
		 M54.6,66.5c-1.3,0-2.6-0.4-3.6-1.1c-0.9-0.7-1.6-1.6-2.1-2.7l2.5-1c0.3,0.6,0.7,1.2,1.2,1.6c0.6,0.5,1.3,0.7,2,0.7
		c0.9,0.1,1.9-0.3,2.5-1c0.7-0.8,1-1.8,0.9-2.8v-0.9H58c-0.8,1-2.1,1.5-3.4,1.5c-1.6,0-3.2-0.7-4.3-1.9c-1.2-1.2-1.9-2.8-1.8-4.5
		c0-1.7,0.6-3.4,1.8-4.6c1.1-1.2,2.7-1.9,4.3-1.9c0.7,0,1.4,0.2,2,0.4c0.5,0.2,1,0.6,1.4,1h0.1v-1h2.7v11.5c0.1,1.8-0.5,3.6-1.7,5
		C57.9,65.9,56.3,66.5,54.6,66.5L54.6,66.5z M54.8,58.2c0.9,0,1.8-0.4,2.4-1.1c0.7-0.8,1-1.8,1-2.8c0-1-0.3-2-1-2.8
		c-0.6-0.7-1.5-1.1-2.4-1.1c-1,0-1.9,0.4-2.5,1.1c-0.7,0.8-1.1,1.8-1.1,2.8c0,1,0.4,2,1.1,2.8C53,57.8,53.9,58.2,54.8,58.2
		L54.8,58.2z M65.5,60.3h-2.8V41.5h2.8V60.3L65.5,60.3z M73.2,60.7c-1.7,0-3.3-0.6-4.5-1.8c-1.2-1.2-1.9-2.9-1.8-4.6
		c-0.1-1.7,0.6-3.4,1.8-4.6c1.1-1.2,2.7-1.8,4.3-1.8c0.7,0,1.5,0.1,2.2,0.4c0.6,0.2,1.2,0.6,1.6,1.1c0.4,0.4,0.8,0.8,1.1,1.3
		c0.3,0.4,0.5,0.8,0.6,1.3l0.3,0.7l-8.6,3.5c0.5,1.2,1.8,2,3.1,1.9c1.3,0,2.5-0.7,3.2-1.8l2.2,1.5c-0.6,0.8-1.3,1.5-2.1,2
		C75.5,60.4,74.4,60.8,73.2,60.7L73.2,60.7z M69.6,54.1l5.7-2.4c-0.2-0.4-0.5-0.8-0.9-1c-0.4-0.3-1-0.4-1.5-0.4
		c-0.9,0-1.7,0.4-2.3,1C69.9,52.1,69.5,53.1,69.6,54.1L69.6,54.1z"/>
	<path class="st0" d="M93.5,60.7c-2.4,0-4.8-0.9-6.5-2.6c-1.7-1.7-2.6-4-2.6-6.5c-0.1-2.4,0.9-4.8,2.6-6.5c1.7-1.7,4-2.7,6.5-2.6
		c2.5-0.1,4.8,1,6.4,2.8l-1.6,1.5c-1.2-1.5-3-2.3-4.8-2.2c-1.8,0-3.5,0.7-4.8,1.9c-1.3,1.3-2,3.2-1.9,5c-0.1,1.9,0.6,3.7,1.9,5
		c1.3,1.3,3,2,4.8,1.9c2.1,0,4.1-0.9,5.4-2.5l1.6,1.5c-0.8,1-1.8,1.8-3,2.3C96.2,60.5,94.8,60.8,93.5,60.7L93.5,60.7z"/>
	<polygon class="st0" points="102.4,60.3 104.6,60.3 104.6,42.9 102.4,42.9 102.4,60.3 	"/>
	<path class="st0" d="M108.2,49.9c2.4-2.4,6.4-2.4,8.8,0c1.2,1.2,1.8,2.8,1.7,4.5c0.1,1.7-0.6,3.3-1.7,4.5c-2.4,2.4-6.4,2.4-8.8,0
		c-1.2-1.2-1.8-2.8-1.7-4.5C106.5,52.7,107.1,51.1,108.2,49.9L108.2,49.9z M109.9,57.5c1.5,1.6,4,1.6,5.5,0c0.8-0.8,1.2-2,1.2-3.1
		c0.1-1.2-0.4-2.3-1.2-3.1c-1.5-1.6-4-1.6-5.5,0c-0.8,0.8-1.2,2-1.2,3.1C108.7,55.5,109.1,56.7,109.9,57.5L109.9,57.5L109.9,57.5z"
		/>
	<path class="st0" d="M131.1,60.3H129v-1.7h-0.1c-0.4,0.6-0.9,1.1-1.6,1.5c-0.7,0.4-1.4,0.6-2.2,0.6c-1.3,0.1-2.5-0.4-3.4-1.4
		c-0.8-1-1.2-2.3-1.2-3.6v-7.3h2.2v6.9c0,2.2,1,3.3,2.9,3.3c0.9,0,1.7-0.4,2.3-1.1c0.6-0.7,0.9-1.6,0.9-2.6v-6.6h2.2V60.3
		L131.1,60.3z"/>
	<path class="st0" d="M138.7,60.7c-1.5,0-3-0.7-4-1.8c-1.1-1.2-1.7-2.9-1.7-4.5c0-1.7,0.6-3.3,1.7-4.5c1-1.2,2.5-1.8,4-1.8
		c0.8,0,1.7,0.2,2.4,0.6c0.7,0.3,1.2,0.8,1.6,1.5h0.1l-0.1-1.7v-5.5h2.2v17.4h-2.2v-1.7h-0.1c-0.4,0.6-1,1.1-1.6,1.5
		C140.4,60.5,139.6,60.7,138.7,60.7L138.7,60.7z M139.1,58.7c1,0,2-0.4,2.7-1.2c0.8-0.9,1.1-2,1.1-3.1c0.1-1.1-0.3-2.3-1.1-3.1
		c-1.4-1.6-3.9-1.6-5.4,0c-0.8,0.9-1.2,2-1.1,3.1c-0.1,1.1,0.3,2.3,1.1,3.1C137.1,58.3,138,58.7,139.1,58.7L139.1,58.7z"/>
</g>
</svg>
