<?xml version="1.0" encoding="utf-8"?>
<!-- Generator: Adobe Illustrator 22.1.0, SVG Export Plug-In . SVG Version: 6.00 Build 0)  -->
<svg version="1.1" id="Calque_1" xmlns="http://www.w3.org/2000/svg" xmlns:xlink="http://www.w3.org/1999/xlink" x="0px" y="0px"
	 viewBox="0 0 145 70" style="enable-background:new 0 0 145 70;" xml:space="preserve">
<style type="text/css">
	.st0{fill:#FFFFFF;}
</style>
<path class="st0" d="M46.8,26.1c-2.8,0-6,1.1-6.7,4.7c-0.1,0.4,0.2,0.6,0.4,0.6l2.9,0.3c0.3,0,0.5-0.3,0.5-0.6
	c0.2-1.2,1.3-1.8,2.4-1.8c0.6,0,1.3,0.2,1.7,0.8c0.4,0.6,0.4,1.5,0.4,2.2v0.4c-1.7,0.2-4,0.3-5.6,1c-1.9,0.8-3.2,2.5-3.2,5
	c0,3.2,1.9,4.8,4.5,4.8c2.1,0,3.3-0.5,4.9-2.2c0.5,0.8,0.7,1.2,1.7,2c0.2,0.1,0.5,0.1,0.7-0.1v0c0.6-0.5,1.7-1.5,2.3-2.1
	c0.2-0.2,0.2-0.5,0-0.8c-0.5-0.8-1.1-1.4-1.1-2.8v-4.8c0-2,0.2-3.9-1.3-5.3C50.2,26.5,48.3,26.1,46.8,26.1L46.8,26.1z M85.9,26.1
	c-2.8,0-6,1.1-6.7,4.7c-0.1,0.4,0.2,0.6,0.4,0.6l2.9,0.3c0.3,0,0.5-0.3,0.5-0.6c0.2-1.2,1.3-1.8,2.4-1.8c0.6,0,1.3,0.2,1.7,0.8
	c0.4,0.6,0.3,1.5,0.3,2.2v0.4c-1.7,0.2-4,0.3-5.6,1c-1.9,0.8-3.2,2.5-3.2,5c0,3.2,2,4.8,4.5,4.8c2.1,0,3.3-0.5,4.9-2.2
	c0.5,0.8,0.7,1.2,1.7,2c0.2,0.1,0.5,0.1,0.7-0.1v0c0.6-0.5,1.7-1.5,2.3-2.1c0.2-0.2,0.2-0.5,0-0.8c-0.5-0.8-1.1-1.4-1.1-2.8v-4.8
	c0-2,0.1-3.9-1.3-5.3C89.3,26.5,87.4,26.1,85.9,26.1L85.9,26.1z M63.9,26.3c-1.8,0-3.2,0.9-3.9,2.9h0v-2.1c0-0.3-0.3-0.5-0.5-0.5
	h-2.8c-0.3,0-0.6,0.3-0.6,0.6v15.7c0,0.3,0.3,0.5,0.5,0.5h3c0.3,0,0.6-0.3,0.6-0.6v-8.3c0-1.8-0.1-4.3,2.1-4.3
	c2.1,0,1.8,2.6,1.8,4.3v8.3c0,0.3,0.2,0.6,0.5,0.6h3c0.3,0,0.6-0.3,0.6-0.6v-8.3c0-0.9,0-2.2,0.3-3c0.3-0.8,1.1-1.3,1.8-1.3
	c0.9,0,1.5,0.3,1.7,1.4c0.1,0.6,0.1,2.3,0.1,2.9v8.3c0,0.3,0.2,0.6,0.5,0.6h3c0.3,0,0.6-0.3,0.6-0.6v-9.9c0-1.7,0.2-3.6-0.8-4.9
	c-0.8-1.2-2.2-1.7-3.5-1.7c-1.8,0-3.4,0.9-4.1,2.9C67,27.2,65.8,26.3,63.9,26.3L63.9,26.3z M114.7,26.3c-4.3,0-6.7,3.8-6.7,8.7
	c0,4.9,2.4,8.8,6.7,8.8c4.2,0,6.8-3.8,6.8-8.6C121.5,30.2,119.1,26.3,114.7,26.3L114.7,26.3z M131.7,26.3c-2.1,0-3.2,1-4.1,3.2h0
	v-2.4c-0.1-0.2-0.3-0.4-0.5-0.4h-2.8c-0.3,0-0.5,0.2-0.6,0.5v15.7c0,0.3,0.2,0.6,0.5,0.6h2.9c0.3,0,0.6-0.3,0.6-0.6v-8.5
	c0-1.1,0.1-2,0.5-3c0.3-0.8,1-1.2,1.7-1.2c2.1,0,1.9,2.5,1.9,4.2v8.5c0,0.3,0.3,0.5,0.5,0.5h3c0.3,0,0.5-0.2,0.6-0.5V33
	c0-1.5,0-3.6-0.8-4.9C134.4,26.8,133.1,26.3,131.7,26.3L131.7,26.3z M95.9,26.6c-0.3,0-0.5,0.2-0.5,0.6v2.2c0,0.3,0.2,0.6,0.5,0.6
	h5.1l-5.9,8.6c-0.4,0.6-0.4,1.2-0.4,1.6v2.3c0,0.3,0.4,0.7,0.7,0.5c3.3-1.8,7.3-1.7,10.4,0c0.4,0.2,0.7-0.2,0.7-0.5V40
	c0-0.4-0.2-0.7-0.5-0.9c-1.7-1-3.7-1.3-5.6-1.2l5.1-7.4c0.5-0.7,0.7-1.1,0.7-1.4v-1.9c0-0.3-0.2-0.6-0.5-0.6H95.9z M114.7,29.5
	c0.9,0,1.6,0.4,2,1.5c0.4,1.3,0.4,2.8,0.4,4.1c0,2-0.1,5.4-2.4,5.4c-2.3,0-2.3-4.1-2.3-6C112.4,32.6,112.5,29.5,114.7,29.5z
	 M48.4,35.3v0.7c0,1.2,0,2.2-0.5,3.3c-0.5,0.9-1.2,1.4-2.1,1.4c-1.1,0-1.8-0.9-1.8-2.2C44,35.7,46.3,35.3,48.4,35.3z M87.5,35.3v0.7
	c0,1.2,0,2.2-0.5,3.3c-0.5,0.9-1.2,1.4-2.1,1.4c-1.1,0-1.8-0.9-1.8-2.2C83.1,35.7,85.4,35.3,87.5,35.3z"/>
<path class="st0" d="M106.9,43.9v2.2h1.5v-2.2H106.9z M63,44.3v16h1.4v-1.4c0.3,0.6,0.6,1,1,1.3c0.4,0.3,0.9,0.4,1.4,0.4
	c1,0,1.9-0.5,2.7-1.6c0.8-1.1,1.2-2.6,1.2-4.6c0-1.3-0.2-2.4-0.5-3.3c-0.3-0.9-0.8-1.6-1.4-2c-0.6-0.4-1.2-0.7-1.9-0.7
	c-0.5,0-1,0.1-1.4,0.4c-0.4,0.3-0.7,0.7-1,1.2v-5.7L63,44.3L63,44.3z M77.4,48.1c-1.1,0-1.9,0.3-2.5,0.9c-0.6,0.6-0.9,1.4-0.9,2.4
	c0,0.6,0.1,1.1,0.3,1.5c0.2,0.5,0.5,0.8,0.9,1.1c0.4,0.3,1.2,0.6,2.4,1c0.8,0.3,1.3,0.5,1.5,0.7c0.3,0.3,0.5,0.6,0.5,1
	c0,0.5-0.2,1-0.5,1.3c-0.4,0.3-0.9,0.5-1.5,0.5S76.4,58.4,76,58c-0.4-0.4-0.6-1-0.7-1.8l-1.5,0.3c0.3,2.5,1.6,3.7,3.7,3.7
	c1.1,0,2-0.3,2.7-1c0.7-0.7,1-1.6,1-2.7c0-0.6-0.1-1.1-0.3-1.6c-0.2-0.4-0.5-0.8-0.9-1c-0.4-0.3-1.2-0.6-2.4-1
	c-0.9-0.3-1.4-0.6-1.6-0.7c-0.3-0.2-0.5-0.6-0.5-1c0-0.4,0.1-0.8,0.5-1.1c0.3-0.3,0.8-0.4,1.5-0.4c1.2,0,1.8,0.6,1.9,1.9l1.5-0.2
	c-0.1-0.8-0.3-1.4-0.5-1.9c-0.3-0.4-0.7-0.8-1.2-1C78.6,48.2,78,48.1,77.4,48.1L77.4,48.1z M86.6,48.1c-1.2,0-2.2,0.5-3,1.6
	c-0.8,1.1-1.2,2.6-1.2,4.6c0,1.9,0.4,3.4,1.2,4.5c0.8,1,1.8,1.5,3.1,1.5c1,0,1.8-0.3,2.5-0.9c0.7-0.6,1.2-1.6,1.4-2.8l-1.6-0.3
	c-0.4,1.6-1.3,2.4-2.4,2.4c-0.7,0-1.3-0.3-1.8-1c-0.5-0.7-0.8-1.6-0.9-2.9h6.7v-0.5c0-2-0.4-3.4-1.2-4.5
	C88.7,48.6,87.8,48.1,86.6,48.1L86.6,48.1z M95.8,48.1c-0.4,0-0.7,0.1-1,0.4c-0.3,0.3-0.6,0.8-1,1.6v-1.8h-1.4v11.6H94v-6
	c0-0.8,0.1-1.7,0.3-2.4c0.1-0.4,0.3-0.8,0.6-1c0.3-0.2,0.6-0.3,0.9-0.3c0.4,0,0.7,0.1,1.1,0.4l0.5-1.8
	C96.8,48.3,96.3,48.1,95.8,48.1L95.8,48.1z M114.4,48.1c-1.2,0-2.2,0.5-2.9,1.5c-0.8,1-1.2,2.5-1.2,4.5c0,2,0.4,3.5,1.2,4.5
	c0.8,1,1.7,1.5,2.9,1.5c1,0,1.8-0.4,2.5-1.1c0.7-0.7,1.1-1.8,1.3-3.2l-1.5-0.2c-0.1,1-0.4,1.7-0.8,2.2c-0.4,0.5-0.9,0.7-1.5,0.7
	c-0.7,0-1.4-0.3-1.8-1c-0.5-0.7-0.7-1.8-0.7-3.4c0-1.5,0.2-2.6,0.7-3.3c0.5-0.7,1.1-1.1,1.9-1.1c0.5,0,0.9,0.2,1.3,0.6
	c0.4,0.4,0.6,1,0.7,1.8l1.5-0.3c-0.2-1.2-0.6-2.1-1.2-2.8C116.1,48.4,115.3,48.1,114.4,48.1L114.4,48.1z M123,48.1
	c-1.2,0-2.2,0.5-3,1.6c-0.8,1.1-1.2,2.6-1.2,4.6c0,1.9,0.4,3.4,1.2,4.5c0.8,1,1.8,1.5,3.1,1.5c1,0,1.8-0.3,2.5-0.9
	c0.7-0.6,1.2-1.6,1.4-2.8l-1.6-0.3c-0.4,1.6-1.2,2.4-2.4,2.4c-0.7,0-1.4-0.3-1.9-1c-0.5-0.7-0.8-1.6-0.9-2.9h6.7v-0.5
	c0-2-0.4-3.4-1.2-4.5C125.1,48.6,124.2,48.1,123,48.1L123,48.1z M132,48.1c-1.1,0-1.9,0.3-2.5,0.9c-0.6,0.6-0.9,1.4-0.9,2.4
	c0,0.6,0.1,1.1,0.3,1.5c0.2,0.5,0.5,0.8,0.9,1.1c0.4,0.3,1.2,0.6,2.4,1c0.8,0.3,1.3,0.5,1.6,0.7c0.3,0.3,0.5,0.6,0.5,1
	c0,0.5-0.2,1-0.5,1.3c-0.4,0.3-0.9,0.5-1.5,0.5c-0.7,0-1.2-0.2-1.6-0.6c-0.4-0.4-0.6-1-0.7-1.8l-1.5,0.3c0.3,2.5,1.6,3.7,3.7,3.7
	c1.1,0,2.1-0.3,2.7-1c0.7-0.7,1-1.6,1-2.7c0-0.6-0.1-1.1-0.3-1.6c-0.2-0.4-0.5-0.8-0.9-1c-0.4-0.3-1.2-0.6-2.4-1
	c-0.9-0.3-1.5-0.6-1.7-0.7c-0.3-0.2-0.5-0.6-0.5-1c0-0.4,0.2-0.8,0.5-1.1c0.3-0.3,0.8-0.4,1.5-0.4c1.2,0,1.8,0.6,1.9,1.9l1.5-0.2
	c-0.1-0.8-0.3-1.4-0.5-1.9c-0.3-0.4-0.7-0.8-1.2-1C133.2,48.2,132.6,48.1,132,48.1L132,48.1z M97.4,48.3l3.4,11.6h1.4l3.4-11.6H104
	l-2,7.1c-0.2,0.9-0.5,1.6-0.6,2.2c-0.2-0.8-0.3-1.6-0.5-2.4L99,48.3L97.4,48.3L97.4,48.3z M106.9,48.3v11.6h1.5V48.3L106.9,48.3
	L106.9,48.3z M57.2,48.5c-1.2,0-2.2,0.5-2.9,1.6c-0.8,1.1-1.2,2.6-1.2,4.6c0,1.9,0.4,3.4,1.2,4.4s1.8,1.6,3.1,1.6c1,0,1.8-0.3,2.5-1
	c0.7-0.6,1.1-1.6,1.4-2.8l-1.5-0.2c-0.4,1.6-1.2,2.4-2.4,2.4c-0.7,0-1.3-0.3-1.8-1c-0.5-0.7-0.8-1.6-0.9-2.9h6.6l0-0.5
	c0-2-0.4-3.5-1.2-4.5C59.3,49,58.3,48.5,57.2,48.5L57.2,48.5z M40.1,48.7l2.7,11.6h1.6l1.8-8.9l0.3,2l1.4,6.9h1.6l2.8-11.6h-1.4
	l-1.5,6.7l-0.5,2.2l-0.5-2.2L47,48.7h-1.6l-1.4,6.8l-0.5,2.4l-0.5-2.5l-1.4-6.7L40.1,48.7L40.1,48.7z M136.7,48.9v0.5h1.5v3.9h0.6
	v-3.9h1.5v-0.5H136.7L136.7,48.9z M140.8,48.9v4.4h0.5v-3.8l1.3,3.8h0.5l1.3-3.7v3.7h0.6v-4.4h-0.8l-1,3.1c-0.1,0.3-0.2,0.5-0.2,0.7
	l-0.2-0.7l-1-3.1L140.8,48.9L140.8,48.9z M86.6,49.7c0.8,0,1.4,0.4,1.9,1.1c0.3,0.5,0.6,1.2,0.6,2.2h-5c0-1,0.3-1.8,0.8-2.4
	C85.4,50,85.9,49.7,86.6,49.7z M123,49.7c0.8,0,1.4,0.4,1.9,1.1c0.3,0.5,0.6,1.2,0.6,2.2h-5c0-1,0.3-1.8,0.8-2.4
	C121.7,50,122.3,49.7,123,49.7z M57.2,50.1c0.7,0,1.3,0.4,1.8,1.1c0.3,0.5,0.6,1.2,0.6,2.2h-4.9c0-1,0.3-1.8,0.8-2.4
	C55.9,50.4,56.5,50.1,57.2,50.1z M66.8,50.1c0.7,0,1.2,0.4,1.7,1.1c0.5,0.7,0.7,1.8,0.7,3.3c0,1.5-0.2,2.6-0.7,3.3
	c-0.5,0.7-1,1.1-1.7,1.1c-0.5,0-0.9-0.2-1.2-0.5c-0.4-0.3-0.6-0.8-0.9-1.4s-0.3-1.5-0.3-2.7c0-1.4,0.3-2.5,0.7-3.2
	C65.6,50.5,66.2,50.1,66.8,50.1L66.8,50.1z"/>
<path class="st0" d="M18.4,37.8l-5.8,2.5l5.4,2.3l6.2-2.3L18.4,37.8z M9.7,40.9L9.5,52.1l8.5,3.7V44.2L9.7,40.9L9.7,40.9z
	 M27.1,40.9l-7.6,2.9v10.9l7.6-3.1V40.9L27.1,40.9z M36.2,6.2l-5.8,2.5l5.4,2.3L42,8.6L36.2,6.2L36.2,6.2z M28.1,9.5v11.2l7.2,2.1
	l0.2-10.2L28.1,9.5z M44.3,10.1L37.4,13v11l6.8-3.1V10.1z M8.9,21.9l-5.8,2.5l5.4,2.3l6.2-2.3L8.9,21.9L8.9,21.9z M0.2,25L0,36.2
	l8.5,3.7V28.3L0.2,25z M17.6,25l-7.6,2.9v10.9l7.6-3.1V25z M27.5,21.5L21.7,24l5.4,2.3l6.2-2.3L27.5,21.5L27.5,21.5z M18.8,24.6
	l-0.2,11.2l8.5,3.7V27.9L18.8,24.6z M36.2,24.6l-7.6,2.9v10.9l7.6-3.1V24.6z M54.4,6.2l-5.8,2.5l5.4,2.3l6.2-2.3
	C60.2,8.6,54.4,6.2,54.4,6.2z M45.7,9.3l-0.2,11.2l8.5,3.7V12.6L45.7,9.3L45.7,9.3z M63.1,9.3l-7.6,2.9v10.9l7.6-3.1V9.3L63.1,9.3z"
	/>
</svg>
