<svg xmlns="http://www.w3.org/2000/svg" xmlns:xlink="http://www.w3.org/1999/xlink" viewBox="0 0 102.407 102.407">
  <defs>
    <style>
      .cls-1 {
        fill: #fcfcfc;
      }

      .cls-11, .cls-13, .cls-14, .cls-2, .cls-3, .cls-4, .cls-5, .cls-6, .cls-7 {
        fill-rule: evenodd;
      }

      .cls-2 {
        fill: url(#linear-gradient);
      }

      .cls-3 {
        fill: url(#linear-gradient-2);
      }

      .cls-4 {
        fill: url(#linear-gradient-3);
      }

      .cls-5 {
        fill: url(#linear-gradient-4);
      }

      .cls-6 {
        fill: url(#linear-gradient-5);
      }

      .cls-7 {
        fill: url(#linear-gradient-6);
      }

      .cls-8 {
        clip-path: url(#clip-path);
      }

      .cls-12, .cls-9 {
        fill: none;
      }

      .cls-9 {
        opacity: 0.13;
      }

      .cls-10 {
        clip-path: url(#clip-path-2);
      }

      .cls-11 {
        fill: url(#linear-gradient-9);
      }

      .cls-12 {
        opacity: 0.47;
      }

      .cls-13 {
        fill: url(#linear-gradient-10);
      }

      .cls-14 {
        fill: #fff;
      }
    </style>
    <linearGradient id="linear-gradient" x1="0.208" y1="-0.897" x2="0.666" y2="-1.618" gradientUnits="objectBoundingBox">
      <stop offset="0" stop-color="#bf0269"/>
      <stop offset="1" stop-color="#fc6719"/>
    </linearGradient>
    <linearGradient id="linear-gradient-2" x1="0.25" y1="-1.499" x2="0.757" y2="-2.374" xlink:href="#linear-gradient"/>
    <linearGradient id="linear-gradient-3" x1="0.264" y1="-2.549" x2="0.716" y2="-3.356" xlink:href="#linear-gradient"/>
    <linearGradient id="linear-gradient-4" x1="0.041" y1="-1.474" x2="0.887" y2="-1.474" gradientUnits="objectBoundingBox">
      <stop offset="0" stop-color="#7a9fb4"/>
      <stop offset="1" stop-color="#00c9b4"/>
    </linearGradient>
    <linearGradient id="linear-gradient-5" x1="-0.122" y1="-1.548" x2="0.714" y2="-1.548" xlink:href="#linear-gradient-4"/>
    <linearGradient id="linear-gradient-6" x1="-0.031" y1="-0.481" x2="0.779" y2="-0.481" xlink:href="#linear-gradient-4"/>
    <clipPath id="clip-path">
      <path id="Tracé_30191" data-name="Tracé 30191" d="M159.917,217.6s1.263,1.946,3.584.375c2.321-1.6,10.616-16.692,8.636-25.977-8.67,10.787-17.785,16.317-20.038,17.034a17.416,17.416,0,0,1,7.817,8.568Z" transform="translate(-152.1 -192)"/>
    </clipPath>
    <clipPath id="clip-path-2">
      <path id="Tracé_30193" data-name="Tracé 30193" d="M79.261,159.028s-2.151-.853-1.058-3.448c1.126-2.56,14.337-13.654,23.827-13.484-8.909,10.616-12.562,20.618-12.835,22.939a17.845,17.845,0,0,0-9.934-6.008Z" transform="translate(-77.893 -142.094)"/>
    </clipPath>
    <linearGradient id="linear-gradient-9" x1="-0.093" y1="-3.763" x2="1.056" y2="-3.763" gradientUnits="objectBoundingBox">
      <stop offset="0" stop-color="#4d3933"/>
      <stop offset="1" stop-color="#3d113c"/>
    </linearGradient>
    <linearGradient id="linear-gradient-10" x1="-0.481" y1="-2.697" x2="0.52" y2="-2.697" gradientUnits="objectBoundingBox">
      <stop offset="0" stop-color="#174575"/>
      <stop offset="1" stop-color="#3d113c"/>
    </linearGradient>
  </defs>
  <g id="rocket" transform="translate(-6.418 -8.568)">
    <rect id="Rectangle_903" data-name="Rectangle 903" class="cls-1" width="102.407" height="102.407" transform="translate(6.418 8.568)"/>
    <g id="Groupe_1511" data-name="Groupe 1511">
      <g id="Groupe_1510" data-name="Groupe 1510" transform="translate(26.59 29.63)">
        <g id="Groupe_1506" data-name="Groupe 1506">
          <path id="Tracé_30184" data-name="Tracé 30184" class="cls-2" d="M78.1,234.818l7.817-4.438-3.243,8.193,19.15-14.474-12.05-9.9Z" transform="translate(-78.03 -170.711)"/>
          <path id="Tracé_30185" data-name="Tracé 30185" class="cls-3" d="M98.878,215.3l11.3,9.285-14.439,9.49.614-5.5L91.3,230.49Z" transform="translate(-86.724 -171.435)"/>
          <path id="Tracé_30186" data-name="Tracé 30186" class="cls-4" d="M104.4,226.7l3.96-.888.171,4.3,9.148-5.564-9.66-7.954Z" transform="translate(-95.352 -172.292)"/>
          <path id="Tracé_30187" data-name="Tracé 30187" class="cls-5" d="M159.917,217.6s1.263,1.946,3.584.375c2.321-1.6,10.616-16.692,8.636-25.977-8.67,10.787-17.785,16.317-20.038,17.034a17.416,17.416,0,0,1,7.817,8.568Z" transform="translate(-126.769 -156.089)"/>
          <path id="Tracé_30188" data-name="Tracé 30188" class="cls-6" d="M80.161,159.328s-2.151-.853-1.058-3.448c1.126-2.56,14.337-13.654,23.827-13.484-8.909,10.616-12.562,20.618-12.835,22.939a17.924,17.924,0,0,0-9.934-6.008Z" transform="translate(-78.486 -123.417)"/>
          <g id="Groupe_1497" data-name="Groupe 1497" transform="translate(11.13)">
            <path id="Tracé_30189" data-name="Tracé 30189" class="cls-7" d="M110.5,128.207l14.269,11.743c.034.717,33.214-17.955,31.746-53.149-7.612,3.072-32.941,6.247-46.015,41.407Z" transform="translate(-110.5 -86.8)"/>
          </g>
          <g id="Groupe_1500" data-name="Groupe 1500" transform="translate(25.331 35.911)">
            <g id="Groupe_1499" data-name="Groupe 1499" class="cls-8">
              <rect id="Rectangle_905" data-name="Rectangle 905" class="cls-9" width="53.743" height="60.871" transform="translate(-17.99 -39.721)"/>
              <g id="Groupe_1498" data-name="Groupe 1498" transform="translate(-14.2 -35.911)">
                <path id="Tracé_30190" data-name="Tracé 30190" class="cls-7" d="M110.5,128.207l14.269,11.743c.034.717,33.214-17.955,31.746-53.149-7.612,3.072-32.941,6.247-46.015,41.407Z" transform="translate(-110.5 -86.8)"/>
              </g>
            </g>
          </g>
          <g id="Groupe_1503" data-name="Groupe 1503" transform="translate(0 18.875)">
            <g id="Groupe_1502" data-name="Groupe 1502" class="cls-10">
              <rect id="Rectangle_906" data-name="Rectangle 906" class="cls-9" width="53.743" height="60.871" transform="translate(7.341 -22.685)"/>
              <g id="Groupe_1501" data-name="Groupe 1501" transform="translate(11.13 -18.875)">
                <path id="Tracé_30192" data-name="Tracé 30192" class="cls-7" d="M110.5,128.207l14.269,11.743c.034.717,33.214-17.955,31.746-53.149-7.612,3.072-32.941,6.247-46.015,41.407Z" transform="translate(-110.5 -86.8)"/>
              </g>
            </g>
          </g>
          <path id="Tracé_30194" data-name="Tracé 30194" class="cls-11" d="M112.137,209.5,112,211.139l11.572,9.456,1.639-.341Z" transform="translate(-100.357 -167.615)"/>
          <g id="Groupe_1505" data-name="Groupe 1505" transform="translate(33.162 6.691)">
            <rect id="Rectangle_907" data-name="Rectangle 907" class="cls-12" width="20.318" height="20.318"/>
            <g id="Groupe_1504" data-name="Groupe 1504" transform="translate(1.918 1.965)">
              <path id="Tracé_30195" data-name="Tracé 30195" class="cls-13" d="M194.054,114.016a8.2,8.2,0,1,0,1.126,11.538,8.219,8.219,0,0,0-1.126-11.538Z" transform="translate(-180.659 -112.159)"/>
            </g>
          </g>
          <path id="Tracé_30196" data-name="Tracé 30196" class="cls-14" d="M197.175,120.449a5.846,5.846,0,1,1-8.227.819,5.85,5.85,0,0,1,8.227-.819Z" transform="translate(-150.168 -108.092)"/>
        </g>
      </g>
    </g>
  </g>
</svg>
